<?xml version="1.0" encoding="UTF-8"?>
<svg viewBox="-14.9999847601644 -42.9546400685251 30 46.3637338350852" xmlns="http://www.w3.org/2000/svg" xmlns:xlink="http://www.w3.org/1999/xlink" xmlns:gmsvgsym="http://www.intergraph.com/GeoMedia/svgsym">
  <!-- Creator: SVG Document for Symbols-->
  <path id="LineString2d_1351" style=" stroke-width: 0.0000010000;stroke: #ffffff; fill: none; " d="M 8.86364343841049 3.40909352526269 L -3.40909325253521 3.40909352526269 L -3.40909325253521 -10.4491671551569 L -5.45450982220794 -10.2274420304574 L -7.92506530904552 -10.5526947800596 L -10.2272563030422 -11.5062937845881 L -12.2041911383432 -13.0232520396258 L -13.7211436661038 -15.0001900112928 L -14.6747361251727 -17.3023811416532 L -14.9999831474977 -19.772933355761 L -14.6747220797074 -22.2434790244093 L -13.7211193933579 -24.5456599274891 L -12.2041630474125 -26.5225838536908 L -10.2272320302963 -28.0395280632632 L -9.83176545408408 -28.25556709269 L -10.0167503687706 -29.9486978920152 L -9.7443737506552 -31.9973959187516 L -8.94685518408618 -33.9025843353573 L -7.68140621296824 -35.5315831309215 L -6.13552111754995 -36.7163268582873 L -5.92729191229827 -38.4064148370956 L -5.3142775782287 -39.886401881943 L -4.33909832986659 -41.1573013117892 L -3.06821021821096 -42.1325003328937 L -1.58822317336348 -42.7455375760718 L 1.7727286331366E-06 -42.9546332365338 L 1.58822658245701 -42.7455368942531 L 3.06821308184952 -42.1324992419838 L 4.33910051168644 -41.1573000845155 L 5.31427921459359 -39.8864007910331 L 5.92729313957194 -38.4064142916406 L 6.1357114813324 -36.7284465948608 L 7.74117880429285 -35.4930580559025 L 8.98724598780975 -33.8691506733364 L 9.77055627074792 -31.9780708584668 L 10.0312465162587 -29.9486951647404 L 9.85058678670958 -28.2458444943197 L 10.3007724503683 -27.9966494394486 L 12.2531484486408 -26.4732717249391 L 13.745607866696 -24.5030450311497 L 14.681303266576 -22.2189017782757 L 15.0000139657032 -19.7729306284862 L 14.681303266576 -17.3269534786921 L 13.7456296848946 -15.0428009530838 L 12.2042403656537 -13.0232581759942 L 10.3007944049306 -11.5491713174927 L 8.01665483387768 -10.5777164356251 L 5.55280462491306 -10.2274393031826 L 3.40909325253521 -10.449173973344 L 3.40909325253521 -3.40909352526269 L 8.86364343841049 -3.40909352526269 L 8.86364343841049 3.40909352526269 " xmlns="http://www.w3.org/2000/svg" />
  <g id="ComplexString2d_1352" style=" fill-rule: evenodd; stroke-width: 0.0000000000;stroke: #ffffff; fill: #ffffff; " xmlns="http://www.w3.org/2000/svg">
    <path d="M 8.86364343841049 3.40909352526269 L -3.40909325253521 3.40909352526269 L -3.40909325253521 -10.4491671551569 L -5.45450982220794 -10.2274420304574 L -7.92506530904552 -10.5526947800596 L -10.2272563030422 -11.5062937845881 L -12.2041911383432 -13.0232520396258 L -13.7211436661038 -15.0001900112928 L -14.6747361251727 -17.3023811416532 L -14.9999831474977 -19.772933355761 L -14.6747220797074 -22.2434790244093 L -13.7211193933579 -24.5456599274891 L -12.2041630474125 -26.5225838536908 L -10.2272320302963 -28.0395280632632 L -9.83176545408408 -28.25556709269 L -10.0167503687706 -29.9486978920152 L -9.7443737506552 -31.9973959187516 L -8.94685518408618 -33.9025843353573 L -7.68140621296824 -35.5315831309215 L -6.13552111754995 -36.7163268582873 L -5.92729191229827 -38.4064148370956 L -5.3142775782287 -39.886401881943 L -4.33909832986659 -41.1573013117892 L -3.06821021821096 -42.1325003328937 L -1.58822317336348 -42.7455375760718 L 1.7727286331366E-06 -42.9546332365338 L 1.58822658245701 -42.7455368942531 L 3.06821308184952 -42.1324992419838 L 4.33910051168644 -41.1573000845155 L 5.31427921459359 -39.8864007910331 L 5.92729313957194 -38.4064142916406 L 6.1357114813324 -36.7284465948608 L 7.74117880429285 -35.4930580559025 L 8.98724598780975 -33.8691506733364 L 9.77055627074792 -31.9780708584668 L 10.0312465162587 -29.9486951647404 L 9.85058678670958 -28.2458444943197 L 10.3007724503683 -27.9966494394486 L 12.2531484486408 -26.4732717249391 L 13.745607866696 -24.5030450311497 L 14.681303266576 -22.2189017782757 L 15.0000139657032 -19.7729306284862 L 14.681303266576 -17.3269534786921 L 13.7456296848946 -15.0428009530838 L 12.2042403656537 -13.0232581759942 L 10.3007944049306 -11.5491713174927 L 8.01665483387768 -10.5777164356251 L 5.55280462491306 -10.2274393031826 L 3.40909325253521 -10.449173973344 L 3.40909325253521 -3.40909352526269 L 8.86364343841049 -3.40909352526269 L 8.86364343841049 3.40909352526269 " />
  </g>
</svg>