<?xml version="1.0" encoding="UTF-8" standalone="no"?>
<svg
   xmlns:dc="http://purl.org/dc/elements/1.1/"
   xmlns:cc="http://creativecommons.org/ns#"
   xmlns:rdf="http://www.w3.org/1999/02/22-rdf-syntax-ns#"
   xmlns:svg="http://www.w3.org/2000/svg"
   xmlns="http://www.w3.org/2000/svg"
   xmlns:sodipodi="http://sodipodi.sourceforge.net/DTD/sodipodi-0.dtd"
   xmlns:inkscape="http://www.inkscape.org/namespaces/inkscape"
   viewBox="-15.000311 -15.000096 7.1546873 7.1546873"
   id="svg2"
   version="1.1"
   inkscape:version="0.48.3.1 r9886"
   width="100%"
   height="100%"
   sodipodi:docname="0010_813.svg">
  <metadata
     id="metadata16">
    <rdf:RDF>
      <cc:Work
         rdf:about="">
        <dc:format>image/svg+xml</dc:format>
        <dc:type
           rdf:resource="http://purl.org/dc/dcmitype/StillImage" />
      </cc:Work>
    </rdf:RDF>
  </metadata>
  <defs
     id="defs14" />
  <sodipodi:namedview
     pagecolor="#ffffff"
     bordercolor="#666666"
     borderopacity="1"
     objecttolerance="10"
     gridtolerance="10"
     guidetolerance="10"
     inkscape:pageopacity="0"
     inkscape:pageshadow="2"
     inkscape:window-width="1357"
     inkscape:window-height="826"
     id="namedview12"
     showgrid="false"
     inkscape:showpageshadow="false"
     fit-margin-top="0"
     fit-margin-left="0"
     fit-margin-right="0"
     fit-margin-bottom="0"
     inkscape:zoom="49.013815"
     inkscape:cx="4.3242559"
     inkscape:cy="3.7173428"
     inkscape:window-x="336"
     inkscape:window-y="49"
     inkscape:window-maximized="0"
     inkscape:current-layer="svg2" />
  <!-- Creator: SVG Document for Symbols-->
  <g
     id="g3763"
     transform="matrix(0.2375,0,0,0.2375,-11.422967,-11.422752)">
    <path
       d="M 14.999688,0 14.871372,1.9579015 14.488595,3.882307 13.857906,5.7402853 12.990096,7.5000498 11.900013,9.1314843 10.606308,10.60668 9.1311198,11.900388 7.4996844,12.990479 5.7399245,13.858295 3.8819415,14.488991 1.957537,14.871774 -3.7199996e-4,15.000095 -1.9582735,14.871759 -3.8826772,14.488961 -5.7406459,13.858253 -7.5003977,12.990426 -9.1318149,11.900331 -10.60699,10.606618 -11.900678,9.1314276 -12.990747,7.4999967 -13.858545,5.7402439 -14.489225,3.8822763 -14.871995,1.9578862 -15.000309,0 l 9.749985,0 0,0.75009231 -8.229136,0 0.09463,1.01200459 0.344492,1.7319509 0.56761,1.6721709 0.781017,1.5837781 0.981061,1.4682888 0.648807,0.7826762 5.8188747,-5.8188743 1.06066,1.0606601 -5.8188745,5.8188744 0.7825081,0.648679 1.4682749,0.981087 1.5837771,0.781046 1.6721719,0.567638 1.7319646,0.34452 1.01216764,0.09465 0,-8.2291267 1.49999982,0 0,8.2291277 1.01206444,-0.09464 1.7319653,-0.344504 1.6721865,-0.567628 1.583785,-0.781034 1.4682933,-0.981083 0.7825734,-0.648728 -5.8188821,-5.8188824 1.0606601,-1.0606601 5.8188828,5.8188827 0.648771,-0.7826281 0.981075,-1.4682922 0.781029,-1.5837897 0.56762,-1.6721816 0.344498,-1.7319664 0.09463,-1.01201989 -8.229147,0 0,-0.75009231 9.749996,0"
       style="fill:none;stroke:#8c8c8c;stroke-width:0.000001"
       id="LineString2d_1332"
       inkscape:connector-curvature="0" />
    <g
       style="fill:#a7a8aa;fill-opacity:1;fill-rule:evenodd;stroke:none"
       id="ComplexString2d_1333">
      <path
         style="fill:#a7a8aa;fill-opacity:1;stroke:none"
         id="path6"
         d="M 14.999688,0 14.871372,1.9579015 14.488595,3.882307 13.857906,5.7402853 12.990096,7.5000498 11.900013,9.1314843 10.606308,10.60668 9.1311198,11.900388 7.4996844,12.990479 5.7399245,13.858295 3.8819415,14.488991 1.957537,14.871774 -3.7199996e-4,15.000095 -1.9582735,14.871759 -3.8826772,14.488961 -5.7406459,13.858253 -7.5003977,12.990426 -9.1318149,11.900331 -10.60699,10.606618 -11.900678,9.1314276 -12.990747,7.4999967 -13.858545,5.7402439 -14.489225,3.8822763 -14.871995,1.9578862 -15.000309,0 l 9.749985,0 0,0.75009231 -8.229136,0 0.09463,1.01200459 0.344492,1.7319509 0.56761,1.6721709 0.781017,1.5837781 0.981061,1.4682888 0.648807,0.7826762 5.8188747,-5.8188743 1.06066,1.0606601 -5.8188745,5.8188744 0.7825081,0.648679 1.4682749,0.981087 1.5837771,0.781046 1.6721719,0.567638 1.7319646,0.34452 1.01216764,0.09465 0,-8.2291267 1.49999982,0 0,8.2291277 1.01206444,-0.09464 1.7319653,-0.344504 1.6721865,-0.567628 1.583785,-0.781034 1.4682933,-0.981083 0.7825734,-0.648728 -5.8188821,-5.8188824 1.0606601,-1.0606601 5.8188828,5.8188827 0.648771,-0.7826281 0.981075,-1.4682922 0.781029,-1.5837897 0.56762,-1.6721816 0.344498,-1.7319664 0.09463,-1.01201989 -8.229147,0 0,-0.75009231 9.749996,0"
         inkscape:connector-curvature="0" />
    </g>
    <path
       d="m -15.000309,0 0.128316,-1.9579015 0.382777,-1.9244055 0.630688,-1.8579783 0.867811,-1.7597645 1.090082,-1.6314345 1.293706,-1.4751957 1.4751881,-1.293708 1.6314353,-1.090091 1.7597599,-0.867816 1.8579829,-0.630696 1.9244047,-0.382783 1.95790895003,-0.128321 1.95790144997,0.128336 1.9244038,0.382798 1.8579685,0.630708 1.7597518,0.867827 1.6314172,1.090095 1.4751754,1.293713 1.293688,1.4751904 1.090069,1.6314309 0.867798,1.7597528 0.630679,1.8579676 0.382771,1.9243901 L 14.999688,0 5.2497028,0 l 0,-0.75009231 8.2291362,0 -0.09463,-1.01200459 -0.344492,-1.7319509 -0.56761,-1.6721709 -0.781017,-1.5837781 -0.981061,-1.4682888 -0.648808,-0.7826762 -5.8188739,5.8188743 -1.0606601,-1.0606601 5.8188746,-5.8188744 -0.782508,-0.648679 -1.4682751,-0.981087 -1.583777,-0.781046 -1.672172,-0.567638 -1.7319645,-0.34452 -1.01216759,-0.09465 0,8.2291267 -1.49999982,0 0,-8.2291277 -1.01206459,0.09464 -1.7319652,0.344504 -1.6721864,0.567628 -1.5837851,0.781034 -1.4682932,0.981083 -0.7825735,0.648728 5.818882,5.8188824 -1.0606601,1.0606601 -5.8188825,-5.8188827 -0.648772,0.7826281 -0.981074,1.4682922 -0.78103,1.5837897 -0.567619,1.6721816 -0.344498,1.7319664 -0.09463,1.01201989 8.2291468,0 0,0.75009231 -9.7499958,0"
       style="fill:none;stroke:#8c8c8c;stroke-width:0.000001"
       id="LineString2d_1334"
       inkscape:connector-curvature="0" />
    <g
       style="fill:#a7a8aa;fill-opacity:1;fill-rule:evenodd;stroke:none"
       id="ComplexString2d_1335">
      <path
         style="fill:#a7a8aa;fill-opacity:1;stroke:none"
         id="path10"
         d="m -15.000309,0 0.128316,-1.9579015 0.382777,-1.9244055 0.630688,-1.8579783 0.867811,-1.7597645 1.090082,-1.6314345 1.293706,-1.4751957 1.4751881,-1.293708 1.6314353,-1.090091 1.7597599,-0.867816 1.8579829,-0.630696 1.9244047,-0.382783 1.95790895003,-0.128321 1.95790144997,0.128336 1.9244038,0.382798 1.8579685,0.630708 1.7597518,0.867827 1.6314172,1.090095 1.4751754,1.293713 1.293688,1.4751904 1.090069,1.6314309 0.867798,1.7597528 0.630679,1.8579676 0.382771,1.9243901 L 14.999688,0 5.2497028,0 l 0,-0.75009231 8.2291362,0 -0.09463,-1.01200459 -0.344492,-1.7319509 -0.56761,-1.6721709 -0.781017,-1.5837781 -0.981061,-1.4682888 -0.648808,-0.7826762 -5.8188739,5.8188743 -1.0606601,-1.0606601 5.8188746,-5.8188744 -0.782508,-0.648679 -1.4682751,-0.981087 -1.583777,-0.781046 -1.672172,-0.567638 -1.7319645,-0.34452 -1.01216759,-0.09465 0,8.2291267 -1.49999982,0 0,-8.2291277 -1.01206459,0.09464 -1.7319652,0.344504 -1.6721864,0.567628 -1.5837851,0.781034 -1.4682932,0.981083 -0.7825735,0.648728 5.818882,5.8188824 -1.0606601,1.0606601 -5.8188825,-5.8188827 -0.648772,0.7826281 -0.981074,1.4682922 -0.78103,1.5837897 -0.567619,1.6721816 -0.344498,1.7319664 -0.09463,1.01201989 8.2291468,0 0,0.75009231 -9.7499958,0"
         inkscape:connector-curvature="0" />
    </g>
  </g>
</svg>
