<?xml version="1.0" encoding="UTF-8"?>
<svg viewBox="-15 -14.1345739504085 30 17.3076508321546" xmlns="http://www.w3.org/2000/svg" xmlns:xlink="http://www.w3.org/1999/xlink" xmlns:gmsvgsym="http://www.intergraph.com/GeoMedia/svgsym">
  <!-- Creator: SVG Document for Symbols-->
  <path id="LineString2d_1342" style=" stroke-width: 0.0000010000;stroke: #ffffff; fill: none; " d="M -2.88461407998308 3.17307663028897 L -14.9999986159115 3.17307663028897 L -14.9999986159115 -3.17307663028897 L -9.1445385792868 -3.17307663028897 L -9.06032108705777 -3.87010014289589 L -8.51090506083072 -6.35616564426946 L -7.46521846501122 -8.90760794730284 L -5.73925689350091 -11.3830691419626 L -3.19117505169591 -13.3519983833613 L -6.69230707479128E-06 -14.134572657305 L 3.19116351323543 -13.352005767976 L 5.73924997042463 -11.3830803342692 L 7.46521592654992 -8.90761879345569 L 8.51090575313835 -6.3561738365764 L 9.06032362551907 -3.87010441212627 L 9.14454181005573 -3.17307663028897 L 14.9999986159115 -3.17307663028897 L 14.9999986159115 3.17307663028897 L 2.88461615690596 3.17307663028897 L 2.88461615690596 -1.4422939438389 L 2.83317770011386 -2.20154564301156 L 2.66672421547295 -2.98203399407081 L 2.34727178341119 -3.78967465031696 L 1.81328325576061 -4.58310650018188 L 1.01313129113115 -5.22347894109307 L -6.69230707479128E-06 -5.48075510966123 L -1.01314294497623 -5.22347178724758 L -1.81329052499071 -4.58309600018285 L -2.34727501418012 -3.78966438108714 L -2.66672444624216 -2.9820263786869 L -2.8331763154986 -2.201541719935 L -2.88461407998308 3.17307663028897 " xmlns="http://www.w3.org/2000/svg" />
  <g id="ComplexString2d_1343" style=" fill-rule: evenodd; stroke-width: 0.0000000000;stroke: #ffffff; fill: #ffffff; " xmlns="http://www.w3.org/2000/svg">
    <path d="M -2.88461407998308 3.17307663028897 L -14.9999986159115 3.17307663028897 L -14.9999986159115 -3.17307663028897 L -9.1445385792868 -3.17307663028897 L -9.06032108705777 -3.87010014289589 L -8.51090506083072 -6.35616564426946 L -7.46521846501122 -8.90760794730284 L -5.73925689350091 -11.3830691419626 L -3.19117505169591 -13.3519983833613 L -6.69230707479128E-06 -14.134572657305 L 3.19116351323543 -13.352005767976 L 5.73924997042463 -11.3830803342692 L 7.46521592654992 -8.90761879345569 L 8.51090575313835 -6.3561738365764 L 9.06032362551907 -3.87010441212627 L 9.14454181005573 -3.17307663028897 L 14.9999986159115 -3.17307663028897 L 14.9999986159115 3.17307663028897 L 2.88461615690596 3.17307663028897 L 2.88461615690596 -1.4422939438389 L 2.83317770011386 -2.20154564301156 L 2.66672421547295 -2.98203399407081 L 2.34727178341119 -3.78967465031696 L 1.81328325576061 -4.58310650018188 L 1.01313129113115 -5.22347894109307 L -6.69230707479128E-06 -5.48075510966123 L -1.01314294497623 -5.22347178724758 L -1.81329052499071 -4.58309600018285 L -2.34727501418012 -3.78966438108714 L -2.66672444624216 -2.9820263786869 L -2.8331763154986 -2.201541719935 L -2.88461407998308 3.17307663028897 " />
  </g>
</svg>