<?xml version="1.0" encoding="UTF-8"?>
<svg viewBox="-14.9999956632443 -15.0000004818617 30 30.0000009637235" xmlns="http://www.w3.org/2000/svg" xmlns:xlink="http://www.w3.org/1999/xlink" xmlns:gmsvgsym="http://www.intergraph.com/GeoMedia/svgsym">
  <!-- Creator: SVG Document for Symbols-->
  <path id="LineString2d_1235" style=" stroke-width: 0.0000010000;stroke: #ffffff; fill: none; " d="M -2.16171815322788 5.82026387246018 L -11.3414507105359 14.9999992237018 L -14.9999865992612 11.3414633349766 L -6.24550325435553 2.58697729961636 L -13.452274569603 2.58697729961636 L -13.452274569603 -2.58697378132963 L -6.24550832482759 -2.58697378132963 L -14.99999518802 -11.3414633349766 L -11.3414592992947 -14.9999992237018 L -2.16172177499364 -5.82025890546714 L -1.60692696846847 -5.99718588792487 L 1.28313986807461E-05 -6.20873953799183 L 1.6069505616854 -5.99717854091433 L 2.16172705242374 -5.82025559413845 L 11.3414677845745 -14.9999992237018 L 15.0000036732998 -11.3414633349766 L 6.24551681010736 -2.58697378132963 L 13.4522710513162 -2.58697378132963 L 13.4522710513162 2.58697729961636 L 6.24551184311433 2.58697729961636 L 14.99999518802 11.3414633349766 L 11.3414592992947 14.9999992237018 L 2.16172343065799 5.82026056113149 L 1.6069543904092 5.99718112788987 L 1.28313986807461E-05 6.20874305627856 L -1.60693079719227 5.99718847490041 L -2.16171815322788 5.82026387246018 " xmlns="http://www.w3.org/2000/svg" />
  <g id="ComplexString2d_1236" style=" fill-rule: evenodd; stroke-width: 0.0000000000;stroke: #ffffff; fill: #ffffff; " xmlns="http://www.w3.org/2000/svg">
    <path d="M -2.16171815322788 5.82026387246018 L -11.3414507105359 14.9999992237018 L -14.9999865992612 11.3414633349766 L -6.24550325435553 2.58697729961636 L -13.452274569603 2.58697729961636 L -13.452274569603 -2.58697378132963 L -6.24550832482759 -2.58697378132963 L -14.99999518802 -11.3414633349766 L -11.3414592992947 -14.9999992237018 L -2.16172177499364 -5.82025890546714 L -1.60692696846847 -5.99718588792487 L 1.28313986807461E-05 -6.20873953799183 L 1.6069505616854 -5.99717854091433 L 2.16172705242374 -5.82025559413845 L 11.3414677845745 -14.9999992237018 L 15.0000036732998 -11.3414633349766 L 6.24551681010736 -2.58697378132963 L 13.4522710513162 -2.58697378132963 L 13.4522710513162 2.58697729961636 L 6.24551184311433 2.58697729961636 L 14.99999518802 11.3414633349766 L 11.3414592992947 14.9999992237018 L 2.16172343065799 5.82026056113149 L 1.6069543904092 5.99718112788987 L 1.28313986807461E-05 6.20874305627856 L -1.60693079719227 5.99718847490041 L -2.16171815322788 5.82026387246018 " />
  </g>
</svg>