<?xml version="1.0" encoding="UTF-8"?>
<svg viewBox="-14.9999976052925 -15.0000071841225 30 30.00000957883" xmlns="http://www.w3.org/2000/svg" xmlns:xlink="http://www.w3.org/1999/xlink" xmlns:gmsvgsym="http://www.intergraph.com/GeoMedia/svgsym">
  <!-- Creator: SVG Document for Symbols-->
  <path id="LineString2d_1180" style=" stroke-width: 0.0000010000;stroke: #000000; fill: none; " d="M -4.06238601379284 -3.15330066027401 L -14.9999967856982 -14.0909147748663 L -14.0909057753247 -15.0000057852399 L -3.15329436059488 -4.06239089925829 L -3.63636314154007 -3.63636481288351 L -4.06238601379284 -3.15330066027401 " xmlns="http://www.w3.org/2000/svg" />
  <g id="ComplexString2d_1181" style=" fill-rule: evenodd; stroke-width: 0.0000000000;stroke: #000000; fill: #000000; " xmlns="http://www.w3.org/2000/svg">
    <path d="M -4.06238601379284 -3.15330066027401 L -14.9999967856982 -14.0909147748663 L -14.0909057753247 -15.0000057852399 L -3.15329436059488 -4.06239089925829 L -3.63636314154007 -3.63636481288351 L -4.06238601379284 -3.15330066027401 " />
  </g>
  <path id="LineString2d_1182" style=" stroke-width: 0.0000010000;stroke: #000000; fill: none; " d="M 3.153297446152 -4.06238845652556 L 14.0909102750955 -15.0000012854691 L 15.0000012854691 -14.0909102750955 L 4.06238845652556 -3.153297446152 L 3.63636429862399 -3.63636365579959 L 3.153297446152 -4.06238845652556 " xmlns="http://www.w3.org/2000/svg" />
  <g id="ComplexString2d_1183" style=" fill-rule: evenodd; stroke-width: 0.0000000000;stroke: #000000; fill: #000000; " xmlns="http://www.w3.org/2000/svg">
    <path d="M 3.153297446152 -4.06238845652556 L 14.0909102750955 -15.0000012854691 L 15.0000012854691 -14.0909102750955 L 4.06238845652556 -3.153297446152 L 3.63636429862399 -3.63636365579959 L 3.153297446152 -4.06238845652556 " />
  </g>
  <path id="LineString2d_1184" style=" stroke-width: 0.0000010000;stroke: #000000; fill: none; " d="M 5.14259520838186 -5.14259520838186E-07 L 5.10226054851372 -0.642824401047732 L 14.1421368230501 -0.642824401047732 L 14.1421368230501 0.642824401047732 L 5.10226054851372 0.642824401047732 L 5.14259520838186 -5.14259520838186E-07 " xmlns="http://www.w3.org/2000/svg" />
  <g id="ComplexString2d_1185" style=" fill-rule: evenodd; stroke-width: 0.0000000000;stroke: #000000; fill: #000000; " xmlns="http://www.w3.org/2000/svg">
    <path d="M 5.14259520838186 -5.14259520838186E-07 L 5.10226054851372 -0.642824401047732 L 14.1421368230501 -0.642824401047732 L 14.1421368230501 0.642824401047732 L 5.10226054851372 0.642824401047732 L 5.14259520838186 -5.14259520838186E-07 " />
  </g>
  <path id="LineString2d_1186" style=" stroke-width: 0.0000010000;stroke: #000000; fill: none; " d="M 3.63636545570791 3.63636249871567 L 4.06238999930412 3.15329564624368 L 15.0000012854691 14.0909102750955 L 14.0909102750955 15.0000012854691 L 3.15329937462521 4.06238704231188 L 3.63636545570791 3.63636249871567 " xmlns="http://www.w3.org/2000/svg" />
  <g id="ComplexString2d_1187" style=" fill-rule: evenodd; stroke-width: 0.0000000000;stroke: #000000; fill: #000000; " xmlns="http://www.w3.org/2000/svg">
    <path d="M 3.63636545570791 3.63636249871567 L 4.06238999930412 3.15329564624368 L 15.0000012854691 14.0909102750955 L 14.0909102750955 15.0000012854691 L 3.15329937462521 4.06238704231188 L 3.63636545570791 3.63636249871567 " />
  </g>
  <path id="LineString2d_1188" style=" stroke-width: 0.0000010000;stroke: #000000; fill: none; " d="M -3.63636429862399 3.63636365579959 L -3.153297446152 4.06238845652556 L -14.0909057753247 14.9999967856982 L -14.9999967856982 14.0909057753247 L -4.06238845652556 3.153297446152 L -3.63636429862399 3.63636365579959 " xmlns="http://www.w3.org/2000/svg" />
  <g id="ComplexString2d_1189" style=" fill-rule: evenodd; stroke-width: 0.0000000000;stroke: #000000; fill: #000000; " xmlns="http://www.w3.org/2000/svg">
    <path d="M -3.63636429862399 3.63636365579959 L -3.153297446152 4.06238845652556 L -14.0909057753247 14.9999967856982 L -14.9999967856982 14.0909057753247 L -4.06238845652556 3.153297446152 L -3.63636429862399 3.63636365579959 " />
  </g>
  <path id="LineString2d_1190" style=" stroke-width: 0.0000010000;stroke: #000000; fill: none; " d="M -5.14259520838186 -5.14259520838186E-07 L -5.10226054851372 -0.642824401047732 L -14.1421368230501 -0.642824401047732 L -14.1421368230501 0.642824401047732 L -5.10226054851372 0.642824401047732 L -5.14259520838186 -5.14259520838186E-07 " xmlns="http://www.w3.org/2000/svg" />
  <g id="ComplexString2d_1191" style=" fill-rule: evenodd; stroke-width: 0.0000000000;stroke: #000000; fill: #000000; " xmlns="http://www.w3.org/2000/svg">
    <path d="M -5.14259520838186 -5.14259520838186E-07 L -5.10226054851372 -0.642824401047732 L -14.1421368230501 -0.642824401047732 L -14.1421368230501 0.642824401047732 L -5.10226054851372 0.642824401047732 L -5.14259520838186 -5.14259520838186E-07 " />
  </g>
  <polyline points="5.14259520838186,0 5.13482693262496,-0.282555779648375 5.11058731011025,-0.572871992595958 5.06850236796294,-0.869810196828494 5.00726370139712,-1.1720047761884 4.92566910021797,-1.47785972625275 4.82266420384289,-1.78555199702017 4.69738814183398,-2.09304319231495 4.54921878873592,-2.39810206864104 4.37781519048639,-2.69833654783727 4.18315574818552,-2.9912360149229 3.96556997362128,-3.2742236440039 3.72575777400153,-3.54471643807197 3.4647987086254,-3.80019143991789 3.18414568920412,-4.03825477147215 2.88560440948025,-4.25670913036708 2.57129760419093,-4.45361807237698 2.24361593728365,-4.62736129431657 1.90515834781184,-4.77667847466514 1.55866301059421,-4.90069948631344 1.20693559701157,-4.99895905295999 0.85277586446025,-5.07139610628669 0.498908488446525,-5.11833720108928 0.147920451489974,-5.14046733104951 -0.197792182736939,-5.1387900736223 -0.536065538735407,-5.11457912107588 -0.864998784751532,-5.0693256974558 -1.18297046051611,-5.00468443277036 -1.48864593400769,-4.92242000856532 -1.78097341594127,-4.82435688905573 -2.05917200323446,-4.71233445198274 -2.32271290853496,-4.58816854771445 -2.57129760419093,-4.45361807237698 -2.81211402408999,-4.30561263950119 -3.05141543544067,-4.13946245938678 -3.28752882345679,-3.95454669222723 -3.51861776738944,-3.75041523237692 -3.74269863970186,-3.52682470651761 -3.95766541909136,-3.28377370043563 -4.16132260309857,-3.02153592876093 -4.35142673456386,-2.74068800498126 -4.52573551341149,-2.44213091177712 -4.68206423663205,-2.12710118616638 -4.81834583808153,-1.79717246228279 -4.9326933710131,-1.45424261488801 -5.0234617192196,-1.10050791783067 -5.08930403701596,-0.738423703192989 -5.12922047532878,-0.370652163949482 -5.14259520838186,0 -5.12922047532878,0.370652163949482 -5.08930403701596,0.738423703192989 -5.0234617192196,1.10050791783067 -4.9326933710131,1.45424261488801 -4.81834583808153,1.79717246228279 -4.68206423663205,2.12710118616638 -4.52573551341149,2.44213091177712 -4.35142673456386,2.74068800498126 -4.16132260309857,3.02153592876093 -3.95766541909136,3.28377370043563 -3.74269863970186,3.52682470651761 -3.51861776738944,3.75041523237692 -3.28752882345679,3.95454669222723 -3.05141543544067,4.13946245938678 -2.81211402408999,4.30561263950119 -2.57129760419093,4.45361807237698 -2.32271290853496,4.58816854771445 -2.05917200323446,4.71233445198274 -1.78097341594127,4.82435688905573 -1.48864593400769,4.92242000856532 -1.18297046051611,5.00468443277036 -0.864998784751532,5.0693256974558 -0.536065538735407,5.11457912107588 -0.197792182736939,5.1387900736223 0.147920451489974,5.14046733104951 0.498908488446525,5.11833720108928 0.85277586446025,5.07139610628669 1.20693559701157,4.99895905295999 1.55866301059421,4.90069948631344 1.90515834781184,4.77667847466514 2.24361593728365,4.62736129431657 2.57129760419093,4.45361807237698 2.88560440948025,4.25670913036708 3.18414568920412,4.03825477147215 3.4647987086254,3.80019143991789 3.72575777400153,3.54471643807197 3.96556997362128,3.2742236440039 4.18315574818552,2.9912360149229 4.37781519048639,2.69833654783727 4.54921878873592,2.39810206864104 4.69738814183398,2.09304319231495 4.82266420384289,1.78555199702017 4.92566910021797,1.47785972625275 5.00726370139712,1.1720047761884 5.06850236796294,0.869810196828494 5.11058731011025,0.572871992595958 5.13482693262496,0.282555779648375 5.14259520838186,0" style=" stroke-width: 0.0000010000;stroke: #000000; fill: none; " xmlns="http://www.w3.org/2000/svg" />
  <g id="ComplexString2d_1192" style=" fill-rule: evenodd; stroke-width: 0.0000000000;stroke: #000000; fill: #000000; " xmlns="http://www.w3.org/2000/svg">
    <path d="M 5.14259520838186 0 L 5.13482693262496 -0.282555779648375 L 5.11058731011025 -0.572871992595958 L 5.06850236796294 -0.869810196828494 L 5.00726370139712 -1.1720047761884 L 4.92566910021797 -1.47785972625275 L 4.82266420384289 -1.78555199702017 L 4.69738814183398 -2.09304319231495 L 4.54921878873592 -2.39810206864104 L 4.37781519048639 -2.69833654783727 L 4.18315574818552 -2.9912360149229 L 3.96556997362128 -3.2742236440039 L 3.72575777400153 -3.54471643807197 L 3.4647987086254 -3.80019143991789 L 3.18414568920412 -4.03825477147215 L 2.88560440948025 -4.25670913036708 L 2.57129760419093 -4.45361807237698 L 2.24361593728365 -4.62736129431657 L 1.90515834781184 -4.77667847466514 L 1.55866301059421 -4.90069948631344 L 1.20693559701157 -4.99895905295999 L 0.85277586446025 -5.07139610628669 L 0.498908488446525 -5.11833720108928 L 0.147920451489974 -5.14046733104951 L -0.197792182736939 -5.1387900736223 L -0.536065538735407 -5.11457912107588 L -0.864998784751532 -5.0693256974558 L -1.18297046051611 -5.00468443277036 L -1.48864593400769 -4.92242000856532 L -1.78097341594127 -4.82435688905573 L -2.05917200323446 -4.71233445198274 L -2.32271290853496 -4.58816854771445 L -2.57129760419093 -4.45361807237698 L -2.81211402408999 -4.30561263950119 L -3.05141543544067 -4.13946245938678 L -3.28752882345679 -3.95454669222723 L -3.51861776738944 -3.75041523237692 L -3.74269863970186 -3.52682470651761 L -3.95766541909136 -3.28377370043563 L -4.16132260309857 -3.02153592876093 L -4.35142673456386 -2.74068800498126 L -4.52573551341149 -2.44213091177712 L -4.68206423663205 -2.12710118616638 L -4.81834583808153 -1.79717246228279 L -4.9326933710131 -1.45424261488801 L -5.0234617192196 -1.10050791783067 L -5.08930403701596 -0.738423703192989 L -5.12922047532878 -0.370652163949482 L -5.14259520838186 0 L -5.12922047532878 0.370652163949482 L -5.08930403701596 0.738423703192989 L -5.0234617192196 1.10050791783067 L -4.9326933710131 1.45424261488801 L -4.81834583808153 1.79717246228279 L -4.68206423663205 2.12710118616638 L -4.52573551341149 2.44213091177712 L -4.35142673456386 2.74068800498126 L -4.16132260309857 3.02153592876093 L -3.95766541909136 3.28377370043563 L -3.74269863970186 3.52682470651761 L -3.51861776738944 3.75041523237692 L -3.28752882345679 3.95454669222723 L -3.05141543544067 4.13946245938678 L -2.81211402408999 4.30561263950119 L -2.57129760419093 4.45361807237698 L -2.32271290853496 4.58816854771445 L -2.05917200323446 4.71233445198274 L -1.78097341594127 4.82435688905573 L -1.48864593400769 4.92242000856532 L -1.18297046051611 5.00468443277036 L -0.864998784751532 5.0693256974558 L -0.536065538735407 5.11457912107588 L -0.197792182736939 5.1387900736223 L 0.147920451489974 5.14046733104951 L 0.498908488446525 5.11833720108928 L 0.85277586446025 5.07139610628669 L 1.20693559701157 4.99895905295999 L 1.55866301059421 4.90069948631344 L 1.90515834781184 4.77667847466514 L 2.24361593728365 4.62736129431657 L 2.57129760419093 4.45361807237698 L 2.88560440948025 4.25670913036708 L 3.18414568920412 4.03825477147215 L 3.4647987086254 3.80019143991789 L 3.72575777400153 3.54471643807197 L 3.96556997362128 3.2742236440039 L 4.18315574818552 2.9912360149229 L 4.37781519048639 2.69833654783727 L 4.54921878873592 2.39810206864104 L 4.69738814183398 2.09304319231495 L 4.82266420384289 1.78555199702017 L 4.92566910021797 1.47785972625275 L 5.00726370139712 1.1720047761884 L 5.06850236796294 0.869810196828494 L 5.11058731011025 0.572871992595958 L 5.13482693262496 0.282555779648375 L 5.14259520838186 0 " />
  </g>
  <polyline points="3.85694640628639,0 3.85112023160994,-0.211916834736281 3.83294051472391,-0.429654058729408 3.80137667954854,-0.65235761548015 3.75544777604784,-0.879003614282518 3.69425179302226,-1.108394858972 3.61699818502339,-1.33916393348269 3.52304117065793,-1.56978232995377 3.4119141879756,-1.79857651933956 3.28336139286479,-2.02375237873673 3.13736684328036,-2.24342707547462 2.97417751235718,-2.45566776514415 2.79431833050115,-2.6585373606952 2.59859899932783,-2.85014364422086 2.38810936332675,-3.02869107860411 2.16420333925141,-3.19253184777531 1.9284732031432,-3.34021355428274 1.68271204938639,-3.47052100287864 1.4288687930001,-3.58250885599885 1.16899725794566,-3.6755246468763 0.905201665617458,-3.74921932186121 0.639581866203967,-3.80354711185624 0.374181398476114,-3.83875293295818 0.11094030647626,-3.85535053042835 -0.148344072770264,-3.8540925230755 -0.402049121910335,-3.83593427652447 -0.648749056422429,-3.80199430523307 -0.887227781104643,-3.75351338886021 -1.11648454692943,-3.69181497428277 -1.33573009409717,-3.61826763465057 -1.54437893814341,-3.53425087112828 -1.74203471354244,-3.44112631436217 -1.9284732031432,-3.34021355428274 -2.1090855180675,-3.22920947962589 -2.2885615765805,-3.10459681239887 -2.46564658545137,-2.96591001917042 -2.6389633576833,-2.81281148856513 -2.80702401191762,-2.64511852988821 -2.96824912860096,-2.4628302431855 -3.12099192018271,-2.2661519465707 -3.26356998664046,-2.05551600373594 -3.39430169934106,-1.83159815169162 -3.51154824175647,-1.59532585748356 -3.61375937856115,-1.34787934671209 -3.69951999611861,-1.09068196116601 -3.76759625727348,-0.825381002655439 -3.81697802776197,-0.553817777394741 -3.84691538863781,-0.277989155103331 -3.85694640628639,0 -3.84691538863781,0.277989155103331 -3.81697802776197,0.553817777394741 -3.76759625727348,0.825381002655439 -3.69951999611861,1.09068196116601 -3.61375937856115,1.34787934671209 -3.51154824175647,1.59532585748356 -3.39430169934106,1.83159815169162 -3.26356998664046,2.05551600373594 -3.12099192018271,2.2661519465707 -2.96824912860096,2.4628302431855 -2.80702401191762,2.64511852988821 -2.6389633576833,2.81281148856513 -2.46564658545137,2.96591001917042 -2.2885615765805,3.10459681239887 -2.1090855180675,3.22920947962589 -1.9284732031432,3.34021355428274 -1.74203471354244,3.44112631436217 -1.54437893814341,3.53425087112828 -1.33573009409717,3.61826763465057 -1.11648454692943,3.69181497428277 -0.887227781104643,3.75351338886021 -0.648749056422429,3.80199430523307 -0.402049121910335,3.83593427652447 -0.148344072770264,3.8540925230755 0.11094030647626,3.85535053042835 0.374181398476114,3.83875293295818 0.639581866203967,3.80354711185624 0.905201665617458,3.74921932186121 1.16899725794566,3.6755246468763 1.4288687930001,3.58250885599885 1.68271204938639,3.47052100287864 1.9284732031432,3.34021355428274 2.16420333925141,3.19253184777531 2.38810936332675,3.02869107860411 2.59859899932783,2.85014364422086 2.79431833050115,2.6585373606952 2.97417751235718,2.45566776514415 3.13736684328036,2.24342707547462 3.28336139286479,2.02375237873673 3.4119141879756,1.79857651933956 3.52304117065793,1.56978232995377 3.61699818502339,1.33916393348269 3.69425179302226,1.108394858972 3.75544777604784,0.879003614282518 3.80137667954854,0.65235761548015 3.83294051472391,0.429654058729408 3.85112023160994,0.211916834736281 3.85694640628639,0" style=" stroke-width: 0.0000010000;stroke: #000000; fill: none; " xmlns="http://www.w3.org/2000/svg" />
  <g id="ComplexString2d_1193" style=" fill-rule: evenodd; stroke-width: 0.0000000000;stroke: #ffffff; fill: #ffffff; " xmlns="http://www.w3.org/2000/svg">
    <path d="M 3.85694640628639 0 L 3.85112023160994 -0.211916834736281 L 3.83294051472391 -0.429654058729408 L 3.80137667954854 -0.65235761548015 L 3.75544777604784 -0.879003614282518 L 3.69425179302226 -1.108394858972 L 3.61699818502339 -1.33916393348269 L 3.52304117065793 -1.56978232995377 L 3.4119141879756 -1.79857651933956 L 3.28336139286479 -2.02375237873673 L 3.13736684328036 -2.24342707547462 L 2.97417751235718 -2.45566776514415 L 2.79431833050115 -2.6585373606952 L 2.59859899932783 -2.85014364422086 L 2.38810936332675 -3.02869107860411 L 2.16420333925141 -3.19253184777531 L 1.9284732031432 -3.34021355428274 L 1.68271204938639 -3.47052100287864 L 1.4288687930001 -3.58250885599885 L 1.16899725794566 -3.6755246468763 L 0.905201665617458 -3.74921932186121 L 0.639581866203967 -3.80354711185624 L 0.374181398476114 -3.83875293295818 L 0.11094030647626 -3.85535053042835 L -0.148344072770264 -3.8540925230755 L -0.402049121910335 -3.83593427652447 L -0.648749056422429 -3.80199430523307 L -0.887227781104643 -3.75351338886021 L -1.11648454692943 -3.69181497428277 L -1.33573009409717 -3.61826763465057 L -1.54437893814341 -3.53425087112828 L -1.74203471354244 -3.44112631436217 L -1.9284732031432 -3.34021355428274 L -2.1090855180675 -3.22920947962589 L -2.2885615765805 -3.10459681239887 L -2.46564658545137 -2.96591001917042 L -2.6389633576833 -2.81281148856513 L -2.80702401191762 -2.64511852988821 L -2.96824912860096 -2.4628302431855 L -3.12099192018271 -2.2661519465707 L -3.26356998664046 -2.05551600373594 L -3.39430169934106 -1.83159815169162 L -3.51154824175647 -1.59532585748356 L -3.61375937856115 -1.34787934671209 L -3.69951999611861 -1.09068196116601 L -3.76759625727348 -0.825381002655439 L -3.81697802776197 -0.553817777394741 L -3.84691538863781 -0.277989155103331 L -3.85694640628639 0 L -3.84691538863781 0.277989155103331 L -3.81697802776197 0.553817777394741 L -3.76759625727348 0.825381002655439 L -3.69951999611861 1.09068196116601 L -3.61375937856115 1.34787934671209 L -3.51154824175647 1.59532585748356 L -3.39430169934106 1.83159815169162 L -3.26356998664046 2.05551600373594 L -3.12099192018271 2.2661519465707 L -2.96824912860096 2.4628302431855 L -2.80702401191762 2.64511852988821 L -2.6389633576833 2.81281148856513 L -2.46564658545137 2.96591001917042 L -2.2885615765805 3.10459681239887 L -2.1090855180675 3.22920947962589 L -1.9284732031432 3.34021355428274 L -1.74203471354244 3.44112631436217 L -1.54437893814341 3.53425087112828 L -1.33573009409717 3.61826763465057 L -1.11648454692943 3.69181497428277 L -0.887227781104643 3.75351338886021 L -0.648749056422429 3.80199430523307 L -0.402049121910335 3.83593427652447 L -0.148344072770264 3.8540925230755 L 0.11094030647626 3.85535053042835 L 0.374181398476114 3.83875293295818 L 0.639581866203967 3.80354711185624 L 0.905201665617458 3.74921932186121 L 1.16899725794566 3.6755246468763 L 1.4288687930001 3.58250885599885 L 1.68271204938639 3.47052100287864 L 1.9284732031432 3.34021355428274 L 2.16420333925141 3.19253184777531 L 2.38810936332675 3.02869107860411 L 2.59859899932783 2.85014364422086 L 2.79431833050115 2.6585373606952 L 2.97417751235718 2.45566776514415 L 3.13736684328036 2.24342707547462 L 3.28336139286479 2.02375237873673 L 3.4119141879756 1.79857651933956 L 3.52304117065793 1.56978232995377 L 3.61699818502339 1.33916393348269 L 3.69425179302226 1.108394858972 L 3.75544777604784 0.879003614282518 L 3.80137667954854 0.65235761548015 L 3.83294051472391 0.429654058729408 L 3.85112023160994 0.211916834736281 L 3.85694640628639 0 " />
  </g>
</svg>