<?xml version="1.0" encoding="UTF-8" standalone="no"?>
<svg
   viewBox="-15 -15 30 30"
   version="1.1"
   id="svg13"
   sodipodi:docname="0010_143.svg"
   inkscape:version="1.2.2 (732a01da63, 2022-12-09)"
   xmlns:inkscape="http://www.inkscape.org/namespaces/inkscape"
   xmlns:sodipodi="http://sodipodi.sourceforge.net/DTD/sodipodi-0.dtd"
   xmlns="http://www.w3.org/2000/svg"
   xmlns:svg="http://www.w3.org/2000/svg">
  <defs
     id="defs17" />
  <sodipodi:namedview
     id="namedview15"
     pagecolor="#ffffff"
     bordercolor="#000000"
     borderopacity="0.25"
     inkscape:showpageshadow="2"
     inkscape:pageopacity="0.0"
     inkscape:pagecheckerboard="0"
     inkscape:deskcolor="#d1d1d1"
     showgrid="false"
     inkscape:zoom="7.8666667"
     inkscape:cx="-3.6228814"
     inkscape:cy="15.127119"
     inkscape:window-width="1297"
     inkscape:window-height="481"
     inkscape:window-x="329"
     inkscape:window-y="369"
     inkscape:window-maximized="0"
     inkscape:current-layer="svg13" />
  <!-- Creator: SVG Document for Symbols-->
  <polyline
     points="14.9999994039536,0 14.9773408048539,-0.824163167250698 14.9066384076634,-1.67096173360195 14.7838842125412,-2.53707529918569 14.605262619639,-3.41852126416017 14.3672660290961,-4.31064362871041 14.0668196410348,-5.20812499304771 13.7014128555548,-6.10501975740831 13.2692302727282,-6.99482032205081 12.7692772925945,-7.87054888725249 12.4938285035399,-8.30085727015357 12.2014921151563,-8.72488245330432 11.8924205274377,-9.14168023674227 11.5668343403753,-9.55030502050498 11.2250233539576,-9.94981580462984 10.8673465681704,-10.3392823891538 10.4942321829967,-10.7177923741132 10.1061771984166,-11.0844559595433 9.70374521440781,-11.4384139454783 9.28756443094535,-11.7788425319509 8.8583248480018,-12.1049603189921 8.41677466554742,-12.4160335066312 7.96371588355036,-12.7113810948951 7.49999970197679,-12.9903804838087 7.02652112079114,-13.2524708733941 6.54421293995634,-13.4971574636712 6.05404055943404,-13.7240144546567 5.55699457918488,-13.9326878463647 5.05408439916873,-14.1228968388065 4.546331819345,-14.2944342319902 4.03476423967287,-14.4471678259211 3.52040806011155,-14.5810394206016 3.00428148062058,-14.6960632160309 2.48738950116002,-14.7923248122058 1.97071712169074,-14.8699784091201 1.4552237421746,-14.9292434067652 0.941838962574682,-14.9704016051297 0.431456582855456,-14.9937930042002 -0.0750681970170579,-14.999811603961 -0.576922977075141,-14.9889006043946 -1.56360413786795,-14.9182816072008 -2.52304129974335,-14.7862856124458 -3.45050606288921,-14.597739219938 -4.34210502746025,-14.3577890294727 -5.19477039357837,-14.0717568408386 -6.00622376133411,-13.7450084538224 -6.7749241307887,-13.3828390682138 -7.49999970197679,-12.9903804838087 -8.20241667406525,-12.5586761009631 -8.9004146463293,-12.0740467202205 -9.58911381896285,-11.5346815416529 -10.2631573921788,-10.9392677653126 -10.9167599662069,-10.2870955912275 -11.5437783412915,-9.57816081939808 -12.1378087176868,-8.81326164979245 -12.692307095653,-7.99408028234379 -13.20073387545,-7.12324411694771 -13.4356674661145,-6.66954433497612 -13.6567158573309,-6.20436095346085 -13.8631376491284,-5.72829817237788 -14.0542238415353,-5.24201979170085 -14.2293048345782,-4.74624741140107 -14.387754628282,-4.24175683144773 -14.5289966226695,-3.72937545180793 -14.6525090177616,-3.20997827244692 -14.7578296135765,-2.68448289332823 -14.8445590101302,-2.15384551441387 -14.9123656074358,-1.61905433566456 -14.9609876055038,-1.08112395703999 -14.9902370043415,-0.541089778499024 -14.9999994039536,0 -14.9902370043415,0.541089778499024 -14.9609876055038,1.08112395703999 -14.9123656074358,1.61905433566456 -14.8445590101302,2.15384551441387 -14.7578296135765,2.68448289332823 -14.6525090177616,3.20997827244692 -14.5289966226695,3.72937545180793 -14.387754628282,4.24175683144773 -14.2293048345782,4.74624741140107 -14.0542238415353,5.24201979170085 -13.8631376491284,5.72829817237788 -13.6567158573309,6.20436095346085 -13.4356674661145,6.66954433497612 -13.20073387545,7.12324411694771 -12.9526836853066,7.56491669939722 -12.692307095653,7.99408028234379 -12.1378087176868,8.81326164979245 -11.5437783412915,9.57816081939808 -10.9167599662069,10.2870955912275 -10.2631573921788,10.9392677653126 -9.58911381896285,11.5346815416529 -8.9004146463293,12.0740467202205 -8.20241667406525,12.5586761009631 -7.49999970197679,12.9903804838087 -6.7749241307887,13.3828390682138 -6.00622376133411,13.7450084538224 -5.19477039357837,14.0717568408386 -4.34210502746025,14.3577890294727 -3.45050606288921,14.597739219938 -2.52304129974335,14.7862856124458 -1.56360413786795,14.9182816072008 -0.576922977075141,14.9889006043946 0.431456582855456,14.9937930042002 0.941838962574682,14.9704016051297 1.4552237421746,14.9292434067652 1.97071712169074,14.8699784091201 2.48738950116002,14.7923248122058 3.00428148062058,14.6960632160309 3.52040806011155,14.5810394206016 4.03476423967287,14.4471678259211 4.546331819345,14.2944342319902 5.05408439916873,14.1228968388065 5.55699457918488,13.9326878463647 6.05404055943404,13.7240144546567 6.54421293995634,13.4971574636712 7.02652112079114,13.2524708733941 7.49999970197679,12.9903804838087 7.96371588355036,12.7113810948951 8.41677466554742,12.4160335066312 8.8583248480018,12.1049603189921 9.28756443094535,11.7788425319509 9.70374521440781,11.4384139454783 10.1061771984166,11.0844559595433 10.4942321829967,10.7177923741132 10.8673465681704,10.3392823891538 11.2250233539576,9.94981580462984 11.5668343403753,9.55030502050498 11.8924205274377,9.14168023674227 12.2014921151563,8.72488245330432 12.4938285035399,8.30085727015357 12.7692772925945,7.87054888725249 13.0277520823236,7.43489470456383 13.2692302727282,6.99482032205081 13.7014128555548,6.10501975740831 14.0668196410348,5.20812499304771 14.3672660290961,4.31064362871041 14.605262619639,3.41852126416017 14.7838842125412,2.53707529918569 14.9066384076634,1.67096173360195 14.9773408048539,0.824163167250698 14.9999994039536,0"
     style=" stroke-width: 0.0000010000;stroke: #1b4074; fill: none; "
     id="polyline2" />
  <polygon
     points="14.9999994039536,0 14.9773408048539,-0.824163167250698 14.9066384076634,-1.67096173360195 14.7838842125412,-2.53707529918569 14.605262619639,-3.41852126416017 14.3672660290961,-4.31064362871041 14.0668196410348,-5.20812499304771 13.7014128555548,-6.10501975740831 13.2692302727282,-6.99482032205081 12.7692772925945,-7.87054888725249 12.4938285035399,-8.30085727015357 12.2014921151563,-8.72488245330432 11.8924205274377,-9.14168023674227 11.5668343403753,-9.55030502050498 11.2250233539576,-9.94981580462984 10.8673465681704,-10.3392823891538 10.4942321829967,-10.7177923741132 10.1061771984166,-11.0844559595433 9.70374521440781,-11.4384139454783 9.28756443094535,-11.7788425319509 8.8583248480018,-12.1049603189921 8.41677466554742,-12.4160335066312 7.96371588355036,-12.7113810948951 7.49999970197679,-12.9903804838087 7.02652112079114,-13.2524708733941 6.54421293995634,-13.4971574636712 6.05404055943404,-13.7240144546567 5.55699457918488,-13.9326878463647 5.05408439916873,-14.1228968388065 4.546331819345,-14.2944342319902 4.03476423967287,-14.4471678259211 3.52040806011155,-14.5810394206016 3.00428148062058,-14.6960632160309 2.48738950116002,-14.7923248122058 1.97071712169074,-14.8699784091201 1.4552237421746,-14.9292434067652 0.941838962574682,-14.9704016051297 0.431456582855456,-14.9937930042002 -0.0750681970170579,-14.999811603961 -0.576922977075141,-14.9889006043946 -1.56360413786795,-14.9182816072008 -2.52304129974335,-14.7862856124458 -3.45050606288921,-14.597739219938 -4.34210502746025,-14.3577890294727 -5.19477039357837,-14.0717568408386 -6.00622376133411,-13.7450084538224 -6.7749241307887,-13.3828390682138 -7.49999970197679,-12.9903804838087 -8.20241667406525,-12.5586761009631 -8.9004146463293,-12.0740467202205 -9.58911381896285,-11.5346815416529 -10.2631573921788,-10.9392677653126 -10.9167599662069,-10.2870955912275 -11.5437783412915,-9.57816081939808 -12.1378087176868,-8.81326164979245 -12.692307095653,-7.99408028234379 -13.20073387545,-7.12324411694771 -13.4356674661145,-6.66954433497612 -13.6567158573309,-6.20436095346085 -13.8631376491284,-5.72829817237788 -14.0542238415353,-5.24201979170085 -14.2293048345782,-4.74624741140107 -14.387754628282,-4.24175683144773 -14.5289966226695,-3.72937545180793 -14.6525090177616,-3.20997827244692 -14.7578296135765,-2.68448289332823 -14.8445590101302,-2.15384551441387 -14.9123656074358,-1.61905433566456 -14.9609876055038,-1.08112395703999 -14.9902370043415,-0.541089778499024 -14.9999994039536,0 -14.9902370043415,0.541089778499024 -14.9609876055038,1.08112395703999 -14.9123656074358,1.61905433566456 -14.8445590101302,2.15384551441387 -14.7578296135765,2.68448289332823 -14.6525090177616,3.20997827244692 -14.5289966226695,3.72937545180793 -14.387754628282,4.24175683144773 -14.2293048345782,4.74624741140107 -14.0542238415353,5.24201979170085 -13.8631376491284,5.72829817237788 -13.6567158573309,6.20436095346085 -13.4356674661145,6.66954433497612 -13.20073387545,7.12324411694771 -12.9526836853066,7.56491669939722 -12.692307095653,7.99408028234379 -12.1378087176868,8.81326164979245 -11.5437783412915,9.57816081939808 -10.9167599662069,10.2870955912275 -10.2631573921788,10.9392677653126 -9.58911381896285,11.5346815416529 -8.9004146463293,12.0740467202205 -8.20241667406525,12.5586761009631 -7.49999970197679,12.9903804838087 -6.7749241307887,13.3828390682138 -6.00622376133411,13.7450084538224 -5.19477039357837,14.0717568408386 -4.34210502746025,14.3577890294727 -3.45050606288921,14.597739219938 -2.52304129974335,14.7862856124458 -1.56360413786795,14.9182816072008 -0.576922977075141,14.9889006043946 0.431456582855456,14.9937930042002 0.941838962574682,14.9704016051297 1.4552237421746,14.9292434067652 1.97071712169074,14.8699784091201 2.48738950116002,14.7923248122058 3.00428148062058,14.6960632160309 3.52040806011155,14.5810394206016 4.03476423967287,14.4471678259211 4.546331819345,14.2944342319902 5.05408439916873,14.1228968388065 5.55699457918488,13.9326878463647 6.05404055943404,13.7240144546567 6.54421293995634,13.4971574636712 7.02652112079114,13.2524708733941 7.49999970197679,12.9903804838087 7.96371588355036,12.7113810948951 8.41677466554742,12.4160335066312 8.8583248480018,12.1049603189921 9.28756443094535,11.7788425319509 9.70374521440781,11.4384139454783 10.1061771984166,11.0844559595433 10.4942321829967,10.7177923741132 10.8673465681704,10.3392823891538 11.2250233539576,9.94981580462984 11.5668343403753,9.55030502050498 11.8924205274377,9.14168023674227 12.2014921151563,8.72488245330432 12.4938285035399,8.30085727015357 12.7692772925945,7.87054888725249 13.0277520823236,7.43489470456383 13.2692302727282,6.99482032205081 13.7014128555548,6.10501975740831 14.0668196410348,5.20812499304771 14.3672660290961,4.31064362871041 14.605262619639,3.41852126416017 14.7838842125412,2.53707529918569 14.9066384076634,1.67096173360195 14.9773408048539,0.824163167250698 14.9999994039536,0"
     style="fill-rule:evenodd;fill:#2b4861;fill-opacity:1"
     id="polygon4" />
  <polyline
     points="11.9999995231629,0 11.9818727238832,-0.659330573800557 11.9253107261307,-1.33676954688155 11.827107330033,-2.02966031934855 11.6842101357112,-2.73481689132814 11.4938127432769,-3.44851506296832 11.2534557528278,-4.16649983443817 10.9611303644438,-4.88401580592665 10.6153841781825,-5.59585617764065 10.2154217940756,-6.296438949802 9.76119361212502,-6.97990592264346 9.25346743230024,-7.64024389640398 8.69387725453636,-8.27142607132306 8.08494167873328,-8.86756484763463 7.43005150475628,-9.42307402556068 6.73341973243794,-9.93282680530492 5.99999976158143,-10.3923043870469 5.23537039196507,-10.7977259709369 4.4455956233479,-11.1461503570918 3.637065455476,-11.4355473455922 2.81632648808924,-11.6648315364812 1.98991172092801,-11.8338599297647 1.16417915373968,-11.9433947254121 0.345165186284368,-11.9950343233602 -0.461538381660113,-11.9911205235157 -1.25088335029436,-11.9346253257606 -2.01843311979467,-11.8290285299566 -2.76040489031136,-11.6781913359504 -3.4736840619682,-11.4862311435782 -4.1558162348627,-11.2574055526709 -4.80497900906729,-10.9960067630579 -5.41993938463096,-10.706271374571 -5.99999976158143,-10.3923043870469 -6.5619333392522,-10.0469408007704 -7.12033171706344,-9.6592372161764 -7.67129109517028,-9.22774523332235 -8.21052607374301,-8.75141425225004 -8.73340805296554,-8.22967647298204 -9.23502263303317,-7.66252869551847 -9.71024701414945,-7.05060931983396 -10.1538457965224,-6.39526434587503 -10.56058718036,-5.69859537355816 -10.9253727658647,-4.96348860276868 -11.2433791532283,-4.19361583336068 -11.5102035426256,-3.39340546515818 -11.7220073342093,-2.56798249795754 -11.8756471281042,-1.7230763315311 -11.968790124403,-0.864899165631995 -11.9999995231629,0 -11.968790124403,0.864899165631995 -11.8756471281042,1.7230763315311 -11.7220073342093,2.56798249795754 -11.5102035426256,3.39340546515818 -11.2433791532283,4.19361583336068 -10.9253727658647,4.96348860276868 -10.56058718036,5.69859537355816 -10.1538457965224,6.39526434587503 -9.71024701414945,7.05060931983396 -9.23502263303317,7.66252869551847 -8.73340805296554,8.22967647298204 -8.21052607374301,8.75141425225004 -7.67129109517028,9.22774523332235 -7.12033171706344,9.6592372161764 -6.5619333392522,10.0469408007704 -5.99999976158143,10.3923043870469 -5.41993938463096,10.706271374571 -4.80497900906729,10.9960067630579 -4.1558162348627,11.2574055526709 -3.4736840619682,11.4862311435782 -2.76040489031136,11.6781913359504 -2.01843311979467,11.8290285299566 -1.25088335029436,11.9346253257606 -0.461538381660113,11.9911205235157 0.345165186284368,11.9950343233602 1.16417915373968,11.9433947254121 1.98991172092801,11.8338599297647 2.81632648808924,11.6648315364812 3.637065455476,11.4355473455922 4.4455956233479,11.1461503570918 5.23537039196507,10.7977259709369 5.99999976158143,10.3923043870469 6.73341973243794,9.93282680530492 7.43005150475628,9.42307402556068 8.08494167873328,8.86756484763463 8.69387725453636,8.27142607132306 9.25346743230024,7.64024389640398 9.76119361212502,6.97990592264346 10.2154217940756,6.296438949802 10.6153841781825,5.59585617764065 10.9611303644438,4.88401580592665 11.2534557528278,4.16649983443817 11.4938127432769,3.44851506296832 11.6842101357112,2.73481689132814 11.827107330033,2.02966031934855 11.9253107261307,1.33676954688155 11.9818727238832,0.659330573800557 11.9999995231629,0"
     style=" stroke-width: 0.0000010000;stroke: #ffffff; fill: none; "
     id="polyline6" />
  <polygon
     points="11.9999995231629,0 11.9818727238832,-0.659330573800557 11.9253107261307,-1.33676954688155 11.827107330033,-2.02966031934855 11.6842101357112,-2.73481689132814 11.4938127432769,-3.44851506296832 11.2534557528278,-4.16649983443817 10.9611303644438,-4.88401580592665 10.6153841781825,-5.59585617764065 10.2154217940756,-6.296438949802 9.76119361212502,-6.97990592264346 9.25346743230024,-7.64024389640398 8.69387725453636,-8.27142607132306 8.08494167873328,-8.86756484763463 7.43005150475628,-9.42307402556068 6.73341973243794,-9.93282680530492 5.99999976158143,-10.3923043870469 5.23537039196507,-10.7977259709369 4.4455956233479,-11.1461503570918 3.637065455476,-11.4355473455922 2.81632648808924,-11.6648315364812 1.98991172092801,-11.8338599297647 1.16417915373968,-11.9433947254121 0.345165186284368,-11.9950343233602 -0.461538381660113,-11.9911205235157 -1.25088335029436,-11.9346253257606 -2.01843311979467,-11.8290285299566 -2.76040489031136,-11.6781913359504 -3.4736840619682,-11.4862311435782 -4.1558162348627,-11.2574055526709 -4.80497900906729,-10.9960067630579 -5.41993938463096,-10.706271374571 -5.99999976158143,-10.3923043870469 -6.5619333392522,-10.0469408007704 -7.12033171706344,-9.6592372161764 -7.67129109517028,-9.22774523332235 -8.21052607374301,-8.75141425225004 -8.73340805296554,-8.22967647298204 -9.23502263303317,-7.66252869551847 -9.71024701414945,-7.05060931983396 -10.1538457965224,-6.39526434587503 -10.56058718036,-5.69859537355816 -10.9253727658647,-4.96348860276868 -11.2433791532283,-4.19361583336068 -11.5102035426256,-3.39340546515818 -11.7220073342093,-2.56798249795754 -11.8756471281042,-1.7230763315311 -11.968790124403,-0.864899165631995 -11.9999995231629,0 -11.968790124403,0.864899165631995 -11.8756471281042,1.7230763315311 -11.7220073342093,2.56798249795754 -11.5102035426256,3.39340546515818 -11.2433791532283,4.19361583336068 -10.9253727658647,4.96348860276868 -10.56058718036,5.69859537355816 -10.1538457965224,6.39526434587503 -9.71024701414945,7.05060931983396 -9.23502263303317,7.66252869551847 -8.73340805296554,8.22967647298204 -8.21052607374301,8.75141425225004 -7.67129109517028,9.22774523332235 -7.12033171706344,9.6592372161764 -6.5619333392522,10.0469408007704 -5.99999976158143,10.3923043870469 -5.41993938463096,10.706271374571 -4.80497900906729,10.9960067630579 -4.1558162348627,11.2574055526709 -3.4736840619682,11.4862311435782 -2.76040489031136,11.6781913359504 -2.01843311979467,11.8290285299566 -1.25088335029436,11.9346253257606 -0.461538381660113,11.9911205235157 0.345165186284368,11.9950343233602 1.16417915373968,11.9433947254121 1.98991172092801,11.8338599297647 2.81632648808924,11.6648315364812 3.637065455476,11.4355473455922 4.4455956233479,11.1461503570918 5.23537039196507,10.7977259709369 5.99999976158143,10.3923043870469 6.73341973243794,9.93282680530492 7.43005150475628,9.42307402556068 8.08494167873328,8.86756484763463 8.69387725453636,8.27142607132306 9.25346743230024,7.64024389640398 9.76119361212502,6.97990592264346 10.2154217940756,6.296438949802 10.6153841781825,5.59585617764065 10.9611303644438,4.88401580592665 11.2534557528278,4.16649983443817 11.4938127432769,3.44851506296832 11.6842101357112,2.73481689132814 11.827107330033,2.02966031934855 11.9253107261307,1.33676954688155 11.9818727238832,0.659330573800557 11.9999995231629,0"
     style=" fill-rule: evenodd; fill: #ffffff; "
     id="polygon8" />
  <path
     id="LineString2d_1422"
     style=" stroke-width: 0.0000010000;stroke: #1b4074; fill: none; "
     d="M -9.64230361684928 -7.29904110996217 L 4.99999980131786E-06 -1.73205173117445 L 9.64230541684921 -7.29903650996235 L 11.1423049572446 -4.70096041320062 L 1.5000063403951 0.866023565587315 L 1.5000063403951 11.9999987231629 L -1.49999354039561 12.0000003231628 L -1.49999354039561 0.866025165587252 L -11.1423041572446 -4.70096541320042 L -9.64230361684928 -7.29904110996217 " />
  <polygon
     points="-9.64230361684928,-7.29904110996217 4.99999980131786E-06,-1.73205173117445 9.64230541684921,-7.29903650996235 11.1423049572446,-4.70096041320062 1.5000063403951,0.866023565587315 1.5000063403951,11.9999987231629 -1.49999354039561,12.0000003231628 -1.49999354039561,0.866025165587252 -11.1423041572446,-4.70096541320042 -9.64230361684928,-7.29904110996217"
     style="fill-rule:evenodd;fill:#2b4861;fill-opacity:1"
     id="polygon11" />
</svg>
