<?xml version="1.0" encoding="UTF-8" standalone="no"?>
<svg
   xmlns:dc="http://purl.org/dc/elements/1.1/"
   xmlns:cc="http://creativecommons.org/ns#"
   xmlns:rdf="http://www.w3.org/1999/02/22-rdf-syntax-ns#"
   xmlns:svg="http://www.w3.org/2000/svg"
   xmlns="http://www.w3.org/2000/svg"
   xmlns:sodipodi="http://sodipodi.sourceforge.net/DTD/sodipodi-0.dtd"
   xmlns:inkscape="http://www.inkscape.org/namespaces/inkscape"
   viewBox="-15 -15 5.3371068 5.3327067"
   id="svg20461"
   version="1.1"
   inkscape:version="0.48.3.1 r9886"
   width="100%"
   height="100%"
   sodipodi:docname="0010_412.svg">
  <metadata
     id="metadata20477">
    <rdf:RDF>
      <cc:Work
         rdf:about="">
        <dc:format>image/svg+xml</dc:format>
        <dc:type
           rdf:resource="http://purl.org/dc/dcmitype/StillImage" />
      </cc:Work>
    </rdf:RDF>
  </metadata>
  <defs
     id="defs20475" />
  <sodipodi:namedview
     pagecolor="#ffffff"
     bordercolor="#666666"
     borderopacity="1"
     objecttolerance="10"
     gridtolerance="10"
     guidetolerance="10"
     inkscape:pageopacity="0"
     inkscape:pageshadow="2"
     inkscape:window-width="1172"
     inkscape:window-height="833"
     id="namedview20473"
     showgrid="false"
     inkscape:showpageshadow="false"
     fit-margin-top="0"
     fit-margin-left="0"
     fit-margin-right="0"
     fit-margin-bottom="0"
     inkscape:zoom="48.959679"
     inkscape:cx="-0.48517956"
     inkscape:cy="2.1775096"
     inkscape:window-x="262"
     inkscape:window-y="100"
     inkscape:window-maximized="0"
     inkscape:current-layer="ComplexString2d_1148" />
  <!-- Creator: SVG Document for Symbols-->
  <g
     id="ComplexString2d_1148"
     style="fill:#3338ff;fill-rule:evenodd;stroke:#4e4a96;stroke-width:0;fill-opacity:1"
     transform="matrix(0.17716537,0,0,0.17720313,-12.325347,-12.330878)">
    <path
       d="m 14.999999,0 -0.02266,-0.82416317 -0.0707,-0.84679853 -0.122754,-0.8661136 -0.178621,-0.881446 -0.237997,-0.8921223 -0.300446,-0.8974814 -0.365407,-0.8968948 -0.432183,-0.8898005 -0.499953,-0.8757286 -0.275448,-0.4303084 -0.292337,-0.4240252 -0.309071,-0.4167977 -0.325587,-0.4086248 -0.341811,-0.3995108 -0.357676,-0.3894662 -0.373115,-0.37851 -0.388055,-0.366664 -0.4024318,-0.353958 -0.4161808,-0.340429 -0.4292396,-0.326117 -0.4415501,-0.311074 -0.4530588,-0.295347 -0.4637162,-0.278999 -0.4734786,-0.262091 -0.4823082,-0.244686 -0.4901723,-0.226857 -0.497046,-0.208674 -0.5029102,-0.190209 -0.5077526,-0.171537 -0.5115676,-0.152734 -0.5143561,-0.133871 -0.5161266,-0.115024 -0.516892,-0.09626 -0.5166724,-0.07765 -0.5154934,-0.05926 -0.51338474,-0.04116 -0.51038238,-0.02339 -0.50652478,-0.006 -0.50185478,0.01091 -0.98668112,0.07062 -0.9594372,0.131996 -0.9274648,0.188547 -0.8915989,0.23995 -0.8526654,0.286032 -0.8114534,0.326749 -0.7687003,0.362169 -0.7250756,0.392459 -0.702417,0.431704 -0.6979979,0.484629 -0.6886992,0.539365 -0.6740432,0.595414 -0.653603,0.652172 -0.627018,0.7089352 -0.594031,0.7648992 -0.554498,0.8191813 -0.508427,0.8708362 -0.234933,0.4536998 -0.221049,0.4651833 -0.206422,0.4760628 -0.191086,0.4862784 -0.175081,0.4957724 -0.15845,0.5044906 -0.141242,0.5123813 -0.123512,0.5193972 -0.105321,0.5254954 -0.08673,0.5306374 -0.06781,0.5347912 -0.04862,0.5379303 -0.02925,0.54003422 L -14.999999,0 l 0.0098,0.54108978 0.02925,0.54003422 0.04862,0.5379303 0.06781,0.5347912 0.08673,0.5306374 0.105321,0.5254954 0.123512,0.5193972 0.141242,0.5123813 0.15845,0.5044906 0.175081,0.4957724 0.191086,0.4862784 0.206422,0.4760628 0.221049,0.4651833 0.234933,0.4536998 0.24805,0.4416726 0.260377,0.4291636 0.554498,0.8191813 0.594031,0.7648992 0.627018,0.7089352 0.653603,0.652172 0.6740432,0.595414 0.6886992,0.539365 0.6979979,0.484629 0.702417,0.431704 0.7250756,0.392459 0.7687003,0.362169 0.8114534,0.326749 0.8526654,0.286032 0.8915989,0.23995 0.9274648,0.188547 0.9594372,0.131996 0.98668112,0.07062 1.00837956,0.0049 0.51038238,-0.02339 0.51338474,-0.04116 0.5154934,-0.05926 0.5166724,-0.07765 0.516892,-0.09626 0.5161266,-0.115024 0.5143561,-0.133871 0.5115676,-0.152734 0.5077526,-0.171537 0.5029102,-0.190209 0.497046,-0.208674 L 6.5442539,13.497176 7.0265621,13.25249 7.5000407,12.990399 7.9637569,12.7114 8.4168157,12.416053 8.8583658,12.104979 9.2876054,11.778862 9.7037862,11.438433 10.106218,11.084475 10.494273,10.717811 10.867388,10.339301 11.225023,9.9498158 11.566834,9.550305 11.892421,9.1416802 12.201492,8.7248825 12.493829,8.3008573 12.769277,7.8705489 13.027752,7.4348947 13.26923,6.9948203 13.701413,6.1050198 14.06682,5.208125 14.367266,4.3106436 14.605263,3.4185213 14.783884,2.5370753 14.906638,1.6709617 14.977341,0.82416317 14.999999,0"
       id="path20466"
       inkscape:connector-curvature="0"
       style="fill:#4e4a96;fill-opacity:1" />
  </g>
  <g
     id="ComplexString2d_1149"
     style="fill:#ffffff;fill-rule:evenodd;stroke:#ffffff;stroke-width:0"
     transform="matrix(0.17716536,0,0,0.17723852,-12.325347,-12.331409)">
    <path
       d="M 11,0 10.983383,-0.60438638 10.931535,-1.225372 10.841515,-1.8605219 10.710526,-2.5069155 10.535995,-3.1611387 10.315668,-3.8192916 10.047703,-4.4770146 9.7307688,-5.1295348 9.3641366,-5.7717358 8.9477608,-6.3982471 8.4823453,-7.0035569 7.9693875,-7.5821405 7.4111967,-8.1286011 6.8108805,-8.6378179 6.1723014,-9.1050912 5.4999998,-9.526279 4.7990896,-9.8979154 4.0751294,-10.217304 l -0.7411527,-0.265281 -0.7523442,-0.210177 -0.7575468,-0.154943 -0.7569215,-0.100407 -0.75076281,-0.04734 -0.73947837,0.0036 -0.72356622,0.05179 -0.7035871,0.0968 -0.6801408,0.138267 -0.6538394,0.175964 -0.6252877,0.209757 -0.595066,0.239615 -0.5637136,0.265591 -0.531722,0.287803 -0.5151058,0.3165832 -0.5118651,0.355395 -0.505046,0.3955343 -0.4942988,0.4366368 -0.4793084,0.4782596 -0.4598136,0.5198856 -0.4356221,0.560926 -0.4066324,0.6007329 -0.3728462,0.6386132 -0.3343868,0.6738478 -0.291506,0.7057168 -0.244589,0.7335261 -0.194153,0.7566376 -0.140837,0.7744974 -0.08538,0.78666253 L -11,0 l 0.02861,0.79282417 0.08538,0.78666253 0.140837,0.7744974 0.194153,0.7566376 0.244589,0.7335261 0.291506,0.7057168 0.3343868,0.6738478 0.3728462,0.6386132 0.4066324,0.6007329 0.4356221,0.560926 0.4598136,0.5198856 0.4793084,0.4782596 0.4942988,0.4366368 0.505046,0.3955343 0.5118651,0.355395 0.5151058,0.3165832 0.531722,0.287803 0.5637136,0.265591 0.595066,0.239615 0.6252877,0.209757 0.6538394,0.175964 0.6801408,0.138267 0.7035871,0.0968 0.72356622,0.05179 0.73947837,0.0036 L 1.0671642,10.948112 1.8240857,10.847705 2.5816325,10.692762 3.3339767,10.482585 4.0751294,10.217304 4.7990896,9.8979154 5.4999998,9.526279 6.1723014,9.1050912 6.8108805,8.6378179 7.4111967,8.1286011 7.9693875,7.5821405 8.4823453,7.0035569 8.9477608,6.3982471 9.3641366,5.7717358 9.7307688,5.1295348 10.047703,4.4770146 10.315668,3.8192916 10.535995,3.1611387 10.710526,2.5069155 10.841515,1.8605219 10.931535,1.225372 10.983383,0.60438638 11,0"
       id="path20471"
       inkscape:connector-curvature="0" />
  </g>
</svg>
