<?xml version="1.0" encoding="UTF-8"?>
<svg viewBox="-15 -15 30 30" xmlns="http://www.w3.org/2000/svg" xmlns:xlink="http://www.w3.org/1999/xlink" xmlns:gmsvgsym="http://www.intergraph.com/GeoMedia/svgsym">
  <!-- Creator: SVG Document for Symbols-->
  <polygon points="14.9999990935127,0 14.9773404282154,-0.824162950193783 14.9066380991548,-1.67096189901962 14.7838837732398,-2.53707518001157 14.6052621173677,-3.4185211267436 14.3672657984171,-4.31064373949708 14.0668194832404,-5.20812468526007 13.7014125053229,-6.10501963105848 13.2692298647741,-6.99482024395228 12.7692772283208,-7.87054852436318 12.2014919293002,-8.72488213940034 11.5668339676541,-9.55030475618467 10.8673463432592,-10.3392823751715 10.1061770559253,-11.0844556634721 9.28756410539607,-11.7788422881753 8.41677449135338,-12.4160332496682 7.49999954675637,-12.990380214959 6.54421293785027,-13.4971571843332 5.55699433084368,-13.9326874913464 4.54633172525387,-14.2944338028185 3.520407787253,-14.5810391188315 2.48738951634753,-14.7923244393964 1.4552239120572,-14.9292430977887 0.431456640592669,-14.9937927605545 -0.57692296513511,-14.9889004275168 -1.56360423884084,-14.9182810984512 -2.52304118085968,-14.7862854397613 -3.45050612481067,-14.597738784489 -4.34210507092912,-14.3577887989898 -5.19477035273377,-14.0717564829421 -6.00622363702897,-13.745008169355 -6.77492392390783,-13.3828388579084 -7.49999954675637,-12.990380214959 -8.20241650430757,-12.5586759077146 -8.90041446212582,-12.0740462703354 -9.58911375383934,-11.5346813029305 -10.2631573797719,-10.9392676722462 -10.9167596736064,-10.2870953783252 -11.5437779690475,-9.57816042116794 -12.1378085998154,-8.81326146739269 -12.692306899639,-7.99408018356452 -13.2007335355802,-7.12324390285799 -13.6567155080241,-6.20436062505506 -14.0542234840017,-5.24201968321171 -14.3877541305122,-4.24175674366009 -14.6525087811791,-3.20997813934637 -14.8445587695731,-2.15384553650442 -14.9609874292037,-1.08112393466499 -14.9999990935127,0 -14.9609874292037,1.08112393466499 -14.8445587695731,2.15384553650442 -14.6525087811791,3.20997813934637 -14.3877541305122,4.24175674366009 -14.0542234840017,5.24201968321171 -13.6567155080241,6.20436062505506 -13.2007335355802,7.12324390285799 -12.692306899639,7.99408018356452 -12.1378085998154,8.81326146739269 -11.5437779690475,9.57816042116794 -10.9167596736064,10.2870953783252 -10.2631573797719,10.9392676722462 -9.58911375383934,11.5346813029305 -8.90041446212582,12.0740462703354 -8.20241650430757,12.5586759077146 -7.49999954675637,12.990380214959 -6.77492392390783,13.3828388579084 -6.00622363702897,13.745008169355 -5.19477035273377,14.0717564829421 -4.34210507092912,14.3577887989898 -3.45050612481067,14.597738784489 -2.52304118085968,14.7862854397613 -1.56360423884084,14.9182810984512 -0.57692296513511,14.9889004275168 0.431456640592669,14.9937927605545 1.4552239120572,14.9292430977887 2.48738951634753,14.7923244393964 3.520407787253,14.5810391188315 4.54633172525387,14.2944338028185 5.55699433084368,13.9326874913464 6.54421293785027,13.4971571843332 7.49999954675637,12.990380214959 8.41677449135338,12.4160332496682 9.28756410539607,11.7788422881753 10.1061770559253,11.0844556634721 10.8673463432592,10.3392823751715 11.5668339676541,9.55030475618467 12.2014919293002,8.72488213940034 12.7692772283208,7.87054852436318 13.2692298647741,6.99482024395228 13.7014125053229,6.10501963105848 14.0668194832404,5.20812468526007 14.3672657984171,4.31064373949708 14.6052621173677,3.4185211267436 14.7838837732398,2.53707518001157 14.9066380991548,1.67096189901962 14.9773404282154,0.824162950193783 14.9999990935127,0" style=" fill-rule: evenodd; fill: #ffffff; " xmlns="http://www.w3.org/2000/svg" />
  <polyline points="14.9999990935127,0 14.9773404282154,-0.824162950193783 14.9066380991548,-1.67096189901962 14.7838837732398,-2.53707518001157 14.6052621173677,-3.4185211267436 14.3672657984171,-4.31064373949708 14.0668194832404,-5.20812468526007 13.7014125053229,-6.10501963105848 13.2692298647741,-6.99482024395228 12.7692772283208,-7.87054852436318 12.2014919293002,-8.72488213940034 11.5668339676541,-9.55030475618467 10.8673463432592,-10.3392823751715 10.1061770559253,-11.0844556634721 9.28756410539607,-11.7788422881753 8.41677449135338,-12.4160332496682 7.49999954675637,-12.990380214959 6.54421293785027,-13.4971571843332 5.55699433084368,-13.9326874913464 4.54633172525387,-14.2944338028185 3.520407787253,-14.5810391188315 2.48738951634753,-14.7923244393964 1.4552239120572,-14.9292430977887 0.431456640592669,-14.9937927605545 -0.57692296513511,-14.9889004275168 -1.56360423884084,-14.9182810984512 -2.52304118085968,-14.7862854397613 -3.45050612481067,-14.597738784489 -4.34210507092912,-14.3577887989898 -5.19477035273377,-14.0717564829421 -6.00622363702897,-13.745008169355 -6.77492392390783,-13.3828388579084 -7.49999954675637,-12.990380214959 -8.20241650430757,-12.5586759077146 -8.90041446212582,-12.0740462703354 -9.58911375383934,-11.5346813029305 -10.2631573797719,-10.9392676722462 -10.9167596736064,-10.2870953783252 -11.5437779690475,-9.57816042116794 -12.1378085998154,-8.81326146739269 -12.692306899639,-7.99408018356452 -13.2007335355802,-7.12324390285799 -13.6567155080241,-6.20436062505506 -14.0542234840017,-5.24201968321171 -14.3877541305122,-4.24175674366009 -14.6525087811791,-3.20997813934637 -14.8445587695731,-2.15384553650442 -14.9609874292037,-1.08112393466499 -14.9999990935127,0 -14.9609874292037,1.08112393466499 -14.8445587695731,2.15384553650442 -14.6525087811791,3.20997813934637 -14.3877541305122,4.24175674366009 -14.0542234840017,5.24201968321171 -13.6567155080241,6.20436062505506 -13.2007335355802,7.12324390285799 -12.692306899639,7.99408018356452 -12.1378085998154,8.81326146739269 -11.5437779690475,9.57816042116794 -10.9167596736064,10.2870953783252 -10.2631573797719,10.9392676722462 -9.58911375383934,11.5346813029305 -8.90041446212582,12.0740462703354 -8.20241650430757,12.5586759077146 -7.49999954675637,12.990380214959 -6.77492392390783,13.3828388579084 -6.00622363702897,13.745008169355 -5.19477035273377,14.0717564829421 -4.34210507092912,14.3577887989898 -3.45050612481067,14.597738784489 -2.52304118085968,14.7862854397613 -1.56360423884084,14.9182810984512 -0.57692296513511,14.9889004275168 0.431456640592669,14.9937927605545 1.4552239120572,14.9292430977887 2.48738951634753,14.7923244393964 3.520407787253,14.5810391188315 4.54633172525387,14.2944338028185 5.55699433084368,13.9326874913464 6.54421293785027,13.4971571843332 7.49999954675637,12.990380214959 8.41677449135338,12.4160332496682 9.28756410539607,11.7788422881753 10.1061770559253,11.0844556634721 10.8673463432592,10.3392823751715 11.5668339676541,9.55030475618467 12.2014919293002,8.72488213940034 12.7692772283208,7.87054852436318 13.2692298647741,6.99482024395228 13.7014125053229,6.10501963105848 14.0668194832404,5.20812468526007 14.3672657984171,4.31064373949708 14.6052621173677,3.4185211267436 14.7838837732398,2.53707518001157 14.9066380991548,1.67096189901962 14.9773404282154,0.824162950193783 14.9999990935127,0" style=" stroke-width: 0.0000010000;stroke: #ffffff; fill: none; " xmlns="http://www.w3.org/2000/svg" />
</svg>