<?xml version="1.0" encoding="UTF-8" standalone="no"?>
<svg
   viewBox="-14.99999868733 -50.740882347047 30 59.1976954152198"
   version="1.1"
   id="svg31"
   sodipodi:docname="0010_630.svg"
   inkscape:version="1.2.2 (732a01da63, 2022-12-09)"
   xmlns:inkscape="http://www.inkscape.org/namespaces/inkscape"
   xmlns:sodipodi="http://sodipodi.sourceforge.net/DTD/sodipodi-0.dtd"
   xmlns="http://www.w3.org/2000/svg"
   xmlns:svg="http://www.w3.org/2000/svg">
  <defs
     id="defs35" />
  <sodipodi:namedview
     id="namedview33"
     pagecolor="#ffffff"
     bordercolor="#000000"
     borderopacity="0.25"
     inkscape:showpageshadow="2"
     inkscape:pageopacity="0.0"
     inkscape:pagecheckerboard="0"
     inkscape:deskcolor="#d1d1d1"
     showgrid="false"
     inkscape:zoom="3.9866416"
     inkscape:cx="-21.572042"
     inkscape:cy="29.724267"
     inkscape:window-width="1920"
     inkscape:window-height="1018"
     inkscape:window-x="-8"
     inkscape:window-y="-8"
     inkscape:window-maximized="1"
     inkscape:current-layer="svg31" />
  <!-- Creator: SVG Document for Symbols-->
  <path
     id="LineString2d_1286"
     style=" stroke-width: 0.0000010000;stroke: #000000; fill: none; "
     d="M -8.45681417063762 0 L -8.16865505565895 -2.18878540395625 L -1.83230933997113E-06 -33.8272493533131 L 8.16865139104027 -2.18878441732815 L 8.45681050601894 0 L 8.16865237766838 2.18878089365634 L 7.32381414707881 4.22840320927982 L 5.97986979264957 5.97986697371212 L 4.2284068738985 7.32381273761009 L 2.18878469922189 8.16865280050899 L 0 8.45681233832828 L -2.18878498111564 8.1686537871371 L -4.22840786052661 7.32381442897255 L -5.97987176590578 5.97986880602146 L -7.32381696601625 4.22840490064229 L -8.16865590134018 2.18878188028445 L -8.45681417063762 0 " />
  <g
     id="ComplexString2d_1287"
     style="fill-rule:evenodd;stroke-width:0;stroke:#1a171b;fill:#1a171b;fill-opacity:1;stroke-opacity:1">
    <path
       d="M -8.45681417063762 0 L -8.16865505565895 -2.18878540395625 L -1.83230933997113E-06 -33.8272493533131 L 8.16865139104027 -2.18878441732815 L 8.45681050601894 0 L 8.16865237766838 2.18878089365634 L 7.32381414707881 4.22840320927982 L 5.97986979264957 5.97986697371212 L 4.2284068738985 7.32381273761009 L 2.18878469922189 8.16865280050899 L 0 8.45681233832828 L -2.18878498111564 8.1686537871371 L -4.22840786052661 7.32381442897255 L -5.97987176590578 5.97986880602146 L -7.32381696601625 4.22840490064229 L -8.16865590134018 2.18878188028445 L -8.45681417063762 0 "
       id="path3"
       style="fill:#1a171b;fill-opacity:1;stroke:#1a171b;stroke-opacity:1" />
  </g>
  <polyline
     points="7.04734361527356,0 7.0366980389552,-0.387210657066314 7.00348052577148,-0.785056178488692 6.94580774361466,-1.19197614144384 6.86188727110962,-1.60609961714878 6.7500710164785,-2.0252392510922 6.60891441522704,-2.44689647806873 6.43723788298091,-2.86827829485678 6.2341885502158,-3.28632700000856 5.99929917805001,-3.6977643102211 5.73254073142784,-4.0991498532883 5.43436395844694,-4.48695220532455 5.10572856636082,-4.85763190847252 4.74811379259434,-5.20773153595455 4.36351065266568,-5.53397026742398 3.9543937508119,-5.83333719579463 3.52367180763678,-6.10317857335473 3.07462127413393,-6.34127406402486 2.61080345492589,-6.54589622293803 2.13597091954093,-6.71585292144828 1.65396841676178,-6.85050665685219 1.16863266139948,-6.94977342481385 0.683697477048276,-7.01410073165283 0.202708100387261,-7.04442770637931 -0.271051688352589,-7.04212914478575 -0.734617071712329,-7.00895067388566 -1.18538264675739,-6.94693602332746 -1.6211268088865,-6.85835260544594 -2.04002049053774,-6.74561850478237 -2.44062222804805,-6.61123397790457 -2.82186167086915,-6.45772014151747 -3.18301477491799,-6.28756470791726 -3.52367180763678,-6.10317857335473 -3.85368340498409,-5.90035390990408 -4.18161885490234,-5.67266396302878 -4.5051855155666,-5.41925783646073 -4.821866639625,-5.13951888763359 -5.12894406664513,-4.83311335435375 -5.42353176846964,-4.50003954525873 -5.70262081126858,-4.14067237902887 -5.96313686186321,-3.75580228572406 -6.20200741938414,-3.34666339615821 -6.41623820847612,-2.9149510193114 -6.60299661984642,-2.46282107854242 -6.7596969831226,-1.9928746074328 -6.88408471213526,-1.50812138549374 -6.97431410759157,-1.01192595551405 -7.02901502494583,-0.507936868230225 -7.04734361527356,0 -7.02901502494583,0.507936868230225 -6.97431410759157,1.01192595551405 -6.88408471213526,1.50812138549374 -6.7596969831226,1.9928746074328 -6.60299661984642,2.46282107854242 -6.41623820847612,2.9149510193114 -6.20200741938414,3.34666339615821 -5.96313686186321,3.75580228572406 -5.70262081126858,4.14067237902887 -5.42353176846964,4.50003954525873 -5.12894406664513,4.83311335435375 -4.821866639625,5.13951888763359 -4.5051855155666,5.41925783646073 -4.18161885490234,5.67266396302878 -3.85368340498409,5.90035390990408 -3.52367180763678,6.10317857335473 -3.18301477491799,6.28756470791726 -2.82186167086915,6.45772014151747 -2.44062222804805,6.61123397790457 -2.04002049053774,6.74561850478237 -1.6211268088865,6.85835260544594 -1.18538264675739,6.94693602332746 -0.734617071712329,7.00895067388566 -0.271051688352589,7.04212914478575 0.202708100387261,7.04442770637931 0.683697477048276,7.01410073165283 1.16863266139948,6.94977342481385 1.65396841676178,6.85050665685219 2.13597091954093,6.71585292144828 2.61080345492589,6.54589622293803 3.07462127413393,6.34127406402486 3.52367180763678,6.10317857335473 3.9543937508119,5.83333719579463 4.36351065266568,5.53397026742398 4.74811379259434,5.20773153595455 5.10572856636082,4.85763190847252 5.43436395844694,4.48695220532455 5.73254073142784,4.0991498532883 5.99929917805001,3.6977643102211 6.2341885502158,3.28632700000856 6.43723788298091,2.86827829485678 6.60891441522704,2.44689647806873 6.7500710164785,2.0252392510922 6.86188727110962,1.60609961714878 6.94580774361466,1.19197614144384 7.00348052577148,0.785056178488692 7.0366980389552,0.387210657066314 7.04734361527356,0"
     style=" stroke-width: 0.0000010000;stroke: #000000; fill: none; "
     id="polyline6" />
  <g
     id="ComplexString2d_1288"
     style=" fill-rule: evenodd; stroke-width: 0.0000000000;stroke: #ffffff; fill: #ffffff; ">
    <path
       d="M 7.04734361527356 0 L 7.0366980389552 -0.387210657066314 L 7.00348052577148 -0.785056178488692 L 6.94580774361466 -1.19197614144384 L 6.86188727110962 -1.60609961714878 L 6.7500710164785 -2.0252392510922 L 6.60891441522704 -2.44689647806873 L 6.43723788298091 -2.86827829485678 L 6.2341885502158 -3.28632700000856 L 5.99929917805001 -3.6977643102211 L 5.73254073142784 -4.0991498532883 L 5.43436395844694 -4.48695220532455 L 5.10572856636082 -4.85763190847252 L 4.74811379259434 -5.20773153595455 L 4.36351065266568 -5.53397026742398 L 3.9543937508119 -5.83333719579463 L 3.52367180763678 -6.10317857335473 L 3.07462127413393 -6.34127406402486 L 2.61080345492589 -6.54589622293803 L 2.13597091954093 -6.71585292144828 L 1.65396841676178 -6.85050665685219 L 1.16863266139948 -6.94977342481385 L 0.683697477048276 -7.01410073165283 L 0.202708100387261 -7.04442770637931 L -0.271051688352589 -7.04212914478575 L -0.734617071712329 -7.00895067388566 L -1.18538264675739 -6.94693602332746 L -1.6211268088865 -6.85835260544594 L -2.04002049053774 -6.74561850478237 L -2.44062222804805 -6.61123397790457 L -2.82186167086915 -6.45772014151747 L -3.18301477491799 -6.28756470791726 L -3.52367180763678 -6.10317857335473 L -3.85368340498409 -5.90035390990408 L -4.18161885490234 -5.67266396302878 L -4.5051855155666 -5.41925783646073 L -4.821866639625 -5.13951888763359 L -5.12894406664513 -4.83311335435375 L -5.42353176846964 -4.50003954525873 L -5.70262081126858 -4.14067237902887 L -5.96313686186321 -3.75580228572406 L -6.20200741938414 -3.34666339615821 L -6.41623820847612 -2.9149510193114 L -6.60299661984642 -2.46282107854242 L -6.7596969831226 -1.9928746074328 L -6.88408471213526 -1.50812138549374 L -6.97431410759157 -1.01192595551405 L -7.02901502494583 -0.507936868230225 L -7.04734361527356 0 L -7.02901502494583 0.507936868230225 L -6.97431410759157 1.01192595551405 L -6.88408471213526 1.50812138549374 L -6.7596969831226 1.9928746074328 L -6.60299661984642 2.46282107854242 L -6.41623820847612 2.9149510193114 L -6.20200741938414 3.34666339615821 L -5.96313686186321 3.75580228572406 L -5.70262081126858 4.14067237902887 L -5.42353176846964 4.50003954525873 L -5.12894406664513 4.83311335435375 L -4.821866639625 5.13951888763359 L -4.5051855155666 5.41925783646073 L -4.18161885490234 5.67266396302878 L -3.85368340498409 5.90035390990408 L -3.52367180763678 6.10317857335473 L -3.18301477491799 6.28756470791726 L -2.82186167086915 6.45772014151747 L -2.44062222804805 6.61123397790457 L -2.04002049053774 6.74561850478237 L -1.6211268088865 6.85835260544594 L -1.18538264675739 6.94693602332746 L -0.734617071712329 7.00895067388566 L -0.271051688352589 7.04212914478575 L 0.202708100387261 7.04442770637931 L 0.683697477048276 7.01410073165283 L 1.16863266139948 6.94977342481385 L 1.65396841676178 6.85050665685219 L 2.13597091954093 6.71585292144828 L 2.61080345492589 6.54589622293803 L 3.07462127413393 6.34127406402486 L 3.52367180763678 6.10317857335473 L 3.9543937508119 5.83333719579463 L 4.36351065266568 5.53397026742398 L 4.74811379259434 5.20773153595455 L 5.10572856636082 4.85763190847252 L 5.43436395844694 4.48695220532455 L 5.73254073142784 4.0991498532883 L 5.99929917805001 3.6977643102211 L 6.2341885502158 3.28632700000856 L 6.43723788298091 2.86827829485678 L 6.60891441522704 2.44689647806873 L 6.7500710164785 2.0252392510922 L 6.86188727110962 1.60609961714878 L 6.94580774361466 1.19197614144384 L 7.00348052577148 0.785056178488692 L 7.0366980389552 0.387210657066314 L 7.04734361527356 0 "
       id="path8" />
  </g>
  <path
     id="LineString2d_1289"
     style=" stroke-width: 0.0000010000;stroke: #000000; fill: none; "
     d="M 5.23491398595989 -31.6186308921141 L 14.9999997033275 -25.9807559998953 L 14.2952653418001 -24.7601202852243 L 4.53017962443253 -30.3979951774432 L 5.23491398595989 -31.6186308921141 " />
  <g
     id="ComplexString2d_1290"
     style="fill-rule:evenodd;stroke-width:0;stroke:#1a171b;fill:#1a171b;stroke-opacity:1;fill-opacity:1">
    <path
       d="M 5.23491398595989 -31.6186308921141 L 14.9999997033275 -25.9807559998953 L 14.2952653418001 -24.7601202852243 L 4.53017962443253 -30.3979951774432 L 5.23491398595989 -31.6186308921141 "
       id="path12"
       style="stroke:#1a171b;stroke-opacity:1;fill:#1a171b;fill-opacity:1" />
  </g>
  <path
     id="LineString2d_1291"
     style=" stroke-width: 0.0000010000;stroke: #000000; fill: none; "
     d="M 4.53017384561077 -37.256504656758 L 14.2952595629783 -42.8943795489769 L 14.9999939245057 -41.6737438343059 L 5.23490820713813 -36.0358689420871 L 4.53017384561077 -37.256504656758 " />
  <g
     id="ComplexString2d_1292"
     style="fill-rule:evenodd;stroke-width:0;stroke:#1a171b;fill:#1a171b;fill-opacity:1;stroke-opacity:1">
    <path
       d="M 4.53017384561077 -37.256504656758 L 14.2952595629783 -42.8943795489769 L 14.9999939245057 -41.6737438343059 L 5.23490820713813 -36.0358689420871 L 4.53017384561077 -37.256504656758 "
       id="path16"
       style="fill:#1a171b;fill-opacity:1;stroke:#1a171b;stroke-opacity:1" />
  </g>
  <path
     id="LineString2d_1293"
     style=" stroke-width: 0.0000010000;stroke: #000000; fill: none; "
     d="M -0.704728582705592 -39.4651260778413 L -0.704728582705592 -50.740875862279 L 0.704740140349121 -50.740875862279 L 0.704740140349121 -39.4651260778413 L -0.704728582705592 -39.4651260778413 " />
  <g
     id="ComplexString2d_1294"
     style="fill-rule:evenodd;stroke-width:0;stroke:#1a171b;fill:#1a171b;stroke-opacity:1;fill-opacity:1">
    <path
       d="M -0.704728582705592 -39.4651260778413 L -0.704728582705592 -50.740875862279 L 0.704740140349121 -50.740875862279 L 0.704740140349121 -39.4651260778413 L -0.704728582705592 -39.4651260778413 "
       id="path20"
       style="stroke:#1a171b;stroke-opacity:1;fill:#1a171b;fill-opacity:1" />
  </g>
  <path
     id="LineString2d_1295"
     style=" stroke-width: 0.0000010000;stroke: #000000; fill: none; "
     d="M -4.53017173140768 -37.256505784333 L -14.2952574487753 -42.8943806765518 L -14.9999918103026 -41.6737449618809 L -5.23490609293504 -36.035870069662 L -4.53017173140768 -37.256505784333 " />
  <g
     id="ComplexString2d_1296"
     style="fill-rule:evenodd;stroke-width:0;stroke:#1a171b;fill:#1a171b;stroke-opacity:1;fill-opacity:1">
    <path
       d="M -4.53017173140768 -37.256505784333 L -14.2952574487753 -42.8943806765518 L -14.9999918103026 -41.6737449618809 L -5.23490609293504 -36.035870069662 L -4.53017173140768 -37.256505784333 "
       id="path24"
       style="stroke:#1a171b;stroke-opacity:1;fill:#1a171b;fill-opacity:1" />
  </g>
  <path
     id="LineString2d_1297"
     style=" stroke-width: 0.0000010000;stroke: #000000; fill: none; "
     d="M -5.23491201270368 -31.6186297645392 L -14.9999977300713 -25.9807548723203 L -14.2952633685439 -24.7601191576494 L -4.53017765117632 -30.3979940498682 L -5.23491201270368 -31.6186297645392 " />
  <g
     id="ComplexString2d_1298"
     style="fill-rule:evenodd;stroke-width:0;stroke:#1a171b;fill:#1a171b;fill-opacity:1;stroke-opacity:1">
    <path
       d="M -5.23491201270368 -31.6186297645392 L -14.9999977300713 -25.9807548723203 L -14.2952633685439 -24.7601191576494 L -4.53017765117632 -30.3979940498682 L -5.23491201270368 -31.6186297645392 "
       id="path28"
       style="fill:#1a171b;fill-opacity:1;stroke:#1a171b;stroke-opacity:1" />
  </g>
</svg>
