<?xml version="1.0" encoding="UTF-8"?>
<svg viewBox="-15 -15 30 30" xmlns="http://www.w3.org/2000/svg" xmlns:xlink="http://www.w3.org/1999/xlink" xmlns:gmsvgsym="http://www.intergraph.com/GeoMedia/svgsym">
  <!-- Creator: SVG Document for Symbols-->
  <polyline points="14.9999989382923,0 14.9066377449005,-1.67096148172848 14.7838837535891,-2.53707522042451 14.605261966232,-3.4185213580353 14.3672653830775,-4.31064329489044 14.0668190043433,-5.20812503136623 13.701412430207,-6.10501936788358 13.2692300607971,-6.99481990490304 12.769277096184,-7.87054864291851 12.2014917363721,-8.72488198244835 11.5668339812935,-9.55030492402449 10.8673462308036,-10.3392820681803 10.1061766846796,-11.0844556154365 9.28756434262141,-11.7788421662875 8.41677420425638,-12.4160331211868 7.49999946914617,-12.9903800805342 6.54421273679725,-13.4971568446643 5.55699440667307,-13.9326872138372 4.5463316782083,-14.2944337882326 3.52040795082371,-14.5810387679466 2.48738922394131,-14.7923245529916 1.45522369699852,-14.9292427433005 0.431456369461296,-14.9937925387316 -0.57692275916511,-14.9889001390779 -1.5636040893273,-14.9182813440764 -2.52304122141784,-14.7862849534191 -3.4505061557714,-14.5977385667645 -4.34210489266358,-14.3577883837483 -5.19477023231148,-14.0717564039938 -6.00622337487641,-13.7450078271213 -6.77492412046738,-13.3828388527558 -7.49999946914617,-12.9903800805342 -8.90041437002408,-12.0740463453928 -9.5891135212776,-11.5346811835693 -10.2631570735685,-10.939267625713 -10.9167598273061,-10.2870952718741 -11.5437777829255,-9.57816052205286 -12.1378083408797,-8.81326137619281 -12.692306701632,-7.99408023417488 -13.2007334656453,-7.12324389581312 -13.6567154333706,-6.20436076085215 -14.0542232052348,-5.24201962896715 -14.3877541816273,-4.24175669976627 -14.6525083628879,-3.20997817279609 -14.8445587492945,-2.15384564754969 -14.9609869410536,-1.08112372347751 -14.9999989382923,0 -14.9609869410536,1.08112372347751 -14.8445587492945,2.15384564754969 -14.6525083628879,3.20997817279609 -14.3877541816273,4.24175669976627 -14.0542232052348,5.24201962896715 -13.6567154333706,6.20436076085215 -13.2007334656453,7.12324389581312 -12.692306701632,7.99408023417488 -12.1378083408797,8.81326137619281 -11.5437777829255,9.57816052205286 -10.9167598273061,10.2870952718741 -10.2631570735685,10.939267625713 -9.5891135212776,11.5346811835693 -8.90041437002408,12.0740463453928 -8.20241641942874,12.5586759110904 -7.49999946914617,12.9903800805342 -6.00622337487641,13.7450078271213 -5.19477023231148,14.0717564039938 -4.34210489266358,14.3577883837483 -3.4505061557714,14.5977385667645 -2.52304122141784,14.7862849534191 -1.5636040893273,14.9182813440764 -0.57692275916511,14.9889001390779 0.431456369461296,14.9937925387316 1.45522369699852,14.9292427433005 2.48738922394131,14.7923245529916 3.52040795082371,14.5810387679466 4.5463316782083,14.2944337882326 5.55699440667307,13.9326872138372 6.54421273679725,13.4971568446643 7.49999946914617,12.9903800805342 8.41677420425638,12.4160331211868 9.28756434262141,11.7788421662875 10.1061766846796,11.0844556154365 10.8673462308036,10.3392820681803 11.5668339812935,9.55030492402449 12.2014917363721,8.72488198244835 12.769277096184,7.87054864291851 13.2692300607971,6.99481990490304 13.701412430207,6.10501936788358 14.0668190043433,5.20812503136623 14.3672653830775,4.31064329489044 14.605261966232,3.4185213580353 14.7838837535891,2.53707522042451 14.9066377449005,1.67096148172848 14.9773405398961,0.824162941665322 14.9999989382923,0" style=" stroke-width: 0.0000010000;stroke: #59d9ff; fill: none; " xmlns="http://www.w3.org/2000/svg" />
  <polygon points="14.9999989382923,0 14.9066377449005,-1.67096148172848 14.7838837535891,-2.53707522042451 14.605261966232,-3.4185213580353 14.3672653830775,-4.31064329489044 14.0668190043433,-5.20812503136623 13.701412430207,-6.10501936788358 13.2692300607971,-6.99481990490304 12.769277096184,-7.87054864291851 12.2014917363721,-8.72488198244835 11.5668339812935,-9.55030492402449 10.8673462308036,-10.3392820681803 10.1061766846796,-11.0844556154365 9.28756434262141,-11.7788421662875 8.41677420425638,-12.4160331211868 7.49999946914617,-12.9903800805342 6.54421273679725,-13.4971568446643 5.55699440667307,-13.9326872138372 4.5463316782083,-14.2944337882326 3.52040795082371,-14.5810387679466 2.48738922394131,-14.7923245529916 1.45522369699852,-14.9292427433005 0.431456369461296,-14.9937925387316 -0.57692275916511,-14.9889001390779 -1.5636040893273,-14.9182813440764 -2.52304122141784,-14.7862849534191 -3.4505061557714,-14.5977385667645 -4.34210489266358,-14.3577883837483 -5.19477023231148,-14.0717564039938 -6.00622337487641,-13.7450078271213 -6.77492412046738,-13.3828388527558 -7.49999946914617,-12.9903800805342 -8.90041437002408,-12.0740463453928 -9.5891135212776,-11.5346811835693 -10.2631570735685,-10.939267625713 -10.9167598273061,-10.2870952718741 -11.5437777829255,-9.57816052205286 -12.1378083408797,-8.81326137619281 -12.692306701632,-7.99408023417488 -13.2007334656453,-7.12324389581312 -13.6567154333706,-6.20436076085215 -14.0542232052348,-5.24201962896715 -14.3877541816273,-4.24175669976627 -14.6525083628879,-3.20997817279609 -14.8445587492945,-2.15384564754969 -14.9609869410536,-1.08112372347751 -14.9999989382923,0 -14.9609869410536,1.08112372347751 -14.8445587492945,2.15384564754969 -14.6525083628879,3.20997817279609 -14.3877541816273,4.24175669976627 -14.0542232052348,5.24201962896715 -13.6567154333706,6.20436076085215 -13.2007334656453,7.12324389581312 -12.692306701632,7.99408023417488 -12.1378083408797,8.81326137619281 -11.5437777829255,9.57816052205286 -10.9167598273061,10.2870952718741 -10.2631570735685,10.939267625713 -9.5891135212776,11.5346811835693 -8.90041437002408,12.0740463453928 -8.20241641942874,12.5586759110904 -7.49999946914617,12.9903800805342 -6.00622337487641,13.7450078271213 -5.19477023231148,14.0717564039938 -4.34210489266358,14.3577883837483 -3.4505061557714,14.5977385667645 -2.52304122141784,14.7862849534191 -1.5636040893273,14.9182813440764 -0.57692275916511,14.9889001390779 0.431456369461296,14.9937925387316 1.45522369699852,14.9292427433005 2.48738922394131,14.7923245529916 3.52040795082371,14.5810387679466 4.5463316782083,14.2944337882326 5.55699440667307,13.9326872138372 6.54421273679725,13.4971568446643 7.49999946914617,12.9903800805342 8.41677420425638,12.4160331211868 9.28756434262141,11.7788421662875 10.1061766846796,11.0844556154365 10.8673462308036,10.3392820681803 11.5668339812935,9.55030492402449 12.2014917363721,8.72488198244835 12.769277096184,7.87054864291851 13.2692300607971,6.99481990490304 13.701412430207,6.10501936788358 14.0668190043433,5.20812503136623 14.3672653830775,4.31064329489044 14.605261966232,3.4185213580353 14.7838837535891,2.53707522042451 14.9066377449005,1.67096148172848 14.9773405398961,0.824162941665322 14.9999989382923,0" style=" fill-rule: evenodd; fill: #59d9ff; " xmlns="http://www.w3.org/2000/svg" />
  <polyline points="8.9999993629754,0 8.98640396393769,-0.494497764999193 8.94398276694029,-1.00257712903707 8.87033037215344,-1.52224489225472 8.76315717973922,-2.0511124548212 8.6203595898465,-2.58638621693425 8.44009140260598,-3.12487477881975 8.2208472181242,-3.66301174073014 7.96153803647823,-4.1968923029418 7.66156625771039,-4.72232906575111 7.49629686940824,-4.98051444747662 7.32089528182326,-5.234929429469 7.13545209494902,-5.48500821176829 6.94010050877611,-5.73018259441472 6.73501392329224,-5.96988917744817 6.52040773848218,-6.20356936090816 6.2965393543277,-6.43067534483348 6.06370637080774,-6.65067312926193 5.82224718789834,-6.86304791422993 5.57253860557284,-7.06730529977249 5.31499462380194,-7.26297608592281 5.05006464255382,-7.44961987271206 4.77822926179447,-7.62682866016914 4.4999996814877,-7.79422804832052 4.21591230159555,-7.95148203719 3.92652752207836,-8.09829422679856 3.63242434289513,-8.23440841716433 3.33419676400383,-8.35961220830234 3.03245078536157,-8.47373760022448 2.72779900692498,-8.57666039293956 2.42085822865041,-8.66830018645324 2.11224465049423,-8.74862338076793 1.80256907241323,-8.81763777588305 1.49243389436476,-8.87539437179501 1.18243011630699,-8.92198676849718 0.873134338199101,-8.95754576598029 0.565103360001693,-8.98224056423238 0.258874181676752,-8.99627576323896 -0.0450407968119892,-8.99988656298339 -0.346153775499057,-8.99333996344676 -0.938162333596386,-8.95096856644583 -1.51382449285072,-8.87177097205148 -2.07030345346285,-8.75864338005871 -2.60526281559815,-8.61467339024898 -3.11686237938687,-8.44305360239631 -3.60373414492584,-8.24700481627275 -4.06495411228045,-8.02970343165345 -4.4999996814877,-7.79422804832052 -4.92144985165724,-7.53520566665426 -5.34024862201445,-7.24442768723567 -5.75346799276657,-6.92080871014159 -6.15789436414106,-6.56356033542781 -6.55005553638369,-6.17225716312446 -6.92626690975526,-5.74689619323172 -7.28268488452781,-5.28795682571569 -7.61538426097917,-4.79644826050492 -7.92043983938718,-4.27394609748789 -8.06140022940994,-4.00172671675572 -8.1940290200224,-3.7226163365113 -8.31788221125601,-3.43697855672889 -8.43253380314091,-3.14521177738029 -8.53758239570552,-2.84774859843489 -8.63265238897641,-2.54505401985976 -8.7173975829781,-2.23762544161972 -8.79150537773272,-1.92598666367767 -8.85469737325995,-1.61068968599455 -8.90673536957668,-1.29230750852981 -8.94741896669707,-0.971432331241519 -8.97659216463218,-0.648674354086495 -8.99414216338998,-0.324653977020824 -8.9999993629754,0 -8.99414216338998,0.324653977020824 -8.97659216463218,0.648674354086495 -8.94741896669707,0.971432331241519 -8.90673536957668,1.29230750852981 -8.85469737325995,1.61068968599455 -8.79150537773272,1.92598666367767 -8.7173975829781,2.23762544161972 -8.63265238897641,2.54505401985976 -8.53758239570552,2.84774859843489 -8.43253380314091,3.14521177738029 -8.31788221125601,3.43697855672889 -8.1940290200224,3.7226163365113 -8.06140022940994,4.00172671675572 -7.92043983938718,4.27394609748789 -7.77160984992145,4.53894987873079 -7.61538426097917,4.79644826050492 -7.28268488452781,5.28795682571569 -6.92626690975526,5.74689619323172 -6.55005553638369,6.17225716312446 -6.15789436414106,6.56356033542781 -5.75346799276657,6.92080871014159 -5.34024862201445,7.24442768723567 -4.92144985165724,7.53520566665426 -4.4999996814877,7.79422804832052 -4.06495411228045,8.02970343165345 -3.60373414492584,8.24700481627275 -3.11686237938687,8.44305360239631 -2.60526281559815,8.61467339024898 -2.07030345346285,8.75864338005871 -1.51382449285072,8.87177097205148 -0.938162333596386,8.95096856644583 -0.346153775499057,8.99333996344676 0.258874181676752,8.99627576323896 0.565103360001693,8.98224056423238 0.873134338199101,8.95754576598029 1.18243011630699,8.92198676849718 1.49243389436476,8.87539437179501 1.80256907241323,8.81763777588305 2.11224465049423,8.74862338076793 2.42085822865041,8.66830018645324 2.72779900692498,8.57666039293956 3.03245078536157,8.47373760022448 3.33419676400383,8.35961220830234 3.63242434289513,8.23440841716433 3.92652752207836,8.09829422679856 4.21591230159555,7.95148203719 4.4999996814877,7.79422804832052 4.77822926179447,7.62682866016914 5.05006464255382,7.44961987271206 5.31499462380194,7.26297608592281 5.57253860557284,7.06730529977249 5.82224718789834,6.86304791422993 6.06370637080774,6.65067312926193 6.2965393543277,6.43067534483348 6.52040773848218,6.20356936090816 6.73501392329224,5.96988917744817 6.94010050877611,5.73018259441472 7.13545209494902,5.48500821176829 7.32089528182326,5.234929429469 7.49629686940824,4.98051444747662 7.66156625771039,4.72232906575111 7.81665124673339,4.4609366842526 7.96153803647823,4.1968923029418 8.2208472181242,3.66301174073014 8.44009140260598,3.12487477881975 8.6203595898465,2.58638621693425 8.76315717973922,2.0511124548212 8.87033037215344,1.52224489225472 8.94398276694029,1.00257712903707 8.98640396393769,0.494497764999193 8.9999993629754,0" style=" stroke-width: 0.0000010000;stroke: #ffffff; fill: none; " xmlns="http://www.w3.org/2000/svg" />
  <polygon points="8.9999993629754,0 8.98640396393769,-0.494497764999193 8.94398276694029,-1.00257712903707 8.87033037215344,-1.52224489225472 8.76315717973922,-2.0511124548212 8.6203595898465,-2.58638621693425 8.44009140260598,-3.12487477881975 8.2208472181242,-3.66301174073014 7.96153803647823,-4.1968923029418 7.66156625771039,-4.72232906575111 7.49629686940824,-4.98051444747662 7.32089528182326,-5.234929429469 7.13545209494902,-5.48500821176829 6.94010050877611,-5.73018259441472 6.73501392329224,-5.96988917744817 6.52040773848218,-6.20356936090816 6.2965393543277,-6.43067534483348 6.06370637080774,-6.65067312926193 5.82224718789834,-6.86304791422993 5.57253860557284,-7.06730529977249 5.31499462380194,-7.26297608592281 5.05006464255382,-7.44961987271206 4.77822926179447,-7.62682866016914 4.4999996814877,-7.79422804832052 4.21591230159555,-7.95148203719 3.92652752207836,-8.09829422679856 3.63242434289513,-8.23440841716433 3.33419676400383,-8.35961220830234 3.03245078536157,-8.47373760022448 2.72779900692498,-8.57666039293956 2.42085822865041,-8.66830018645324 2.11224465049423,-8.74862338076793 1.80256907241323,-8.81763777588305 1.49243389436476,-8.87539437179501 1.18243011630699,-8.92198676849718 0.873134338199101,-8.95754576598029 0.565103360001693,-8.98224056423238 0.258874181676752,-8.99627576323896 -0.0450407968119892,-8.99988656298339 -0.346153775499057,-8.99333996344676 -0.938162333596386,-8.95096856644583 -1.51382449285072,-8.87177097205148 -2.07030345346285,-8.75864338005871 -2.60526281559815,-8.61467339024898 -3.11686237938687,-8.44305360239631 -3.60373414492584,-8.24700481627275 -4.06495411228045,-8.02970343165345 -4.4999996814877,-7.79422804832052 -4.92144985165724,-7.53520566665426 -5.34024862201445,-7.24442768723567 -5.75346799276657,-6.92080871014159 -6.15789436414106,-6.56356033542781 -6.55005553638369,-6.17225716312446 -6.92626690975526,-5.74689619323172 -7.28268488452781,-5.28795682571569 -7.61538426097917,-4.79644826050492 -7.92043983938718,-4.27394609748789 -8.06140022940994,-4.00172671675572 -8.1940290200224,-3.7226163365113 -8.31788221125601,-3.43697855672889 -8.43253380314091,-3.14521177738029 -8.53758239570552,-2.84774859843489 -8.63265238897641,-2.54505401985976 -8.7173975829781,-2.23762544161972 -8.79150537773272,-1.92598666367767 -8.85469737325995,-1.61068968599455 -8.90673536957668,-1.29230750852981 -8.94741896669707,-0.971432331241519 -8.97659216463218,-0.648674354086495 -8.99414216338998,-0.324653977020824 -8.9999993629754,0 -8.99414216338998,0.324653977020824 -8.97659216463218,0.648674354086495 -8.94741896669707,0.971432331241519 -8.90673536957668,1.29230750852981 -8.85469737325995,1.61068968599455 -8.79150537773272,1.92598666367767 -8.7173975829781,2.23762544161972 -8.63265238897641,2.54505401985976 -8.53758239570552,2.84774859843489 -8.43253380314091,3.14521177738029 -8.31788221125601,3.43697855672889 -8.1940290200224,3.7226163365113 -8.06140022940994,4.00172671675572 -7.92043983938718,4.27394609748789 -7.77160984992145,4.53894987873079 -7.61538426097917,4.79644826050492 -7.28268488452781,5.28795682571569 -6.92626690975526,5.74689619323172 -6.55005553638369,6.17225716312446 -6.15789436414106,6.56356033542781 -5.75346799276657,6.92080871014159 -5.34024862201445,7.24442768723567 -4.92144985165724,7.53520566665426 -4.4999996814877,7.79422804832052 -4.06495411228045,8.02970343165345 -3.60373414492584,8.24700481627275 -3.11686237938687,8.44305360239631 -2.60526281559815,8.61467339024898 -2.07030345346285,8.75864338005871 -1.51382449285072,8.87177097205148 -0.938162333596386,8.95096856644583 -0.346153775499057,8.99333996344676 0.258874181676752,8.99627576323896 0.565103360001693,8.98224056423238 0.873134338199101,8.95754576598029 1.18243011630699,8.92198676849718 1.49243389436476,8.87539437179501 1.80256907241323,8.81763777588305 2.11224465049423,8.74862338076793 2.42085822865041,8.66830018645324 2.72779900692498,8.57666039293956 3.03245078536157,8.47373760022448 3.33419676400383,8.35961220830234 3.63242434289513,8.23440841716433 3.92652752207836,8.09829422679856 4.21591230159555,7.95148203719 4.4999996814877,7.79422804832052 4.77822926179447,7.62682866016914 5.05006464255382,7.44961987271206 5.31499462380194,7.26297608592281 5.57253860557284,7.06730529977249 5.82224718789834,6.86304791422993 6.06370637080774,6.65067312926193 6.2965393543277,6.43067534483348 6.52040773848218,6.20356936090816 6.73501392329224,5.96988917744817 6.94010050877611,5.73018259441472 7.13545209494902,5.48500821176829 7.32089528182326,5.234929429469 7.49629686940824,4.98051444747662 7.66156625771039,4.72232906575111 7.81665124673339,4.4609366842526 7.96153803647823,4.1968923029418 8.2208472181242,3.66301174073014 8.44009140260598,3.12487477881975 8.6203595898465,2.58638621693425 8.76315717973922,2.0511124548212 8.87033037215344,1.52224489225472 8.94398276694029,1.00257712903707 8.98640396393769,0.494497764999193 8.9999993629754,0" style=" fill-rule: evenodd; fill: #ffffff; " xmlns="http://www.w3.org/2000/svg" />
</svg>