<?xml version="1.0" encoding="UTF-8"?>
<svg viewBox="-15 -15 30 26.7065668880258" xmlns="http://www.w3.org/2000/svg" xmlns:xlink="http://www.w3.org/1999/xlink" xmlns:gmsvgsym="http://www.intergraph.com/GeoMedia/svgsym">
  <!-- Creator: SVG Document for Symbols-->
  <path id="LineString2d_1367" style=" stroke-width: 0.0000010000;stroke: #ffffff; fill: none; " d="M -9.37850072316389 11.7065661194861 L -10.6065459165103 10.606655916502 L -12.9903561657825 7.50004072159583 L -14.4888826244988 3.88229942227707 L -14.9999988717693 -1.57142845323298E-05 L -14.4888737673566 -3.88233242227459 L -12.9903408800694 -7.50006729302241 L -10.606528345083 -10.6066734879293 L -7.49989543589248 -12.9904401657762 L -3.88216056514465 -14.4889197673532 L 0.000129571418825664 -14.9999988717693 L 3.88240242226932 -14.4888549102152 L 7.50008986444928 -12.9903278800703 L 10.6066579165019 -10.6065439165104 L 12.9904057372073 -7.49995500731657 L 14.4888910530696 -3.88226756513661 L 14.9999988717693 -1.57142845323298E-05 L 14.4888999102118 3.88223456513909 L 12.9904210229205 7.49992857874713 L 10.6066756307862 10.606526202226 L 9.37852000887672 11.7065506909159 L 2.19414712068067 5.60944500665486 L 4.16450040105121 4.16435111534816 L 5.16022032615775 2.97916006163561 L 5.93814269621745 1.5910660231845 L 6.45719080003419 -1.57142845323298E-05 L 6.64999507124663 -1.78184172312095 L 6.42565480240618 -3.7097944352521 L 5.55589558211117 -5.55578158211975 L 3.92866156164707 -6.80443263105912 L 2.03369498989199 -7.58938528630432 L 0.000129571418825664 -7.85714226616488 L -2.03345327562446 -7.5894501434423 L -3.92846713309026 -6.80454477390783 L -5.55576601069235 -5.55591115353857 L -6.80444563105814 -3.92863899022019 L -7.58940400058863 -2.03362513275439 L -7.85714226616488 -1.57142845323298E-05 L -7.58941285773082 2.03359198989974 L -6.90399619499898 3.98607912875695 L -5.77194256586112 5.77205242299571 L -4.20909625483978 7.29057316592245 L -9.37850072316389 11.7065661194861 " xmlns="http://www.w3.org/2000/svg" />
  <g id="ComplexString2d_1368" style=" fill-rule: evenodd; stroke-width: 0.0000000000;stroke: #ffffff; fill: #ffffff; " xmlns="http://www.w3.org/2000/svg">
    <path d="M -9.37850072316389 11.7065661194861 L -10.6065459165103 10.606655916502 L -12.9903561657825 7.50004072159583 L -14.4888826244988 3.88229942227707 L -14.9999988717693 -1.57142845323298E-05 L -14.4888737673566 -3.88233242227459 L -12.9903408800694 -7.50006729302241 L -10.606528345083 -10.6066734879293 L -7.49989543589248 -12.9904401657762 L -3.88216056514465 -14.4889197673532 L 0.000129571418825664 -14.9999988717693 L 3.88240242226932 -14.4888549102152 L 7.50008986444928 -12.9903278800703 L 10.6066579165019 -10.6065439165104 L 12.9904057372073 -7.49995500731657 L 14.4888910530696 -3.88226756513661 L 14.9999988717693 -1.57142845323298E-05 L 14.4888999102118 3.88223456513909 L 12.9904210229205 7.49992857874713 L 10.6066756307862 10.606526202226 L 9.37852000887672 11.7065506909159 L 2.19414712068067 5.60944500665486 L 4.16450040105121 4.16435111534816 L 5.16022032615775 2.97916006163561 L 5.93814269621745 1.5910660231845 L 6.45719080003419 -1.57142845323298E-05 L 6.64999507124663 -1.78184172312095 L 6.42565480240618 -3.7097944352521 L 5.55589558211117 -5.55578158211975 L 3.92866156164707 -6.80443263105912 L 2.03369498989199 -7.58938528630432 L 0.000129571418825664 -7.85714226616488 L -2.03345327562446 -7.5894501434423 L -3.92846713309026 -6.80454477390783 L -5.55576601069235 -5.55591115353857 L -6.80444563105814 -3.92863899022019 L -7.58940400058863 -2.03362513275439 L -7.85714226616488 -1.57142845323298E-05 L -7.58941285773082 2.03359198989974 L -6.90399619499898 3.98607912875695 L -5.77194256586112 5.77205242299571 L -4.20909625483978 7.29057316592245 L -9.37850072316389 11.7065661194861 " />
  </g>
</svg>