<?xml version="1.0" encoding="UTF-8"?>
<svg viewBox="-15 -15 30 30" xmlns="http://www.w3.org/2000/svg" xmlns:xlink="http://www.w3.org/1999/xlink" xmlns:gmsvgsym="http://www.intergraph.com/GeoMedia/svgsym">
  <!-- Creator: SVG Document for Symbols-->
  <polyline points="14.9999975413088,0 14.9066364977883,-1.67096160846099 14.6052607824818,-3.41852079260195 14.06681804721,-5.20812426396897 13.2692286485333,-6.99481950051856 12.2014905294316,-8.72488145223343 10.8673452187033,-10.3392812464362 10.1061759905275,-11.0844546537045 9.28756330117916,-11.7788410692975 8.41677373803033,-12.4160317883832 7.4999987706544,-12.990378870711 6.54421216261415,-13.4971557288202 5.55699385384361,-13.9326861280195 4.54633125479824,-14.2944324216658 3.52040765825434,-14.5810375511582 1.45522370264672,-14.9292414940831 -0.576923023082006,-14.9888987784222 -2.52304105702958,-14.7862839292804 -4.34210452356772,-14.3577872936341 -6.00622313315037,-13.7450066881943 -7.4999987706544,-12.990378870711 -8.90041354110853,-12.0740450797333 -10.2631562589141,-10.9392665010321 -11.5437769901804,-9.57815966531141 -12.6923056254513,-7.99407927790359 -13.6567142320783,-6.20436004184967 -14.3877527004871,-4.24175630472196 -14.6525072453257,-3.20997776796129 -14.8445571550228,-2.15384523519255 -14.9609859006445,-1.08112394043704 -14.9999975413088,0 -14.9609859006445,1.08112394043704 -14.8445571550228,2.15384523519255 -14.6525072453257,3.20997776796129 -14.3877527004871,4.24175630472196 -13.6567142320783,6.20436004184967 -12.6923056254513,7.99407927790359 -11.5437769901804,9.57815966531141 -10.2631562589141,10.9392665010321 -8.90041354110853,12.0740450797333 -7.4999987706544,12.990378870711 -6.00622313315037,13.7450066881943 -4.34210452356772,14.3577872936341 -2.52304105702958,14.7862839292804 -0.576923023082006,14.9888987784222 1.45522370264672,14.9292414940831 3.52040765825434,14.5810375511582 4.54633125479824,14.2944324216658 5.55699385384361,13.9326861280195 6.54421216261415,13.4971557288202 7.4999987706544,12.990378870711 8.41677373803033,12.4160317883832 9.28756330117916,11.7788410692975 10.1061759905275,11.0844546537045 10.8673452187033,10.3392812464362 12.2014905294316,8.72488145223343 13.2692286485333,6.99481950051856 14.06681804721,5.20812426396897 14.6052607824818,3.41852079260195 14.9066364977883,1.67096160846099 14.9999975413088,0" style=" stroke-width: 0.0000010000;stroke: #ffffff; fill: none; " xmlns="http://www.w3.org/2000/svg" />
  <g id="ComplexString2d_1354" style=" fill-rule: evenodd; stroke-width: 0.0000000000;stroke: #ffffff; fill: #ffffff; " xmlns="http://www.w3.org/2000/svg">
    <path d="M 14.9999975413088 0 L 14.9066364977883 -1.67096160846099 L 14.6052607824818 -3.41852079260195 L 14.06681804721 -5.20812426396897 L 13.2692286485333 -6.99481950051856 L 12.2014905294316 -8.72488145223343 L 10.8673452187033 -10.3392812464362 L 10.1061759905275 -11.0844546537045 L 9.28756330117916 -11.7788410692975 L 8.41677373803033 -12.4160317883832 L 7.4999987706544 -12.990378870711 L 6.54421216261415 -13.4971557288202 L 5.55699385384361 -13.9326861280195 L 4.54633125479824 -14.2944324216658 L 3.52040765825434 -14.5810375511582 L 1.45522370264672 -14.9292414940831 L -0.576923023082006 -14.9888987784222 L -2.52304105702958 -14.7862839292804 L -4.34210452356772 -14.3577872936341 L -6.00622313315037 -13.7450066881943 L -7.4999987706544 -12.990378870711 L -8.90041354110853 -12.0740450797333 L -10.2631562589141 -10.9392665010321 L -11.5437769901804 -9.57815966531141 L -12.6923056254513 -7.99407927790359 L -13.6567142320783 -6.20436004184967 L -14.3877527004871 -4.24175630472196 L -14.6525072453257 -3.20997776796129 L -14.8445571550228 -2.15384523519255 L -14.9609859006445 -1.08112394043704 L -14.9999975413088 0 L -14.9609859006445 1.08112394043704 L -14.8445571550228 2.15384523519255 L -14.6525072453257 3.20997776796129 L -14.3877527004871 4.24175630472196 L -13.6567142320783 6.20436004184967 L -12.6923056254513 7.99407927790359 L -11.5437769901804 9.57815966531141 L -10.2631562589141 10.9392665010321 L -8.90041354110853 12.0740450797333 L -7.4999987706544 12.990378870711 L -6.00622313315037 13.7450066881943 L -4.34210452356772 14.3577872936341 L -2.52304105702958 14.7862839292804 L -0.576923023082006 14.9888987784222 L 1.45522370264672 14.9292414940831 L 3.52040765825434 14.5810375511582 L 4.54633125479824 14.2944324216658 L 5.55699385384361 13.9326861280195 L 6.54421216261415 13.4971557288202 L 7.4999987706544 12.990378870711 L 8.41677373803033 12.4160317883832 L 9.28756330117916 11.7788410692975 L 10.1061759905275 11.0844546537045 L 10.8673452187033 10.3392812464362 L 12.2014905294316 8.72488145223343 L 13.2692286485333 6.99481950051856 L 14.06681804721 5.20812426396897 L 14.6052607824818 3.41852079260195 L 14.9066364977883 1.67096160846099 L 14.9999975413088 0 " />
  </g>
</svg>