<?xml version="1.0" encoding="UTF-8"?>
<svg viewBox="-11.9102392871513 -49.2280470730216 30 61.138286360173" xmlns="http://www.w3.org/2000/svg" xmlns:xlink="http://www.w3.org/1999/xlink" xmlns:gmsvgsym="http://www.intergraph.com/GeoMedia/svgsym">
  <!-- Creator: SVG Document for Symbols-->
  <polyline points="11.9102382592673,0 11.8922470503608,-0.654398711468805 11.8361081423257,-1.32677036947879 11.7386393180032,-2.01447824578331 11.596811009788,-2.71436017212455 11.4078378099593,-3.42271980605873 11.1692787151857,-4.1353339756031 10.8791399515828,-4.84748285183947 10.5359799833131,-5.55399858238715 10.139009360084,-6.24934092141586 9.68817885291086,-6.92769548911142 9.18425051853816,-7.58309406508209 8.62884613440891,-8.20955493066613 8.02446546102975,-8.8012345259656 7.37447393472482,-9.35258843656685 6.68305304164297,-9.85852821167757 5.95511912963365,-10.3145688525773 5.1962092684636,-10.7169578401984 4.41234209853317,-11.0627759751436 3.60985982171541,-11.3500082436033 2.79526006849268,-11.5775773645271 1.97502697107729,-11.7453414075757 1.15547097070693,-11.8540568713824 0.342583314233971,-11.9053101996836 -0.458086025816751,-11.9014256754753 -1.24152661071353,-11.8453530677665 -2.00333502686794,-11.7405461471485 -2.73975677017273,-11.5908372312851 -3.44770053828769,-11.4003129214271 -4.12473029048087,-11.1731989701088 -4.76903725856863,-10.9137554710516 -5.37939766556982,-10.6261873338729 -5.95511912963365,-10.3145688525773 -6.51284938479096,-9.97178862240407 -7.0670708837571,-9.58698510157277 -7.61390902752235,-9.15872072432545 -8.14911047150035,-8.68595274930253 -8.66808123829053,-8.16811762373037 -9.16594368831779,-7.60521217154543 -9.63761334086923,-6.99787001742311 -10.0778939574963,-6.34742709308815 -10.481592872822,-5.65596927826769 -10.8436498236178,-4.92636118376706 -11.1592774896155,-4.16224714398962 -11.4241060043976,-3.36802243386099 -11.6343254812491,-2.54877371763773 -11.786816033258,-1.71018753857671 -11.8792623101066,-0.858429628520806 -11.9102382592673,0 -11.8792623101066,0.858429628520806 -11.786816033258,1.71018753857671 -11.6343254812491,2.54877371763773 -11.4241060043976,3.36802243386099 -11.1592774896155,4.16224714398962 -10.8436498236178,4.92636118376706 -10.481592872822,5.65596927826769 -10.0778939574963,6.34742709308815 -9.63761334086923,6.99787001742311 -9.16594368831779,7.60521217154543 -8.66808123829053,8.16811762373037 -8.14911047150035,8.68595274930253 -7.61390902752235,9.15872072432545 -7.0670708837571,9.58698510157277 -6.51284938479096,9.97178862240407 -5.95511912963365,10.3145688525773 -5.37939766556982,10.6261873338729 -4.76903725856863,10.9137554710516 -4.12473029048087,11.1731989701088 -3.44770053828769,11.4003129214271 -2.73975677017273,11.5908372312851 -2.00333502686794,11.7405461471485 -1.24152661071353,11.8453530677665 -0.458086025816751,11.9014256754753 0.342583314233971,11.9053101996836 1.15547097070693,11.8540568713824 1.97502697107729,11.7453414075757 2.79526006849268,11.5775773645271 3.60985982171541,11.3500082436033 4.41234209853317,11.0627759751436 5.1962092684636,10.7169578401984 5.95511912963365,10.3145688525773 6.68305304164297,9.85852821167757 7.37447393472482,9.35258843656685 8.02446546102975,8.8012345259656 8.62884613440891,8.20955493066613 9.18425051853816,7.58309406508209 9.68817885291086,6.92769548911142 10.139009360084,6.24934092141586 10.5359799833131,5.55399858238715 10.8791399515828,4.84748285183947 11.1692787151857,4.1353339756031 11.4078378099593,3.42271980605873 11.596811009788,2.71436017212455 11.7386393180032,2.01447824578331 11.8361081423257,1.32677036947879 11.8922470503608,0.654398711468805 11.9102382592673,0" style=" stroke-width: 0.0000010000;stroke: #ffffff; fill: none; " xmlns="http://www.w3.org/2000/svg" />
  <g id="ComplexString2d_1222" style=" fill-rule: evenodd; stroke-width: 0.0000000000;stroke: #ffffff; fill: #ffffff; " xmlns="http://www.w3.org/2000/svg">
    <path d="M 11.9102382592673 0 L 11.8922470503608 -0.654398711468805 L 11.8361081423257 -1.32677036947879 L 11.7386393180032 -2.01447824578331 L 11.596811009788 -2.71436017212455 L 11.4078378099593 -3.42271980605873 L 11.1692787151857 -4.1353339756031 L 10.8791399515828 -4.84748285183947 L 10.5359799833131 -5.55399858238715 L 10.139009360084 -6.24934092141586 L 9.68817885291086 -6.92769548911142 L 9.18425051853816 -7.58309406508209 L 8.62884613440891 -8.20955493066613 L 8.02446546102975 -8.8012345259656 L 7.37447393472482 -9.35258843656685 L 6.68305304164297 -9.85852821167757 L 5.95511912963365 -10.3145688525773 L 5.1962092684636 -10.7169578401984 L 4.41234209853317 -11.0627759751436 L 3.60985982171541 -11.3500082436033 L 2.79526006849268 -11.5775773645271 L 1.97502697107729 -11.7453414075757 L 1.15547097070693 -11.8540568713824 L 0.342583314233971 -11.9053101996836 L -0.458086025816751 -11.9014256754753 L -1.24152661071353 -11.8453530677665 L -2.00333502686794 -11.7405461471485 L -2.73975677017273 -11.5908372312851 L -3.44770053828769 -11.4003129214271 L -4.12473029048087 -11.1731989701088 L -4.76903725856863 -10.9137554710516 L -5.37939766556982 -10.6261873338729 L -5.95511912963365 -10.3145688525773 L -6.51284938479096 -9.97178862240407 L -7.0670708837571 -9.58698510157277 L -7.61390902752235 -9.15872072432545 L -8.14911047150035 -8.68595274930253 L -8.66808123829053 -8.16811762373037 L -9.16594368831779 -7.60521217154543 L -9.63761334086923 -6.99787001742311 L -10.0778939574963 -6.34742709308815 L -10.481592872822 -5.65596927826769 L -10.8436498236178 -4.92636118376706 L -11.1592774896155 -4.16224714398962 L -11.4241060043976 -3.36802243386099 L -11.6343254812491 -2.54877371763773 L -11.786816033258 -1.71018753857671 L -11.8792623101066 -0.858429628520806 L -11.9102382592673 0 L -11.8792623101066 0.858429628520806 L -11.786816033258 1.71018753857671 L -11.6343254812491 2.54877371763773 L -11.4241060043976 3.36802243386099 L -11.1592774896155 4.16224714398962 L -10.8436498236178 4.92636118376706 L -10.481592872822 5.65596927826769 L -10.0778939574963 6.34742709308815 L -9.63761334086923 6.99787001742311 L -9.16594368831779 7.60521217154543 L -8.66808123829053 8.16811762373037 L -8.14911047150035 8.68595274930253 L -7.61390902752235 9.15872072432545 L -7.0670708837571 9.58698510157277 L -6.51284938479096 9.97178862240407 L -5.95511912963365 10.3145688525773 L -5.37939766556982 10.6261873338729 L -4.76903725856863 10.9137554710516 L -4.12473029048087 11.1731989701088 L -3.44770053828769 11.4003129214271 L -2.73975677017273 11.5908372312851 L -2.00333502686794 11.7405461471485 L -1.24152661071353 11.8453530677665 L -0.458086025816751 11.9014256754753 L 0.342583314233971 11.9053101996836 L 1.15547097070693 11.8540568713824 L 1.97502697107729 11.7453414075757 L 2.79526006849268 11.5775773645271 L 3.60985982171541 11.3500082436033 L 4.41234209853317 11.0627759751436 L 5.1962092684636 10.7169578401984 L 5.95511912963365 10.3145688525773 L 6.68305304164297 9.85852821167757 L 7.37447393472482 9.35258843656685 L 8.02446546102975 8.8012345259656 L 8.62884613440891 8.20955493066613 L 9.18425051853816 7.58309406508209 L 9.68817885291086 6.92769548911142 L 10.139009360084 6.24934092141586 L 10.5359799833131 5.55399858238715 L 10.8791399515828 4.84748285183947 L 11.1692787151857 4.1353339756031 L 11.4078378099593 3.42271980605873 L 11.596811009788 2.71436017212455 L 11.7386393180032 2.01447824578331 L 11.8361081423257 1.32677036947879 L 11.8922470503608 0.654398711468805 L 11.9102382592673 0 " />
  </g>
  <path id="LineString2d_1223" style=" stroke-width: 0.0000750000;stroke: #ffffff; fill: none; " d="M -4.88321436063315 -10.8452936350015 L -4.88321436063315 -27.9614946553469 L -3.15172317738606 -27.1919479588915 L 6.9485044618861 -49.2280429036291 L 18.0897597759756 -24.9206935119091 L 11.9896239673447 -24.9206935119091 L 11.9896239673447 -9.78841839566042 L 4.89182665391843 -12.9429746217204 L 4.89182665391843 -10.9120878391913 L 1.07104703334186 -11.886676036415 L -0.913134940877389 -11.886676036415 L -4.88321436063315 -10.8452936350015 " xmlns="http://www.w3.org/2000/svg" />
  <g id="ComplexString2d_1224" style=" fill-rule: evenodd; stroke-width: 0.0000000000;stroke: #ffffff; fill: #ffffff; " xmlns="http://www.w3.org/2000/svg">
    <path d="M -4.88321436063315 -10.8452936350015 L -4.88321436063315 -27.9614946553469 L -3.15172317738606 -27.1919479588915 L 6.9485044618861 -49.2280429036291 L 18.0897597759756 -24.9206935119091 L 11.9896239673447 -24.9206935119091 L 11.9896239673447 -9.78841839566042 L 4.89182665391843 -12.9429746217204 L 4.89182665391843 -10.9120878391913 L 1.07104703334186 -11.886676036415 L -0.913134940877389 -11.886676036415 L -4.88321436063315 -10.8452936350015 " />
  </g>
</svg>