<?xml version="1.0" encoding="UTF-8" standalone="no"?>
<svg
   xmlns:dc="http://purl.org/dc/elements/1.1/"
   xmlns:cc="http://creativecommons.org/ns#"
   xmlns:rdf="http://www.w3.org/1999/02/22-rdf-syntax-ns#"
   xmlns:svg="http://www.w3.org/2000/svg"
   xmlns="http://www.w3.org/2000/svg"
   xmlns:sodipodi="http://sodipodi.sourceforge.net/DTD/sodipodi-0.dtd"
   xmlns:inkscape="http://www.inkscape.org/namespaces/inkscape"
   viewBox="-15.000003 -14.99999 8.9089024 8.890431"
   id="svg2"
   version="1.1"
   inkscape:version="0.48.3.1 r9886"
   width="100%"
   height="100%"
   sodipodi:docname="0010_812.svg">
  <metadata
     id="metadata16">
    <rdf:RDF>
      <cc:Work
         rdf:about="">
        <dc:format>image/svg+xml</dc:format>
        <dc:type
           rdf:resource="http://purl.org/dc/dcmitype/StillImage" />
      </cc:Work>
    </rdf:RDF>
  </metadata>
  <defs
     id="defs14" />
  <sodipodi:namedview
     pagecolor="#ffffff"
     bordercolor="#666666"
     borderopacity="1"
     objecttolerance="10"
     gridtolerance="10"
     guidetolerance="10"
     inkscape:pageopacity="0"
     inkscape:pageshadow="2"
     inkscape:window-width="1549"
     inkscape:window-height="818"
     id="namedview12"
     showgrid="false"
     inkscape:showpageshadow="false"
     fit-margin-top="0"
     fit-margin-left="0"
     fit-margin-right="0"
     fit-margin-bottom="0"
     inkscape:zoom="14.418842"
     inkscape:cx="4.7934875"
     inkscape:cy="2.4857924"
     inkscape:window-x="77"
     inkscape:window-y="92"
     inkscape:window-maximized="0"
     inkscape:current-layer="svg2" />
  <!-- Creator: SVG Document for Symbols-->
  <g
     id="g3763"
     transform="matrix(0.2957312,0,0,0.2957312,-10.545552,-10.545539)">
    <path
       d="m -15.000002,1.7400004e-5 0,-0.600011770004 7.8250393,0 0.036552,-0.33977203 0.183735,-0.9237071 0.3027308,-0.8918224 0.4165472,-0.8446792 0.5232361,-0.7830825 0.2144336,-0.2661319 -5.53314,-5.5331395 0.848528,-0.848529 5.5331407,5.5331406 0.2660949,-0.2144048 0.7830806,-0.5232411 0.8446783,-0.4165522 0.8918232,-0.3027361 0.92370902,-0.18374 0.33980611,-0.036556 0,-7.8250414 1.20000026,0 0,7.825041 0.33977383,0.036551 0.92371048,0.1837352 0.8918267,0.3027323 0.8446818,0.4165492 0.7830855,0.5232393 0.2661203,0.2144245 5.5331393,-5.5331405 0.848529,0.848528 -5.5331398,5.5331406 0.2144182,0.266112 0.5232405,0.7830843 0.4165512,0.8446823 0.3027337,0.8918262 0.1837369,0.9237118 0.036552,0.33977683 7.8250423,0 0,0.6000001300012 L 5.9999962,1.9800004e-5 5.9486663,-0.78313972 5.7955522,-1.5529002 5.543274,-2.296089 5.1961478,-2.9999914 4.7601137,-3.6525618 4.2426317,-4.242636 3.6525572,-4.7601161 2.9999854,-5.196149 2.2960834,-5.5432732 1.5528942,-5.7955499 0.78313504,-5.9486624 -2.4120005e-5,-5.9999909 -0.7831822,-5.9486574 l -0.7697576,0.153117 -0.7431859,0.2522805 -0.7038983,0.3471273 -0.652567,0.4360346 -0.5900699,0.517481 -0.5174769,0.5900733 -0.4360296,0.6525688 -0.3471223,0.7038992 -0.2522752,0.743185 -0.1531122,0.76975578 -0.051329,0.783154720004 -8.9999959,-2.4e-6"
       style="fill:none;stroke:#8c8c8c;stroke-width:0.000001"
       id="LineString2d_1328"
       inkscape:connector-curvature="0" />
    <g
       style="fill:#a7a8aa;fill-opacity:1;fill-rule:evenodd;stroke:none"
       id="ComplexString2d_1329">
      <path
         style="fill:#a7a8aa;fill-opacity:1;stroke:none"
         id="path6"
         d="m -15.000002,1.7400004e-5 0,-0.600011770004 7.8250393,0 0.036552,-0.33977203 0.183735,-0.9237071 0.3027308,-0.8918224 0.4165472,-0.8446792 0.5232361,-0.7830825 0.2144336,-0.2661319 -5.53314,-5.5331395 0.848528,-0.848529 5.5331407,5.5331406 0.2660949,-0.2144048 0.7830806,-0.5232411 0.8446783,-0.4165522 0.8918232,-0.3027361 0.92370902,-0.18374 0.33980611,-0.036556 0,-7.8250414 1.20000026,0 0,7.825041 0.33977383,0.036551 0.92371048,0.1837352 0.8918267,0.3027323 0.8446818,0.4165492 0.7830855,0.5232393 0.2661203,0.2144245 5.5331393,-5.5331405 0.848529,0.848528 -5.5331398,5.5331406 0.2144182,0.266112 0.5232405,0.7830843 0.4165512,0.8446823 0.3027337,0.8918262 0.1837369,0.9237118 0.036552,0.33977683 7.8250423,0 0,0.6000001300012 L 5.9999962,1.9800004e-5 5.9486663,-0.78313972 5.7955522,-1.5529002 5.543274,-2.296089 5.1961478,-2.9999914 4.7601137,-3.6525618 4.2426317,-4.242636 3.6525572,-4.7601161 2.9999854,-5.196149 2.2960834,-5.5432732 1.5528942,-5.7955499 0.78313504,-5.9486624 -2.4120005e-5,-5.9999909 -0.7831822,-5.9486574 l -0.7697576,0.153117 -0.7431859,0.2522805 -0.7038983,0.3471273 -0.652567,0.4360346 -0.5900699,0.517481 -0.5174769,0.5900733 -0.4360296,0.6525688 -0.3471223,0.7038992 -0.2522752,0.743185 -0.1531122,0.76975578 -0.051329,0.783154720004 -8.9999959,-2.4e-6"
         inkscape:connector-curvature="0" />
    </g>
    <path
       d="m -15,3.3480007e-5 0,0.600011889993 7.8250387,0 0.036551,0.33977191 0.183735,0.92370722 0.3027308,0.8918224 0.4165472,0.8446792 0.5232361,0.7830825 0.2144336,0.2661319 -5.5331394,5.5331395 0.848528,0.848529 5.5331401,-5.5331406 0.2660949,0.2144048 0.7830807,0.5232411 0.8446782,0.4165522 0.8918232,0.3027361 0.92370904,0.18374 0.33980611,0.036556 0,7.8250414 1.20000026,0 0,-7.825041 L 0.93976784,7.1384474 1.8634783,6.9547122 2.755305,6.6519799 3.5999868,6.2354307 4.3830723,5.7121914 4.6491926,5.4977669 10.182333,11.030907 11.030861,10.182379 5.4977211,4.6492388 5.7121393,4.3831268 6.2353799,3.6000425 6.651931,2.7553602 6.9546648,1.863534 7.1384016,0.9398222 l 0.036552,-0.33977683 7.8250424,0 0,-0.600000129991 L 5.9999975,3.1200007e-5 5.9486676,0.78319072 5.7955535,1.5529512 5.5432753,2.29614 5.1961492,3.0000424 4.760115,3.6526128 4.242633,4.2426869 3.6525585,4.7601671 2.9999867,5.1962 2.2960847,5.5433242 1.5528955,5.7956009 0.78313636,5.9487134 -2.2800005e-5,6.0000419 -0.78318088,5.9487084 -1.5529384,5.7955914 -2.2961244,5.5433109 -3.0000227,5.1961836 -3.6525897,4.760149 -4.2426596,4.242668 -4.7601365,3.6525947 -5.1961661,3.0000259 -5.5432884,2.2961267 -5.7955636,1.5529417 -5.9486758,0.78318592 -6.000005,3.1200007e-5 -15,3.3480007e-5"
       style="fill:#a7a8aa;fill-opacity:1;stroke:none"
       id="LineString2d_1330"
       inkscape:connector-curvature="0" />
    <g
       style="fill:#a7a8aa;fill-opacity:1;fill-rule:evenodd;stroke:none"
       id="ComplexString2d_1331">
      <path
         style="fill:#a7a8aa;fill-opacity:1;stroke:none"
         id="path10"
         d="m -15,3.3480007e-5 0,0.600011889993 7.8250387,0 0.036551,0.33977191 0.183735,0.92370722 0.3027308,0.8918224 0.4165472,0.8446792 0.5232361,0.7830825 0.2144336,0.2661319 -5.5331394,5.5331395 0.848528,0.848529 5.5331401,-5.5331406 0.2660949,0.2144048 0.7830807,0.5232411 0.8446782,0.4165522 0.8918232,0.3027361 0.92370904,0.18374 0.33980611,0.036556 0,7.8250414 1.20000026,0 0,-7.825041 L 0.93976784,7.1384474 1.8634783,6.9547122 2.755305,6.6519799 3.5999868,6.2354307 4.3830723,5.7121914 4.6491926,5.4977669 10.182333,11.030907 11.030861,10.182379 5.4977211,4.6492388 5.7121393,4.3831268 6.2353799,3.6000425 6.651931,2.7553602 6.9546648,1.863534 7.1384016,0.9398222 l 0.036552,-0.33977683 7.8250424,0 0,-0.600000129991 L 5.9999975,3.1200007e-5 5.9486676,0.78319072 5.7955535,1.5529512 5.5432753,2.29614 5.1961492,3.0000424 4.760115,3.6526128 4.242633,4.2426869 3.6525585,4.7601671 2.9999867,5.1962 2.2960847,5.5433242 1.5528955,5.7956009 0.78313636,5.9487134 -2.2800005e-5,6.0000419 -0.78318088,5.9487084 -1.5529384,5.7955914 -2.2961244,5.5433109 -3.0000227,5.1961836 -3.6525897,4.760149 -4.2426596,4.242668 -4.7601365,3.6525947 -5.1961661,3.0000259 -5.5432884,2.2961267 -5.7955636,1.5529417 -5.9486758,0.78318592 -6.000005,3.1200007e-5 -15,3.3480007e-5"
         inkscape:connector-curvature="0" />
    </g>
  </g>
</svg>
