<?xml version="1.0" encoding="UTF-8" standalone="no"?>
<svg
   viewBox="-14.9302439451814 -28.1600885936045 30 30.0000007275957"
   version="1.1"
   id="svg6"
   sodipodi:docname="0010_333.svg"
   inkscape:version="1.2.2 (732a01da63, 2022-12-09)"
   xmlns:inkscape="http://www.inkscape.org/namespaces/inkscape"
   xmlns:sodipodi="http://sodipodi.sourceforge.net/DTD/sodipodi-0.dtd"
   xmlns="http://www.w3.org/2000/svg"
   xmlns:svg="http://www.w3.org/2000/svg">
  <defs
     id="defs10" />
  <sodipodi:namedview
     id="namedview8"
     pagecolor="#ffffff"
     bordercolor="#000000"
     borderopacity="0.25"
     inkscape:showpageshadow="2"
     inkscape:pageopacity="0.0"
     inkscape:pagecheckerboard="0"
     inkscape:deskcolor="#d1d1d1"
     showgrid="false"
     inkscape:zoom="7.8666667"
     inkscape:cx="-3.559322"
     inkscape:cy="15.063559"
     inkscape:window-width="1920"
     inkscape:window-height="1018"
     inkscape:window-x="-8"
     inkscape:window-y="-8"
     inkscape:window-maximized="1"
     inkscape:current-layer="svg6" />
  <!-- Creator: SVG Document for Symbols-->
  <path
     id="LineString2d_1130"
     style=" stroke-width: 0.0000750000;stroke: #000000; fill: none; "
     d="M -14.9302427114819 1.8399118412109 L -14.9302427114819 -1.91008783515453 L -7.43024335875099 -1.91008783515453 L -7.43024335875099 -20.6600867169817 L -7.17468663080619 -22.601229799456 L -6.42543319546868 -24.410086893347 L -5.23354329833182 -25.9633875092932 L -3.68024218238568 -27.1552769064301 L -1.87138508849468 -27.9045295917677 L 0.0697574939797498 -28.1600855697126 L 2.01090007645418 -27.9045288417678 L 3.81975667034523 -27.1552756564302 L 5.37305678629145 -25.9633860092934 L 6.56494618342835 -24.4100856433472 L 7.3141991187659 -22.6012290494561 L 7.56975534671075 -20.6600867169817 L 7.56975534671075 -1.91008783515453 L 15.0697546994416 -1.91008783515453 L 15.0697546994416 1.8399118412109 L -14.9302427114819 1.8399118412109 " />
  <g
     id="ComplexString2d_1131"
     style="fill-rule:evenodd;stroke-width:0;stroke:#1a171b;fill:#1a171b;fill-opacity:1;stroke-opacity:1">
    <path
       d="M -14.9302427114819 1.8399118412109 L -14.9302427114819 -1.91008783515453 L -7.43024335875099 -1.91008783515453 L -7.43024335875099 -20.6600867169817 L -7.17468663080619 -22.601229799456 L -6.42543319546868 -24.410086893347 L -5.23354329833182 -25.9633875092932 L -3.68024218238568 -27.1552769064301 L -1.87138508849468 -27.9045295917677 L 0.0697574939797498 -28.1600855697126 L 2.01090007645418 -27.9045288417678 L 3.81975667034523 -27.1552756564302 L 5.37305678629145 -25.9633860092934 L 6.56494618342835 -24.4100856433472 L 7.3141991187659 -22.6012290494561 L 7.56975534671075 -20.6600867169817 L 7.56975534671075 -1.91008783515453 L 15.0697546994416 -1.91008783515453 L 15.0697546994416 1.8399118412109 L -14.9302427114819 1.8399118412109 "
       id="path3"
       style="fill:#1a171b;fill-opacity:1;stroke:#1a171b;stroke-opacity:1" />
  </g>
</svg>
