<?xml version="1.0" encoding="UTF-8"?>
<svg viewBox="-15 -13.977237716089 30 14.9999649960321" xmlns="http://www.w3.org/2000/svg" xmlns:xlink="http://www.w3.org/1999/xlink" xmlns:gmsvgsym="http://www.intergraph.com/GeoMedia/svgsym">
  <!-- Creator: SVG Document for Symbols-->
  <path id="LineString2d_1340" style=" stroke-width: 0.0000010000;stroke: #000000; fill: none; " d="M -14.9999988112938 1.02272719167912 L -14.9999988112938 -1.02272719167912 L -8.16917989807085 -1.02272719167912 L -8.18181453343323 -1.70440200129475 L -8.15048867227935 -2.77742787080603 L -8.05433227080856 -3.86254155754121 L -7.8866637840958 -4.97114565150575 L -7.63576194034267 -6.11288487920806 L -7.28411069548274 -7.29366078563501 L -6.80772886959824 -8.51208518907843 L -6.17638655599392 -9.75356499978568 L -5.35631725734566 -10.9817366751839 L -4.31801529417351 -12.1289007206382 L -3.05130044001152 -13.0918402352371 L -1.58518078346995 -13.7446922744096 L -4.55454509361103E-05 -13.9772361650721 L 1.58509160165884 -13.7447205016801 L 3.05122284910858 -13.0918905534149 L 4.31794997599687 -12.1289672660874 L 5.35626775734958 -10.9818086751782 L 6.17635001054227 -9.75363836341623 L 6.80770486960015 -8.51215241634583 L 7.2840961045748 -7.29372105835751 L 7.63575539488865 -6.11293369738601 L 7.88666269318679 -4.97118369695728 L 8.0543351344447 -3.86256678481193 L 8.15049385409712 -2.77744082535046 L 8.18182053343276 -1.70440200129475 L 8.16918576170675 -1.02272719167912 L 14.9999988112938 -1.02272719167912 L 14.9999988112938 1.02272719167912 L 6.1227218784285 1.02272719167912 L 6.1227218784285 -0.898327292446545 L 6.13637187734678 -1.70440200129475 L 6.11732146976556 -2.50976857383543 L 6.05858283805679 -3.32780659991739 L 5.95522411897494 -4.17115562399353 L 5.798341176862 -5.05210214509018 L 5.57401237645759 -5.98152757143592 L 5.26191108300889 -6.96635849339094 L 4.8340156623729 -8.00427427477551 L 4.25481525372739 -9.07403723545446 L 3.48621504190944 -10.1209817888508 L 2.50219793807175 -11.0429020339731 L 1.3151281685072 -11.6941456641821 L -4.55454509361103E-05 -11.9317821908047 L -1.31521612304568 -11.6941070732761 L -2.50227102897504 -11.0428345339785 L -3.4862724509958 -10.1208957434031 L -4.2548542537243 -9.07394669000709 L -4.83404007146187 -8.00418495660077 L -5.26192226482618 -6.96627872066999 L -5.57401414918472 -5.98145761689601 L -5.7983353132261 -5.05204609964008 L -5.95521307352127 -4.17111253308786 L -6.05856811078523 -3.32777823628328 L -6.11730456067599 -2.50975411929112 L -6.13635442280271 -1.70440200129475 L -6.12270428752081 -0.898338610627466 L -6.12270428752081 1.02272719167912 L -14.9999988112938 1.02272719167912 " xmlns="http://www.w3.org/2000/svg" />
  <g id="ComplexString2d_1341" style=" fill-rule: evenodd; stroke-width: 0.0000000000;stroke: #000000; fill: #000000; " xmlns="http://www.w3.org/2000/svg">
    <path d="M -14.9999988112938 1.02272719167912 L -14.9999988112938 -1.02272719167912 L -8.16917989807085 -1.02272719167912 L -8.18181453343323 -1.70440200129475 L -8.15048867227935 -2.77742787080603 L -8.05433227080856 -3.86254155754121 L -7.8866637840958 -4.97114565150575 L -7.63576194034267 -6.11288487920806 L -7.28411069548274 -7.29366078563501 L -6.80772886959824 -8.51208518907843 L -6.17638655599392 -9.75356499978568 L -5.35631725734566 -10.9817366751839 L -4.31801529417351 -12.1289007206382 L -3.05130044001152 -13.0918402352371 L -1.58518078346995 -13.7446922744096 L -4.55454509361103E-05 -13.9772361650721 L 1.58509160165884 -13.7447205016801 L 3.05122284910858 -13.0918905534149 L 4.31794997599687 -12.1289672660874 L 5.35626775734958 -10.9818086751782 L 6.17635001054227 -9.75363836341623 L 6.80770486960015 -8.51215241634583 L 7.2840961045748 -7.29372105835751 L 7.63575539488865 -6.11293369738601 L 7.88666269318679 -4.97118369695728 L 8.0543351344447 -3.86256678481193 L 8.15049385409712 -2.77744082535046 L 8.18182053343276 -1.70440200129475 L 8.16918576170675 -1.02272719167912 L 14.9999988112938 -1.02272719167912 L 14.9999988112938 1.02272719167912 L 6.1227218784285 1.02272719167912 L 6.1227218784285 -0.898327292446545 L 6.13637187734678 -1.70440200129475 L 6.11732146976556 -2.50976857383543 L 6.05858283805679 -3.32780659991739 L 5.95522411897494 -4.17115562399353 L 5.798341176862 -5.05210214509018 L 5.57401237645759 -5.98152757143592 L 5.26191108300889 -6.96635849339094 L 4.8340156623729 -8.00427427477551 L 4.25481525372739 -9.07403723545446 L 3.48621504190944 -10.1209817888508 L 2.50219793807175 -11.0429020339731 L 1.3151281685072 -11.6941456641821 L -4.55454509361103E-05 -11.9317821908047 L -1.31521612304568 -11.6941070732761 L -2.50227102897504 -11.0428345339785 L -3.4862724509958 -10.1208957434031 L -4.2548542537243 -9.07394669000709 L -4.83404007146187 -8.00418495660077 L -5.26192226482618 -6.96627872066999 L -5.57401414918472 -5.98145761689601 L -5.7983353132261 -5.05204609964008 L -5.95521307352127 -4.17111253308786 L -6.05856811078523 -3.32777823628328 L -6.11730456067599 -2.50975411929112 L -6.13635442280271 -1.70440200129475 L -6.12270428752081 -0.898338610627466 L -6.12270428752081 1.02272719167912 L -14.9999988112938 1.02272719167912 " />
  </g>
</svg>