<?xml version="1.0" encoding="UTF-8"?>
<svg viewBox="-15 -35.007609526014 30 36.0076096501903" xmlns="http://www.w3.org/2000/svg" xmlns:xlink="http://www.w3.org/1999/xlink" xmlns:gmsvgsym="http://www.intergraph.com/GeoMedia/svgsym">
  <!-- Creator: SVG Document for Symbols-->
  <path id="LineString2d_1336" style=" stroke-width: 0.0000010000;stroke: #666666; fill: none; " d="M -14.9999994039536 0.999999960263572 L -14.9999994039536 -0.999999960263572 L -10.9711961640438 -0.999999960263572 L -11.0436037611666 -2.60756609638463 L -11.1054201587103 -5.8944851657742 L -10.8810619676254 -8.65060545625582 L -10.2710887918636 -11.0699443601199 L -9.31408662989145 -13.1419612777854 L -8.43004866501996 -14.7411756142383 L -7.78281509073871 -15.9753851651952 L -7.32461610894591 -17.0000293244795 L -6.99385572208914 -17.9208040878912 L -6.74445013199963 -18.8072340526677 L -6.55519453951997 -19.7153316165831 L -6.42253874479124 -20.7081585771317 L -6.36506734707495 -21.8842137303995 L -6.46326594317289 -23.4634248676473 L -7.17491551489447 -26.3507255529162 L -7.82971528887507 -28.7403460579613 L -7.94577848426313 -30.7627457775983 L -7.6226726971022 -32.5147861079785 L -6.96716912314957 -33.8205680560914 L -5.99292376186261 -34.6768048220676 L -4.82498620827227 -35.0076064089227 L -3.54837525900024 -34.8784666140543 L -2.27290650968281 -34.2654284384142 L -1.28332414900528 -33.2293036795861 L -0.778758169054931 -31.8358371349575 L -0.778758169054931 -28.6294918623662 L -0.778758169054931 -23.5469098643299 L 0.000129599994850159 -20.7075147771573 L 0.418805783358153 -20.1802139981103 L 0.775869369169721 -19.8951300094386 L 1.11835795556045 -19.6996786172051 L 1.47122494153877 -19.5480412232306 L 1.85743792619205 -19.4205242282977 L 2.30594790836986 -19.3058476328545 L 2.86003188635254 -19.1945114372786 L 3.587841257432 -19.0713956421708 L 4.57565881817965 -18.8952764491692 L 5.82044436871632 -18.5595778625086 L 7.18148671463336 -17.945472886911 L 8.42551566520009 -17.0000293244795 L 9.32848962931913 -15.7719319732797 L 9.86801440788034 -14.3559432295461 L 10.1089983983045 -12.812802290865 L 10.0775237995552 -11.1818487556733 L 9.88961480702202 -9.4115626260181 L 9.86438060802473 -7.13578391644942 L 10.654680376621 -3.11474827623102 L 10.9999995628993 -0.999999960263572 L 14.9999994039536 -0.999999960263572 L 14.9999994039536 0.999999960263572 L -14.9999994039536 0.999999960263572 " xmlns="http://www.w3.org/2000/svg" />
  <g id="ComplexString2d_1337" style=" fill-rule: evenodd; stroke-width: 0.0000000000;stroke: #666666; fill: #666666; " xmlns="http://www.w3.org/2000/svg">
    <path d="M -14.9999994039536 0.999999960263572 L -14.9999994039536 -0.999999960263572 L -10.9711961640438 -0.999999960263572 L -11.0436037611666 -2.60756609638463 L -11.1054201587103 -5.8944851657742 L -10.8810619676254 -8.65060545625582 L -10.2710887918636 -11.0699443601199 L -9.31408662989145 -13.1419612777854 L -8.43004866501996 -14.7411756142383 L -7.78281509073871 -15.9753851651952 L -7.32461610894591 -17.0000293244795 L -6.99385572208914 -17.9208040878912 L -6.74445013199963 -18.8072340526677 L -6.55519453951997 -19.7153316165831 L -6.42253874479124 -20.7081585771317 L -6.36506734707495 -21.8842137303995 L -6.46326594317289 -23.4634248676473 L -7.17491551489447 -26.3507255529162 L -7.82971528887507 -28.7403460579613 L -7.94577848426313 -30.7627457775983 L -7.6226726971022 -32.5147861079785 L -6.96716912314957 -33.8205680560914 L -5.99292376186261 -34.6768048220676 L -4.82498620827227 -35.0076064089227 L -3.54837525900024 -34.8784666140543 L -2.27290650968281 -34.2654284384142 L -1.28332414900528 -33.2293036795861 L -0.778758169054931 -31.8358371349575 L -0.778758169054931 -28.6294918623662 L -0.778758169054931 -23.5469098643299 L 0.000129599994850159 -20.7075147771573 L 0.418805783358153 -20.1802139981103 L 0.775869369169721 -19.8951300094386 L 1.11835795556045 -19.6996786172051 L 1.47122494153877 -19.5480412232306 L 1.85743792619205 -19.4205242282977 L 2.30594790836986 -19.3058476328545 L 2.86003188635254 -19.1945114372786 L 3.587841257432 -19.0713956421708 L 4.57565881817965 -18.8952764491692 L 5.82044436871632 -18.5595778625086 L 7.18148671463336 -17.945472886911 L 8.42551566520009 -17.0000293244795 L 9.32848962931913 -15.7719319732797 L 9.86801440788034 -14.3559432295461 L 10.1089983983045 -12.812802290865 L 10.0775237995552 -11.1818487556733 L 9.88961480702202 -9.4115626260181 L 9.86438060802473 -7.13578391644942 L 10.654680376621 -3.11474827623102 L 10.9999995628993 -0.999999960263572 L 14.9999994039536 -0.999999960263572 L 14.9999994039536 0.999999960263572 L -14.9999994039536 0.999999960263572 " />
  </g>
</svg>