<?xml version="1.0" encoding="UTF-8"?>
<svg viewBox="-15 -15 30 30" xmlns="http://www.w3.org/2000/svg" xmlns:xlink="http://www.w3.org/1999/xlink" xmlns:gmsvgsym="http://www.intergraph.com/GeoMedia/svgsym">
  <!-- Creator: SVG Document for Symbols-->
  <polyline points="14.9999987054617,0 14.9773402074172,-0.824163178872609 14.906637713519,-1.67096185579172 14.783883474113,-2.53707528104391 14.6052619895285,-3.4185209549729 14.3672652600682,-4.31064362798043 14.0668190359975,-5.20812455052553 13.7014123175331,-6.1050194731212 13.2692296048315,-6.99481989632915 12.7692766479788,-7.87054832075154 12.2014914469801,-8.72488199702036 11.5668337517527,-9.55030442578429 10.8673460621202,-10.3392821076935 10.1061766278111,-11.0844555433831 9.28756394845947,-11.7788419834558 8.41677427361085,-12.4160329284646 7.49999935273087,-12.990379878897 6.5442126852177,-13.4971568351608 5.55699427041718,-13.9326872975734 4.54633160763995,-14.2944335163538 3.52040794617979,-14.5810387416191 2.48738953533192,-14.7923242233846 1.45522387441046,-14.9292427115682 0.431456462764203,-14.9937922059974 -0.576922950210073,-14.9888999564196 -1.56360411505696,-14.9182809625142 -2.52304128225508,-14.7862849739058 -3.45050595221251,-14.5977384901778 -4.34210487526524,-14.3577882608861 -5.19477005167805,-14.0717562855714 -6.00622348164755,-13.7450078137707 -6.77492391530673,-13.3828385950268 -7.49999935273087,-12.990379878897 -8.20241629211049,-12.5586754161542 -8.90041423187148,-12.0740459579789 -9.58911342243498,-11.5346810045275 -10.2631571142633,-10.9392673059132 -10.9167595578557,-10.2870951121974 -11.5437777537424,-9.57816042338025 -12.1378082024761,-8.81326123939301 -12.6923066546215,-7.99408006009044 -13.2007333607429,-7.12324388524583 -13.6567153213905,-6.20436046454782 -14.0542232870846,-5.2420195476003 -14.3877537583,-4.24175663392555 -14.652508485451,-3.20997797297069 -14.8445582188766,-2.15384531411764 -14.9609869588285,-1.08112390669624 -14.9999987054617,0 -14.9609869588285,1.08112390669624 -14.8445582188766,2.15384531411764 -14.652508485451,3.20997797297069 -14.3877537583,4.24175663392555 -14.0542232870846,5.2420195476003 -13.6567153213905,6.20436046454782 -13.2007333607429,7.12324388524583 -12.6923066546215,7.99408006009044 -12.1378082024761,8.81326123939301 -11.5437777537424,9.57816042338025 -10.9167595578557,10.2870951121974 -10.2631571142633,10.9392673059132 -9.58911342243498,11.5346810045275 -8.90041423187148,12.0740459579789 -8.20241629211049,12.5586754161542 -7.49999935273087,12.990379878897 -6.77492391530673,13.3828385950268 -6.00622348164755,13.7450078137707 -5.19477005167805,14.0717562855714 -4.34210487526524,14.3577882608861 -3.45050595221251,14.5977384901778 -2.52304128225508,14.7862849739058 -1.56360411505696,14.9182809625142 -0.576922950210073,14.9888999564196 0.431456462764203,14.9937922059974 1.45522387441046,14.9292427115682 2.48738953533192,14.7923242233846 3.52040794617979,14.5810387416191 4.54633160763995,14.2944335163538 5.55699427041718,13.9326872975734 6.5442126852177,13.4971568351608 7.49999935273087,12.990379878897 8.41677427361085,12.4160329284646 9.28756394845947,11.7788419834558 10.1061766278111,11.0844555433831 10.8673460621202,10.3392821076935 11.5668337517527,9.55030442578429 12.2014914469801,8.72488199702036 12.7692766479788,7.87054832075154 13.2692296048315,6.99481989632915 13.7014123175331,6.1050194731212 14.0668190359975,5.20812455052553 14.3672652600682,4.31064362798043 14.6052619895285,3.4185209549729 14.783883474113,2.53707528104391 14.906637713519,1.67096185579172 14.9773402074172,0.824163178872609 14.9999987054617,0" style=" stroke-width: 0.0000010000;stroke: #cc19ff; fill: none; " xmlns="http://www.w3.org/2000/svg" />
  <g id="ComplexString2d_1275" style=" fill-rule: evenodd; stroke-width: 0.0000000000;stroke: #cc19ff; fill: #cc19ff; " xmlns="http://www.w3.org/2000/svg">
    <path d="M 14.9999987054617 0 L 14.9773402074172 -0.824163178872609 L 14.906637713519 -1.67096185579172 L 14.783883474113 -2.53707528104391 L 14.6052619895285 -3.4185209549729 L 14.3672652600682 -4.31064362798043 L 14.0668190359975 -5.20812455052553 L 13.7014123175331 -6.1050194731212 L 13.2692296048315 -6.99481989632915 L 12.7692766479788 -7.87054832075154 L 12.2014914469801 -8.72488199702036 L 11.5668337517527 -9.55030442578429 L 10.8673460621202 -10.3392821076935 L 10.1061766278111 -11.0844555433831 L 9.28756394845947 -11.7788419834558 L 8.41677427361085 -12.4160329284646 L 7.49999935273087 -12.990379878897 L 6.5442126852177 -13.4971568351608 L 5.55699427041718 -13.9326872975734 L 4.54633160763995 -14.2944335163538 L 3.52040794617979 -14.5810387416191 L 2.48738953533192 -14.7923242233846 L 1.45522387441046 -14.9292427115682 L 0.431456462764203 -14.9937922059974 L -0.576922950210073 -14.9888999564196 L -1.56360411505696 -14.9182809625142 L -2.52304128225508 -14.7862849739058 L -3.45050595221251 -14.5977384901778 L -4.34210487526524 -14.3577882608861 L -5.19477005167805 -14.0717562855714 L -6.00622348164755 -13.7450078137707 L -6.77492391530673 -13.3828385950268 L -7.49999935273087 -12.990379878897 L -8.20241629211049 -12.5586754161542 L -8.90041423187148 -12.0740459579789 L -9.58911342243498 -11.5346810045275 L -10.2631571142633 -10.9392673059132 L -10.9167595578557 -10.2870951121974 L -11.5437777537424 -9.57816042338025 L -12.1378082024761 -8.81326123939301 L -12.6923066546215 -7.99408006009044 L -13.2007333607429 -7.12324388524583 L -13.6567153213905 -6.20436046454782 L -14.0542232870846 -5.2420195476003 L -14.3877537583 -4.24175663392555 L -14.652508485451 -3.20997797297069 L -14.8445582188766 -2.15384531411764 L -14.9609869588285 -1.08112390669624 L -14.9999987054617 0 L -14.9609869588285 1.08112390669624 L -14.8445582188766 2.15384531411764 L -14.652508485451 3.20997797297069 L -14.3877537583 4.24175663392555 L -14.0542232870846 5.2420195476003 L -13.6567153213905 6.20436046454782 L -13.2007333607429 7.12324388524583 L -12.6923066546215 7.99408006009044 L -12.1378082024761 8.81326123939301 L -11.5437777537424 9.57816042338025 L -10.9167595578557 10.2870951121974 L -10.2631571142633 10.9392673059132 L -9.58911342243498 11.5346810045275 L -8.90041423187148 12.0740459579789 L -8.20241629211049 12.5586754161542 L -7.49999935273087 12.990379878897 L -6.77492391530673 13.3828385950268 L -6.00622348164755 13.7450078137707 L -5.19477005167805 14.0717562855714 L -4.34210487526524 14.3577882608861 L -3.45050595221251 14.5977384901778 L -2.52304128225508 14.7862849739058 L -1.56360411505696 14.9182809625142 L -0.576922950210073 14.9888999564196 L 0.431456462764203 14.9937922059974 L 1.45522387441046 14.9292427115682 L 2.48738953533192 14.7923242233846 L 3.52040794617979 14.5810387416191 L 4.54633160763995 14.2944335163538 L 5.55699427041718 13.9326872975734 L 6.5442126852177 13.4971568351608 L 7.49999935273087 12.990379878897 L 8.41677427361085 12.4160329284646 L 9.28756394845947 11.7788419834558 L 10.1061766278111 11.0844555433831 L 10.8673460621202 10.3392821076935 L 11.5668337517527 9.55030442578429 L 12.2014914469801 8.72488199702036 L 12.7692766479788 7.87054832075154 L 13.2692296048315 6.99481989632915 L 13.7014123175331 6.1050194731212 L 14.0668190359975 5.20812455052553 L 14.3672652600682 4.31064362798043 L 14.6052619895285 3.4185209549729 L 14.783883474113 2.53707528104391 L 14.906637713519 1.67096185579172 L 14.9773402074172 0.824163178872609 L 14.9999987054617 0 " />
  </g>
  <polyline points="11.2499990290963,0 11.2330050305629,-0.618122196654473 11.1799782851393,-1.25322139184379 11.0879125430848,-1.90280633578295 10.9539463046464,-2.56389077872967 10.7754490700512,-3.23298272098532 10.5501143394981,-3.90609341289414 10.2760591131498,-4.5787646048409 9.95192214112366,-5.24611504724685 9.57695767348405,-5.90291124056366 9.15111871023504,-6.54366143526528 8.6751252513145,-7.16272838183821 8.15050954659017,-7.75446158077013 7.57963259585831,-8.31334153253736 6.96567289884461,-8.83413148759185 6.31258070520814,-9.31202469634844 5.62499951454815,-9.74278490917274 4.90815957641327,-10.1228676263706 4.16774564031289,-10.4495153481801 3.40974870572996,-10.7208250747654 2.64030577213486,-10.9357790562143 1.86554208899894,-11.0942430425384 1.09141790580784,-11.1969320336761 0.323592472073142,-11.245344279498 -0.432692212657555,-11.2416750298147 -1.17270314879272,-11.1887105343857 -1.89228083669132,-11.0897137929293 -2.58787952665938,-10.9483038051334 -3.25657871894892,-10.7683413206646 -3.89607766375853,-10.5538170891786 -4.50466761123566,-10.308755860328 -5.08119281148006,-10.0371288837701 -5.62499951454815,-9.74278490917274 -6.15181221908287,-9.41900668711562 -6.67531067390361,-9.05553446848421 -7.19183512932623,-8.65101075339564 -7.69736783569746,-8.20445054193493 -8.1875695433918,-7.71532133414803 -8.65783325280684,-7.1836201300352 -9.10335621435707,-6.60994592954475 -9.5192299284661,-5.99555998256783 -9.90054989555721,-5.34243278893438 -10.2425363660429,-4.65327034841086 -10.5406673403134,-3.93151466070023 -10.790815318725,-3.18131747544416 -10.9893813015883,-2.40748354222801 -11.1334187891575,-1.61538411058822 -11.2207402816214,-0.810842930022181 -11.2499990290963,0 -11.2207402816214,0.810842930022181 -11.1334187891575,1.61538411058822 -10.9893813015883,2.40748354222801 -10.790815318725,3.18131747544416 -10.5406673403134,3.93151466070023 -10.2425363660429,4.65327034841086 -9.90054989555721,5.34243278893438 -9.5192299284661,5.99555998256783 -9.10335621435707,6.60994592954475 -8.65783325280684,7.1836201300352 -8.1875695433918,7.71532133414803 -7.69736783569746,8.20445054193493 -7.19183512932623,8.65101075339564 -6.67531067390361,9.05553446848421 -6.15181221908287,9.41900668711562 -5.62499951454815,9.74278490917274 -5.08119281148006,10.0371288837701 -4.50466761123566,10.308755860328 -3.89607766375853,10.5538170891786 -3.25657871894892,10.7683413206646 -2.58787952665938,10.9483038051334 -1.89228083669132,11.0897137929293 -1.17270314879272,11.1887105343857 -0.432692212657555,11.2416750298147 0.323592472073142,11.245344279498 1.09141790580784,11.1969320336761 1.86554208899894,11.0942430425384 2.64030577213486,10.9357790562143 3.40974870572996,10.7208250747654 4.16774564031289,10.4495153481801 4.90815957641327,10.1228676263706 5.62499951454815,9.74278490917274 6.31258070520814,9.31202469634844 6.96567289884461,8.83413148759185 7.57963259585831,8.31334153253736 8.15050954659017,7.75446158077013 8.6751252513145,7.16272838183821 9.15111871023504,6.54366143526528 9.57695767348405,5.90291124056366 9.95192214112366,5.24611504724685 10.2760591131498,4.5787646048409 10.5501143394981,3.90609341289414 10.7754490700512,3.23298272098532 10.9539463046464,2.56389077872967 11.0879125430848,1.90280633578295 11.1799782851393,1.25322139184379 11.2330050305629,0.618122196654473 11.2499990290963,0" style=" stroke-width: 0.0000010000;stroke: #ffffff; fill: none; " xmlns="http://www.w3.org/2000/svg" />
  <g id="ComplexString2d_1276" style=" fill-rule: evenodd; stroke-width: 0.0000000000;stroke: #ffffff; fill: #ffffff; " xmlns="http://www.w3.org/2000/svg">
    <path d="M 11.2499990290963 0 L 11.2330050305629 -0.618122196654473 L 11.1799782851393 -1.25322139184379 L 11.0879125430848 -1.90280633578295 L 10.9539463046464 -2.56389077872967 L 10.7754490700512 -3.23298272098532 L 10.5501143394981 -3.90609341289414 L 10.2760591131498 -4.5787646048409 L 9.95192214112366 -5.24611504724685 L 9.57695767348405 -5.90291124056366 L 9.15111871023504 -6.54366143526528 L 8.6751252513145 -7.16272838183821 L 8.15050954659017 -7.75446158077013 L 7.57963259585831 -8.31334153253736 L 6.96567289884461 -8.83413148759185 L 6.31258070520814 -9.31202469634844 L 5.62499951454815 -9.74278490917274 L 4.90815957641327 -10.1228676263706 L 4.16774564031289 -10.4495153481801 L 3.40974870572996 -10.7208250747654 L 2.64030577213486 -10.9357790562143 L 1.86554208899894 -11.0942430425384 L 1.09141790580784 -11.1969320336761 L 0.323592472073142 -11.245344279498 L -0.432692212657555 -11.2416750298147 L -1.17270314879272 -11.1887105343857 L -1.89228083669132 -11.0897137929293 L -2.58787952665938 -10.9483038051334 L -3.25657871894892 -10.7683413206646 L -3.89607766375853 -10.5538170891786 L -4.50466761123566 -10.308755860328 L -5.08119281148006 -10.0371288837701 L -5.62499951454815 -9.74278490917274 L -6.15181221908287 -9.41900668711562 L -6.67531067390361 -9.05553446848421 L -7.19183512932623 -8.65101075339564 L -7.69736783569746 -8.20445054193493 L -8.1875695433918 -7.71532133414803 L -8.65783325280684 -7.1836201300352 L -9.10335621435707 -6.60994592954475 L -9.5192299284661 -5.99555998256783 L -9.90054989555721 -5.34243278893438 L -10.2425363660429 -4.65327034841086 L -10.5406673403134 -3.93151466070023 L -10.790815318725 -3.18131747544416 L -10.9893813015883 -2.40748354222801 L -11.1334187891575 -1.61538411058822 L -11.2207402816214 -0.810842930022181 L -11.2499990290963 0 L -11.2207402816214 0.810842930022181 L -11.1334187891575 1.61538411058822 L -10.9893813015883 2.40748354222801 L -10.790815318725 3.18131747544416 L -10.5406673403134 3.93151466070023 L -10.2425363660429 4.65327034841086 L -9.90054989555721 5.34243278893438 L -9.5192299284661 5.99555998256783 L -9.10335621435707 6.60994592954475 L -8.65783325280684 7.1836201300352 L -8.1875695433918 7.71532133414803 L -7.69736783569746 8.20445054193493 L -7.19183512932623 8.65101075339564 L -6.67531067390361 9.05553446848421 L -6.15181221908287 9.41900668711562 L -5.62499951454815 9.74278490917274 L -5.08119281148006 10.0371288837701 L -4.50466761123566 10.308755860328 L -3.89607766375853 10.5538170891786 L -3.25657871894892 10.7683413206646 L -2.58787952665938 10.9483038051334 L -1.89228083669132 11.0897137929293 L -1.17270314879272 11.1887105343857 L -0.432692212657555 11.2416750298147 L 0.323592472073142 11.245344279498 L 1.09141790580784 11.1969320336761 L 1.86554208899894 11.0942430425384 L 2.64030577213486 10.9357790562143 L 3.40974870572996 10.7208250747654 L 4.16774564031289 10.4495153481801 L 4.90815957641327 10.1228676263706 L 5.62499951454815 9.74278490917274 L 6.31258070520814 9.31202469634844 L 6.96567289884461 8.83413148759185 L 7.57963259585831 8.31334153253736 L 8.15050954659017 7.75446158077013 L 8.6751252513145 7.16272838183821 L 9.15111871023504 6.54366143526528 L 9.57695767348405 5.90291124056366 L 9.95192214112366 5.24611504724685 L 10.2760591131498 4.5787646048409 L 10.5501143394981 3.90609341289414 L 10.7754490700512 3.23298272098532 L 10.9539463046464 2.56389077872967 L 11.0879125430848 1.90280633578295 L 11.1799782851393 1.25322139184379 L 11.2330050305629 0.618122196654473 L 11.2499990290963 0 " />
  </g>
  <polyline points="2.49999978424362,0 2.49622328456954,-0.137360488145438 2.48443953558651,-0.278493725965279 2.46398053735218,-0.422845963507311 2.43421028992142,-0.569753450828819 2.3945442933447,-0.71844068799673 2.34446979766626,-0.868020675087595 2.28356880292217,-1.01750316218687 2.21153830913859,-1.16580339938818 2.12821281632979,-1.31175813679192 2.03358182449669,-1.45414712450338 1.92780558362545,-1.59171736263072 1.81122434368671,-1.72321360128226 1.68436285463518,-1.84740934056385 1.54792736640991,-1.96314033057597 1.40279562893515,-2.06933882141077 1.24999989212181,-2.1650633131495 1.09070215586961,-2.24952605586015 0.926165670069533,-2.32211454959557 0.757721934606658,-2.38240554439231 0.586734699363294,-2.43017304026985 0.414564964221983,-2.46538728723077 0.242537229068417,-2.48820703526137 0.0719094937940267,-2.4989652843329 -0.0961537417016861,-2.49815003440326 -0.26060072750949,-2.48638003541904 -0.420506963709173,-2.46438078731763 -0.575084200368762,-2.43295654002963 -0.723684187544203,-2.39296479348102 -0.865794925279683,-2.34529279759523 -1.00103716360793,-2.29083455229512 -1.12915390255113,-2.23047305750447 -1.24999989212181,-2.1650633131495 -1.36706938201841,-2.09311256935903 -1.48340237197858,-2.01234107632982 -1.59818561207249,-1.92244683408792 -1.71052610237722,-1.8232113426522 -1.81945984297596,-1.7145158520329 -1.92396308395706,-1.59636011223004 -2.02296807541268,-1.46887687323217 -2.11538431743692,-1.33234663501508 -2.20012231012382,-1.18720739754096 -2.27611930356508,-1.03406016075796 -2.34237054784743,-0.87366992460005 -2.39795904305,-0.706959438987592 -2.44208478924183,-0.534996453828437 -2.47409303647944,-0.358974219019606 -2.49349778480476,-0.180187234449381 -2.49999978424362,0 -2.49349778480476,0.180187234449381 -2.47409303647944,0.358974219019606 -2.44208478924183,0.534996453828437 -2.39795904305,0.706959438987592 -2.34237054784743,0.87366992460005 -2.27611930356508,1.03406016075796 -2.20012231012382,1.18720739754096 -2.11538431743692,1.33234663501508 -2.02296807541268,1.46887687323217 -1.92396308395706,1.59636011223004 -1.81945984297596,1.7145158520329 -1.71052610237722,1.8232113426522 -1.59818561207249,1.92244683408792 -1.48340237197858,2.01234107632982 -1.36706938201841,2.09311256935903 -1.24999989212181,2.1650633131495 -1.12915390255113,2.23047305750447 -1.00103716360793,2.29083455229512 -0.865794925279683,2.34529279759523 -0.723684187544203,2.39296479348102 -0.575084200368762,2.43295654002963 -0.420506963709173,2.46438078731763 -0.26060072750949,2.48638003541904 -0.0961537417016861,2.49815003440326 0.0719094937940267,2.4989652843329 0.242537229068417,2.48820703526137 0.414564964221983,2.46538728723077 0.586734699363294,2.43017304026985 0.757721934606658,2.38240554439231 0.926165670069533,2.32211454959557 1.09070215586961,2.24952605586015 1.24999989212181,2.1650633131495 1.40279562893515,2.06933882141077 1.54792736640991,1.96314033057597 1.68436285463518,1.84740934056385 1.81122434368671,1.72321360128226 1.92780558362545,1.59171736263072 2.03358182449669,1.45414712450338 2.12821281632979,1.31175813679192 2.21153830913859,1.16580339938818 2.28356880292217,1.01750316218687 2.34446979766626,0.868020675087595 2.3945442933447,0.71844068799673 2.43421028992142,0.569753450828819 2.46398053735218,0.422845963507311 2.48443953558651,0.278493725965279 2.49622328456954,0.137360488145438 2.49999978424362,0" style=" stroke-width: 0.0000010000;stroke: #cc19ff; fill: none; " xmlns="http://www.w3.org/2000/svg" />
  <g id="ComplexString2d_1277" style=" fill-rule: evenodd; stroke-width: 0.0000000000;stroke: #cc19ff; fill: #cc19ff; " xmlns="http://www.w3.org/2000/svg">
    <path d="M 2.49999978424362 0 L 2.49622328456954 -0.137360488145438 L 2.48443953558651 -0.278493725965279 L 2.46398053735218 -0.422845963507311 L 2.43421028992142 -0.569753450828819 L 2.3945442933447 -0.71844068799673 L 2.34446979766626 -0.868020675087595 L 2.28356880292217 -1.01750316218687 L 2.21153830913859 -1.16580339938818 L 2.12821281632979 -1.31175813679192 L 2.03358182449669 -1.45414712450338 L 1.92780558362545 -1.59171736263072 L 1.81122434368671 -1.72321360128226 L 1.68436285463518 -1.84740934056385 L 1.54792736640991 -1.96314033057597 L 1.40279562893515 -2.06933882141077 L 1.24999989212181 -2.1650633131495 L 1.09070215586961 -2.24952605586015 L 0.926165670069533 -2.32211454959557 L 0.757721934606658 -2.38240554439231 L 0.586734699363294 -2.43017304026985 L 0.414564964221983 -2.46538728723077 L 0.242537229068417 -2.48820703526137 L 0.0719094937940267 -2.4989652843329 L -0.0961537417016861 -2.49815003440326 L -0.26060072750949 -2.48638003541904 L -0.420506963709173 -2.46438078731763 L -0.575084200368762 -2.43295654002963 L -0.723684187544203 -2.39296479348102 L -0.865794925279683 -2.34529279759523 L -1.00103716360793 -2.29083455229512 L -1.12915390255113 -2.23047305750447 L -1.24999989212181 -2.1650633131495 L -1.36706938201841 -2.09311256935903 L -1.48340237197858 -2.01234107632982 L -1.59818561207249 -1.92244683408792 L -1.71052610237722 -1.8232113426522 L -1.81945984297596 -1.7145158520329 L -1.92396308395706 -1.59636011223004 L -2.02296807541268 -1.46887687323217 L -2.11538431743692 -1.33234663501508 L -2.20012231012382 -1.18720739754096 L -2.27611930356508 -1.03406016075796 L -2.34237054784743 -0.87366992460005 L -2.39795904305 -0.706959438987592 L -2.44208478924183 -0.534996453828437 L -2.47409303647944 -0.358974219019606 L -2.49349778480476 -0.180187234449381 L -2.49999978424362 0 L -2.49349778480476 0.180187234449381 L -2.47409303647944 0.358974219019606 L -2.44208478924183 0.534996453828437 L -2.39795904305 0.706959438987592 L -2.34237054784743 0.87366992460005 L -2.27611930356508 1.03406016075796 L -2.20012231012382 1.18720739754096 L -2.11538431743692 1.33234663501508 L -2.02296807541268 1.46887687323217 L -1.92396308395706 1.59636011223004 L -1.81945984297596 1.7145158520329 L -1.71052610237722 1.8232113426522 L -1.59818561207249 1.92244683408792 L -1.48340237197858 2.01234107632982 L -1.36706938201841 2.09311256935903 L -1.24999989212181 2.1650633131495 L -1.12915390255113 2.23047305750447 L -1.00103716360793 2.29083455229512 L -0.865794925279683 2.34529279759523 L -0.723684187544203 2.39296479348102 L -0.575084200368762 2.43295654002963 L -0.420506963709173 2.46438078731763 L -0.26060072750949 2.48638003541904 L -0.0961537417016861 2.49815003440326 L 0.0719094937940267 2.4989652843329 L 0.242537229068417 2.48820703526137 L 0.414564964221983 2.46538728723077 L 0.586734699363294 2.43017304026985 L 0.757721934606658 2.38240554439231 L 0.926165670069533 2.32211454959557 L 1.09070215586961 2.24952605586015 L 1.24999989212181 2.1650633131495 L 1.40279562893515 2.06933882141077 L 1.54792736640991 1.96314033057597 L 1.68436285463518 1.84740934056385 L 1.81122434368671 1.72321360128226 L 1.92780558362545 1.59171736263072 L 2.03358182449669 1.45414712450338 L 2.12821281632979 1.31175813679192 L 2.21153830913859 1.16580339938818 L 2.28356880292217 1.01750316218687 L 2.34446979766626 0.868020675087595 L 2.3945442933447 0.71844068799673 L 2.43421028992142 0.569753450828819 L 2.46398053735218 0.422845963507311 L 2.48443953558651 0.278493725965279 L 2.49622328456954 0.137360488145438 L 2.49999978424362 0 " />
  </g>
</svg>