<?xml version="1.0" encoding="UTF-8"?>
<svg viewBox="-15.0000124005422 -40.0373562685981 30 43.9539726887541" xmlns="http://www.w3.org/2000/svg" xmlns:xlink="http://www.w3.org/1999/xlink" xmlns:gmsvgsym="http://www.intergraph.com/GeoMedia/svgsym">
  <!-- Creator: SVG Document for Symbols-->
  <path id="LineString2d_1207" style=" stroke-width: 0.0000010000;stroke: #ffffff; fill: none; " d="M -15.0000107084976 3.91661585126614 L -3.91617724013457 -15.2811469722082 L -3.91617724013457 -25.1559038987498 L -14.0982185462891 -25.1559038987498 L -14.0982185462891 -32.9882455339786 L -3.91617724013457 -32.9882455339786 L -3.91617724013457 -40.0373530056846 L 3.91616439509429 -40.0373530056846 L 3.91616439509429 -32.9882455339786 L 14.0982113405348 -32.9882455339786 L 14.0982113405348 -25.1559038987498 L 3.91616439509429 -25.1559038987498 L 3.91616439509429 -15.2811273913541 L 14.9999865848854 3.91661585126614 L -15.0000107084976 3.91661585126614 " xmlns="http://www.w3.org/2000/svg" />
  <g id="ComplexString2d_1208" style=" fill-rule: evenodd; stroke-width: 0.0000000000;stroke: #ffffff; fill: #ffffff; " xmlns="http://www.w3.org/2000/svg">
    <path d="M -15.0000107084976 3.91661585126614 L -3.91617724013457 -15.2811469722082 L -3.91617724013457 -25.1559038987498 L -14.0982185462891 -25.1559038987498 L -14.0982185462891 -32.9882455339786 L -3.91617724013457 -32.9882455339786 L -3.91617724013457 -40.0373530056846 L 3.91616439509429 -40.0373530056846 L 3.91616439509429 -32.9882455339786 L 14.0982113405348 -32.9882455339786 L 14.0982113405348 -25.1559038987498 L 3.91616439509429 -25.1559038987498 L 3.91616439509429 -15.2811273913541 L 14.9999865848854 3.91661585126614 L -15.0000107084976 3.91661585126614 " />
  </g>
</svg>