<?xml version="1.0" encoding="UTF-8" standalone="no"?>
<!-- Created with Inkscape (http://www.inkscape.org/) -->

<svg
   version="1.1"
   width="8.7695942"
   height="13.362"
   id="svg19490"
   sodipodi:docname="0010_448.svg"
   inkscape:version="1.2.2 (732a01da63, 2022-12-09)"
   xmlns:inkscape="http://www.inkscape.org/namespaces/inkscape"
   xmlns:sodipodi="http://sodipodi.sourceforge.net/DTD/sodipodi-0.dtd"
   xmlns="http://www.w3.org/2000/svg"
   xmlns:svg="http://www.w3.org/2000/svg"
   xmlns:rdf="http://www.w3.org/1999/02/22-rdf-syntax-ns#"
   xmlns:cc="http://creativecommons.org/ns#"
   xmlns:dc="http://purl.org/dc/elements/1.1/">
  <sodipodi:namedview
     id="namedview14198"
     pagecolor="#ffffff"
     bordercolor="#000000"
     borderopacity="0.25"
     inkscape:showpageshadow="2"
     inkscape:pageopacity="0.0"
     inkscape:pagecheckerboard="0"
     inkscape:deskcolor="#d1d1d1"
     showgrid="false"
     inkscape:zoom="17.662026"
     inkscape:cx="-3.9066866"
     inkscape:cy="6.7093096"
     inkscape:window-width="1920"
     inkscape:window-height="1018"
     inkscape:window-x="-8"
     inkscape:window-y="-8"
     inkscape:window-maximized="1"
     inkscape:current-layer="svg19490" />
  <defs
     id="defs19492" />
  <metadata
     id="metadata19495">
    <rdf:RDF>
      <cc:Work
         rdf:about="">
        <dc:format>image/svg+xml</dc:format>
        <dc:type
           rdf:resource="http://purl.org/dc/dcmitype/StillImage" />
        <dc:title />
      </cc:Work>
    </rdf:RDF>
  </metadata>
  <g
     id="g17610">
    <path
       d="m 8.6050938,4.3789411 a 4.1986566,4.1986566 0 1 1 -8.39731147,0 4.1986566,4.1986566 0 1 1 8.39731147,0 z"
       id="path11250-4-1"
       style="fill:#ffffff;fill-opacity:1;fill-rule:nonzero;stroke:#1a171b;stroke-width:0.35433;stroke-linejoin:miter;stroke-miterlimit:4;stroke-dasharray:none;stroke-opacity:1" />
    <path
       d="m 7.7655359,4.3788853 a 3.3589254,3.3589254 0 1 1 -6.7178492,0 3.3589254,3.3589254 0 1 1 6.7178492,0 z"
       id="path11250-24"
       style="fill:#ffffff;fill-opacity:1;fill-rule:nonzero;stroke:#1a171b;stroke-width:0.368763;stroke-linejoin:miter;stroke-miterlimit:4;stroke-dasharray:none;stroke-opacity:1" />
    <path
       d="m 6.8809544,4.3789394 a 2.4744094,2.4744094 0 1 1 -4.9488178,0 2.4744094,2.4744094 0 1 1 4.9488178,0 z"
       id="path11250-2-5-8"
       style="fill:#ffffff;fill-opacity:1;fill-rule:nonzero;stroke:#1a171b;stroke-width:0.366141;stroke-linejoin:miter;stroke-miterlimit:4;stroke-dasharray:none;stroke-opacity:1" />
    <path
       d="m 1.88251,12.6453 0.87442,-0.023 0.82282,-8.2716 h 1.68291 l 0.81997,8.2386 0.80847,-0.013 v 0.7727 l -5.0344,0.013"
       id="path878-5_3_-7-7"
       style="fill:#ffffff;fill-opacity:1" />
    <path
       d="M 2.03874,12.9065 H 2.99503 L 3.7152,4.4959 h 1.43591 l 0.72017,8.4106 h 0.95777 v 0.4214 H 2.03874"
       id="path878-5_2_-6-1"
       style="fill:#1a171b" />
    <path
       d="m 6.1782399,4.3789235 a 1.7716536,1.7716536 0 1 1 -3.5433064,0 1.7716536,1.7716536 0 1 1 3.5433064,0 z"
       id="path11250-2-8"
       style="fill:#1a171b;fill-opacity:1;fill-rule:nonzero;stroke:none;stroke-width:0.978617" />
  </g>
</svg>
