<?xml version="1.0" encoding="UTF-8"?>
<svg viewBox="-15 -72.4999870002902 30 87.4999870002902" xmlns="http://www.w3.org/2000/svg" xmlns:xlink="http://www.w3.org/1999/xlink" xmlns:gmsvgsym="http://www.intergraph.com/GeoMedia/svgsym">
  <!-- Creator: SVG Document for Symbols-->
  <polyline points="-0.0187857483787419,-64.3410531972025 0.0187984983776415,-64.3577866957584" style="  stroke-width: 0.0000750000; stroke-linecap: round;stroke: #000000; fill: none; " xmlns="http://www.w3.org/2000/svg" />
  <polyline points="0.0187984983776415,-64.3577866957584 -0.0187857483787419,-64.442202438473" style="  stroke-width: 0.0000750000; stroke-linecap: round;stroke: #000000; fill: none; " xmlns="http://www.w3.org/2000/svg" />
  <polyline points="14.9999987054617,0 14.9773402074172,-0.824163178872609 14.906637713519,-1.67096185579172 14.783883474113,-2.53707528104391 14.6052619895285,-3.4185209549729 14.3672652600682,-4.31064362798043 14.0668190359975,-5.20812455052553 13.7014123175331,-6.1050194731212 13.2692296048315,-6.99481989632915 12.7692766479788,-7.87054832075154 12.2014914469801,-8.72488199702036 11.5668337517527,-9.55030442578429 10.8673460621202,-10.3392821076935 10.1061766278111,-11.0844555433831 9.28756394845947,-11.7788419834558 8.41677427361085,-12.4160329284646 7.49999935273087,-12.990379878897 6.5442126852177,-13.4971568351608 5.55699427041718,-13.9326872975734 4.54633160763995,-14.2944335163538 3.52040794617979,-14.5810387416191 2.48738953533192,-14.7923242233846 1.45522387441046,-14.9292427115682 0.431456462764203,-14.9937922059974 -0.576922950210073,-14.9888999564196 -1.56360411505696,-14.9182809625142 -2.52304128225508,-14.7862849739058 -3.45050595221251,-14.5977384901778 -4.34210487526524,-14.3577882608861 -5.19477005167805,-14.0717562855714 -6.00622348164755,-13.7450078137707 -6.77492391530673,-13.3828385950268 -7.49999935273087,-12.990379878897 -8.20241629211049,-12.5586754161542 -8.90041423187148,-12.0740459579789 -9.58911342243498,-11.5346810045275 -10.2631571142633,-10.9392673059132 -10.9167595578557,-10.2870951121974 -11.5437777537424,-9.57816042338025 -12.1378082024761,-8.81326123939301 -12.6923066546215,-7.99408006009044 -13.2007333607429,-7.12324388524583 -13.6567153213905,-6.20436046454782 -14.0542232870846,-5.2420195476003 -14.3877537583,-4.24175663392555 -14.652508485451,-3.20997797297069 -14.8445582188766,-2.15384531411764 -14.9609869588285,-1.08112390669624 -14.9999987054617,0 -14.9609869588285,1.08112390669624 -14.8445582188766,2.15384531411764 -14.652508485451,3.20997797297069 -14.3877537583,4.24175663392555 -14.0542232870846,5.2420195476003 -13.6567153213905,6.20436046454782 -13.2007333607429,7.12324388524583 -12.6923066546215,7.99408006009044 -12.1378082024761,8.81326123939301 -11.5437777537424,9.57816042338025 -10.9167595578557,10.2870951121974 -10.2631571142633,10.9392673059132 -9.58911342243498,11.5346810045275 -8.90041423187148,12.0740459579789 -8.20241629211049,12.5586754161542 -7.49999935273087,12.990379878897 -6.77492391530673,13.3828385950268 -6.00622348164755,13.7450078137707 -5.19477005167805,14.0717562855714 -4.34210487526524,14.3577882608861 -3.45050595221251,14.5977384901778 -2.52304128225508,14.7862849739058 -1.56360411505696,14.9182809625142 -0.576922950210073,14.9888999564196 0.431456462764203,14.9937922059974 1.45522387441046,14.9292427115682 2.48738953533192,14.7923242233846 3.52040794617979,14.5810387416191 4.54633160763995,14.2944335163538 5.55699427041718,13.9326872975734 6.5442126852177,13.4971568351608 7.49999935273087,12.990379878897 8.41677427361085,12.4160329284646 9.28756394845947,11.7788419834558 10.1061766278111,11.0844555433831 10.8673460621202,10.3392821076935 11.5668337517527,9.55030442578429 12.2014914469801,8.72488199702036 12.7692766479788,7.87054832075154 13.2692296048315,6.99481989632915 13.7014123175331,6.1050194731212 14.0668190359975,5.20812455052553 14.3672652600682,4.31064362798043 14.6052619895285,3.4185209549729 14.783883474113,2.53707528104391 14.906637713519,1.67096185579172 14.9773402074172,0.824163178872609 14.9999987054617,0" style=" stroke-width: 0.0000010000;stroke: #000000; fill: none; " xmlns="http://www.w3.org/2000/svg" />
  <g id="ComplexString2d_1173" style=" fill-rule: evenodd; stroke-width: 0.0000000000;stroke: #000000; fill: #000000; " xmlns="http://www.w3.org/2000/svg">
    <path d="M 14.9999987054617 0 L 14.9773402074172 -0.824163178872609 L 14.906637713519 -1.67096185579172 L 14.783883474113 -2.53707528104391 L 14.6052619895285 -3.4185209549729 L 14.3672652600682 -4.31064362798043 L 14.0668190359975 -5.20812455052553 L 13.7014123175331 -6.1050194731212 L 13.2692296048315 -6.99481989632915 L 12.7692766479788 -7.87054832075154 L 12.2014914469801 -8.72488199702036 L 11.5668337517527 -9.55030442578429 L 10.8673460621202 -10.3392821076935 L 10.1061766278111 -11.0844555433831 L 9.28756394845947 -11.7788419834558 L 8.41677427361085 -12.4160329284646 L 7.49999935273087 -12.990379878897 L 6.5442126852177 -13.4971568351608 L 5.55699427041718 -13.9326872975734 L 4.54633160763995 -14.2944335163538 L 3.52040794617979 -14.5810387416191 L 2.48738953533192 -14.7923242233846 L 1.45522387441046 -14.9292427115682 L 0.431456462764203 -14.9937922059974 L -0.576922950210073 -14.9888999564196 L -1.56360411505696 -14.9182809625142 L -2.52304128225508 -14.7862849739058 L -3.45050595221251 -14.5977384901778 L -4.34210487526524 -14.3577882608861 L -5.19477005167805 -14.0717562855714 L -6.00622348164755 -13.7450078137707 L -6.77492391530673 -13.3828385950268 L -7.49999935273087 -12.990379878897 L -8.20241629211049 -12.5586754161542 L -8.90041423187148 -12.0740459579789 L -9.58911342243498 -11.5346810045275 L -10.2631571142633 -10.9392673059132 L -10.9167595578557 -10.2870951121974 L -11.5437777537424 -9.57816042338025 L -12.1378082024761 -8.81326123939301 L -12.6923066546215 -7.99408006009044 L -13.2007333607429 -7.12324388524583 L -13.6567153213905 -6.20436046454782 L -14.0542232870846 -5.2420195476003 L -14.3877537583 -4.24175663392555 L -14.652508485451 -3.20997797297069 L -14.8445582188766 -2.15384531411764 L -14.9609869588285 -1.08112390669624 L -14.9999987054617 0 L -14.9609869588285 1.08112390669624 L -14.8445582188766 2.15384531411764 L -14.652508485451 3.20997797297069 L -14.3877537583 4.24175663392555 L -14.0542232870846 5.2420195476003 L -13.6567153213905 6.20436046454782 L -13.2007333607429 7.12324388524583 L -12.6923066546215 7.99408006009044 L -12.1378082024761 8.81326123939301 L -11.5437777537424 9.57816042338025 L -10.9167595578557 10.2870951121974 L -10.2631571142633 10.9392673059132 L -9.58911342243498 11.5346810045275 L -8.90041423187148 12.0740459579789 L -8.20241629211049 12.5586754161542 L -7.49999935273087 12.990379878897 L -6.77492391530673 13.3828385950268 L -6.00622348164755 13.7450078137707 L -5.19477005167805 14.0717562855714 L -4.34210487526524 14.3577882608861 L -3.45050595221251 14.5977384901778 L -2.52304128225508 14.7862849739058 L -1.56360411505696 14.9182809625142 L -0.576922950210073 14.9888999564196 L 0.431456462764203 14.9937922059974 L 1.45522387441046 14.9292427115682 L 2.48738953533192 14.7923242233846 L 3.52040794617979 14.5810387416191 L 4.54633160763995 14.2944335163538 L 5.55699427041718 13.9326872975734 L 6.5442126852177 13.4971568351608 L 7.49999935273087 12.990379878897 L 8.41677427361085 12.4160329284646 L 9.28756394845947 11.7788419834558 L 10.1061766278111 11.0844555433831 L 10.8673460621202 10.3392821076935 L 11.5668337517527 9.55030442578429 L 12.2014914469801 8.72488199702036 L 12.7692766479788 7.87054832075154 L 13.2692296048315 6.99481989632915 L 13.7014123175331 6.1050194731212 L 14.0668190359975 5.20812455052553 L 14.3672652600682 4.31064362798043 L 14.6052619895285 3.4185209549729 L 14.783883474113 2.53707528104391 L 14.906637713519 1.67096185579172 L 14.9773402074172 0.824163178872609 L 14.9999987054617 0 " />
  </g>
  <path id="LineString2d_1174" style=" stroke-width: 0.0000010000;stroke: #000000; fill: none; " d="M -2.499983784245 -14.7902009735678 L -2.499983784245 -57.499986787604 L -13.7499898133407 -57.499986787604 L -13.7499898133407 -62.4999863560913 L -2.499983784245 -62.4999863560913 L -2.499983784245 -67.4999841745787 L -13.7499898133407 -67.4999841745787 L -13.7499898133407 -72.4999837430659 L 13.7500078133391 -72.4999837430659 L 13.7500078133391 -67.4999841745787 L 2.50001578424224 -67.4999841745787 L 2.50001578424224 -62.4999863560913 L 13.7500078133391 -62.4999863560913 L 13.7500078133391 -57.499986787604 L 2.50001578424224 -57.499986787604 L 2.50001578424224 -14.7901954735683 L 0 -14.9999987054617 L -2.499983784245 -14.7902009735678 " xmlns="http://www.w3.org/2000/svg" />
  <g id="ComplexString2d_1175" style=" fill-rule: evenodd; stroke-width: 0.0000000000;stroke: #000000; fill: #000000; " xmlns="http://www.w3.org/2000/svg">
    <path d="M -2.499983784245 -14.7902009735678 L -2.499983784245 -57.499986787604 L -13.7499898133407 -57.499986787604 L -13.7499898133407 -62.4999863560913 L -2.499983784245 -62.4999863560913 L -2.499983784245 -67.4999841745787 L -13.7499898133407 -67.4999841745787 L -13.7499898133407 -72.4999837430659 L 13.7500078133391 -72.4999837430659 L 13.7500078133391 -67.4999841745787 L 2.50001578424224 -67.4999841745787 L 2.50001578424224 -62.4999863560913 L 13.7500078133391 -62.4999863560913 L 13.7500078133391 -57.499986787604 L 2.50001578424224 -57.499986787604 L 2.50001578424224 -14.7901954735683 L 0 -14.9999987054617 L -2.499983784245 -14.7902009735678 " />
  </g>
  <polyline points="9.99999913697449,0 9.98489338827815,-0.549441952581754 9.93775839234602,-1.11397440386116 9.85592239940868,-1.69138360402927 9.7368411596857,-2.27901405331526 9.57817692337883,-2.87376225198697 9.37787944066501,-3.47208320035034 9.13427471168872,-4.07001314874745 8.84615298655436,-4.66321334755276 8.51285126531915,-5.24703229716769 8.13432754798672,-5.81658799801357 7.71122258450176,-6.36686970052286 7.24489737474682,-6.89285465512901 6.73745116854073,-7.38963686225543 6.19170921563965,-7.85256132230387 5.61118276574057,-8.27735528564306 4.99999956848724,-8.66025325259799 4.36280837347848,-8.99810447344056 3.70466293027811,-9.28845819838229 3.03088773842663,-9.5296224275692 2.3469385474532,-9.72069241107937 1.65825960688795,-9.86154939892306 0.970149166273645,-9.95282839104545 0.287637725176128,-9.99586138733159 -0.384615466806701,-9.99259988761306 -1.04240266003798,-9.94552064167612 -1.68202760483671,-9.85752339927051 -2.30033730147501,-9.73182566011855 -2.89473650017683,-9.57185892392409 -3.46317995111871,-9.38117094038095 -4.00414915443168,-9.16333845918045 -4.5166158602045,-8.92189248001785 -4.99999956848724,-8.66025325259799 -5.46827752807366,-8.37245027743612 -5.93360948791432,-8.04936405531929 -6.39274219828999,-7.68978733635168 -6.84210465950886,-7.29284487060883 -7.27783962190382,-6.85806340813158 -7.6958518358283,-6.38544019892017 -8.09187205165074,-5.87550749292867 -8.46153776974764,-5.32938654006031 -8.80048874049531,-4.74882934016388 -9.10447671426037,-4.13624039303187 -9.36948219138972,-3.4946796984002 -9.59183592220002,-2.82783775595037 -9.76833890696736,-2.13998531531379 -9.89637214591776,-1.43589687607843 -9.97399138921902,-0.720749187797501 -9.99999913697449,0 -9.97399138921902,0.720749187797501 -9.89637214591776,1.43589687607843 -9.76833890696736,2.13998531531379 -9.59183592220002,2.82783775595037 -9.36948219138972,3.4946796984002 -9.10447671426037,4.13624039303187 -8.80048874049531,4.74882934016388 -8.46153776974764,5.32938654006031 -8.09187205165074,5.87550749292867 -7.6958518358283,6.38544019892017 -7.27783962190382,6.85806340813158 -6.84210465950886,7.29284487060883 -6.39274219828999,7.68978733635168 -5.93360948791432,8.04936405531929 -5.46827752807366,8.37245027743612 -4.99999956848724,8.66025325259799 -4.5166158602045,8.92189248001785 -4.00414915443168,9.16333845918045 -3.46317995111871,9.38117094038095 -2.89473650017683,9.57185892392409 -2.30033730147501,9.73182566011855 -1.68202760483671,9.85752339927051 -1.04240266003798,9.94552064167612 -0.384615466806701,9.99259988761306 0.287637725176128,9.99586138733159 0.970149166273645,9.95282839104545 1.65825960688795,9.86154939892306 2.3469385474532,9.72069241107937 3.03088773842663,9.5296224275692 3.70466293027811,9.28845819838229 4.36280837347848,8.99810447344056 4.99999956848724,8.66025325259799 5.61118276574057,8.27735528564306 6.19170921563965,7.85256132230387 6.73745116854073,7.38963686225543 7.24489737474682,6.89285465512901 7.71122258450176,6.36686970052286 8.13432754798672,5.81658799801357 8.51285126531915,5.24703229716769 8.84615298655436,4.66321334755276 9.13427471168872,4.07001314874745 9.37787944066501,3.47208320035034 9.57817692337883,2.87376225198697 9.7368411596857,2.27901405331526 9.85592239940868,1.69138360402927 9.93775839234602,1.11397440386116 9.98489338827815,0.549441952581754 9.99999913697449,0" style=" stroke-width: 0.0000010000;stroke: #000000; fill: none; " xmlns="http://www.w3.org/2000/svg" />
  <g id="ComplexString2d_1176" style=" fill-rule: evenodd; stroke-width: 0.0000000000;stroke: #ffffff; fill: #ffffff; " xmlns="http://www.w3.org/2000/svg">
    <path d="M 9.99999913697449 0 L 9.98489338827815 -0.549441952581754 L 9.93775839234602 -1.11397440386116 L 9.85592239940868 -1.69138360402927 L 9.7368411596857 -2.27901405331526 L 9.57817692337883 -2.87376225198697 L 9.37787944066501 -3.47208320035034 L 9.13427471168872 -4.07001314874745 L 8.84615298655436 -4.66321334755276 L 8.51285126531915 -5.24703229716769 L 8.13432754798672 -5.81658799801357 L 7.71122258450176 -6.36686970052286 L 7.24489737474682 -6.89285465512901 L 6.73745116854073 -7.38963686225543 L 6.19170921563965 -7.85256132230387 L 5.61118276574057 -8.27735528564306 L 4.99999956848724 -8.66025325259799 L 4.36280837347848 -8.99810447344056 L 3.70466293027811 -9.28845819838229 L 3.03088773842663 -9.5296224275692 L 2.3469385474532 -9.72069241107937 L 1.65825960688795 -9.86154939892306 L 0.970149166273645 -9.95282839104545 L 0.287637725176128 -9.99586138733159 L -0.384615466806701 -9.99259988761306 L -1.04240266003798 -9.94552064167612 L -1.68202760483671 -9.85752339927051 L -2.30033730147501 -9.73182566011855 L -2.89473650017683 -9.57185892392409 L -3.46317995111871 -9.38117094038095 L -4.00414915443168 -9.16333845918045 L -4.5166158602045 -8.92189248001785 L -4.99999956848724 -8.66025325259799 L -5.46827752807366 -8.37245027743612 L -5.93360948791432 -8.04936405531929 L -6.39274219828999 -7.68978733635168 L -6.84210465950886 -7.29284487060883 L -7.27783962190382 -6.85806340813158 L -7.6958518358283 -6.38544019892017 L -8.09187205165074 -5.87550749292867 L -8.46153776974764 -5.32938654006031 L -8.80048874049531 -4.74882934016388 L -9.10447671426037 -4.13624039303187 L -9.36948219138972 -3.4946796984002 L -9.59183592220002 -2.82783775595037 L -9.76833890696736 -2.13998531531379 L -9.89637214591776 -1.43589687607843 L -9.97399138921902 -0.720749187797501 L -9.99999913697449 0 L -9.97399138921902 0.720749187797501 L -9.89637214591776 1.43589687607843 L -9.76833890696736 2.13998531531379 L -9.59183592220002 2.82783775595037 L -9.36948219138972 3.4946796984002 L -9.10447671426037 4.13624039303187 L -8.80048874049531 4.74882934016388 L -8.46153776974764 5.32938654006031 L -8.09187205165074 5.87550749292867 L -7.6958518358283 6.38544019892017 L -7.27783962190382 6.85806340813158 L -6.84210465950886 7.29284487060883 L -6.39274219828999 7.68978733635168 L -5.93360948791432 8.04936405531929 L -5.46827752807366 8.37245027743612 L -4.99999956848724 8.66025325259799 L -4.5166158602045 8.92189248001785 L -4.00414915443168 9.16333845918045 L -3.46317995111871 9.38117094038095 L -2.89473650017683 9.57185892392409 L -2.30033730147501 9.73182566011855 L -1.68202760483671 9.85752339927051 L -1.04240266003798 9.94552064167612 L -0.384615466806701 9.99259988761306 L 0.287637725176128 9.99586138733159 L 0.970149166273645 9.95282839104545 L 1.65825960688795 9.86154939892306 L 2.3469385474532 9.72069241107937 L 3.03088773842663 9.5296224275692 L 3.70466293027811 9.28845819838229 L 4.36280837347848 8.99810447344056 L 4.99999956848724 8.66025325259799 L 5.61118276574057 8.27735528564306 L 6.19170921563965 7.85256132230387 L 6.73745116854073 7.38963686225543 L 7.24489737474682 6.89285465512901 L 7.71122258450176 6.36686970052286 L 8.13432754798672 5.81658799801357 L 8.51285126531915 5.24703229716769 L 8.84615298655436 4.66321334755276 L 9.13427471168872 4.07001314874745 L 9.37787944066501 3.47208320035034 L 9.57817692337883 2.87376225198697 L 9.7368411596857 2.27901405331526 L 9.85592239940868 1.69138360402927 L 9.93775839234602 1.11397440386116 L 9.98489338827815 0.549441952581754 L 9.99999913697449 0 " />
  </g>
</svg>