<?xml version="1.0" encoding="UTF-8" standalone="no"?>
<svg
   viewBox="-15 -36.0928987130987 30 37.4991486039593"
   version="1.1"
   id="svg10"
   sodipodi:docname="0010_331.svg"
   inkscape:version="1.2.2 (732a01da63, 2022-12-09)"
   xmlns:inkscape="http://www.inkscape.org/namespaces/inkscape"
   xmlns:sodipodi="http://sodipodi.sourceforge.net/DTD/sodipodi-0.dtd"
   xmlns="http://www.w3.org/2000/svg"
   xmlns:svg="http://www.w3.org/2000/svg">
  <defs
     id="defs14" />
  <sodipodi:namedview
     id="namedview12"
     pagecolor="#ffffff"
     bordercolor="#000000"
     borderopacity="0.25"
     inkscape:showpageshadow="2"
     inkscape:pageopacity="0.0"
     inkscape:pagecheckerboard="0"
     inkscape:deskcolor="#d1d1d1"
     showgrid="false"
     inkscape:zoom="6.2934761"
     inkscape:cx="-8.2625244"
     inkscape:cy="18.829022"
     inkscape:window-width="1920"
     inkscape:window-height="1018"
     inkscape:window-x="-8"
     inkscape:window-y="-8"
     inkscape:window-maximized="1"
     inkscape:current-layer="svg10" />
  <!-- Creator: SVG Document for Symbols-->
  <path
     id="LineString2d_1122"
     style=" stroke-width: 0.0000750000;stroke: #000000; fill: none; "
     d="M -14.9999975413088 -1.4062497694977 L -11.2499981559816 -1.4062497694977 L -11.2499981559816 -25.1081175094588 L -10.7982137925348 -28.0012673477346 L -9.62662773457275 -30.6655736610208 L -7.82199828037457 -32.9292844149697 L -5.51056559674791 -34.6512573202163 L -2.84617865847496 -35.7270982063723 L -0.000834374863235302 -36.0928958339134 L 2.84452903374536 -35.7271465813643 L 5.50895159701247 -34.6513411327026 L 7.82043303063113 -32.9293817274537 L 9.62511179732124 -30.6656582235069 L 10.7967385427766 -28.0012919102306 L 11.2460452816295 -25.1081175094588 L 11.2460452816295 -1.4062497694977 L 14.9999975413088 -1.4062497694977 L 14.9999975413088 1.4062497694977 L -14.9999975413088 1.4062497694977 L -14.9999975413088 -1.4062497694977 " />
  <g
     id="ComplexString2d_1123"
     style="fill-rule:evenodd;stroke-width:0;stroke:#1a171b;fill:#1a171b;fill-opacity:1;stroke-opacity:1">
    <path
       d="M -14.9999975413088 -1.4062497694977 L -11.2499981559816 -1.4062497694977 L -11.2499981559816 -25.1081175094588 L -10.7982137925348 -28.0012673477346 L -9.62662773457275 -30.6655736610208 L -7.82199828037457 -32.9292844149697 L -5.51056559674791 -34.6512573202163 L -2.84617865847496 -35.7270982063723 L -0.000834374863235302 -36.0928958339134 L 2.84452903374536 -35.7271465813643 L 5.50895159701247 -34.6513411327026 L 7.82043303063113 -32.9293817274537 L 9.62511179732124 -30.6656582235069 L 10.7967385427766 -28.0012919102306 L 11.2460452816295 -25.1081175094588 L 11.2460452816295 -1.4062497694977 L 14.9999975413088 -1.4062497694977 L 14.9999975413088 1.4062497694977 L -14.9999975413088 1.4062497694977 L -14.9999975413088 -1.4062497694977 "
       id="path3"
       style="fill:#1a171b;fill-opacity:1;stroke:#1a171b;stroke-opacity:1" />
  </g>
  <path
     id="LineString2d_1124"
     style=" stroke-width: 0.0000010000;stroke: #ffffff; fill: none; "
     d="M -8.43396855506483 -1.4062497694977 L -8.43396855506483 -25.1081175094588 L -8.08060911298495 -27.2730874045926 L -7.19025519642533 -29.2589333290871 L -5.83289266891439 -30.9401789910095 L -4.10418588977151 -32.2153360944949 L -2.11823215279469 -33.0103652141795 L -0.000831187363757774 -33.2803962949179 L 2.11658252806509 -33.0104130266717 L 4.10257132753616 -32.2154193444813 L 5.6249990779908 -31.1361605213856 L 5.6249990779908 -1.4062497694977 L -8.43396855506483 -1.4062497694977 " />
  <g
     id="ComplexString2d_1125"
     style=" fill-rule: evenodd; stroke-width: 0.0000000000;stroke: #ffffff; fill: #ffffff; ">
    <path
       d="M -8.43396855506483 -1.4062497694977 L -8.43396855506483 -25.1081175094588 L -8.08060911298495 -27.2730874045926 L -7.19025519642533 -29.2589333290871 L -5.83289266891439 -30.9401789910095 L -4.10418588977151 -32.2153360944949 L -2.11823215279469 -33.0103652141795 L -0.000831187363757774 -33.2803962949179 L 2.11658252806509 -33.0104130266717 L 4.10257132753616 -32.2154193444813 L 5.6249990779908 -31.1361605213856 L 5.6249990779908 -1.4062497694977 L -8.43396855506483 -1.4062497694977 "
       id="path7" />
  </g>
</svg>
