<?xml version="1.0" encoding="UTF-8" standalone="no"?>
<svg
   viewBox="-14.6341428178391 -44.6341591727746 30 46.8292816517067"
   version="1.1"
   id="svg6"
   sodipodi:docname="0010_330.svg"
   inkscape:version="1.2.2 (732a01da63, 2022-12-09)"
   xmlns:inkscape="http://www.inkscape.org/namespaces/inkscape"
   xmlns:sodipodi="http://sodipodi.sourceforge.net/DTD/sodipodi-0.dtd"
   xmlns="http://www.w3.org/2000/svg"
   xmlns:svg="http://www.w3.org/2000/svg">
  <defs
     id="defs10" />
  <sodipodi:namedview
     id="namedview8"
     pagecolor="#ffffff"
     bordercolor="#000000"
     borderopacity="0.25"
     inkscape:showpageshadow="2"
     inkscape:pageopacity="0.0"
     inkscape:pagecheckerboard="0"
     inkscape:deskcolor="#d1d1d1"
     showgrid="false"
     inkscape:zoom="5.039582"
     inkscape:cx="-13.890041"
     inkscape:cy="23.513855"
     inkscape:window-width="1920"
     inkscape:window-height="1018"
     inkscape:window-x="-8"
     inkscape:window-y="-8"
     inkscape:window-maximized="1"
     inkscape:current-layer="svg6" />
  <!-- Creator: SVG Document for Symbols-->
  <path
     id="LineString2d_1120"
     style=" stroke-width: 0.0000010000;stroke: #000000; fill: none; "
     d="M 15.3658560264121 2.19512228948745 L -2.19512228948745 2.19512228948745 L -2.19512228948745 -27.8048858457033 L -14.6341409868257 -27.8048858457033 L -14.6341409868257 -32.1951304246782 L -2.19512228948745 -32.1951304246782 L -2.19512228948745 -44.6341567317738 L 2.19512228948745 -44.6341567317738 L 2.19512228948745 -32.1951304246782 L 14.6341562063403 -32.1951304246782 L 14.6341562063403 -27.8048858457033 L 2.19512228948745 -27.8048858457033 L 2.19512228948745 -2.19512228948745 L 15.3658560264121 -2.19512228948745 L 15.3658560264121 2.19512228948745 " />
  <g
     id="ComplexString2d_1121"
     style="fill-rule:evenodd;stroke-width:0;stroke:#1a171b;fill:#1a171b;fill-opacity:1;stroke-opacity:1">
    <path
       d="M 15.3658560264121 2.19512228948745 L -2.19512228948745 2.19512228948745 L -2.19512228948745 -27.8048858457033 L -14.6341409868257 -27.8048858457033 L -14.6341409868257 -32.1951304246782 L -2.19512228948745 -32.1951304246782 L -2.19512228948745 -44.6341567317738 L 2.19512228948745 -44.6341567317738 L 2.19512228948745 -32.1951304246782 L 14.6341562063403 -32.1951304246782 L 14.6341562063403 -27.8048858457033 L 2.19512228948745 -27.8048858457033 L 2.19512228948745 -2.19512228948745 L 15.3658560264121 -2.19512228948745 L 15.3658560264121 2.19512228948745 "
       id="path3"
       style="fill:#1a171b;fill-opacity:1;stroke:#1a171b;stroke-opacity:1" />
  </g>
</svg>
