<?xml version="1.0" encoding="UTF-8" standalone="no"?>
<svg
   xmlns:dc="http://purl.org/dc/elements/1.1/"
   xmlns:cc="http://creativecommons.org/ns#"
   xmlns:rdf="http://www.w3.org/1999/02/22-rdf-syntax-ns#"
   xmlns:svg="http://www.w3.org/2000/svg"
   xmlns="http://www.w3.org/2000/svg"
   xmlns:sodipodi="http://sodipodi.sourceforge.net/DTD/sodipodi-0.dtd"
   xmlns:inkscape="http://www.inkscape.org/namespaces/inkscape"
   viewBox="-15 -15 2.12589 2.126067"
   id="svg2"
   version="1.1"
   inkscape:version="0.48.3.1 r9886"
   width="100%"
   height="100%"
   sodipodi:docname="0010_713.svg">
  <metadata
     id="metadata18">
    <rdf:RDF>
      <cc:Work
         rdf:about="">
        <dc:format>image/svg+xml</dc:format>
        <dc:type
           rdf:resource="http://purl.org/dc/dcmitype/StillImage" />
      </cc:Work>
    </rdf:RDF>
  </metadata>
  <defs
     id="defs16">
    <inkscape:path-effect
       effect="spiro"
       id="path-effect3849"
       is_visible="true" />
    <inkscape:path-effect
       effect="spiro"
       id="path-effect3845"
       is_visible="true" />
  </defs>
  <sodipodi:namedview
     pagecolor="#ffffff"
     bordercolor="#666666"
     borderopacity="1"
     objecttolerance="10"
     gridtolerance="10"
     guidetolerance="10"
     inkscape:pageopacity="0"
     inkscape:pageshadow="2"
     inkscape:window-width="1618"
     inkscape:window-height="923"
     id="namedview14"
     showgrid="false"
     fit-margin-top="0"
     fit-margin-left="0"
     fit-margin-right="0"
     fit-margin-bottom="0"
     inkscape:showpageshadow="false"
     inkscape:zoom="256"
     inkscape:cx="0.90820312"
     inkscape:cy="1.3085938"
     inkscape:window-x="141"
     inkscape:window-y="29"
     inkscape:window-maximized="0"
     inkscape:current-layer="svg2" />
  <!-- Creator: SVG Document for Symbols-->
  <polyline
     points="14.9999987054617,0 14.9773402074172,-0.824162928872631 14.906637713519,-1.67096185579172 14.7838832241131,-2.53707528104391 14.6052617395285,-3.41852120497287 14.3672652600682,-4.31064362798043 14.0668192859975,-5.20812455052553 13.7014123175331,-6.1050194731212 13.2692298548315,-6.99481989632915 12.7692768979787,-7.87054832075154 12.2014914469801,-8.72488224702034 11.5668340017526,-9.55030467578427 10.8673460621202,-10.3392821076935 10.1061766278111,-11.0844555433831 9.28756419845945,-11.7788419834558 8.41677427361085,-12.4160329284646 7.49999935273087,-12.990379878897 6.54421293521768,-13.4971568351608 5.55699452041716,-13.9326872975734 4.54633160763995,-14.2944337663538 3.52040769617981,-14.5810387416191 2.48738928533194,-14.7923242233846 1.45522387441046,-14.9292427115682 0.431456462764203,-14.9937922059974 -0.576922950210073,-14.9888997064196 -1.56360386505699,-14.9182807125142 -2.52304128225508,-14.7862852239058 -3.45050570221253,-14.5977387401778 -4.34210512526522,-14.3577882608861 -5.19477005167805,-14.0717562855714 -6.00622348164755,-13.7450078137707 -6.77492391530673,-13.3828383450268 -7.49999935273087,-12.990379878897 -8.20241629211049,-12.5586754161542 -8.90041423187148,-12.0740459579789 -9.589113172435,-11.5346810045275 -10.2631571142633,-10.9392675559132 -10.9167595578557,-10.2870951121974 -11.5437780037424,-9.57816017338027 -12.1378079524761,-8.81326123939301 -12.6923064046215,-7.99407981009046 -13.2007333607429,-7.12324388524583 -13.6567153213905,-6.20436046454782 -14.0542232870846,-5.2420195476003 -14.3877537583,-4.24175663392555 -14.6525082354511,-3.20997822297067 -14.8445582188766,-2.15384531411764 -14.9609872088285,-1.08112390669624 -14.9999987054617,0 -14.9609872088285,1.08112390669624 -14.8445582188766,2.15384531411764 -14.6525082354511,3.20997822297067 -14.3877537583,4.24175663392555 -14.0542232870846,5.2420195476003 -13.6567153213905,6.20436046454782 -13.2007333607429,7.12324388524583 -12.6923064046215,7.99407981009046 -12.1378079524761,8.81326123939301 -11.5437780037424,9.57816017338027 -10.9167595578557,10.2870951121974 -10.2631571142633,10.9392675559132 -9.589113172435,11.5346810045275 -8.90041423187148,12.0740459579789 -8.20241629211049,12.5586754161542 -7.49999935273087,12.990379878897 -6.77492391530673,13.3828383450268 -6.00622348164755,13.7450078137707 -5.19477005167805,14.0717562855714 -4.34210512526522,14.3577882608861 -3.45050570221253,14.5977387401778 -2.52304128225508,14.7862852239058 -1.56360386505699,14.9182807125142 -0.576922950210073,14.9888997064196 0.431456462764203,14.9937922059974 1.45522387441046,14.9292427115682 2.48738928533194,14.7923242233846 3.52040769617981,14.5810387416191 4.54633160763995,14.2944337663538 5.55699452041716,13.9326872975734 6.54421293521768,13.4971568351608 7.49999935273087,12.990379878897 8.41677427361085,12.4160329284646 9.28756419845945,11.7788419834558 10.1061766278111,11.0844555433831 10.8673460621202,10.3392821076935 11.5668340017526,9.55030467578427 12.2014914469801,8.72488224702034 12.7692768979787,7.87054832075154 13.2692298548315,6.99481989632915 13.7014123175331,6.1050194731212 14.0668192859975,5.20812455052553 14.3672652600682,4.31064362798043 14.6052617395285,3.41852120497287 14.7838832241131,2.53707528104391 14.906637713519,1.67096185579172 14.9773402074172,0.824162928872631 14.9999987054617,0"
     style="fill:none;stroke:#4dd228;stroke-width:0.000001"
     id="polyline4"
     transform="translate(2.079894,-21.945441)" />
  <polyline
     points="8.99999922327704,0 8.94398272811141,-1.00257691347505 8.76315724371711,-2.05111282298372 8.44009127159853,-3.12487473031532 7.96153781289892,-4.19689213779747 7.32089486818804,-5.23492904821223 6.94010040105158,-5.73018250547059 6.52040743727216,-6.20356896461613 6.06370597668666,-6.65067342602987 5.57253851907567,-7.06730539007346 5.05006456416651,-7.44961985707875 4.49999961163852,-7.7942278273382 3.92652766113062,-8.09829430109648 3.33419671225029,-8.35961227854407 2.72779876458399,-8.57666025981228 2.11224481770787,-8.74862324497143 1.49243387119914,-8.87539473403073 0.873134424646265,-8.95754572694089 0.258873977658513,-8.99627522359843 -0.346153970126027,-8.99333972385177 -1.51382486935304,-8.87177123434344 -2.60526277515916,-8.61467325653166 -3.60373418898852,-8.24700478826239 -4.49999961163852,-7.7942278273382 -5.34024853912289,-7.24442787478734 -6.157893968558,-6.56356043354794 -6.92626690224545,-5.74689600402817 -7.61538384277289,-4.79644808605426 -8.19402929283431,-3.7226161787287 -8.43253377225076,-3.14521172856018 -8.63265225498002,-2.54505378035535 -8.7915052412706,-1.92598683378241 -8.90673523132596,-1.29230738847057 -8.97659222529712,-0.648674444017736 -8.99999922327704,0 -8.97659222529712,0.648674444017736 -8.90673523132596,1.29230738847057 -8.7915052412706,1.92598683378241 -8.63265225498002,2.54505378035535 -8.43253377225076,3.14521172856018 -8.19402929283431,3.7226161787287 -7.92043981644578,4.27394613114751 -7.61538384277289,4.79644808605426 -6.92626690224545,5.74689600402817 -6.157893968558,6.56356043354794 -5.34024853912289,7.24442787478734 -4.49999961163852,7.7942278273382 -3.60373418898852,8.24700478826239 -2.60526277515916,8.61467325653166 -1.51382486935304,8.87177123434344 -0.346153970126027,8.99333972385177 0.873134424646265,8.95754572694089 1.49243387119914,8.87539473403073 2.11224481770787,8.74862324497143 2.72779876458399,8.57666025981228 3.33419671225029,8.35961227854407 3.92652766113062,8.09829430109648 4.49999961163852,7.7942278273382 5.05006456416651,7.44961985707875 5.57253851907567,7.06730539007346 6.06370597668666,6.65067342602987 6.52040743727216,6.20356896461613 6.94010040105158,5.73018250547059 7.32089486818804,5.23492904821223 7.66156583878727,4.72232909245092 7.96153781289892,4.19689213779747 8.44009127159853,3.12487473031532 8.76315724371711,2.05111282298372 8.94398272811141,1.00257691347505 8.99999922327704,0"
     style="fill:none;stroke:#ffffff;stroke-width:0.000001"
     id="polyline9"
     transform="translate(2.079894,-21.945441)" />
  <g
     id="ComplexString2d_1310"
     style="fill:#ffffff;fill-rule:evenodd;stroke:#ffffff;stroke-width:0"
     transform="translate(2.079894,-21.945441)">
    <path
       d="M 8.9999992,0 8.9439827,-1.0025769 8.7631572,-2.0511128 8.4400913,-3.1248747 7.9615378,-4.1968921 7.3208949,-5.234929 6.9401004,-5.7301825 6.5204074,-6.203569 6.063706,-6.6506734 5.5725385,-7.0673054 5.0500646,-7.4496199 4.4999996,-7.7942278 3.9265277,-8.0982943 l -0.592331,-0.261318 -0.6063979,-0.217048 -0.615554,-0.1719629 -0.6198109,-0.1267715 -0.61929948,-0.082151 -0.61426044,-0.038729 -0.60502795,0.00294 -1.16767093,0.1215685 -1.0914379,0.2570979 -0.9984714,0.3676685 -0.8962654,0.452777 -0.8402489,0.5497999 -0.8176455,0.6808675 -0.7683729,0.8166644 -0.6891169,0.9504479 -0.5786455,1.0738319 -0.2385045,0.5774045 -0.2001185,0.6001579 -0.1588529,0.619067 -0.11523,0.6336794 -0.069857,0.64363296 L -8.9999992,0 l 0.023407,0.64867444 0.069857,0.64363296 0.11523,0.6336794 0.1588529,0.619067 0.2001185,0.6001579 0.2385045,0.5774045 0.2735895,0.5513299 0.305056,0.522502 0.6891169,0.9504479 0.7683729,0.8166644 0.8176455,0.6808675 0.8402489,0.5497999 0.8962654,0.452777 0.9984714,0.3676685 1.0914379,0.2570979 1.16767093,0.1215685 L 0.87313442,8.9575457 1.4924339,8.8753947 2.1122448,8.7486232 2.7277988,8.5766603 3.3341967,8.3596123 3.9265277,8.0982943 4.4999996,7.7942278 5.0500646,7.4496199 5.5725385,7.0673054 6.063706,6.6506734 6.5204074,6.203569 6.9401004,5.7301825 7.3208949,5.234929 7.6615658,4.7223291 7.9615378,4.1968921 8.4400913,3.1248747 8.7631572,2.0511128 8.9439827,1.0025769 8.9999992,0"
       id="path12"
       inkscape:connector-curvature="0" />
  </g>
  <path
     d="m -12.874097,-13.93681 -0.0016,-0.05842 -0.005,-0.06002 -0.0087,-0.06139 -0.01266,-0.06248 -0.01686,-0.06324 -0.02129,-0.06362 -0.02589,-0.06357 -0.03063,-0.06307 -0.03543,-0.06207 -0.01952,-0.0305 -0.02071,-0.03006 -0.0219,-0.02954 -0.02307,-0.02896 -0.02422,-0.02832 -0.02535,-0.0276 -0.02644,-0.02683 -0.0275,-0.02599 -0.02852,-0.02509 -0.02949,-0.02413 -0.03042,-0.02312 -0.03129,-0.02205 -0.03211,-0.02094 -0.03286,-0.01978 -0.03355,-0.01858 -0.03418,-0.01734 -0.03473,-0.01608 -0.03522,-0.01479 -0.03564,-0.01348 -0.03598,-0.01216 -0.03625,-0.01083 -0.03645,-0.0095 -0.03657,-0.0082 -0.03663,-0.0068 -0.03661,-0.0055 -0.03653,-0.0042 -0.03638,-0.0029 -0.03617,-0.0016 -0.03589,-4.4e-4 -0.03556,7.6e-4 -0.06992,0.005 -0.06799,0.0094 -0.06572,0.01336 -0.06318,0.01701 -0.06042,0.02028 -0.0575,0.02316 -0.05447,0.02567 -0.05138,0.02782 -0.04978,0.0306 -0.04946,0.03435 -0.0488,0.03823 -0.04777,0.0422 -0.04632,0.04623 -0.04443,0.05025 -0.04209,0.05422 -0.03929,0.05807 -0.03603,0.06173 -0.01665,0.03216 -0.01566,0.03297 -0.01463,0.03374 -0.01354,0.03447 -0.01241,0.03514 -0.01123,0.03576 -0.01001,0.03632 -0.0087,0.03682 -0.0075,0.03725 -0.0061,0.03761 -0.0048,0.03791 -0.0035,0.03813 -0.0021,0.03828 -7e-4,0.03835 7e-4,0.03835 0.0021,0.03828 0.0035,0.03813 0.0048,0.03791 0.0061,0.03761 0.0075,0.03725 0.0087,0.03682 0.01001,0.03632 0.01123,0.03576 0.01241,0.03514 0.01354,0.03447 0.01463,0.03374 0.01566,0.03297 0.01665,0.03216 0.01758,0.03131 0.01845,0.03042 0.03929,0.05806 0.04209,0.05422 0.04443,0.05025 0.04632,0.04623 0.04776,0.0422 0.0488,0.03823 0.04946,0.03435 0.04978,0.0306 0.05138,0.02782 0.05447,0.02567 0.0575,0.02316 0.06042,0.02027 0.06318,0.01701 0.06572,0.01336 0.06799,0.0094 0.06992,0.005 0.07146,3.47e-4 0.03617,-0.0016 0.03638,-0.0029 0.03653,-0.0042 0.03661,-0.0055 0.03663,-0.0068 0.03657,-0.0082 0.03645,-0.0095 0.03625,-0.01083 0.03598,-0.01216 0.03564,-0.01348 0.03522,-0.01479 0.03473,-0.01608 0.03418,-0.01734 0.03355,-0.01858 0.03286,-0.01978 0.03211,-0.02094 0.03129,-0.02205 0.03042,-0.02312 0.02949,-0.02413 0.02852,-0.02509 0.0275,-0.02599 0.02644,-0.02683 0.02534,-0.02761 0.02422,-0.02832 0.02307,-0.02896 0.0219,-0.02954 0.02072,-0.03006 0.01952,-0.0305 0.01832,-0.03088 0.01711,-0.03119 0.03063,-0.06307 0.02589,-0.06357 0.02129,-0.06361 0.01687,-0.06324 0.01266,-0.06248 0.0087,-0.06139 0.005,-0.06002 0.0016,-0.05842"
     id="path20466"
     inkscape:connector-curvature="0"
     style="fill:#5c9b4b;fill-opacity:1;fill-rule:evenodd;stroke:none" />
  <g
     id="ComplexString2d_1149"
     style="fill:#e5eac2;fill-opacity:1;fill-rule:evenodd;stroke:none"
     transform="matrix(0.05798139,0,0,0.05800534,-13.937032,-13.936967)">
    <path
       d="M 11,0 10.983383,-0.60438638 10.931535,-1.225372 10.841515,-1.8605219 10.710526,-2.5069155 10.535995,-3.1611387 10.315668,-3.8192916 10.047703,-4.4770146 9.7307688,-5.1295348 9.3641366,-5.7717358 8.9477608,-6.3982471 8.4823453,-7.0035569 7.9693875,-7.5821405 7.4111967,-8.1286011 6.8108805,-8.6378179 6.1723014,-9.1050912 5.4999998,-9.526279 4.7990896,-9.8979154 4.0751294,-10.217304 l -0.7411527,-0.265281 -0.7523442,-0.210177 -0.7575468,-0.154943 -0.7569215,-0.100407 -0.75076281,-0.04734 -0.73947837,0.0036 -0.72356622,0.05179 -0.7035871,0.0968 -0.6801408,0.138267 -0.6538394,0.175964 -0.6252877,0.209757 -0.595066,0.239615 -0.5637136,0.265591 -0.531722,0.287803 -0.5151058,0.3165832 -0.5118651,0.355395 -0.505046,0.3955343 -0.4942988,0.4366368 -0.4793084,0.4782596 -0.4598136,0.5198856 -0.4356221,0.560926 -0.4066324,0.6007329 -0.3728462,0.6386132 -0.3343868,0.6738478 -0.291506,0.7057168 -0.244589,0.7335261 -0.194153,0.7566376 -0.140837,0.7744974 -0.08538,0.78666253 L -11,0 l 0.02861,0.79282417 0.08538,0.78666253 0.140837,0.7744974 0.194153,0.7566376 0.244589,0.7335261 0.291506,0.7057168 0.3343868,0.6738478 0.3728462,0.6386132 0.4066324,0.6007329 0.4356221,0.560926 0.4598136,0.5198856 0.4793084,0.4782596 0.4942988,0.4366368 0.505046,0.3955343 0.5118651,0.355395 0.5151058,0.3165832 0.531722,0.287803 0.5637136,0.265591 0.595066,0.239615 0.6252877,0.209757 0.6538394,0.175964 0.6801408,0.138267 0.7035871,0.0968 0.72356622,0.05179 0.73947837,0.0036 L 1.0671642,10.948112 1.8240857,10.847705 2.5816325,10.692762 3.3339767,10.482585 4.0751294,10.217304 4.7990896,9.8979154 5.4999998,9.526279 6.1723014,9.1050912 6.8108805,8.6378179 7.4111967,8.1286011 7.9693875,7.5821405 8.4823453,7.0035569 8.9477608,6.3982471 9.3641366,5.7717358 9.7307688,5.1295348 10.047703,4.4770146 10.315668,3.8192916 10.535995,3.1611387 10.710526,2.5069155 10.841515,1.8605219 10.931535,1.225372 10.983383,0.60438638 11,0"
       id="path20471"
       inkscape:connector-curvature="0"
       style="fill:#e5eac2;fill-opacity:1;stroke:none" />
  </g>
</svg>
