<?xml version="1.0" encoding="UTF-8"?>
<svg viewBox="-15.0000020890476 -42.6188648937013 30 51.5913337531391" xmlns="http://www.w3.org/2000/svg" xmlns:xlink="http://www.w3.org/1999/xlink" xmlns:gmsvgsym="http://www.intergraph.com/GeoMedia/svgsym">
  <!-- Creator: SVG Document for Symbols-->
  <path id="LineString2d_1371" style=" stroke-width: 0.0000010000;stroke: #ffffff; fill: none; " d="M 0 8.97246807676476 L -2.32224571426805 8.66673642828246 L -4.48623033727104 7.77037660876296 L -6.34447927421571 6.34447680680814 L -7.77035440209489 4.48621385050232 L -8.66668595858231 2.32222911534445 L -8.97239304514387 0 L -8.66664681652597 -2.32222104019242 L -3.70475996749216 -21.5405996956196 L -12.1961283192551 -16.638105814037 L -15.0000005500397 -21.4945550666201 L -5.60774513449855 -26.9171762194045 L -14.9999914654937 -32.3397922130639 L -12.1961192347091 -37.1962413534922 L -2.80386763243415 -31.7736224438056 L -2.80386763243415 -42.6188593659396 L 2.80387682913507 -42.6188593659396 L 2.80387682913507 -31.7736223316507 L 12.1961247302986 -37.1962392225493 L 14.9999969610832 -32.339790082121 L 5.60774973284901 -26.917173639842 L 14.9999928113523 -21.4945595528157 L 12.1961205805677 -16.6381104123874 L 3.70480157695606 -21.5405756944733 L 8.67187087911147 -2.30234371701906 L 8.97238923187763 0 L 8.66668214531607 2.32222866672489 L 7.77035126175799 4.48621295326321 L 6.34314429456918 6.34493664185399 L 4.48622831848303 7.77037571152385 L 2.32022187929187 8.66686854674198 L 0 8.97246807676476 " xmlns="http://www.w3.org/2000/svg" />
  <g id="ComplexString2d_1372" style=" fill-rule: evenodd; stroke-width: 0.0000000000;stroke: #ffffff; fill: #ffffff; " xmlns="http://www.w3.org/2000/svg">
    <path d="M 0 8.97246807676476 L -2.32224571426805 8.66673642828246 L -4.48623033727104 7.77037660876296 L -6.34447927421571 6.34447680680814 L -7.77035440209489 4.48621385050232 L -8.66668595858231 2.32222911534445 L -8.97239304514387 0 L -8.66664681652597 -2.32222104019242 L -3.70475996749216 -21.5405996956196 L -12.1961283192551 -16.638105814037 L -15.0000005500397 -21.4945550666201 L -5.60774513449855 -26.9171762194045 L -14.9999914654937 -32.3397922130639 L -12.1961192347091 -37.1962413534922 L -2.80386763243415 -31.7736224438056 L -2.80386763243415 -42.6188593659396 L 2.80387682913507 -42.6188593659396 L 2.80387682913507 -31.7736223316507 L 12.1961247302986 -37.1962392225493 L 14.9999969610832 -32.339790082121 L 5.60774973284901 -26.917173639842 L 14.9999928113523 -21.4945595528157 L 12.1961205805677 -16.6381104123874 L 3.70480157695606 -21.5405756944733 L 8.67187087911147 -2.30234371701906 L 8.97238923187763 0 L 8.66668214531607 2.32222866672489 L 7.77035126175799 4.48621295326321 L 6.34314429456918 6.34493664185399 L 4.48622831848303 7.77037571152385 L 2.32022187929187 8.66686854674198 L 0 8.97246807676476 " />
  </g>
</svg>