<?xml version="1.0" encoding="UTF-8"?>
<svg viewBox="-15 -15 30 28.8579610816454" xmlns="http://www.w3.org/2000/svg" xmlns:xlink="http://www.w3.org/1999/xlink" xmlns:gmsvgsym="http://www.intergraph.com/GeoMedia/svgsym">
  <!-- Creator: SVG Document for Symbols-->
  <path id="LineString2d_1363" style=" stroke-width: 0.0000010000;stroke: #ffffff; fill: none; " d="M -0.0191325992397388 8.65643465602419 L -5.74081097188067 13.8579604493341 L -7.50000630197653 12.9903766838088 L -10.6066101785312 10.6065923785319 L -12.9903888838083 7.49998530197736 L -14.4888918242632 3.88226684573258 L -14.9999994039536 -1.75999993006389E-05 L -14.4888822242635 -3.88230264573115 L -12.990372083809 -7.50001430197621 L -10.6065909785319 -10.6066115785311 L -7.49998970197719 -12.9903862838084 L -3.88227804573213 -14.4888888242633 L 3.19999987284343E-06 -14.9999994039536 L 3.88228404573189 -14.4888872242633 L 7.49999450197699 -12.9903834838085 L 10.6065941785318 -10.6066083785313 L 12.9903736838089 -7.50001150197632 L 14.4888826242635 -3.88230104573122 L 14.9999994039536 -1.75999993006389E-05 L 14.4888922242632 3.88226524573264 L 12.9903904838083 7.49998270197746 L 10.6066133785311 10.606589178532 L 7.50001110197634 12.9903738838089 L 5.74200257183332 13.8574668493537 L 0.020867199170812 8.65643465602419 L 0.020867199170812 3.99994544105645 L 1.0352843588615 3.86370104647031 L 2.00001132052669 3.46409486234924 L 2.82843908760793 2.82841488760889 L 3.46411126234859 1.99998292052782 L 3.86370864647001 1.03525575886263 L 3.99999984105429 -1.75999993006389E-05 L 3.86369904647039 -1.0352917588612 L 3.46409466234925 -2.00001172052668 L 2.82841988760869 -2.82843408760813 L 1.99999472052735 -3.46410446234886 L 1.03527475886188 -3.86370344647022 L 3.19999987284343E-06 -3.99999984105429 L -1.03526875886212 -3.86370504647016 L -1.99998992052754 -3.46410726234874 L -2.82841668760882 -2.828437287608 L -3.46409306234931 -2.00001452052656 L -3.86369864647041 -1.03529335886114 L -3.99999984105429 -1.75999993006389E-05 L -3.86370824647003 1.03525735886257 L -3.46410966234865 1.99998552052772 L -2.82843588760806 2.82841808760876 L -2.00000652052688 3.46409766234913 L -1.03527835886173 3.86370264647025 L -0.0191325992397388 3.99995404105611 L -0.0191325992397388 8.65643465602419 " xmlns="http://www.w3.org/2000/svg" />
  <g id="ComplexString2d_1364" style=" fill-rule: evenodd; stroke-width: 0.0000000000;stroke: #ffffff; fill: #ffffff; " xmlns="http://www.w3.org/2000/svg">
    <path d="M -0.0191325992397388 8.65643465602419 L -5.74081097188067 13.8579604493341 L -7.50000630197653 12.9903766838088 L -10.6066101785312 10.6065923785319 L -12.9903888838083 7.49998530197736 L -14.4888918242632 3.88226684573258 L -14.9999994039536 -1.75999993006389E-05 L -14.4888822242635 -3.88230264573115 L -12.990372083809 -7.50001430197621 L -10.6065909785319 -10.6066115785311 L -7.49998970197719 -12.9903862838084 L -3.88227804573213 -14.4888888242633 L 3.19999987284343E-06 -14.9999994039536 L 3.88228404573189 -14.4888872242633 L 7.49999450197699 -12.9903834838085 L 10.6065941785318 -10.6066083785313 L 12.9903736838089 -7.50001150197632 L 14.4888826242635 -3.88230104573122 L 14.9999994039536 -1.75999993006389E-05 L 14.4888922242632 3.88226524573264 L 12.9903904838083 7.49998270197746 L 10.6066133785311 10.606589178532 L 7.50001110197634 12.9903738838089 L 5.74200257183332 13.8574668493537 L 0.020867199170812 8.65643465602419 L 0.020867199170812 3.99994544105645 L 1.0352843588615 3.86370104647031 L 2.00001132052669 3.46409486234924 L 2.82843908760793 2.82841488760889 L 3.46411126234859 1.99998292052782 L 3.86370864647001 1.03525575886263 L 3.99999984105429 -1.75999993006389E-05 L 3.86369904647039 -1.0352917588612 L 3.46409466234925 -2.00001172052668 L 2.82841988760869 -2.82843408760813 L 1.99999472052735 -3.46410446234886 L 1.03527475886188 -3.86370344647022 L 3.19999987284343E-06 -3.99999984105429 L -1.03526875886212 -3.86370504647016 L -1.99998992052754 -3.46410726234874 L -2.82841668760882 -2.828437287608 L -3.46409306234931 -2.00001452052656 L -3.86369864647041 -1.03529335886114 L -3.99999984105429 -1.75999993006389E-05 L -3.86370824647003 1.03525735886257 L -3.46410966234865 1.99998552052772 L -2.82843588760806 2.82841808760876 L -2.00000652052688 3.46409766234913 L -1.03527835886173 3.86370264647025 L -0.0191325992397388 3.99995404105611 L -0.0191325992397388 8.65643465602419 " />
  </g>
</svg>