<?xml version="1.0" encoding="UTF-8"?>
<svg viewBox="-15 -18.7500147459811 30 23.3333834782924" xmlns="http://www.w3.org/2000/svg" xmlns:xlink="http://www.w3.org/1999/xlink" xmlns:gmsvgsym="http://www.intergraph.com/GeoMedia/svgsym">
  <!-- Creator: SVG Document for Symbols-->
  <path id="LineString2d_1344" style=" stroke-width: 0.0000010000;stroke: #ffffff; fill: none; " d="M -14.999997836356 4.58336819546513 L -14.999997836356 -4.58336819546513 L -11.2627804538739 -4.58336819546513 L -10.736469015183 -7.08334186256458 L -9.89595588427744 -9.73494111080455 L -8.80134939213203 -12.164772752835 L -7.36495679903559 -14.4482456614553 L -5.4528187388055 -16.5278093460159 L -2.95829708660933 -18.1236597083291 L -5.28334777555065E-05 -18.7500129204877 L 2.9581905863182 -18.1236570416551 L 5.45271057184315 -16.527805346005 L 7.3648467987349 -14.4482416614444 L 8.80123822516148 -12.1647697528268 L 9.89584371730417 -9.73493944413333 L 10.7363563482084 -7.08334186256458 L 11.2626676202321 -4.58336819546513 L 14.999997836356 -4.58336819546513 L 14.999997836356 4.58336819546513 L -14.999997836356 4.58336819546513 " xmlns="http://www.w3.org/2000/svg" />
  <g id="ComplexString2d_1345" style=" fill-rule: evenodd; stroke-width: 0.0000000000;stroke: #ffffff; fill: #ffffff; " xmlns="http://www.w3.org/2000/svg">
    <path d="M -14.999997836356 4.58336819546513 L -14.999997836356 -4.58336819546513 L -11.2627804538739 -4.58336819546513 L -10.736469015183 -7.08334186256458 L -9.89595588427744 -9.73494111080455 L -8.80134939213203 -12.164772752835 L -7.36495679903559 -14.4482456614553 L -5.4528187388055 -16.5278093460159 L -2.95829708660933 -18.1236597083291 L -5.28334777555065E-05 -18.7500129204877 L 2.9581905863182 -18.1236570416551 L 5.45271057184315 -16.527805346005 L 7.3648467987349 -14.4482416614444 L 8.80123822516148 -12.1647697528268 L 9.89584371730417 -9.73493944413333 L 10.7363563482084 -7.08334186256458 L 11.2626676202321 -4.58336819546513 L 14.999997836356 -4.58336819546513 L 14.999997836356 4.58336819546513 L -14.999997836356 4.58336819546513 " />
  </g>
</svg>