<?xml version="1.0" encoding="UTF-8"?>
<svg viewBox="-14.9999886495073 -48.7499958527046 30 48.7499958527046" xmlns="http://www.w3.org/2000/svg" xmlns:xlink="http://www.w3.org/1999/xlink" xmlns:gmsvgsym="http://www.intergraph.com/GeoMedia/svgsym">
  <!-- Creator: SVG Document for Symbols-->
  <path id="LineString2d_1314" style=" stroke-width: 0.0000010000;stroke: #4dd228; fill: none; " d="M 2.8124997027044 0 L 2.51049948462737 -7.05828375390332 L 15.0000100394223 -25.3125089493384 L 15.0000100394223 -26.2499961002412 L 11.1176883248035 -25.7388737792695 L 7.50001158221043 -24.2403776876682 L 4.39343691059126 -21.8566259396429 L 2.00963041257179 -18.7499968930295 L 1.48588446793442 -31.0053567225753 L -0.36831558606716 -34.5443194734888 L -3.9110748365794 -39.8463842880335 L -8.1155781421419 -44.640669906253 L -12.7862911484237 -48.7499937218764 L -14.9999867894247 -48.7499937218764 L -14.9999867894247 -44.1852789543901 L -4.13125606330511 -30.7013952547056 L -2.8124997027044 0 L 2.8124997027044 0 " xmlns="http://www.w3.org/2000/svg" />
  <g id="ComplexString2d_1315" style=" fill-rule: evenodd; stroke-width: 0.0000000000;stroke: #4dd228; fill: #4dd228; " xmlns="http://www.w3.org/2000/svg">
    <path d="M 2.8124997027044 0 L 2.51049948462737 -7.05828375390332 L 15.0000100394223 -25.3125089493384 L 15.0000100394223 -26.2499961002412 L 11.1176883248035 -25.7388737792695 L 7.50001158221043 -24.2403776876682 L 4.39343691059126 -21.8566259396429 L 2.00963041257179 -18.7499968930295 L 1.48588446793442 -31.0053567225753 L -0.36831558606716 -34.5443194734888 L -3.9110748365794 -39.8463842880335 L -8.1155781421419 -44.640669906253 L -12.7862911484237 -48.7499937218764 L -14.9999867894247 -48.7499937218764 L -14.9999867894247 -44.1852789543901 L -4.13125606330511 -30.7013952547056 L -2.8124997027044 0 L 2.8124997027044 0 " />
  </g>
</svg>