<?xml version="1.0" encoding="UTF-8"?>
<svg viewBox="-15.0131502725981 -18.3211687102985 30 33.3080587950054" xmlns="http://www.w3.org/2000/svg" xmlns:xlink="http://www.w3.org/1999/xlink" xmlns:gmsvgsym="http://www.intergraph.com/GeoMedia/svgsym">
  <!-- Creator: SVG Document for Symbols-->
  <path id="LineString2d_1146" style=" stroke-width: 0.0000750000;stroke: #4E4A96; fill: none; " d="M -13.2207806662785 14.9868892101241 L -14.9809812110925 13.2126865009386 L -1.76779771023538 -3.3499994508923E-05 L -10.4923657801672 -8.72462540325579 L -15.0131468724868 -4.20400297757688 L -15.0131490391531 -11.2500998226316 L -7.94208236485792 -18.3211664969268 L -4.40654911104365 -14.7856330764459 L -8.72456806993185 -10.4923611135013 L 0 -1.76776904357341 L 8.71187007201322 -10.4793336156367 L 4.39290877994614 -14.7983065743685 L 7.9157788691694 -18.3211394969312 L 14.9868455434646 -11.250072822636 L 14.9868455434646 -4.17900614834085 L 10.4790694490133 -8.71212940530404 L 1.76719937700012 -0.000564999907389298 L 14.9868482101308 13.219119999884 L 13.21908399989 14.9868892101241 L -0.000598333235258874 1.76717071033815 L -13.2207806662785 14.9868892101241 " xmlns="http://www.w3.org/2000/svg" />
  <g id="ComplexString2d_1147" style=" fill-rule: evenodd; stroke-width: 0.0000000000;stroke: #4E4A96; fill: #4E4A96; " xmlns="http://www.w3.org/2000/svg">
    <path d="M -13.2207806662785 14.9868892101241 L -14.9809812110925 13.2126865009386 L -1.76779771023538 -3.3499994508923E-05 L -10.4923657801672 -8.72462540325579 L -15.0131468724868 -4.20400297757688 L -15.0131490391531 -11.2500998226316 L -7.94208236485792 -18.3211664969268 L -4.40654911104365 -14.7856330764459 L -8.72456806993185 -10.4923611135013 L 0 -1.76776904357341 L 8.71187007201322 -10.4793336156367 L 4.39290877994614 -14.7983065743685 L 7.9157788691694 -18.3211394969312 L 14.9868455434646 -11.250072822636 L 14.9868455434646 -4.17900614834085 L 10.4790694490133 -8.71212940530404 L 1.76719937700012 -0.000564999907389298 L 14.9868482101308 13.219119999884 L 13.21908399989 14.9868892101241 L -0.000598333235258874 1.76717071033815 L -13.2207806662785 14.9868892101241 " />
  </g>
</svg>