<?xml version="1.0" encoding="UTF-8"?>
<svg viewBox="-15 -15 30 30" xmlns="http://www.w3.org/2000/svg" xmlns:xlink="http://www.w3.org/1999/xlink" xmlns:gmsvgsym="http://www.intergraph.com/GeoMedia/svgsym">
  <!-- Creator: SVG Document for Symbols-->
  <polyline points="14.9999987054617,0 14.906637713519,-1.67096173079173 14.6052618645285,-3.41852107997288 14.3672653850682,-4.31064350298044 14.0668190359975,-5.20812467552552 13.7014121925331,-6.10501959812119 13.2692296048315,-6.99482002132914 12.7692767729787,-7.87054844575153 12.2014914469801,-8.72488199702036 11.5668337517527,-9.55030455078428 10.8673460621202,-10.3392819826935 10.1061767528111,-11.0844554183831 9.28756394845947,-11.7788418584558 8.41677427361085,-12.4160328034646 7.49999935273087,-12.990379878897 6.5442126852177,-13.4971568351608 5.55699439541717,-13.9326872975734 4.54633160763995,-14.2944335163538 3.5204078211798,-14.5810387416191 2.48738941033193,-14.7923242233846 1.45522374941047,-14.9292425865682 0.431456462764203,-14.9937922059974 -0.576923075210063,-14.9888999564196 -1.56360411505696,-14.9182808375142 -2.52304128225508,-14.7862849739058 -3.45050582721252,-14.5977384901778 -4.34210487526524,-14.3577883858861 -6.00622360664754,-13.7450078137707 -7.49999935273087,-12.990379878897 -8.90041423187148,-12.0740460829789 -10.2631569892633,-10.9392673059132 -10.9167594328557,-10.2870949871974 -11.5437777537424,-9.57816029838026 -12.1378080774761,-8.81326123939301 -12.6923066546215,-7.99407993509045 -13.2007332357429,-7.12324388524583 -13.6567151963905,-6.20436058954781 -14.0542232870846,-5.24201967260029 -14.3877538833,-4.24175675892554 -14.652508360451,-3.20997809797068 -14.8445583438766,-2.15384543911763 -14.9609869588285,-1.08112390669624 -14.9999987054617,0 -14.9609869588285,1.08112390669624 -14.8445583438766,2.15384543911763 -14.652508360451,3.20997809797068 -14.3877538833,4.24175675892554 -14.0542232870846,5.24201967260029 -13.6567151963905,6.20436058954781 -13.2007332357429,7.12324388524583 -12.6923066546215,7.99407993509045 -12.1378080774761,8.81326123939301 -11.5437777537424,9.57816029838026 -10.9167594328557,10.2870949871974 -10.2631569892633,10.9392673059132 -8.90041423187148,12.0740460829789 -7.49999935273087,12.990379878897 -6.00622360664754,13.7450078137707 -4.34210487526524,14.3577883858861 -3.45050582721252,14.5977384901778 -2.52304128225508,14.7862849739058 -1.56360411505696,14.9182808375142 -0.576923075210063,14.9888999564196 0.431456462764203,14.9937922059974 1.45522374941047,14.9292425865682 2.48738941033193,14.7923242233846 3.5204078211798,14.5810387416191 4.54633160763995,14.2944335163538 5.55699439541717,13.9326872975734 6.5442126852177,13.4971568351608 7.49999935273087,12.990379878897 8.41677427361085,12.4160328034646 9.28756394845947,11.7788418584558 10.1061767528111,11.0844554183831 10.8673460621202,10.3392819826935 11.5668337517527,9.55030455078428 12.2014914469801,8.72488199702036 12.7692767729787,7.87054844575153 13.2692296048315,6.99482002132914 13.7014121925331,6.10501959812119 14.0668190359975,5.20812467552552 14.3672653850682,4.31064350298044 14.6052618645285,3.41852107997288 14.906637713519,1.67096173079173 14.9999987054617,0" style=" stroke-width: 0.0000010000;stroke: #ffffff; fill: none; " xmlns="http://www.w3.org/2000/svg" />
  <g id="ComplexString2d_1382" style=" fill-rule: evenodd; stroke-width: 0.0000000000;stroke: #ffffff; fill: #ffffff; " xmlns="http://www.w3.org/2000/svg">
    <path d="M 14.9999987054617 0 L 14.906637713519 -1.67096173079173 L 14.6052618645285 -3.41852107997288 L 14.3672653850682 -4.31064350298044 L 14.0668190359975 -5.20812467552552 L 13.7014121925331 -6.10501959812119 L 13.2692296048315 -6.99482002132914 L 12.7692767729787 -7.87054844575153 L 12.2014914469801 -8.72488199702036 L 11.5668337517527 -9.55030455078428 L 10.8673460621202 -10.3392819826935 L 10.1061767528111 -11.0844554183831 L 9.28756394845947 -11.7788418584558 L 8.41677427361085 -12.4160328034646 L 7.49999935273087 -12.990379878897 L 6.5442126852177 -13.4971568351608 L 5.55699439541717 -13.9326872975734 L 4.54633160763995 -14.2944335163538 L 3.5204078211798 -14.5810387416191 L 2.48738941033193 -14.7923242233846 L 1.45522374941047 -14.9292425865682 L 0.431456462764203 -14.9937922059974 L -0.576923075210063 -14.9888999564196 L -1.56360411505696 -14.9182808375142 L -2.52304128225508 -14.7862849739058 L -3.45050582721252 -14.5977384901778 L -4.34210487526524 -14.3577883858861 L -6.00622360664754 -13.7450078137707 L -7.49999935273087 -12.990379878897 L -8.90041423187148 -12.0740460829789 L -10.2631569892633 -10.9392673059132 L -10.9167594328557 -10.2870949871974 L -11.5437777537424 -9.57816029838026 L -12.1378080774761 -8.81326123939301 L -12.6923066546215 -7.99407993509045 L -13.2007332357429 -7.12324388524583 L -13.6567151963905 -6.20436058954781 L -14.0542232870846 -5.24201967260029 L -14.3877538833 -4.24175675892554 L -14.652508360451 -3.20997809797068 L -14.8445583438766 -2.15384543911763 L -14.9609869588285 -1.08112390669624 L -14.9999987054617 0 L -14.9609869588285 1.08112390669624 L -14.8445583438766 2.15384543911763 L -14.652508360451 3.20997809797068 L -14.3877538833 4.24175675892554 L -14.0542232870846 5.24201967260029 L -13.6567151963905 6.20436058954781 L -13.2007332357429 7.12324388524583 L -12.6923066546215 7.99407993509045 L -12.1378080774761 8.81326123939301 L -11.5437777537424 9.57816029838026 L -10.9167594328557 10.2870949871974 L -10.2631569892633 10.9392673059132 L -8.90041423187148 12.0740460829789 L -7.49999935273087 12.990379878897 L -6.00622360664754 13.7450078137707 L -4.34210487526524 14.3577883858861 L -3.45050582721252 14.5977384901778 L -2.52304128225508 14.7862849739058 L -1.56360411505696 14.9182808375142 L -0.576923075210063 14.9888999564196 L 0.431456462764203 14.9937922059974 L 1.45522374941047 14.9292425865682 L 2.48738941033193 14.7923242233846 L 3.5204078211798 14.5810387416191 L 4.54633160763995 14.2944335163538 L 5.55699439541717 13.9326872975734 L 6.5442126852177 13.4971568351608 L 7.49999935273087 12.990379878897 L 8.41677427361085 12.4160328034646 L 9.28756394845947 11.7788418584558 L 10.1061767528111 11.0844554183831 L 10.8673460621202 10.3392819826935 L 11.5668337517527 9.55030455078428 L 12.2014914469801 8.72488199702036 L 12.7692767729787 7.87054844575153 L 13.2692296048315 6.99482002132914 L 13.7014121925331 6.10501959812119 L 14.0668190359975 5.20812467552552 L 14.3672653850682 4.31064350298044 L 14.6052618645285 3.41852107997288 L 14.906637713519 1.67096173079173 L 14.9999987054617 0 " />
  </g>
</svg>