<?xml version="1.0" encoding="UTF-8"?>
<svg viewBox="-15.0000803265669 -19.82140161178 30 21.4285731926198" xmlns="http://www.w3.org/2000/svg" xmlns:xlink="http://www.w3.org/1999/xlink" xmlns:gmsvgsym="http://www.intergraph.com/GeoMedia/svgsym">
  <!-- Creator: SVG Document for Symbols-->
  <path id="LineString2d_1338" style=" stroke-width: 0.0000010000;stroke: #666666; fill: none; " d="M -15.0000789666432 1.60717146836354 L -15.0000789666432 -1.60717146836354 L -10.7143345271946 -1.60717146836354 L -10.648032602875 -2.9594740959285 L -10.4153183320843 -4.79297047834966 L -10.0908203528937 -6.40332237508067 L -9.71639251976227 -7.827974498006 L -9.31144526001653 -9.10717334454469 L -8.88302214463339 -10.2766602695476 L -8.43106960218773 -11.3662985568139 L -7.95096056154769 -12.4006123476281 L -7.43452195180883 -13.3995544264248 L -6.8701493451439 -14.3789030779067 L -6.24246752825315 -15.34974094422 L -5.53170971668992 -16.3163704536603 L -4.71356176915628 -17.271475249554 L -3.76080490168345 -18.1868036908557 L -2.6502677586145 -18.9984810673757 L -1.38039955433459 -19.5931144578143 L 0.000100285707854571 -19.821398586032 L 1.38058641146546 -19.5930071006784 L 2.65042033003328 -18.9983027816728 L 3.76091761596194 -18.1865904765836 L 4.71363441200877 -17.2712541067111 L 5.53174700240181 -16.3161570251026 L 6.24247309968136 -15.3495461585182 L 6.87012770228814 -14.3787322922033 L 7.43447630895462 -13.3994123550054 L 7.95089349012342 -12.4005011333495 L 8.43098560219311 -11.3662222711045 L 8.88292250178264 -10.276620626693 L 9.31133297430944 -9.10717334454469 L 9.71626973405586 -7.82801992657451 L 10.0906930671876 -6.4034102322179 L 10.4151916892352 -4.7931056926267 L 10.6479164600253 -2.95965666734537 L 10.714235527201 -1.60717146836354 L 14.9999191095106 -1.60717146836354 L 14.9999191095106 1.60717146836354 L -15.0000789666432 1.60717146836354 " xmlns="http://www.w3.org/2000/svg" />
  <g id="ComplexString2d_1339" style=" fill-rule: evenodd; stroke-width: 0.0000000000;stroke: #666666; fill: #666666; " xmlns="http://www.w3.org/2000/svg">
    <path d="M -15.0000789666432 1.60717146836354 L -15.0000789666432 -1.60717146836354 L -10.7143345271946 -1.60717146836354 L -10.648032602875 -2.9594740959285 L -10.4153183320843 -4.79297047834966 L -10.0908203528937 -6.40332237508067 L -9.71639251976227 -7.827974498006 L -9.31144526001653 -9.10717334454469 L -8.88302214463339 -10.2766602695476 L -8.43106960218773 -11.3662985568139 L -7.95096056154769 -12.4006123476281 L -7.43452195180883 -13.3995544264248 L -6.8701493451439 -14.3789030779067 L -6.24246752825315 -15.34974094422 L -5.53170971668992 -16.3163704536603 L -4.71356176915628 -17.271475249554 L -3.76080490168345 -18.1868036908557 L -2.6502677586145 -18.9984810673757 L -1.38039955433459 -19.5931144578143 L 0.000100285707854571 -19.821398586032 L 1.38058641146546 -19.5930071006784 L 2.65042033003328 -18.9983027816728 L 3.76091761596194 -18.1865904765836 L 4.71363441200877 -17.2712541067111 L 5.53174700240181 -16.3161570251026 L 6.24247309968136 -15.3495461585182 L 6.87012770228814 -14.3787322922033 L 7.43447630895462 -13.3994123550054 L 7.95089349012342 -12.4005011333495 L 8.43098560219311 -11.3662222711045 L 8.88292250178264 -10.276620626693 L 9.31133297430944 -9.10717334454469 L 9.71626973405586 -7.82801992657451 L 10.0906930671876 -6.4034102322179 L 10.4151916892352 -4.7931056926267 L 10.6479164600253 -2.95965666734537 L 10.714235527201 -1.60717146836354 L 14.9999191095106 -1.60717146836354 L 14.9999191095106 1.60717146836354 L -15.0000789666432 1.60717146836354 " />
  </g>
</svg>