<?xml version="1.0" encoding="UTF-8"?>
<svg viewBox="-15.0000034924594 -60 30 75" xmlns="http://www.w3.org/2000/svg" xmlns:xlink="http://www.w3.org/1999/xlink" xmlns:gmsvgsym="http://www.intergraph.com/GeoMedia/svgsym">
  <!-- Creator: SVG Document for Symbols-->
  <path id="LineString2d_1132" style=" stroke-width: 0.0000010000;stroke: #000000; fill: none; " d="M -15.0000019554615 0 L -14.4888889995718 -3.88228766494864 L -3.24999971951671E-06 -59.9999948218469 L 14.4888824995724 -3.88228591494879 L 14.999995455462 0 L 14.4888842495722 3.88227966494933 L 12.990379628897 7.49999410273132 L 10.6066015846231 10.6065965846236 L 7.50000060273076 12.9903771288972 L 3.88228641494875 14.4888849995722 L 0 14.9999987054617 L -3.88228691494871 14.488886749572 L -7.50000235273061 12.990380128897 L -10.6066050846228 10.6065998346233 L -12.9903846288966 7.49999710273106 L -14.4888904995717 3.88228141494918 L -15.0000019554615 0 " xmlns="http://www.w3.org/2000/svg" />
  <g id="ComplexString2d_1133" style=" fill-rule: evenodd; stroke-width: 0.0000000000;stroke: #000000; fill: #000000; " xmlns="http://www.w3.org/2000/svg">
    <path d="M -15.0000019554615 0 L -14.4888889995718 -3.88228766494864 L -3.24999971951671E-06 -59.9999948218469 L 14.4888824995724 -3.88228591494879 L 14.999995455462 0 L 14.4888842495722 3.88227966494933 L 12.990379628897 7.49999410273132 L 10.6066015846231 10.6065965846236 L 7.50000060273076 12.9903771288972 L 3.88228641494875 14.4888849995722 L 0 14.9999987054617 L -3.88228691494871 14.488886749572 L -7.50000235273061 12.990380128897 L -10.6066050846228 10.6065998346233 L -12.9903846288966 7.49999710273106 L -14.4888904995717 3.88228141494918 L -15.0000019554615 0 " />
  </g>
  <polyline points="12.4999989212181,0 12.4811166728477,-0.686802440727192 12.4221981779325,-1.39246812982644 12.3199029367609,-2.1142293175366 12.1710516996071,-2.84876750414408 11.9727212167235,-3.5922029399837 11.7223492383313,-4.34010387543793 11.4178435146109,-5.08751631093433 11.0576912956929,-5.82901674694094 10.641063831649,-6.5587904339596 10.1679096224834,-7.27073512251696 9.63902816812721,-7.95858706315357 9.05612171843353,-8.61606825641127 8.4218140231759,-9.23704620281928 7.73963658204956,-9.81570165287983 7.0139786446757,-10.3466941070538 6.24999946060906,-10.8253165657475 5.45351052934809,-11.2476307793007 4.63082860034764,-11.6105727479779 3.78860967303329,-11.9120279719615 2.93367324681649,-12.1508657013492 2.07282457110994,-12.3269369361538 1.21268639534206,-12.4410354263068 0.359546968970177,-12.4948269216645 -0.480769208508387,-12.4907499220163 -1.30300338754747,-12.4319006770952 -2.10253431854591,-12.3219041865881 -2.87542150184377,-12.1647822001482 -3.61842068772104,-11.9648237174051 -4.32897512639837,-11.7264634879762 -5.00518631803962,-11.4541732614755 -5.6457700127556,-11.1523655375223 -6.24999946060906,-10.8253165657475 -6.83534691009207,-10.4655628467952 -7.4170118598929,-10.0617051316491 -7.99092781036249,-9.6122341704396 -8.55263076188608,-9.11605621326103 -9.09729946487978,-8.57257926016448 -9.61981491978536,-7.98180031115021 -10.1148401270634,-7.34438436616084 -10.5769220871846,-6.66173342507536 -11.0006110506191,-5.93603648770486 -11.3805960178254,-5.17030055378983 -11.7118527392371,-4.36834962300025 -11.98979496525,-3.53479719493796 -12.2104236962092,-2.67498176914223 -12.3704651823972,-1.79487109509803 -12.4674891740238,-0.90093667224686 -12.4999989212181,0 -12.4674891740238,0.90093667224686 -12.3704651823972,1.79487109509803 -12.2104236962092,2.67498176914223 -11.98979496525,3.53479719493796 -11.7118527392371,4.36834962300025 -11.3805960178254,5.17030055378983 -11.0006110506191,5.93603648770486 -10.5769220871846,6.66173342507536 -10.1148401270634,7.34438436616084 -9.61981491978536,7.98180031115021 -9.09729946487978,8.57257926016448 -8.55263076188608,9.11605621326103 -7.99092781036249,9.6122341704396 -7.4170118598929,10.0617051316491 -6.83534691009207,10.4655628467952 -6.24999946060906,10.8253165657475 -5.6457700127556,11.1523655375223 -5.00518631803962,11.4541732614755 -4.32897512639837,11.7264634879762 -3.61842068772104,11.9648237174051 -2.87542150184377,12.1647822001482 -2.10253431854591,12.3219041865881 -1.30300338754747,12.4319006770952 -0.480769208508387,12.4907499220163 0.359546968970177,12.4948269216645 1.21268639534206,12.4410354263068 2.07282457110994,12.3269369361538 2.93367324681649,12.1508657013492 3.78860967303329,11.9120279719615 4.63082860034764,11.6105727479779 5.45351052934809,11.2476307793007 6.24999946060906,10.8253165657475 7.0139786446757,10.3466941070538 7.73963658204956,9.81570165287983 8.4218140231759,9.23704620281928 9.05612171843353,8.61606825641127 9.63902816812721,7.95858706315357 10.1679096224834,7.27073512251696 10.641063831649,6.5587904339596 11.0576912956929,5.82901674694094 11.4178435146109,5.08751631093433 11.7223492383313,4.34010387543793 11.9727212167235,3.5922029399837 12.1710516996071,2.84876750414408 12.3199029367609,2.1142293175366 12.4221981779325,1.39246812982644 12.4811166728477,0.686802440727192 12.4999989212181,0" style=" stroke-width: 0.0000010000;stroke: #000000; fill: none; " xmlns="http://www.w3.org/2000/svg" />
  <g id="ComplexString2d_1134" style=" fill-rule: evenodd; stroke-width: 0.0000000000;stroke: #ffffff; fill: #ffffff; " xmlns="http://www.w3.org/2000/svg">
    <path d="M 12.4999989212181 0 L 12.4811166728477 -0.686802440727192 L 12.4221981779325 -1.39246812982644 L 12.3199029367609 -2.1142293175366 L 12.1710516996071 -2.84876750414408 L 11.9727212167235 -3.5922029399837 L 11.7223492383313 -4.34010387543793 L 11.4178435146109 -5.08751631093433 L 11.0576912956929 -5.82901674694094 L 10.641063831649 -6.5587904339596 L 10.1679096224834 -7.27073512251696 L 9.63902816812721 -7.95858706315357 L 9.05612171843353 -8.61606825641127 L 8.4218140231759 -9.23704620281928 L 7.73963658204956 -9.81570165287983 L 7.0139786446757 -10.3466941070538 L 6.24999946060906 -10.8253165657475 L 5.45351052934809 -11.2476307793007 L 4.63082860034764 -11.6105727479779 L 3.78860967303329 -11.9120279719615 L 2.93367324681649 -12.1508657013492 L 2.07282457110994 -12.3269369361538 L 1.21268639534206 -12.4410354263068 L 0.359546968970177 -12.4948269216645 L -0.480769208508387 -12.4907499220163 L -1.30300338754747 -12.4319006770952 L -2.10253431854591 -12.3219041865881 L -2.87542150184377 -12.1647822001482 L -3.61842068772104 -11.9648237174051 L -4.32897512639837 -11.7264634879762 L -5.00518631803962 -11.4541732614755 L -5.6457700127556 -11.1523655375223 L -6.24999946060906 -10.8253165657475 L -6.83534691009207 -10.4655628467952 L -7.4170118598929 -10.0617051316491 L -7.99092781036249 -9.6122341704396 L -8.55263076188608 -9.11605621326103 L -9.09729946487978 -8.57257926016448 L -9.61981491978536 -7.98180031115021 L -10.1148401270634 -7.34438436616084 L -10.5769220871846 -6.66173342507536 L -11.0006110506191 -5.93603648770486 L -11.3805960178254 -5.17030055378983 L -11.7118527392371 -4.36834962300025 L -11.98979496525 -3.53479719493796 L -12.2104236962092 -2.67498176914223 L -12.3704651823972 -1.79487109509803 L -12.4674891740238 -0.90093667224686 L -12.4999989212181 0 L -12.4674891740238 0.90093667224686 L -12.3704651823972 1.79487109509803 L -12.2104236962092 2.67498176914223 L -11.98979496525 3.53479719493796 L -11.7118527392371 4.36834962300025 L -11.3805960178254 5.17030055378983 L -11.0006110506191 5.93603648770486 L -10.5769220871846 6.66173342507536 L -10.1148401270634 7.34438436616084 L -9.61981491978536 7.98180031115021 L -9.09729946487978 8.57257926016448 L -8.55263076188608 9.11605621326103 L -7.99092781036249 9.6122341704396 L -7.4170118598929 10.0617051316491 L -6.83534691009207 10.4655628467952 L -6.24999946060906 10.8253165657475 L -5.6457700127556 11.1523655375223 L -5.00518631803962 11.4541732614755 L -4.32897512639837 11.7264634879762 L -3.61842068772104 11.9648237174051 L -2.87542150184377 12.1647822001482 L -2.10253431854591 12.3219041865881 L -1.30300338754747 12.4319006770952 L -0.480769208508387 12.4907499220163 L 0.359546968970177 12.4948269216645 L 1.21268639534206 12.4410354263068 L 2.07282457110994 12.3269369361538 L 2.93367324681649 12.1508657013492 L 3.78860967303329 11.9120279719615 L 4.63082860034764 11.6105727479779 L 5.45351052934809 11.2476307793007 L 6.24999946060906 10.8253165657475 L 7.0139786446757 10.3466941070538 L 7.73963658204956 9.81570165287983 L 8.4218140231759 9.23704620281928 L 9.05612171843353 8.61606825641127 L 9.63902816812721 7.95858706315357 L 10.1679096224834 7.27073512251696 L 10.641063831649 6.5587904339596 L 11.0576912956929 5.82901674694094 L 11.4178435146109 5.08751631093433 L 11.7223492383313 4.34010387543793 L 11.9727212167235 3.5922029399837 L 12.1710516996071 2.84876750414408 L 12.3199029367609 2.1142293175366 L 12.4221981779325 1.39246812982644 L 12.4811166728477 0.686802440727192 L 12.4999989212181 0 " />
  </g>
</svg>