<?xml version="1.0" encoding="UTF-8"?>
<svg viewBox="-14.9999953433875 -14.9999930150813 30 30" xmlns="http://www.w3.org/2000/svg" xmlns:xlink="http://www.w3.org/1999/xlink" xmlns:gmsvgsym="http://www.intergraph.com/GeoMedia/svgsym">
  <!-- Creator: SVG Document for Symbols-->
  <polyline points="-4.99999456848768,-9.99999263697505 -5.00754756783583,-10.2747136132659 -5.0311150658019,-10.5569795889057 -5.07203306227057,-10.8456840639897 -5.13157355713207,-11.1394995386327 -5.21090605028548,-11.4368735129686 -5.3110545416424,-11.7360339871502 -5.43285703113054,-12.0349989613488 -5.57691801869771,-12.3315989357515 -5.7435690043153,-12.6235084105589 -5.93283048798155,-12.9082863859819 -6.14438296972403,-13.1834273622365 -6.37754594960147,-13.4464198395396 -6.63126892770453,-13.6948108181028 -6.90413990415506,-13.926273298127 -7.19440287910462,-14.1386702797966 -7.4999943527313,-14.330119263274 -7.81859032523565,-14.4990447486953 -8.14766279683585,-14.6442217361662 -8.4845502677616,-14.7648037257597 -8.82652523824829,-14.8603387175147 -9.17086470853091,-14.9307672114366 -9.51491967883809,-14.9764067074978 -9.85617564938683,-14.9979232056409 -10.1923021203782,-14.9962927057816 -10.5211955919939,-14.9727527078131 -10.8410080643933,-14.9287542116103 -11.1501630377124,-14.8659052170343 -11.4473625120633,-14.7859217239371 -11.7315844875342,-14.6905777321656 -12.0020689641907,-14.5816617415653 -12.2583024420771,-14.460938751984 -12.4999939212185,-14.330119263274 -12.7341329010118,-14.1862177756931 -12.9667988809321,-14.0246742896347 -13.1963653611199,-13.8448863051509 -13.4210468417293,-13.6464148222795 -13.6389143229268,-13.4290243410408 -13.847920304889,-13.1927123614352 -14.0459302878003,-12.9377463834394 -14.2307632718487,-12.6646859070052 -14.4002387572226,-12.374406932057 -14.5522327441051,-12.068112458491 -14.6847352326698,-11.7473324861752 -14.7959122230749,-11.4139115149502 -14.8841637154586,-11.069985044632 -14.9481807099338,-10.7179410750143 -14.9869902065844,-10.3603671058738 -14.9999937054622,-9.99999263697505 -14.9869902065844,-9.63961766807633 -14.9481807099338,-9.28204419893584 -14.8841637154586,-8.92999972931818 -14.7959122230749,-8.58607375899987 -14.6847352326698,-8.25265278777495 -14.5522327441051,-7.93187231545912 -14.4002387572226,-7.62557784189312 -14.2307632718487,-7.3352993669449 -14.0459302878003,-7.06223889051071 -13.847920304889,-6.80727241251497 -13.6389143229268,-6.57096093290926 -13.4210468417293,-6.35356995167066 -13.1963653611199,-6.15509896879921 -12.9667988809321,-5.97531048431542 -12.7341329010118,-5.81376749825699 -12.4999939212185,-5.66986601067606 -12.2583024420771,-5.53904652196611 -12.0020689641907,-5.41832303238486 -11.7315844875342,-5.30940704178459 -11.4473625120633,-5.21406305001302 -11.1501630377124,-5.1340795569158 -10.8410080643933,-5.07123106233978 -10.5211955919939,-5.02723206613701 -10.1923021203782,-5.00369256816853 -9.85617564938683,-5.00206156830929 -9.51491967883809,-5.02357806645236 -9.17086470853091,-5.06921756251355 -8.82652523824829,-5.1396460564354 -8.4845502677616,-5.23518154819044 -8.14766279683585,-5.3557635377839 -7.81859032523565,-5.5009400252548 -7.4999943527313,-5.66986601067606 -7.19440287910462,-5.86131499415352 -6.90413990415506,-6.07371197582312 -6.63126892770453,-6.30517395584736 -6.37754594960147,-6.55356493441058 -6.14438296972403,-6.81655741171366 -5.93283048798155,-7.09169838796829 -5.7435690043153,-7.37647636339122 -5.57691801869771,-7.66838583819868 -5.43285703113054,-7.96498581260135 -5.3110545416424,-8.2639507867999 -5.21090605028548,-8.56311126098159 -5.13157355713207,-8.86048523531746 -5.07203306227057,-9.15430070996043 -5.0311150658019,-9.44300518504449 -5.00754756783583,-9.72527166068417 -4.99999456848768,-9.99999263697505" style=" stroke-width: 0.0000010000;stroke: #000000; fill: none; " xmlns="http://www.w3.org/2000/svg" />
  <g id="ComplexString2d_1141" style=" fill-rule: evenodd; stroke-width: 0.0000000000;stroke: #000000; fill: #000000; " xmlns="http://www.w3.org/2000/svg">
    <path d="M -4.99999456848768 -9.99999263697505 L -5.00754756783583 -10.2747136132659 L -5.0311150658019 -10.5569795889057 L -5.07203306227057 -10.8456840639897 L -5.13157355713207 -11.1394995386327 L -5.21090605028548 -11.4368735129686 L -5.3110545416424 -11.7360339871502 L -5.43285703113054 -12.0349989613488 L -5.57691801869771 -12.3315989357515 L -5.7435690043153 -12.6235084105589 L -5.93283048798155 -12.9082863859819 L -6.14438296972403 -13.1834273622365 L -6.37754594960147 -13.4464198395396 L -6.63126892770453 -13.6948108181028 L -6.90413990415506 -13.926273298127 L -7.19440287910462 -14.1386702797966 L -7.4999943527313 -14.330119263274 L -7.81859032523565 -14.4990447486953 L -8.14766279683585 -14.6442217361662 L -8.4845502677616 -14.7648037257597 L -8.82652523824829 -14.8603387175147 L -9.17086470853091 -14.9307672114366 L -9.51491967883809 -14.9764067074978 L -9.85617564938683 -14.9979232056409 L -10.1923021203782 -14.9962927057816 L -10.5211955919939 -14.9727527078131 L -10.8410080643933 -14.9287542116103 L -11.1501630377124 -14.8659052170343 L -11.4473625120633 -14.7859217239371 L -11.7315844875342 -14.6905777321656 L -12.0020689641907 -14.5816617415653 L -12.2583024420771 -14.460938751984 L -12.4999939212185 -14.330119263274 L -12.7341329010118 -14.1862177756931 L -12.9667988809321 -14.0246742896347 L -13.1963653611199 -13.8448863051509 L -13.4210468417293 -13.6464148222795 L -13.6389143229268 -13.4290243410408 L -13.847920304889 -13.1927123614352 L -14.0459302878003 -12.9377463834394 L -14.2307632718487 -12.6646859070052 L -14.4002387572226 -12.374406932057 L -14.5522327441051 -12.068112458491 L -14.6847352326698 -11.7473324861752 L -14.7959122230749 -11.4139115149502 L -14.8841637154586 -11.069985044632 L -14.9481807099338 -10.7179410750143 L -14.9869902065844 -10.3603671058738 L -14.9999937054622 -9.99999263697505 L -14.9869902065844 -9.63961766807633 L -14.9481807099338 -9.28204419893584 L -14.8841637154586 -8.92999972931818 L -14.7959122230749 -8.58607375899987 L -14.6847352326698 -8.25265278777495 L -14.5522327441051 -7.93187231545912 L -14.4002387572226 -7.62557784189312 L -14.2307632718487 -7.3352993669449 L -14.0459302878003 -7.06223889051071 L -13.847920304889 -6.80727241251497 L -13.6389143229268 -6.57096093290926 L -13.4210468417293 -6.35356995167066 L -13.1963653611199 -6.15509896879921 L -12.9667988809321 -5.97531048431542 L -12.7341329010118 -5.81376749825699 L -12.4999939212185 -5.66986601067606 L -12.2583024420771 -5.53904652196611 L -12.0020689641907 -5.41832303238486 L -11.7315844875342 -5.30940704178459 L -11.4473625120633 -5.21406305001302 L -11.1501630377124 -5.1340795569158 L -10.8410080643933 -5.07123106233978 L -10.5211955919939 -5.02723206613701 L -10.1923021203782 -5.00369256816853 L -9.85617564938683 -5.00206156830929 L -9.51491967883809 -5.02357806645236 L -9.17086470853091 -5.06921756251355 L -8.82652523824829 -5.1396460564354 L -8.4845502677616 -5.23518154819044 L -8.14766279683585 -5.3557635377839 L -7.81859032523565 -5.5009400252548 L -7.4999943527313 -5.66986601067606 L -7.19440287910462 -5.86131499415352 L -6.90413990415506 -6.07371197582312 L -6.63126892770453 -6.30517395584736 L -6.37754594960147 -6.55356493441058 L -6.14438296972403 -6.81655741171366 L -5.93283048798155 -7.09169838796829 L -5.7435690043153 -7.37647636339122 L -5.57691801869771 -7.66838583819868 L -5.43285703113054 -7.96498581260135 L -5.3110545416424 -8.2639507867999 L -5.21090605028548 -8.56311126098159 L -5.13157355713207 -8.86048523531746 L -5.07203306227057 -9.15430070996043 L -5.0311150658019 -9.44300518504449 L -5.00754756783583 -9.72527166068417 L -4.99999456848768 -9.99999263697505 " />
  </g>
  <polyline points="15.0000037054613,-9.99999263697505 14.9924507061131,-10.2747136132659 14.9688832081471,-10.5569795889057 14.9279652116784,-10.8456840639897 14.8684247168169,-11.1394995386327 14.7890922236635,-11.4368735129686 14.6889437323066,-11.7360339871502 14.5671412428184,-12.0349989613488 14.4230802552513,-12.3315989357515 14.2564292696337,-12.6235084105589 14.0671677859674,-12.9082863859819 13.8556153042249,-13.1834273622365 13.6224523243475,-13.4464198395396 13.3687293462445,-13.6948108181028 13.0958583697939,-13.926273298127 12.8055953948444,-14.1386702797966 12.5000039212177,-14.330119263274 12.1814079487133,-14.4990447486953 11.8523354771131,-14.6442217361662 11.5154480061874,-14.7648037257597 11.1734730357007,-14.8603387175147 10.8291335654181,-14.9307672114366 10.4850785951109,-14.9764067074978 10.1438226245622,-14.9979232056409 9.80769615357073,-14.9962927057816 9.47880268195508,-14.9727527078131 9.15899020955571,-14.9287542116103 8.84983523623658,-14.8659052170343 8.55263576188565,-14.7859217239371 8.26841378641473,-14.6905777321656 7.99792930975824,-14.5816617415653 7.74169583187184,-14.460938751984 7.50000435273044,-14.330119263274 7.26586537293723,-14.1862177756931 7.0331993930169,-14.0246742896347 6.80363291282907,-13.8448863051509 6.57895143221966,-13.6464148222795 6.36108395102218,-13.4290243410408 6.15207796905993,-13.1927123614352 5.9540679861487,-12.9377463834394 5.76923500210026,-12.6646859070052 5.59975951672643,-12.374406932057 5.4477655298439,-12.068112458491 5.3152630412792,-11.7473324861752 5.20408605087406,-11.4139115149502 5.11583455849039,-11.069985044632 5.05181756401522,-10.7179410750143 5.01300806736458,-10.3603671058738 5.00000456848681,-9.99999263697505 5.01300806736458,-9.63961766807633 5.05181756401522,-9.28204419893584 5.11583455849039,-8.92999972931818 5.20408605087406,-8.58607375899987 5.3152630412792,-8.25265278777495 5.4477655298439,-7.93187231545912 5.59975951672643,-7.62557784189312 5.76923500210026,-7.3352993669449 5.9540679861487,-7.06223889051071 6.15207796905993,-6.80727241251497 6.36108395102218,-6.57096093290926 6.57895143221966,-6.35356995167066 6.80363291282907,-6.15509896879921 7.0331993930169,-5.97531048431542 7.26586537293723,-5.81376749825699 7.50000435273044,-5.66986601067606 7.74169583187184,-5.53904652196611 7.99792930975824,-5.41832303238486 8.26841378641473,-5.30940704178459 8.55263576188565,-5.21406305001302 8.84983523623658,-5.1340795569158 9.15899020955571,-5.07123106233978 9.47880268195508,-5.02723206613701 9.80769615357073,-5.00369256816853 10.1438226245622,-5.00206156830929 10.4850785951109,-5.02357806645236 10.8291335654181,-5.06921756251355 11.1734730357007,-5.1396460564354 11.5154480061874,-5.23518154819044 11.8523354771131,-5.3557635377839 12.1814079487133,-5.5009400252548 12.5000039212177,-5.66986601067606 12.8055953948444,-5.86131499415352 13.0958583697939,-6.07371197582312 13.3687293462445,-6.30517395584736 13.6224523243475,-6.55356493441058 13.8556153042249,-6.81655741171366 14.0671677859674,-7.09169838796829 14.2564292696337,-7.37647636339122 14.4230802552513,-7.66838583819868 14.5671412428184,-7.96498581260135 14.6889437323066,-8.2639507867999 14.7890922236635,-8.56311126098159 14.8684247168169,-8.86048523531746 14.9279652116784,-9.15430070996043 14.9688832081471,-9.44300518504449 14.9924507061131,-9.72527166068417 15.0000037054613,-9.99999263697505" style=" stroke-width: 0.0000010000;stroke: #000000; fill: none; " xmlns="http://www.w3.org/2000/svg" />
  <g id="ComplexString2d_1142" style=" fill-rule: evenodd; stroke-width: 0.0000000000;stroke: #000000; fill: #000000; " xmlns="http://www.w3.org/2000/svg">
    <path d="M 15.0000037054613 -9.99999263697505 L 14.9924507061131 -10.2747136132659 L 14.9688832081471 -10.5569795889057 L 14.9279652116784 -10.8456840639897 L 14.8684247168169 -11.1394995386327 L 14.7890922236635 -11.4368735129686 L 14.6889437323066 -11.7360339871502 L 14.5671412428184 -12.0349989613488 L 14.4230802552513 -12.3315989357515 L 14.2564292696337 -12.6235084105589 L 14.0671677859674 -12.9082863859819 L 13.8556153042249 -13.1834273622365 L 13.6224523243475 -13.4464198395396 L 13.3687293462445 -13.6948108181028 L 13.0958583697939 -13.926273298127 L 12.8055953948444 -14.1386702797966 L 12.5000039212177 -14.330119263274 L 12.1814079487133 -14.4990447486953 L 11.8523354771131 -14.6442217361662 L 11.5154480061874 -14.7648037257597 L 11.1734730357007 -14.8603387175147 L 10.8291335654181 -14.9307672114366 L 10.4850785951109 -14.9764067074978 L 10.1438226245622 -14.9979232056409 L 9.80769615357073 -14.9962927057816 L 9.47880268195508 -14.9727527078131 L 9.15899020955571 -14.9287542116103 L 8.84983523623658 -14.8659052170343 L 8.55263576188565 -14.7859217239371 L 8.26841378641473 -14.6905777321656 L 7.99792930975824 -14.5816617415653 L 7.74169583187184 -14.460938751984 L 7.50000435273044 -14.330119263274 L 7.26586537293723 -14.1862177756931 L 7.0331993930169 -14.0246742896347 L 6.80363291282907 -13.8448863051509 L 6.57895143221966 -13.6464148222795 L 6.36108395102218 -13.4290243410408 L 6.15207796905993 -13.1927123614352 L 5.9540679861487 -12.9377463834394 L 5.76923500210026 -12.6646859070052 L 5.59975951672643 -12.374406932057 L 5.4477655298439 -12.068112458491 L 5.3152630412792 -11.7473324861752 L 5.20408605087406 -11.4139115149502 L 5.11583455849039 -11.069985044632 L 5.05181756401522 -10.7179410750143 L 5.01300806736458 -10.3603671058738 L 5.00000456848681 -9.99999263697505 L 5.01300806736458 -9.63961766807633 L 5.05181756401522 -9.28204419893584 L 5.11583455849039 -8.92999972931818 L 5.20408605087406 -8.58607375899987 L 5.3152630412792 -8.25265278777495 L 5.4477655298439 -7.93187231545912 L 5.59975951672643 -7.62557784189312 L 5.76923500210026 -7.3352993669449 L 5.9540679861487 -7.06223889051071 L 6.15207796905993 -6.80727241251497 L 6.36108395102218 -6.57096093290926 L 6.57895143221966 -6.35356995167066 L 6.80363291282907 -6.15509896879921 L 7.0331993930169 -5.97531048431542 L 7.26586537293723 -5.81376749825699 L 7.50000435273044 -5.66986601067606 L 7.74169583187184 -5.53904652196611 L 7.99792930975824 -5.41832303238486 L 8.26841378641473 -5.30940704178459 L 8.55263576188565 -5.21406305001302 L 8.84983523623658 -5.1340795569158 L 9.15899020955571 -5.07123106233978 L 9.47880268195508 -5.02723206613701 L 9.80769615357073 -5.00369256816853 L 10.1438226245622 -5.00206156830929 L 10.4850785951109 -5.02357806645236 L 10.8291335654181 -5.06921756251355 L 11.1734730357007 -5.1396460564354 L 11.5154480061874 -5.23518154819044 L 11.8523354771131 -5.3557635377839 L 12.1814079487133 -5.5009400252548 L 12.5000039212177 -5.66986601067606 L 12.8055953948444 -5.86131499415352 L 13.0958583697939 -6.07371197582312 L 13.3687293462445 -6.30517395584736 L 13.6224523243475 -6.55356493441058 L 13.8556153042249 -6.81655741171366 L 14.0671677859674 -7.09169838796829 L 14.2564292696337 -7.37647636339122 L 14.4230802552513 -7.66838583819868 L 14.5671412428184 -7.96498581260135 L 14.6889437323066 -8.2639507867999 L 14.7890922236635 -8.56311126098159 L 14.8684247168169 -8.86048523531746 L 14.9279652116784 -9.15430070996043 L 14.9688832081471 -9.44300518504449 L 14.9924507061131 -9.72527166068417 L 15.0000037054613 -9.99999263697505 " />
  </g>
  <polyline points="5.00000456848681,10.0000056369739 4.99245156913866,9.72528466068305 4.96888407117259,9.44301868504333 4.92796607470392,9.15431420995926 4.86842557984242,8.86049873531629 4.78909308668901,8.56312476098042 4.68894459533208,8.26396428679874 4.56714210584395,7.96499931260018 4.42308111827678,7.66839933819752 4.25643013265919,7.37648986339005 4.06716864899294,7.09171188796712 3.85561616725046,6.81657091171249 3.62245318737302,6.55357843440941 3.36873020926996,6.30518745584619 3.09585923281943,6.073724975822 2.80559625786987,5.8613279941524 2.50000478424319,5.66987901067494 2.18140881173884,5.50095352525364 1.85233634013863,5.35577653778278 1.51544886921289,5.23519454818932 1.1734738987262,5.13965955643423 0.829134428443578,5.06923106251239 0.485079458136402,5.0235915664512 0.143823487587665,5.00207506830812 -0.192302983403761,5.00370556816741 -0.521196455019412,5.02724556613584 -0.841008927418778,5.07124406233866 -1.15016390073791,5.13409305691463 -1.44736337508884,5.21407655001185 -1.73158535055975,5.30942054178342 -2.00206982721625,5.41833653238369 -2.25830330510265,5.53905952196499 -2.49999478424405,5.66987901067494 -2.73413376403726,5.81378049825587 -2.96679974395759,5.97532398431425 -3.19636622414542,6.15511196879809 -3.42104770475483,6.35358345166949 -3.63891518595231,6.57097393290814 -3.84792116791456,6.80728591251381 -4.04593115082579,7.06225189050959 -4.23076413487423,7.33531236694378 -4.40023962024806,7.62559134189196 -4.55223360713059,7.93188581545796 -4.68473609569529,8.25266578777383 -4.79591308610043,8.58608675899874 -4.8841645784841,8.93001322931701 -4.94818157295927,9.28205719893472 -4.98699106960991,9.63963116807517 -4.99999456848768,10.0000056369739 -4.98699106960991,10.3603806058726 -4.94818157295927,10.7179540750131 -4.8841645784841,11.0699985446308 -4.79591308610043,11.4139245149491 -4.68473609569529,11.747345486174 -4.55223360713059,12.0681259584899 -4.40023962024806,12.3744204320559 -4.23076413487423,12.6646989070041 -4.04593115082579,12.9377593834383 -3.84792116791456,13.192725861434 -3.63891518595231,13.4290373410397 -3.42104770475483,13.6464283222783 -3.19636622414542,13.8448993051498 -2.96679974395759,14.0246877896336 -2.73413376403726,14.186230775692 -2.49999478424405,14.3301322632729 -2.25830330510265,14.4609517519829 -2.00206982721625,14.5816752415641 -1.73158535055975,14.6905912321644 -1.44736337508884,14.785935223936 -1.15016390073791,14.8659187170332 -0.841008927418778,14.9287672116092 -0.521196455019412,14.972766207812 -0.192302983403761,14.9963057057805 0.143823487587665,14.9979367056397 0.485079458136402,14.9764202074966 0.829134428443578,14.9307807114354 1.1734738987262,14.8603522175136 1.51544886921289,14.7648167257585 1.85233634013863,14.6442347361651 2.18140881173884,14.4990582486942 2.50000478424319,14.3301322632729 2.80559625786987,14.1386832797955 3.09585923281943,13.9262862981259 3.36873020926996,13.6948243181016 3.62245318737302,13.4464333395384 3.85561616725046,13.1834408622353 4.06716864899294,12.9082998859807 4.25643013265919,12.6235219105578 4.42308111827678,12.3316124357503 4.56714210584395,12.0350124613476 4.68894459533208,11.7360474871491 4.78909308668901,11.4368870129674 4.86842557984242,11.1395130386315 4.92796607470392,10.8456975639886 4.96888407117259,10.5569930889045 4.99245156913866,10.2747266132648 5.00000456848681,10.0000056369739" style=" stroke-width: 0.0000010000;stroke: #000000; fill: none; " xmlns="http://www.w3.org/2000/svg" />
  <g id="ComplexString2d_1143" style=" fill-rule: evenodd; stroke-width: 0.0000000000;stroke: #000000; fill: #000000; " xmlns="http://www.w3.org/2000/svg">
    <path d="M 5.00000456848681 10.0000056369739 L 4.99245156913866 9.72528466068305 L 4.96888407117259 9.44301868504333 L 4.92796607470392 9.15431420995926 L 4.86842557984242 8.86049873531629 L 4.78909308668901 8.56312476098042 L 4.68894459533208 8.26396428679874 L 4.56714210584395 7.96499931260018 L 4.42308111827678 7.66839933819752 L 4.25643013265919 7.37648986339005 L 4.06716864899294 7.09171188796712 L 3.85561616725046 6.81657091171249 L 3.62245318737302 6.55357843440941 L 3.36873020926996 6.30518745584619 L 3.09585923281943 6.073724975822 L 2.80559625786987 5.8613279941524 L 2.50000478424319 5.66987901067494 L 2.18140881173884 5.50095352525364 L 1.85233634013863 5.35577653778278 L 1.51544886921289 5.23519454818932 L 1.1734738987262 5.13965955643423 L 0.829134428443578 5.06923106251239 L 0.485079458136402 5.0235915664512 L 0.143823487587665 5.00207506830812 L -0.192302983403761 5.00370556816741 L -0.521196455019412 5.02724556613584 L -0.841008927418778 5.07124406233866 L -1.15016390073791 5.13409305691463 L -1.44736337508884 5.21407655001185 L -1.73158535055975 5.30942054178342 L -2.00206982721625 5.41833653238369 L -2.25830330510265 5.53905952196499 L -2.49999478424405 5.66987901067494 L -2.73413376403726 5.81378049825587 L -2.96679974395759 5.97532398431425 L -3.19636622414542 6.15511196879809 L -3.42104770475483 6.35358345166949 L -3.63891518595231 6.57097393290814 L -3.84792116791456 6.80728591251381 L -4.04593115082579 7.06225189050959 L -4.23076413487423 7.33531236694378 L -4.40023962024806 7.62559134189196 L -4.55223360713059 7.93188581545796 L -4.68473609569529 8.25266578777383 L -4.79591308610043 8.58608675899874 L -4.8841645784841 8.93001322931701 L -4.94818157295927 9.28205719893472 L -4.98699106960991 9.63963116807517 L -4.99999456848768 10.0000056369739 L -4.98699106960991 10.3603806058726 L -4.94818157295927 10.7179540750131 L -4.8841645784841 11.0699985446308 L -4.79591308610043 11.4139245149491 L -4.68473609569529 11.747345486174 L -4.55223360713059 12.0681259584899 L -4.40023962024806 12.3744204320559 L -4.23076413487423 12.6646989070041 L -4.04593115082579 12.9377593834383 L -3.84792116791456 13.192725861434 L -3.63891518595231 13.4290373410397 L -3.42104770475483 13.6464283222783 L -3.19636622414542 13.8448993051498 L -2.96679974395759 14.0246877896336 L -2.73413376403726 14.186230775692 L -2.49999478424405 14.3301322632729 L -2.25830330510265 14.4609517519829 L -2.00206982721625 14.5816752415641 L -1.73158535055975 14.6905912321644 L -1.44736337508884 14.785935223936 L -1.15016390073791 14.8659187170332 L -0.841008927418778 14.9287672116092 L -0.521196455019412 14.972766207812 L -0.192302983403761 14.9963057057805 L 0.143823487587665 14.9979367056397 L 0.485079458136402 14.9764202074966 L 0.829134428443578 14.9307807114354 L 1.1734738987262 14.8603522175136 L 1.51544886921289 14.7648167257585 L 1.85233634013863 14.6442347361651 L 2.18140881173884 14.4990582486942 L 2.50000478424319 14.3301322632729 L 2.80559625786987 14.1386832797955 L 3.09585923281943 13.9262862981259 L 3.36873020926996 13.6948243181016 L 3.62245318737302 13.4464333395384 L 3.85561616725046 13.1834408622353 L 4.06716864899294 12.9082998859807 L 4.25643013265919 12.6235219105578 L 4.42308111827678 12.3316124357503 L 4.56714210584395 12.0350124613476 L 4.68894459533208 11.7360474871491 L 4.78909308668901 11.4368870129674 L 4.86842557984242 11.1395130386315 L 4.92796607470392 10.8456975639886 L 4.96888407117259 10.5569930889045 L 4.99245156913866 10.2747266132648 L 5.00000456848681 10.0000056369739 " />
  </g>
</svg>