<?xml version="1.0" encoding="UTF-8"?>
<svg viewBox="-14.9999885247762 -50.357129920788 30 51.4285585991286" xmlns="http://www.w3.org/2000/svg" xmlns:xlink="http://www.w3.org/1999/xlink" xmlns:gmsvgsym="http://www.intergraph.com/GeoMedia/svgsym">
  <!-- Creator: SVG Document for Symbols-->
  <path id="LineString2d_1126" style=" stroke-width: 0.0000010000;stroke: #000000; fill: none; " d="M -11.7857135299176 1.07142850271978 L -1.07142078843456 -17.4862709500653 L -1.07142078843456 -38.5714113121987 L -14.9999876809348 -38.5714113121987 L -14.9999876809348 -40.7142683176382 L -1.07142078843456 -40.7142683176382 L -1.07142078843456 -50.3571248421162 L 1.071436217005 -50.3571248421162 L 1.071436217005 -40.7142683176382 L 15.000010395219 -40.7142683176382 L 15.000010395219 -38.5714113121987 L 1.071436217005 -38.5714113121987 L 1.071436217005 -17.4862441643527 L 11.7857135299176 1.07142850271978 L -11.7857135299176 1.07142850271978 " xmlns="http://www.w3.org/2000/svg" />
  <g id="ComplexString2d_1127" style=" fill-rule: evenodd; stroke-width: 0.0000000000;stroke: #000000; fill: #000000; " xmlns="http://www.w3.org/2000/svg">
    <path d="M -11.7857135299176 1.07142850271978 L -1.07142078843456 -17.4862709500653 L -1.07142078843456 -38.5714113121987 L -14.9999876809348 -38.5714113121987 L -14.9999876809348 -40.7142683176382 L -1.07142078843456 -40.7142683176382 L -1.07142078843456 -50.3571248421162 L 1.071436217005 -50.3571248421162 L 1.071436217005 -40.7142683176382 L 15.000010395219 -40.7142683176382 L 15.000010395219 -38.5714113121987 L 1.071436217005 -38.5714113121987 L 1.071436217005 -17.4862441643527 L 11.7857135299176 1.07142850271978 L -11.7857135299176 1.07142850271978 " />
  </g>
  <path id="LineString2d_1128" style=" stroke-width: 0.0000010000;stroke: #000000; fill: none; " d="M -8.07417633936037 -1.07142850271978 L 0 -15.0563120344656 L 8.07417633936037 -1.07142850271978 L -8.07417633936037 -1.07142850271978 " xmlns="http://www.w3.org/2000/svg" />
  <g id="ComplexString2d_1129" style=" fill-rule: evenodd; stroke-width: 0.0000000000;stroke: #ffffff; fill: #ffffff; " xmlns="http://www.w3.org/2000/svg">
    <path d="M -8.07417633936037 -1.07142850271978 L 0 -15.0563120344656 L 8.07417633936037 -1.07142850271978 L -8.07417633936037 -1.07142850271978 " />
  </g>
</svg>