<?xml version="1.0" encoding="UTF-8"?>
<svg viewBox="-15 -15 30 30" xmlns="http://www.w3.org/2000/svg" xmlns:xlink="http://www.w3.org/1999/xlink" xmlns:gmsvgsym="http://www.intergraph.com/GeoMedia/svgsym">
  <!-- Creator: SVG Document for Symbols-->
  <polyline points="14.9999980246303,0 14.9773393479502,-0.824163004758387 14.9066368741913,-1.67096162364429 14.7838827817127,-2.53707522408397 14.6052610618107,-3.41852092199324 14.367264518986,-4.3106432692539 14.0668183337256,-5.20812437873688 13.7014115003025,-6.10501917438259 13.4937500891664,-6.55123269211039 13.2692290145768,-6.9948195163472 13.027750776311,-7.43489408257323 12.7692759992794,-7.87054795121649 12.4938273710337,-8.30085637016779 12.2014907667698,-8.72488164978846 11.8924191868365,-9.1416793504244 11.5668331317369,-9.55030409491939 11.2250222896317,-9.94981481862704 10.8673453488389,-10.3392815194262 10.4942311228366,-10.7177912577346 10.1061763002577,-11.0844549065243 9.70374413238681,-11.4384127763346 9.28756349565827,-11.7788413652872 8.85832401664501,-12.1049589840992 8.41677382205336,-12.4160321310976 7.96371522621324,-12.7113799922297 7.49999891856492,-12.9903793160739 7.02652040115087,-13.2524696638519 6.54421230109822,-13.4971560344348 6.05404005810896,-13.7240131768526 5.55699404944196,-13.9326865277966 5.05408396490012,-14.1228953991267 4.54633149431372,-14.2944327903707 4.03476395252588,-14.4471665137272 3.52040771687755,-14.5810378815622 3.00428128969176,-14.6960617064096 2.48738929825986,-14.7923234884643 1.97071686982874,-14.8699769780771 1.45522363158713,-14.9292419257491 0.941838835654479,-14.9703999571227 0.431456484069826,-14.9937915729745 -0.075068233716302,-14.9998101492018 -0.576923065851312,-14.9888991243158 -1.07334113558611,-14.9615465619298 -1.56360394128192,-14.9182800882473 -2.04704304391417,-14.8596618295502 -2.52304119207502,-14.7862842871901 -3.45050568244436,-14.5977377946515 -4.34210471601145,-14.3577876848712 -5.19476984827775,-14.0717555949866 -6.00622332404812,-13.7450070372356 -6.77492351480643,-13.3828377736966 -7.49999891856492,-12.9903793160739 -8.20241583314373,-12.5586747689383 -8.90041373764362,-12.0740454135913 -9.58911293343494,-11.5346803709026 -10.2631565332996,-10.9392667628779 -10.9167588365416,-10.2870945253976 -11.5437771416506,-9.57815990845318 -12.1378075590205,-8.81326091386468 -12.4204089535803,-8.41031405731987 -12.6923059487255,-7.9940796079686 -12.9526825425947,-7.56491606662854 -13.2007324833493,-7.12324343425763 -13.4356662066882,-6.66954377445537 -13.6567145858573,-6.20436027596066 -13.8631362441657,-5.72829744015227 -14.0542226174972,-5.24201939354493 -14.229303391823,-4.74624707528297 -14.3877530657165,-4.24175654963645 -14.5289950753625,-3.72937506849217 -14.652507607071,-3.2099778838464 -14.7578280972869,-2.68448262279209 -14.8445575451002,-2.15384535000983 -14.912364074754,-1.61905400525292 -14.960986310652,-1.08112390333711 -14.9902354398637,-0.541089671622185 -14.9999980246303,0 -14.9902354398637,0.541089671622185 -14.960986310652,1.08112390333711 -14.912364074754,1.61905400525292 -14.8445575451002,2.15384535000983 -14.7578280972869,2.68448262279209 -14.652507607071,3.2099778838464 -14.5289950753625,3.72937506849217 -14.3877530657165,4.24175654963645 -14.229303391823,4.74624707528297 -14.0542226174972,5.24201939354493 -13.8631362441657,5.72829744015227 -13.6567145858573,6.20436027596066 -13.4356662066882,6.66954377445537 -13.2007324833493,7.12324343425763 -12.9526825425947,7.56491606662854 -12.6923059487255,7.9940796079686 -12.4204089535803,8.41031405731987 -12.1378075590205,8.81326091386468 -11.8453232044196,9.20262223942349 -11.5437771416506,9.57815990845318 -10.9167588365416,10.2870945253976 -10.2631565332996,10.9392667628779 -9.58911293343494,11.5346803709026 -8.90041373764362,12.0740454135913 -8.20241583314373,12.5586747689383 -7.49999891856492,12.9903793160739 -6.77492351480643,13.3828377736966 -6.00622332404812,13.7450070372356 -5.19476984827775,14.0717555949866 -4.34210471601145,14.3577876848712 -3.45050568244436,14.5977377946515 -2.52304119207502,14.7862842871901 -1.56360394128192,14.9182800882473 -1.07334113558611,14.9615465619298 -0.576923065851312,14.9888991243158 -0.075068233716302,14.9998101492018 0.431456484069826,14.9937915729745 0.941838835654479,14.9703999571227 1.45522363158713,14.9292419257491 1.97071686982874,14.8699769780771 2.48738929825986,14.7923234884643 3.00428128969176,14.6960617064096 3.52040771687755,14.5810378815622 4.03476395252588,14.4471665137272 4.54633149431372,14.2944327903707 5.05408396490012,14.1228953991267 5.55699404944196,13.9326865277966 6.05404005810896,13.7240131768526 6.54421230109822,13.4971560344348 7.02652040115087,13.2524696638519 7.49999891856492,12.9903793160739 7.96371522621324,12.7113799922297 8.41677382205336,12.4160321310976 8.85832401664501,12.1049589840992 9.28756349565827,11.7788413652872 9.70374413238681,11.4384127763346 10.1061763002577,11.0844549065243 10.4942311228366,10.7177912577346 10.8673453488389,10.3392815194262 11.2250222896317,9.94981481862704 11.5668331317369,9.55030409491939 11.8924191868365,9.1416793504244 12.2014907667698,8.72488164978846 12.4938273710337,8.30085637016779 12.7692759992794,7.87054795121649 13.027750776311,7.43489408257323 13.2692290145768,6.9948195163472 13.4937500891664,6.55123269211039 13.7014115003025,6.10501917438259 13.8923662483338,5.65703959012673 14.0668183337256,5.20812437873688 14.367264518986,4.3106432692539 14.6052610618107,3.41852092199324 14.7838827817127,2.53707522408397 14.9066368741913,1.67096162364429 14.9773393479502,0.824163004758387 14.9999980246303,0" style=" stroke-width: 0.0000010000;stroke: #4E4A96; fill: none; " xmlns="http://www.w3.org/2000/svg" />
  <g id="ComplexString2d_1153" style=" fill-rule: evenodd; stroke-width: 0.0000000000;stroke: #4E4A96; fill: #4E4A96; " xmlns="http://www.w3.org/2000/svg">
    <path d="M 14.9999980246303 0 L 14.9773393479502 -0.824163004758387 L 14.9066368741913 -1.67096162364429 L 14.7838827817127 -2.53707522408397 L 14.6052610618107 -3.41852092199324 L 14.367264518986 -4.3106432692539 L 14.0668183337256 -5.20812437873688 L 13.7014115003025 -6.10501917438259 L 13.4937500891664 -6.55123269211039 L 13.2692290145768 -6.9948195163472 L 13.027750776311 -7.43489408257323 L 12.7692759992794 -7.87054795121649 L 12.4938273710337 -8.30085637016779 L 12.2014907667698 -8.72488164978846 L 11.8924191868365 -9.1416793504244 L 11.5668331317369 -9.55030409491939 L 11.2250222896317 -9.94981481862704 L 10.8673453488389 -10.3392815194262 L 10.4942311228366 -10.7177912577346 L 10.1061763002577 -11.0844549065243 L 9.70374413238681 -11.4384127763346 L 9.28756349565827 -11.7788413652872 L 8.85832401664501 -12.1049589840992 L 8.41677382205336 -12.4160321310976 L 7.96371522621324 -12.7113799922297 L 7.49999891856492 -12.9903793160739 L 7.02652040115087 -13.2524696638519 L 6.54421230109822 -13.4971560344348 L 6.05404005810896 -13.7240131768526 L 5.55699404944196 -13.9326865277966 L 5.05408396490012 -14.1228953991267 L 4.54633149431372 -14.2944327903707 L 4.03476395252588 -14.4471665137272 L 3.52040771687755 -14.5810378815622 L 3.00428128969176 -14.6960617064096 L 2.48738929825986 -14.7923234884643 L 1.97071686982874 -14.8699769780771 L 1.45522363158713 -14.9292419257491 L 0.941838835654479 -14.9703999571227 L 0.431456484069826 -14.9937915729745 L -0.075068233716302 -14.9998101492018 L -0.576923065851312 -14.9888991243158 L -1.07334113558611 -14.9615465619298 L -1.56360394128192 -14.9182800882473 L -2.04704304391417 -14.8596618295502 L -2.52304119207502 -14.7862842871901 L -3.45050568244436 -14.5977377946515 L -4.34210471601145 -14.3577876848712 L -5.19476984827775 -14.0717555949866 L -6.00622332404812 -13.7450070372356 L -6.77492351480643 -13.3828377736966 L -7.49999891856492 -12.9903793160739 L -8.20241583314373 -12.5586747689383 L -8.90041373764362 -12.0740454135913 L -9.58911293343494 -11.5346803709026 L -10.2631565332996 -10.9392667628779 L -10.9167588365416 -10.2870945253976 L -11.5437771416506 -9.57815990845318 L -12.1378075590205 -8.81326091386468 L -12.4204089535803 -8.41031405731987 L -12.6923059487255 -7.9940796079686 L -12.9526825425947 -7.56491606662854 L -13.2007324833493 -7.12324343425763 L -13.4356662066882 -6.66954377445537 L -13.6567145858573 -6.20436027596066 L -13.8631362441657 -5.72829744015227 L -14.0542226174972 -5.24201939354493 L -14.229303391823 -4.74624707528297 L -14.3877530657165 -4.24175654963645 L -14.5289950753625 -3.72937506849217 L -14.652507607071 -3.2099778838464 L -14.7578280972869 -2.68448262279209 L -14.8445575451002 -2.15384535000983 L -14.912364074754 -1.61905400525292 L -14.960986310652 -1.08112390333711 L -14.9902354398637 -0.541089671622185 L -14.9999980246303 0 L -14.9902354398637 0.541089671622185 L -14.960986310652 1.08112390333711 L -14.912364074754 1.61905400525292 L -14.8445575451002 2.15384535000983 L -14.7578280972869 2.68448262279209 L -14.652507607071 3.2099778838464 L -14.5289950753625 3.72937506849217 L -14.3877530657165 4.24175654963645 L -14.229303391823 4.74624707528297 L -14.0542226174972 5.24201939354493 L -13.8631362441657 5.72829744015227 L -13.6567145858573 6.20436027596066 L -13.4356662066882 6.66954377445537 L -13.2007324833493 7.12324343425763 L -12.9526825425947 7.56491606662854 L -12.6923059487255 7.9940796079686 L -12.4204089535803 8.41031405731987 L -12.1378075590205 8.81326091386468 L -11.8453232044196 9.20262223942349 L -11.5437771416506 9.57815990845318 L -10.9167588365416 10.2870945253976 L -10.2631565332996 10.9392667628779 L -9.58911293343494 11.5346803709026 L -8.90041373764362 12.0740454135913 L -8.20241583314373 12.5586747689383 L -7.49999891856492 12.9903793160739 L -6.77492351480643 13.3828377736966 L -6.00622332404812 13.7450070372356 L -5.19476984827775 14.0717555949866 L -4.34210471601145 14.3577876848712 L -3.45050568244436 14.5977377946515 L -2.52304119207502 14.7862842871901 L -1.56360394128192 14.9182800882473 L -1.07334113558611 14.9615465619298 L -0.576923065851312 14.9888991243158 L -0.075068233716302 14.9998101492018 L 0.431456484069826 14.9937915729745 L 0.941838835654479 14.9703999571227 L 1.45522363158713 14.9292419257491 L 1.97071686982874 14.8699769780771 L 2.48738929825986 14.7923234884643 L 3.00428128969176 14.6960617064096 L 3.52040771687755 14.5810378815622 L 4.03476395252588 14.4471665137272 L 4.54633149431372 14.2944327903707 L 5.05408396490012 14.1228953991267 L 5.55699404944196 13.9326865277966 L 6.05404005810896 13.7240131768526 L 6.54421230109822 13.4971560344348 L 7.02652040115087 13.2524696638519 L 7.49999891856492 12.9903793160739 L 7.96371522621324 12.7113799922297 L 8.41677382205336 12.4160321310976 L 8.85832401664501 12.1049589840992 L 9.28756349565827 11.7788413652872 L 9.70374413238681 11.4384127763346 L 10.1061763002577 11.0844549065243 L 10.4942311228366 10.7177912577346 L 10.8673453488389 10.3392815194262 L 11.2250222896317 9.94981481862704 L 11.5668331317369 9.55030409491939 L 11.8924191868365 9.1416793504244 L 12.2014907667698 8.72488164978846 L 12.4938273710337 8.30085637016779 L 12.7692759992794 7.87054795121649 L 13.027750776311 7.43489408257323 L 13.2692290145768 6.9948195163472 L 13.4937500891664 6.55123269211039 L 13.7014115003025 6.10501917438259 L 13.8923662483338 5.65703959012673 L 14.0668183337256 5.20812437873688 L 14.367264518986 4.3106432692539 L 14.6052610618107 3.41852092199324 L 14.7838827817127 2.53707522408397 L 14.9066368741913 1.67096162364429 L 14.9773393479502 0.824163004758387 L 14.9999980246303 0 " />
  </g>
  <path id="LineString2d_1154" style=" stroke-width: 0.0000010000;stroke: #ffffff; fill: none; " d="M -13.0923632361797 -0.937502138263301 L -12.6778554782667 -3.39501680588484 L -11.3663216744086 -6.56252640536919 L -9.28050879206784 -9.28080898025251 L -6.56222527968238 -11.3666198000886 L -3.39671762226407 -12.6778147906739 L 0.000289875661151013 -13.1250383732055 L 3.39729681108509 -12.6778129156696 L 6.56280296849998 -11.3666164250809 L 9.28108460588116 -9.28080504274353 L 11.3668954257172 -6.56252303036149 L 12.6780911663042 -3.39701668544618 L 13.0917913598754 -0.937502138263301 L -13.0923632361797 -0.937502138263301 " xmlns="http://www.w3.org/2000/svg" />
  <g id="ComplexString2d_1155" style=" fill-rule: evenodd; stroke-width: 0.0000000000;stroke: #ffffff; fill: #ffffff; " xmlns="http://www.w3.org/2000/svg">
    <path d="M -13.0923632361797 -0.937502138263301 L -12.6778554782667 -3.39501680588484 L -11.3663216744086 -6.56252640536919 L -9.28050879206784 -9.28080898025251 L -6.56222527968238 -11.3666198000886 L -3.39671762226407 -12.6778147906739 L 0.000289875661151013 -13.1250383732055 L 3.39729681108509 -12.6778129156696 L 6.56280296849998 -11.3666164250809 L 9.28108460588116 -9.28080504274353 L 11.3668954257172 -6.56252303036149 L 12.6780911663042 -3.39701668544618 L 13.0917913598754 -0.937502138263301 L -13.0923632361797 -0.937502138263301 " />
  </g>
  <path id="LineString2d_1156" style=" stroke-width: 0.0000010000;stroke: #ffffff; fill: none; " d="M -13.0912183585685 0.937502138263301 L -12.6767106006554 3.39501680588484 L -11.3651767967974 6.56252640536919 L -9.27936391445659 9.28080898025251 L -6.56108040207113 11.3666198000886 L -3.39557274465283 12.6778147906739 L 0.00143475327239816 13.1250383732055 L 3.39844168869634 12.6778129156696 L 6.56394784611123 11.3666164250809 L 9.28222948349241 9.28080504274353 L 11.3680403033285 6.56252303036149 L 12.6792360439155 3.39701668544618 L 13.0929362374866 0.937502138263301 L -13.0912183585685 0.937502138263301 " xmlns="http://www.w3.org/2000/svg" />
  <g id="ComplexString2d_1157" style=" fill-rule: evenodd; stroke-width: 0.0000000000;stroke: #ffffff; fill: #ffffff; " xmlns="http://www.w3.org/2000/svg">
    <path d="M -13.0912183585685 0.937502138263301 L -12.6767106006554 3.39501680588484 L -11.3651767967974 6.56252640536919 L -9.27936391445659 9.28080898025251 L -6.56108040207113 11.3666198000886 L -3.39557274465283 12.6778147906739 L 0.00143475327239816 13.1250383732055 L 3.39844168869634 12.6778129156696 L 6.56394784611123 11.3666164250809 L 9.28222948349241 9.28080504274353 L 11.3680403033285 6.56252303036149 L 12.6792360439155 3.39701668544618 L 13.0929362374866 0.937502138263301 L -13.0912183585685 0.937502138263301 " />
  </g>
</svg>