<?xml version="1.0" encoding="UTF-8"?>
<svg viewBox="-15.0000023283062 -49.1667080156597 30 50.0000410040588" xmlns="http://www.w3.org/2000/svg" xmlns:xlink="http://www.w3.org/1999/xlink" xmlns:gmsvgsym="http://www.intergraph.com/GeoMedia/svgsym">
  <!-- Creator: SVG Document for Symbols-->
  <path id="LineString2d_1322" style=" stroke-width: 0.0000010000;stroke: #4dd228; fill: none; " d="M -0.833332906522856 0.833332906522856 L -0.833333573189448 -15.8333282239339 L -6.66664908551777 -15.8333282239339 L -8.82345201025018 -16.1172688587502 L -10.8332794514692 -16.9497517653684 L -12.5591674245385 -18.2740487834852 L -13.8834999426513 -19.9999162565568 L -14.7160240159316 -22.0097436977758 L -14.9999999840772 -24.1665671225059 L -14.7160713492596 -26.3234008805682 L -13.8835821093087 -28.33326298845 L -12.5592620911945 -30.0591777948496 L -10.83336145146 -31.3835223129611 L -8.8234993435782 -32.2160398862421 L -7.41459283495229 -32.4663616914962 L -8.11104475682944 -33.4425679153259 L -8.73542235345803 -34.949948746239 L -8.94838599623601 -36.5675675647864 L -8.73542302012462 -38.1851842166675 L -8.11104575682933 -39.6925655475805 L -7.11780470157713 -40.9869832357156 L -5.82338734677533 -41.9802251243011 L -4.31600601586225 -42.6046032209296 L -3.51578310562536 -42.7638853697292 L -4.02469221520636 -43.9216275731955 L -4.16666786594724 -45.0000401188938 L -4.0246927152063 -46.0784504979257 L -3.60844142856497 -47.0833715518677 L -2.9462808361746 -47.9463169550689 L -2.08333576630675 -48.6084783807925 L -1.07841487903137 -49.024730500767 L -1.6666664797123E-06 -49.1667063181746 L 1.07841154569841 -49.024730500767 L 2.08333243297379 -48.6084783807925 L 2.94627750284164 -47.9463169550689 L 3.60843809523201 -47.0833715518677 L 4.02468938187334 -46.0784504979257 L 4.16666453261428 -45.0000401188938 L 4.0246888818734 -43.9216275731955 L 3.5157797722924 -42.7638853697292 L 4.56025998846364 -42.5337980622053 L 6.01872665819693 -41.8626418041574 L 7.24745585370048 -40.8534082506991 L 8.17564958291588 -39.5778907271106 L 8.75269385152064 -38.11928072406 L 8.9483824962364 -36.5675675647864 L 8.7526933515207 -35.0158522388464 L 8.175648582916 -33.5572425691292 L 7.41458950161933 -32.4663616914962 L 8.82349001024592 -32.2160415529086 L 10.8333314514634 -31.3835376462927 L 12.5592212578658 -30.0592152948454 L 13.8835427759798 -28.3333251551097 L 14.7160458492624 -26.3234835472256 L 14.9999966507443 -24.1666606224955 L 14.7160451825958 -22.0098355310989 L 13.8835417759799 -19.9999944232147 L 12.5592200911993 -18.2741047834789 L 10.8333304514635 -16.9497830986983 L 8.82348934357933 -16.1172796920823 L 6.66666425218274 -15.8333282239339 L 0.833332906522856 -15.8333282239339 L 0.833332906522856 -0.833333573189448 L 7.49999949203866 -0.833333573189448 L 7.49999949203866 0.833332906522856 L -0.833332906522856 0.833332906522856 " xmlns="http://www.w3.org/2000/svg" />
  <g id="ComplexString2d_1323" style=" fill-rule: evenodd; stroke-width: 0.0000000000;stroke: #4dd228; fill: #4dd228; " xmlns="http://www.w3.org/2000/svg">
    <path d="M -0.833332906522856 0.833332906522856 L -0.833333573189448 -15.8333282239339 L -6.66664908551777 -15.8333282239339 L -8.82345201025018 -16.1172688587502 L -10.8332794514692 -16.9497517653684 L -12.5591674245385 -18.2740487834852 L -13.8834999426513 -19.9999162565568 L -14.7160240159316 -22.0097436977758 L -14.9999999840772 -24.1665671225059 L -14.7160713492596 -26.3234008805682 L -13.8835821093087 -28.33326298845 L -12.5592620911945 -30.0591777948496 L -10.83336145146 -31.3835223129611 L -8.8234993435782 -32.2160398862421 L -7.41459283495229 -32.4663616914962 L -8.11104475682944 -33.4425679153259 L -8.73542235345803 -34.949948746239 L -8.94838599623601 -36.5675675647864 L -8.73542302012462 -38.1851842166675 L -8.11104575682933 -39.6925655475805 L -7.11780470157713 -40.9869832357156 L -5.82338734677533 -41.9802251243011 L -4.31600601586225 -42.6046032209296 L -3.51578310562536 -42.7638853697292 L -4.02469221520636 -43.9216275731955 L -4.16666786594724 -45.0000401188938 L -4.0246927152063 -46.0784504979257 L -3.60844142856497 -47.0833715518677 L -2.9462808361746 -47.9463169550689 L -2.08333576630675 -48.6084783807925 L -1.07841487903137 -49.024730500767 L -1.6666664797123E-06 -49.1667063181746 L 1.07841154569841 -49.024730500767 L 2.08333243297379 -48.6084783807925 L 2.94627750284164 -47.9463169550689 L 3.60843809523201 -47.0833715518677 L 4.02468938187334 -46.0784504979257 L 4.16666453261428 -45.0000401188938 L 4.0246888818734 -43.9216275731955 L 3.5157797722924 -42.7638853697292 L 4.56025998846364 -42.5337980622053 L 6.01872665819693 -41.8626418041574 L 7.24745585370048 -40.8534082506991 L 8.17564958291588 -39.5778907271106 L 8.75269385152064 -38.11928072406 L 8.9483824962364 -36.5675675647864 L 8.7526933515207 -35.0158522388464 L 8.175648582916 -33.5572425691292 L 7.41458950161933 -32.4663616914962 L 8.82349001024592 -32.2160415529086 L 10.8333314514634 -31.3835376462927 L 12.5592212578658 -30.0592152948454 L 13.8835427759798 -28.3333251551097 L 14.7160458492624 -26.3234835472256 L 14.9999966507443 -24.1666606224955 L 14.7160451825958 -22.0098355310989 L 13.8835417759799 -19.9999944232147 L 12.5592200911993 -18.2741047834789 L 10.8333304514635 -16.9497830986983 L 8.82348934357933 -16.1172796920823 L 6.66666425218274 -15.8333282239339 L 0.833332906522856 -15.8333282239339 L 0.833332906522856 -0.833333573189448 L 7.49999949203866 -0.833333573189448 L 7.49999949203866 0.833332906522856 L -0.833332906522856 0.833332906522856 " />
  </g>
  <path id="LineString2d_1324" style=" stroke-width: 0.0000010000;stroke: #3ded19; fill: none; " d="M -6.66663125218644 -17.499859870328 L -8.39209139197037 -17.7270210115134 L -9.99996421161105 -18.3930237701395 L -11.380676056733 -19.4524811512974 L -12.4401334378908 -20.8331928297526 L -13.1061360298503 -22.44106581606 L -13.3332971710357 -24.1665234558442 L -13.1061366965168 -25.8919837622948 L -12.4401344378907 -27.4998570819354 L -11.3806772233995 -28.8805694270572 L -9.99996537827758 -29.9400273082151 L -8.39209205863696 -30.6060305668411 L -5.59854620532968 -31.76315560371 L -6.62530725682186 -34.2419759923208 L -7.08318403879395 -35.3473885349905 L -7.23935735460891 -36.5336424019252 L -7.0831845387939 -37.7198944355269 L -6.6253080901551 -38.8253074781965 L -5.89693117185905 -39.7745472050511 L -4.94769177833773 -40.5029246233471 L -3.8422789023348 -40.9608019053191 L -1.43383550582957 -41.9584121267479 L -2.16692809026331 -43.7282445948878 L -2.41667972891468 -44.3311951939199 L -2.50186655269238 -44.9782409546724 L -2.41668306224764 -45.6252882154248 L -2.16693392359599 -46.2282411477899 L -1.76963863482831 -46.7460097563771 L -1.25187202624089 -47.1433082118111 L -0.648918927209057 -47.393061017129 L -0.00186983312358923 -47.4782476742401 L 0.645179594295175 -47.3930626837955 L 1.24813385999354 -47.1433108784775 L 1.7659019685808 -46.7460127563768 L 2.16319875734831 -46.2282438144563 L 2.41294906266649 -45.6252897154246 L 2.49813288644453 -44.9782409546724 L 2.41294572933353 -44.3311936939201 L 2.16319292401563 -43.7282420948881 L 1.43009950624864 -41.9584121267479 L 3.51091727283784 -39.7399662089301 L 4.02155988222439 -38.9061601357937 L 4.35501017815372 -38.2368657108702 L 4.59558165116819 -37.6558921093729 L 4.7850136299191 -37.1052375044746 L 4.94435577871194 -36.5336424019252 L 5.19087925105876 -35.067695733031 L 4.93578911300622 -31.76315560371 L 7.0788548726129 -29.8660673165113 L 8.57465870482465 -27.4786669176457 L 8.96009999492202 -26.4642316981042 L 9.18779280271445 -25.6245644589585 L 9.32557028725959 -24.8801200424648 L 9.42987294222635 -23.4249815390249 L 9.39322577967049 -22.5898781327006 L 9.25306596205925 -21.57585157978 L 8.91091400043934 -20.271971059373 L 8.15959075138391 -18.5789032492889 L 7.51840098997452 -17.5798435280227 L -6.66663125218644 -17.499859870328 " xmlns="http://www.w3.org/2000/svg" />
  <g id="ComplexString2d_1325" style=" fill-rule: evenodd; stroke-width: 0.0000000000;stroke: #3ded19; fill: #3ded19; " xmlns="http://www.w3.org/2000/svg">
    <path d="M -6.66663125218644 -17.499859870328 L -8.39209139197037 -17.7270210115134 L -9.99996421161105 -18.3930237701395 L -11.380676056733 -19.4524811512974 L -12.4401334378908 -20.8331928297526 L -13.1061360298503 -22.44106581606 L -13.3332971710357 -24.1665234558442 L -13.1061366965168 -25.8919837622948 L -12.4401344378907 -27.4998570819354 L -11.3806772233995 -28.8805694270572 L -9.99996537827758 -29.9400273082151 L -8.39209205863696 -30.6060305668411 L -5.59854620532968 -31.76315560371 L -6.62530725682186 -34.2419759923208 L -7.08318403879395 -35.3473885349905 L -7.23935735460891 -36.5336424019252 L -7.0831845387939 -37.7198944355269 L -6.6253080901551 -38.8253074781965 L -5.89693117185905 -39.7745472050511 L -4.94769177833773 -40.5029246233471 L -3.8422789023348 -40.9608019053191 L -1.43383550582957 -41.9584121267479 L -2.16692809026331 -43.7282445948878 L -2.41667972891468 -44.3311951939199 L -2.50186655269238 -44.9782409546724 L -2.41668306224764 -45.6252882154248 L -2.16693392359599 -46.2282411477899 L -1.76963863482831 -46.7460097563771 L -1.25187202624089 -47.1433082118111 L -0.648918927209057 -47.393061017129 L -0.00186983312358923 -47.4782476742401 L 0.645179594295175 -47.3930626837955 L 1.24813385999354 -47.1433108784775 L 1.7659019685808 -46.7460127563768 L 2.16319875734831 -46.2282438144563 L 2.41294906266649 -45.6252897154246 L 2.49813288644453 -44.9782409546724 L 2.41294572933353 -44.3311936939201 L 2.16319292401563 -43.7282420948881 L 1.43009950624864 -41.9584121267479 L 3.51091727283784 -39.7399662089301 L 4.02155988222439 -38.9061601357937 L 4.35501017815372 -38.2368657108702 L 4.59558165116819 -37.6558921093729 L 4.7850136299191 -37.1052375044746 L 4.94435577871194 -36.5336424019252 L 5.19087925105876 -35.067695733031 L 4.93578911300622 -31.76315560371 L 7.0788548726129 -29.8660673165113 L 8.57465870482465 -27.4786669176457 L 8.96009999492202 -26.4642316981042 L 9.18779280271445 -25.6245644589585 L 9.32557028725959 -24.8801200424648 L 9.42987294222635 -23.4249815390249 L 9.39322577967049 -22.5898781327006 L 9.25306596205925 -21.57585157978 L 8.91091400043934 -20.271971059373 L 8.15959075138391 -18.5789032492889 L 7.51840098997452 -17.5798435280227 L -6.66663125218644 -17.499859870328 " />
  </g>
</svg>