<?xml version="1.0" encoding="UTF-8"?>
<svg viewBox="-15 -15 30 30" xmlns="http://www.w3.org/2000/svg" xmlns:xlink="http://www.w3.org/1999/xlink" xmlns:gmsvgsym="http://www.intergraph.com/GeoMedia/svgsym">
  <!-- Creator: SVG Document for Symbols-->
  <polyline points="14.9999975413088,0 14.9773389200228,-0.824163052409149 14.9066366191119,-1.67096166360804 14.7838822642329,-2.537075021641 14.6052607935112,-3.41852081466077 14.3672642700219,-4.31064323093051 14.0668178817689,-5.20812420882192 13.7014111916637,-6.1050190618094 13.4937497257021,-6.55123242616933 13.2692286375039,-6.99481947845974 13.0277504270853,-7.43489390632592 12.7692757194526,-7.87054783491668 12.4938270146022,-8.30085613938365 12.2014905625198,-8.72488131988051 11.8924189881806,-9.14167912656202 11.5668329790483,-9.55030380958322 11.2250220350755,-9.94981449409832 10.8673452187033,-10.3392811802598 10.4942309673615,-10.7177909307172 10.1061759684687,-11.0844546206163 9.70374403443241,-11.4384123750981 9.28756329014975,-11.7788410692975 8.85832373550759,-12.1049588283426 8.41677368288329,-12.4160319648538 7.96371488214541,-12.7113796664425 7.4999987706544,-12.990378870711 7.0265200982636,-13.252469140251 6.54421223982002,-13.4971556626438 6.05403988266553,-13.724012812959 5.55699396413771,-13.9326862162548 5.05408379657111,-14.1228949975771 4.54633125479824,-14.29443234446 4.03476383865067,-14.4471660694249 3.52040754796024,-14.5810374849817 3.00428107005996,-14.6960614036278 2.48738921728514,-14.7923229503493 1.97071692697432,-14.8699764376209 1.45522363647026,-14.9292414279066 0.941838783120593,-14.9703997336603 0.43145655427876,-14.9937911048261 -0.075068237695357,-14.9998096663396 -0.576922967934956,-14.988898855628 -1.07334113656568,-14.9615461726115 -1.56360405620532,-14.9182796172034 -2.04704310196349,-14.8596615018117 -2.52304102394135,-14.7862837638392 -3.45050568441804,-14.5977373572444 -4.34210460077359,-14.3577872715753 -5.19476971101089,-14.0717551309596 -6.00622307800332,-13.7450068095178 -6.77492345200351,-13.382837493882 -7.4999987706544,-12.990378870711 -8.2024156555193,-12.5586744414728 -8.90041354110854,-12.0740451459098 -9.58911255322197,-11.5346801093186 -10.2631561927376,-10.9392664569145 -10.9167585856038,-10.2870943138138 -11.5437768578275,-9.57815955501731 -12.1378071354584,-8.81326055539402 -12.4204085891364,-8.41031374644215 -12.692305669569,-7.99407937716828 -12.9526821893899,-7.56491576001368 -13.2007322737314,-7.12324326990944 -13.4356657977228,-6.66954359427661 -13.6567141989901,-6.20436010802613 -13.8631359151549,-5.7282973110589 -14.0542221963335,-5.24201932826608 -14.2293031051355,-4.74624690952951 -14.3877527666635,-4.24175630472196 -14.5289948060122,-3.72937513870778 -14.6525072232669,-3.20997772384365 -14.7578278310035,-2.68448262247901 -14.8445570667875,-2.15384514695727 -14.9123636181731,-1.61905398461637 -14.9609859227033,-1.08112388528999 -14.990235167909,-0.541089661308493 -14.9999975413088,0 -14.990235167909,0.541089661308493 -14.9609859227033,1.08112388528999 -14.9123636181731,1.61905398461637 -14.8445570667875,2.15384514695727 -14.7578278310035,2.68448262247901 -14.6525072232669,3.20997772384365 -14.5289948060122,3.72937513870778 -14.3877527666635,4.24175630472196 -14.2293031051355,4.74624690952951 -14.0542221963335,5.24201932826608 -13.8631359151549,5.7282973110589 -13.6567141989901,6.20436010802613 -13.4356657977228,6.66954359427661 -13.2007322737314,7.12324326990944 -12.9526821893899,7.56491576001368 -12.692305669569,7.99407937716828 -12.4204085891364,8.41031374644215 -12.1378071354584,8.81326055539402 -11.8453229334003,9.2026220540727 -11.5437768578275,9.57815955501731 -10.9167585856038,10.2870943138138 -10.2631561927376,10.9392664569145 -9.58911255322197,11.5346801093186 -8.90041354110854,12.0740451459098 -8.2024156555193,12.5586744414728 -7.4999987706544,12.990378870711 -6.77492345200351,13.382837493882 -6.00622307800332,13.7450068095178 -5.19476971101089,14.0717551309596 -4.34210460077359,14.3577872715753 -3.45050568441804,14.5977373572444 -2.52304102394135,14.7862837638392 -1.56360405620532,14.9182796172034 -1.07334113656568,14.9615461726115 -0.576922967934956,14.988898855628 -0.075068237695357,14.9998096663396 0.43145655427876,14.9937911048261 0.941838783120593,14.9703997336603 1.45522363647026,14.9292414279066 1.97071692697432,14.8699764376209 2.48738921728514,14.7923229503493 3.00428107005996,14.6960614036278 3.52040754796024,14.5810374849817 4.03476383865067,14.4471660694249 4.54633125479824,14.29443234446 5.05408379657111,14.1228949975771 5.55699396413771,13.9326862162548 6.05403988266553,13.724012812959 6.54421223982002,13.4971556626438 7.0265200982636,13.252469140251 7.4999987706544,12.990378870711 7.96371488214541,12.7113796664425 8.41677368288329,12.4160319648538 8.85832373550759,12.1049588283426 9.28756329014975,11.7788410692975 9.70374403443241,11.4384123750981 10.1061759684687,11.0844546206163 10.4942309673615,10.7177909307172 10.8673452187033,10.3392811802598 11.2250220350755,9.94981449409832 11.5668329790483,9.55030380958322 11.8924189881806,9.14167912656202 12.2014905625198,8.72488131988051 12.4938270146022,8.30085613938365 12.7692757194526,7.87054783491668 13.0277504270853,7.43489390632592 13.2692286375039,6.99481947845974 13.4937497257021,6.55123242616933 13.7014111916637,6.1050190618094 13.8923658478638,5.65703944773898 14.0668178817689,5.20812420882192 14.3672642700219,4.31064323093051 14.6052607935112,3.41852081466077 14.7838822642329,2.537075021641 14.9066366191119,1.67096166360804 14.9773389200228,0.824163052409149 14.9999975413088,0" style=" stroke-width: 0.0000010000;stroke: #ffffff; fill: none; " xmlns="http://www.w3.org/2000/svg" />
  <g id="ComplexString2d_1377" style=" fill-rule: evenodd; stroke-width: 0.0000000000;stroke: #ffffff; fill: #ffffff; " xmlns="http://www.w3.org/2000/svg">
    <path d="M 14.9999975413088 0 L 14.9773389200228 -0.824163052409149 L 14.9066366191119 -1.67096166360804 L 14.7838822642329 -2.537075021641 L 14.6052607935112 -3.41852081466077 L 14.3672642700219 -4.31064323093051 L 14.0668178817689 -5.20812420882192 L 13.7014111916637 -6.1050190618094 L 13.4937497257021 -6.55123242616933 L 13.2692286375039 -6.99481947845974 L 13.0277504270853 -7.43489390632592 L 12.7692757194526 -7.87054783491668 L 12.4938270146022 -8.30085613938365 L 12.2014905625198 -8.72488131988051 L 11.8924189881806 -9.14167912656202 L 11.5668329790483 -9.55030380958322 L 11.2250220350755 -9.94981449409832 L 10.8673452187033 -10.3392811802598 L 10.4942309673615 -10.7177909307172 L 10.1061759684687 -11.0844546206163 L 9.70374403443241 -11.4384123750981 L 9.28756329014975 -11.7788410692975 L 8.85832373550759 -12.1049588283426 L 8.41677368288329 -12.4160319648538 L 7.96371488214541 -12.7113796664425 L 7.4999987706544 -12.990378870711 L 7.0265200982636 -13.252469140251 L 6.54421223982002 -13.4971556626438 L 6.05403988266553 -13.724012812959 L 5.55699396413771 -13.9326862162548 L 5.05408379657111 -14.1228949975771 L 4.54633125479824 -14.29443234446 L 4.03476383865067 -14.4471660694249 L 3.52040754796024 -14.5810374849817 L 3.00428107005996 -14.6960614036278 L 2.48738921728514 -14.7923229503493 L 1.97071692697432 -14.8699764376209 L 1.45522363647026 -14.9292414279066 L 0.941838783120593 -14.9703997336603 L 0.43145655427876 -14.9937911048261 L -0.075068237695357 -14.9998096663396 L -0.576922967934956 -14.988898855628 L -1.07334113656568 -14.9615461726115 L -1.56360405620532 -14.9182796172034 L -2.04704310196349 -14.8596615018117 L -2.52304102394135 -14.7862837638392 L -3.45050568441804 -14.5977373572444 L -4.34210460077359 -14.3577872715753 L -5.19476971101089 -14.0717551309596 L -6.00622307800332 -13.7450068095178 L -6.77492345200351 -13.382837493882 L -7.4999987706544 -12.990378870711 L -8.2024156555193 -12.5586744414728 L -8.90041354110854 -12.0740451459098 L -9.58911255322197 -11.5346801093186 L -10.2631561927376 -10.9392664569145 L -10.9167585856038 -10.2870943138138 L -11.5437768578275 -9.57815955501731 L -12.1378071354584 -8.81326055539402 L -12.4204085891364 -8.41031374644215 L -12.692305669569 -7.99407937716828 L -12.9526821893899 -7.56491576001368 L -13.2007322737314 -7.12324326990944 L -13.4356657977228 -6.66954359427661 L -13.6567141989901 -6.20436010802613 L -13.8631359151549 -5.7282973110589 L -14.0542221963335 -5.24201932826608 L -14.2293031051355 -4.74624690952951 L -14.3877527666635 -4.24175630472196 L -14.5289948060122 -3.72937513870778 L -14.6525072232669 -3.20997772384365 L -14.7578278310035 -2.68448262247901 L -14.8445570667875 -2.15384514695727 L -14.9123636181731 -1.61905398461637 L -14.9609859227033 -1.08112388528999 L -14.990235167909 -0.541089661308493 L -14.9999975413088 0 L -14.990235167909 0.541089661308493 L -14.9609859227033 1.08112388528999 L -14.9123636181731 1.61905398461637 L -14.8445570667875 2.15384514695727 L -14.7578278310035 2.68448262247901 L -14.6525072232669 3.20997772384365 L -14.5289948060122 3.72937513870778 L -14.3877527666635 4.24175630472196 L -14.2293031051355 4.74624690952951 L -14.0542221963335 5.24201932826608 L -13.8631359151549 5.7282973110589 L -13.6567141989901 6.20436010802613 L -13.4356657977228 6.66954359427661 L -13.2007322737314 7.12324326990944 L -12.9526821893899 7.56491576001368 L -12.692305669569 7.99407937716828 L -12.4204085891364 8.41031374644215 L -12.1378071354584 8.81326055539402 L -11.8453229334003 9.2026220540727 L -11.5437768578275 9.57815955501731 L -10.9167585856038 10.2870943138138 L -10.2631561927376 10.9392664569145 L -9.58911255322197 11.5346801093186 L -8.90041354110854 12.0740451459098 L -8.2024156555193 12.5586744414728 L -7.4999987706544 12.990378870711 L -6.77492345200351 13.382837493882 L -6.00622307800332 13.7450068095178 L -5.19476971101089 14.0717551309596 L -4.34210460077359 14.3577872715753 L -3.45050568441804 14.5977373572444 L -2.52304102394135 14.7862837638392 L -1.56360405620532 14.9182796172034 L -1.07334113656568 14.9615461726115 L -0.576922967934956 14.988898855628 L -0.075068237695357 14.9998096663396 L 0.43145655427876 14.9937911048261 L 0.941838783120593 14.9703997336603 L 1.45522363647026 14.9292414279066 L 1.97071692697432 14.8699764376209 L 2.48738921728514 14.7923229503493 L 3.00428107005996 14.6960614036278 L 3.52040754796024 14.5810374849817 L 4.03476383865067 14.4471660694249 L 4.54633125479824 14.29443234446 L 5.05408379657111 14.1228949975771 L 5.55699396413771 13.9326862162548 L 6.05403988266553 13.724012812959 L 6.54421223982002 13.4971556626438 L 7.0265200982636 13.252469140251 L 7.4999987706544 12.990378870711 L 7.96371488214541 12.7113796664425 L 8.41677368288329 12.4160319648538 L 8.85832373550759 12.1049588283426 L 9.28756329014975 11.7788410692975 L 9.70374403443241 11.4384123750981 L 10.1061759684687 11.0844546206163 L 10.4942309673615 10.7177909307172 L 10.8673452187033 10.3392811802598 L 11.2250220350755 9.94981449409832 L 11.5668329790483 9.55030380958322 L 11.8924189881806 9.14167912656202 L 12.2014905625198 8.72488131988051 L 12.4938270146022 8.30085613938365 L 12.7692757194526 7.87054783491668 L 13.0277504270853 7.43489390632592 L 13.2692286375039 6.99481947845974 L 13.4937497257021 6.55123242616933 L 13.7014111916637 6.1050190618094 L 13.8923658478638 5.65703944773898 L 14.0668178817689 5.20812420882192 L 14.3672642700219 4.31064323093051 L 14.6052607935112 3.41852081466077 L 14.7838822642329 2.537075021641 L 14.9066366191119 1.67096166360804 L 14.9773389200228 0.824163052409149 L 14.9999975413088 0 " />
  </g>
</svg>