<?xml version="1.0" encoding="UTF-8"?>
<svg viewBox="-14.9999875269306 -52.5000271912913 30 53.5714558696319" xmlns="http://www.w3.org/2000/svg" xmlns:xlink="http://www.w3.org/1999/xlink" xmlns:gmsvgsym="http://www.intergraph.com/GeoMedia/svgsym">
  <!-- Creator: SVG Document for Symbols-->
  <path id="LineString2d_1150" style=" stroke-width: 0.0000010000;stroke: #4E4A96; fill: none; " d="M -12.8571420326373 1.07142850271978 L -12.8571420326373 -1.07142850271978 L -8.5714173074732 -1.0714786455737 L -8.5714173074732 -31.0714767217275 L -14.9999863952206 -31.0714514360148 L -14.9999863952206 -52.5000214904104 L 15.0000116809332 -52.5000214904104 L 15.0000116809332 -31.0714514360148 L 8.57143873604325 -31.0714767217275 L 8.57143873604325 -1.0714786455737 L 12.8571420326373 -1.07142850271978 L 12.8571420326373 1.07142850271978 L -12.8571420326373 1.07142850271978 " xmlns="http://www.w3.org/2000/svg" />
  <g id="ComplexString2d_1151" style=" fill-rule: evenodd; stroke-width: 0.0000000000;stroke: #4E4A96; fill: #4E4A96; " xmlns="http://www.w3.org/2000/svg">
    <path d="M -12.8571420326373 1.07142850271978 L -12.8571420326373 -1.07142850271978 L -8.5714173074732 -1.0714786455737 L -8.5714173074732 -31.0714767217275 L -14.9999863952206 -31.0714514360148 L -14.9999863952206 -52.5000214904104 L 15.0000116809332 -52.5000214904104 L 15.0000116809332 -31.0714514360148 L 8.57143873604325 -31.0714767217275 L 8.57143873604325 -1.0714786455737 L 12.8571420326373 -1.07142850271978 L 12.8571420326373 1.07142850271978 L -12.8571420326373 1.07142850271978 " />
  </g>
  <polyline points="-12.8571518897796,-50.3571949135403 -12.8571518897796,-33.2143388700238" style="  stroke-width: 0.0000010000; stroke-linecap: round;stroke: #ffffff; fill: none; " xmlns="http://www.w3.org/2000/svg" />
  <polyline points="-12.8571518897796,-33.2143388700238 12.8571321754951,-33.2143388700238" style="  stroke-width: 0.0000010000; stroke-linecap: round;stroke: #ffffff; fill: none; " xmlns="http://www.w3.org/2000/svg" />
  <polyline points="12.8571321754951,-33.2143388700238 12.8571321754951,-50.3571949135403" style="  stroke-width: 0.0000010000; stroke-linecap: round;stroke: #ffffff; fill: none; " xmlns="http://www.w3.org/2000/svg" />
  <polyline points="12.8571321754951,-50.3571949135403 -12.8571518897796,-50.3571949135403" style="  stroke-width: 0.0000010000; stroke-linecap: round;stroke: #ffffff; fill: none; " xmlns="http://www.w3.org/2000/svg" />
  <g id="ComplexString2d_1152" style=" fill-rule: evenodd; stroke-width: 0.0000000000;stroke: #ffffff; fill: #ffffff; " xmlns="http://www.w3.org/2000/svg">
    <path d="M -12.8571518897796 -33.2143388700238 L 12.8571321754951 -33.2143388700238 L 12.8571321754951 -50.3571949135403 L -12.8571518897796 -50.3571949135403 L -12.8571518897796 -33.2143388700238 " />
  </g>
</svg>