<?xml version="1.0" encoding="UTF-8"?>
<svg viewBox="-14.9995468534077 -28.1249894134828 30 29.9999895226221" xmlns="http://www.w3.org/2000/svg" xmlns:xlink="http://www.w3.org/1999/xlink" xmlns:gmsvgsym="http://www.intergraph.com/GeoMedia/svgsym">
  <!-- Creator: SVG Document for Symbols-->
  <path id="LineString2d_1255" style=" stroke-width: 0.0000010000;stroke: #000000; fill: none; " d="M -14.9995454144714 -11.2499995608175 L -14.9995454144714 -14.9999991644234 L -1.87457830184749 -14.9999991644234 L -1.87457830184749 -28.1249872770451 L 1.87542130175838 -28.1249872770451 L 1.87542130175838 -14.9999991644234 L 15.0004514143756 -14.9999991644234 L 15.0004514143756 -11.2499995608175 L 1.87542130175838 -11.2499995608175 L 1.87542167675834 -1.87499980180294 L 9.37543663396842 -1.87499980180294 L 9.37543663396842 1.87499980180294 L -9.37456138406094 1.87499980180294 L -9.37456138406094 -1.87499980180294 L -1.87457792684753 -1.87499980180294 L -1.87457830184749 -11.2499995608175 L -14.9995454144714 -11.2499995608175 " xmlns="http://www.w3.org/2000/svg" />
  <g id="ComplexString2d_1256" style=" fill-rule: evenodd; stroke-width: 0.0000000000;stroke: #000000; fill: #000000; " xmlns="http://www.w3.org/2000/svg">
    <path d="M -14.9995454144714 -11.2499995608175 L -14.9995454144714 -14.9999991644234 L -1.87457830184749 -14.9999991644234 L -1.87457830184749 -28.1249872770451 L 1.87542130175838 -28.1249872770451 L 1.87542130175838 -14.9999991644234 L 15.0004514143756 -14.9999991644234 L 15.0004514143756 -11.2499995608175 L 1.87542130175838 -11.2499995608175 L 1.87542167675834 -1.87499980180294 L 9.37543663396842 -1.87499980180294 L 9.37543663396842 1.87499980180294 L -9.37456138406094 1.87499980180294 L -9.37456138406094 -1.87499980180294 L -1.87457792684753 -1.87499980180294 L -1.87457830184749 -11.2499995608175 L -14.9995454144714 -11.2499995608175 " />
  </g>
</svg>