<?xml version="1.0" encoding="UTF-8"?>
<svg viewBox="-14.9999745255912 -14.9999170027326 30 24.7058828846651" xmlns="http://www.w3.org/2000/svg" xmlns:xlink="http://www.w3.org/1999/xlink" xmlns:gmsvgsym="http://www.intergraph.com/GeoMedia/svgsym">
  <!-- Creator: SVG Document for Symbols-->
  <path id="LineString2d_1301" style=" stroke-width: 0.0000010000;stroke: #4dd228; fill: none; " d="M -11.4365738695841 9.70596476432629 L -12.9903963470757 7.50000888741319 L -14.4888829482531 3.88228439985924 L -14.999973304243 3.70588194852164E-06 L -14.4888427129634 -3.88226992927258 L -12.9903268176715 -7.49996494624152 L -10.6065487836934 -10.6065449013409 L -7.49995894624217 -12.990306170615 L -3.88226392927324 -14.4888024776737 L 0 -14.9999161277787 L 3.88226728221405 -14.4888150070841 L 7.49997147565257 -12.990327876495 L 10.6065738425142 -10.6065701366323 L 12.9903645823733 -7.4999866521215 L 14.4888896541347 -3.88228245868298 L 15.0000234218846 3.70588194852164E-06 L 14.4889298894245 3.88229710574021 L 12.9904341117775 7.50003059329318 L 11.4366241636963 9.70596476432629 L 8.00959606709652 6.88370624878739 L 9.36125421370894 5.40472264548164 L 10.8801644597164 2.91533121126432 L 11.8255333565491 3.70588194852164E-06 L 12.0413905682869 -3.22647705966219 L 11.080014555554 -6.39704559601387 L 9.04677960096845 -9.0467758950865 L 6.39703041954494 -11.0799780261462 L 3.31134299157732 -12.3580966513721 L 0 -12.7940340155634 L -3.31133963863651 -12.3580839454912 L -6.39701789013454 -11.0799561437956 L -9.04675454214765 -9.04675083626571 L -11.0799767908522 -6.39702389013388 L -12.3581241807809 -3.31134563863586 L -12.7940911920277 3.70588194852164E-06 L -12.3581644160706 3.31136010922251 L -11.0800464967269 6.39706783130556 L -9.7335682907257 8.30348944678891 L -11.4365738695841 9.70596476432629 " xmlns="http://www.w3.org/2000/svg" />
  <g id="ComplexString2d_1302" style=" fill-rule: evenodd; stroke-width: 0.0000000000;stroke: #4dd228; fill: #4dd228; " xmlns="http://www.w3.org/2000/svg">
    <path d="M -11.4365738695841 9.70596476432629 L -12.9903963470757 7.50000888741319 L -14.4888829482531 3.88228439985924 L -14.999973304243 3.70588194852164E-06 L -14.4888427129634 -3.88226992927258 L -12.9903268176715 -7.49996494624152 L -10.6065487836934 -10.6065449013409 L -7.49995894624217 -12.990306170615 L -3.88226392927324 -14.4888024776737 L 0 -14.9999161277787 L 3.88226728221405 -14.4888150070841 L 7.49997147565257 -12.990327876495 L 10.6065738425142 -10.6065701366323 L 12.9903645823733 -7.4999866521215 L 14.4888896541347 -3.88228245868298 L 15.0000234218846 3.70588194852164E-06 L 14.4889298894245 3.88229710574021 L 12.9904341117775 7.50003059329318 L 11.4366241636963 9.70596476432629 L 8.00959606709652 6.88370624878739 L 9.36125421370894 5.40472264548164 L 10.8801644597164 2.91533121126432 L 11.8255333565491 3.70588194852164E-06 L 12.0413905682869 -3.22647705966219 L 11.080014555554 -6.39704559601387 L 9.04677960096845 -9.0467758950865 L 6.39703041954494 -11.0799780261462 L 3.31134299157732 -12.3580966513721 L 0 -12.7940340155634 L -3.31133963863651 -12.3580839454912 L -6.39701789013454 -11.0799561437956 L -9.04675454214765 -9.04675083626571 L -11.0799767908522 -6.39702389013388 L -12.3581241807809 -3.31134563863586 L -12.7940911920277 3.70588194852164E-06 L -12.3581644160706 3.31136010922251 L -11.0800464967269 6.39706783130556 L -9.7335682907257 8.30348944678891 L -11.4365738695841 9.70596476432629 " />
  </g>
</svg>