<?xml version="1.0" encoding="UTF-8"?>
<svg viewBox="-15.0003043134152 -17.5382261966933 30 32.538083789833" xmlns="http://www.w3.org/2000/svg" xmlns:xlink="http://www.w3.org/1999/xlink" xmlns:gmsvgsym="http://www.intergraph.com/GeoMedia/svgsym">
  <!-- Creator: SVG Document for Symbols-->
  <path id="LineString2d_1215" style=" stroke-width: 0.0000010000;stroke: #ffffff; fill: none; " d="M -10.0656985998775 14.9998559339481 L -15.000303364919 10.0652511689065 L -4.9350521960125 0 L -7.98853876633951 -3.05348657032701 L -13.9561540365462 2.91412869987968 L -13.9561540365462 -9.62883453738747 L -6.04676398168373 -17.5382245922499 L -0.0996392987988647 -11.5911000362598 L -0.0997910649478326 -10.9422342717187 L -3.05348657032701 -7.98853876633951 L 0 -4.9350521960125 L 3.04342356100807 -7.97847588391534 L 0.0796651732047157 -10.9422342717187 L 0.0796651732047157 -11.5890183275025 L 6.02692043081139 -17.5382034008228 L 13.9484493665906 -9.61667446504357 L 13.9484493665906 2.9265499216672 L 7.97802832604961 -3.04387111887379 L 4.93460476504154 -0.000447430970954082 L 14.9996940162172 10.0646418202048 L 10.0646418202048 14.9996940162172 L -0.000447430970954082 4.93460476504154 L -10.0656985998775 14.9998559339481 " xmlns="http://www.w3.org/2000/svg" />
  <g id="ComplexString2d_1216" style=" fill-rule: evenodd; stroke-width: 0.0000000000;stroke: #ffffff; fill: #ffffff; " xmlns="http://www.w3.org/2000/svg">
    <path d="M -10.0656985998775 14.9998559339481 L -15.000303364919 10.0652511689065 L -4.9350521960125 0 L -7.98853876633951 -3.05348657032701 L -13.9561540365462 2.91412869987968 L -13.9561540365462 -9.62883453738747 L -6.04676398168373 -17.5382245922499 L -0.0996392987988647 -11.5911000362598 L -0.0997910649478326 -10.9422342717187 L -3.05348657032701 -7.98853876633951 L 0 -4.9350521960125 L 3.04342356100807 -7.97847588391534 L 0.0796651732047157 -10.9422342717187 L 0.0796651732047157 -11.5890183275025 L 6.02692043081139 -17.5382034008228 L 13.9484493665906 -9.61667446504357 L 13.9484493665906 2.9265499216672 L 7.97802832604961 -3.04387111887379 L 4.93460476504154 -0.000447430970954082 L 14.9996940162172 10.0646418202048 L 10.0646418202048 14.9996940162172 L -0.000447430970954082 4.93460476504154 L -10.0656985998775 14.9998559339481 " />
  </g>
</svg>