<?xml version="1.0" encoding="UTF-8"?>
<svg viewBox="-15 -15 30 29.9998401229677" xmlns="http://www.w3.org/2000/svg" xmlns:xlink="http://www.w3.org/1999/xlink" xmlns:gmsvgsym="http://www.intergraph.com/GeoMedia/svgsym">
  <!-- Creator: SVG Document for Symbols-->
  <path id="LineString2d_1318" style=" stroke-width: 0.0000010000;stroke: #4dd228; fill: none; " d="M -14.9999990935127 -7.99999951654013E-05 L -14.4888667910684 -3.88235943204603 L -12.9903462149611 -7.50005854675281 L -10.6065623590191 -10.6066396923477 L -7.49996688009168 -12.9903992149579 L -3.8822677653849 -14.4888911244003 L -2.33333319232421E-06 -14.9999990935127 L 3.88226309871852 -14.4888924577335 L 7.49996321342524 -12.9904012149577 L 10.6065600256859 -10.6066423590142 L 12.9903452149611 -7.50006054675269 L 14.4888664577351 -3.88236076537928 L 14.9999990935127 -7.99999951654013E-05 L 9.99999939567517 -7.99999951654013E-05 L 9.65923741626826 -2.58826551025134 L 8.66021814330815 -5.0000606978339 L 7.07102623934697 -7.07110857267532 L 4.99996336450645 -8.66027447663808 L 2.58816817692389 -9.6592637496 L -2.33333319232421E-06 -9.99999939567517 L -2.58817251025697 -9.65926241626675 L -4.99996703117289 -8.66027247663819 L -7.07102857268016 -7.07110623934213 L -8.6602194766414 -5.00005869783402 L -9.65923774960157 -2.58826417691809 L -9.99999939567517 -7.99999951654013E-05 L -14.9999990935127 -7.99999951654013E-05 " xmlns="http://www.w3.org/2000/svg" />
  <g id="ComplexString2d_1319" style=" fill-rule: evenodd; stroke-width: 0.0000000000;stroke: #4dd228; fill: #4dd228; " xmlns="http://www.w3.org/2000/svg">
    <path d="M -14.9999990935127 -7.99999951654013E-05 L -14.4888667910684 -3.88235943204603 L -12.9903462149611 -7.50005854675281 L -10.6065623590191 -10.6066396923477 L -7.49996688009168 -12.9903992149579 L -3.8822677653849 -14.4888911244003 L -2.33333319232421E-06 -14.9999990935127 L 3.88226309871852 -14.4888924577335 L 7.49996321342524 -12.9904012149577 L 10.6065600256859 -10.6066423590142 L 12.9903452149611 -7.50006054675269 L 14.4888664577351 -3.88236076537928 L 14.9999990935127 -7.99999951654013E-05 L 9.99999939567517 -7.99999951654013E-05 L 9.65923741626826 -2.58826551025134 L 8.66021814330815 -5.0000606978339 L 7.07102623934697 -7.07110857267532 L 4.99996336450645 -8.66027447663808 L 2.58816817692389 -9.6592637496 L -2.33333319232421E-06 -9.99999939567517 L -2.58817251025697 -9.65926241626675 L -4.99996703117289 -8.66027247663819 L -7.07102857268016 -7.07110623934213 L -8.6602194766414 -5.00005869783402 L -9.65923774960157 -2.58826417691809 L -9.99999939567517 -7.99999951654013E-05 L -14.9999990935127 -7.99999951654013E-05 " />
  </g>
  <path id="LineString2d_1320" style=" stroke-width: 0.0000010000;stroke: #4dd228; fill: none; " d="M -14.9999990935127 -7.99999951654013E-05 L -14.4888667910684 3.8821994320557 L -12.9903462149611 7.49989854676248 L -10.6065623590191 10.6064800256907 L -7.49996688009168 12.9902392149675 L -3.8822677653849 14.4887314577433 L -2.33333319232421E-06 14.9998390935224 L 3.88226309871852 14.4887324577432 L 7.49996321342524 12.9902415483007 L 10.6065600256859 10.6064823590239 L 12.9903452149611 7.49990054676236 L 14.4888664577351 3.88220076538895 L 14.9999990935127 -7.99999951654013E-05 L 9.99999939567517 -7.99999951654013E-05 L 9.65923741626826 2.58810551026101 L 8.66021814330815 4.99990069784357 L 7.07102623934697 7.07094857268499 L 4.99996336450645 8.66011447664775 L 2.58816817692389 9.65910374960967 L -2.33333319232421E-06 9.99983939568484 L -2.58817251025697 9.65910241627642 L -4.99996703117289 8.66011247664786 L -7.07102857268016 7.0709462393518 L -8.6602194766414 4.99989869784369 L -9.65923774960157 2.58810451026107 L -9.99999939567517 -7.99999951654013E-05 L -14.9999990935127 -7.99999951654013E-05 " xmlns="http://www.w3.org/2000/svg" />
  <g id="ComplexString2d_1321" style=" fill-rule: evenodd; stroke-width: 0.0000000000;stroke: #4dd228; fill: #4dd228; " xmlns="http://www.w3.org/2000/svg">
    <path d="M -14.9999990935127 -7.99999951654013E-05 L -14.4888667910684 3.8821994320557 L -12.9903462149611 7.49989854676248 L -10.6065623590191 10.6064800256907 L -7.49996688009168 12.9902392149675 L -3.8822677653849 14.4887314577433 L -2.33333319232421E-06 14.9998390935224 L 3.88226309871852 14.4887324577432 L 7.49996321342524 12.9902415483007 L 10.6065600256859 10.6064823590239 L 12.9903452149611 7.49990054676236 L 14.4888664577351 3.88220076538895 L 14.9999990935127 -7.99999951654013E-05 L 9.99999939567517 -7.99999951654013E-05 L 9.65923741626826 2.58810551026101 L 8.66021814330815 4.99990069784357 L 7.07102623934697 7.07094857268499 L 4.99996336450645 8.66011447664775 L 2.58816817692389 9.65910374960967 L -2.33333319232421E-06 9.99983939568484 L -2.58817251025697 9.65910241627642 L -4.99996703117289 8.66011247664786 L -7.07102857268016 7.0709462393518 L -8.6602194766414 4.99989869784369 L -9.65923774960157 2.58810451026107 L -9.99999939567517 -7.99999951654013E-05 L -14.9999990935127 -7.99999951654013E-05 " />
  </g>
</svg>