<?xml version="1.0" encoding="UTF-8"?>
<svg viewBox="-15.0000019268737 -15.0000009634369 30 30" xmlns="http://www.w3.org/2000/svg" xmlns:xlink="http://www.w3.org/1999/xlink" xmlns:gmsvgsym="http://www.intergraph.com/GeoMedia/svgsym">
  <!-- Creator: SVG Document for Symbols-->
  <path id="LineString2d_1384" style=" stroke-width: 0.0000010000;stroke: #ffffff; fill: none; " d="M 7.55172193002609E-06 14.9999978902968 L -2.58619858869797 14.9999978902968 L -2.58619858869797 6.24363945040259 L -8.83747541617795 12.4949162778826 L -12.494923208915 8.83746838169725 L -6.2436628297061 2.58620810593656 L -15.0000007868477 2.58620810593656 L -15.0000007868477 -2.58620417490323 L -6.24365362281224 -2.58620417490323 L -12.4949154502966 -8.8374660023876 L -8.83746765755953 -12.4949137951247 L -2.58621400248656 -6.24366014005171 L -2.58621400248656 -15.0000001661582 L 2.58619827835323 -15.0000001661582 L 2.58619827835323 -6.24363541592101 L 8.8374766575569 -12.4949137951247 L 12.494924450294 -8.8374660023876 L 6.24366262280961 -2.58620417490323 L 14.9999972696073 -2.58620417490323 L 14.9999972696073 2.58620810593656 L 6.24366407108505 2.58620810593656 L 12.494924450294 8.83746838169725 L 8.8374766575569 12.4949162778826 L 2.58621369214183 6.2436533124675 L 2.58621369214183 14.9999978902968 L 7.55172193002609E-06 14.9999978902968 " xmlns="http://www.w3.org/2000/svg" />
  <g id="ComplexString2d_1385" style=" fill-rule: evenodd; stroke-width: 0.0000000000;stroke: #ffffff; fill: #ffffff; " xmlns="http://www.w3.org/2000/svg">
    <path d="M 7.55172193002609E-06 14.9999978902968 L -2.58619858869797 14.9999978902968 L -2.58619858869797 6.24363945040259 L -8.83747541617795 12.4949162778826 L -12.494923208915 8.83746838169725 L -6.2436628297061 2.58620810593656 L -15.0000007868477 2.58620810593656 L -15.0000007868477 -2.58620417490323 L -6.24365362281224 -2.58620417490323 L -12.4949154502966 -8.8374660023876 L -8.83746765755953 -12.4949137951247 L -2.58621400248656 -6.24366014005171 L -2.58621400248656 -15.0000001661582 L 2.58619827835323 -15.0000001661582 L 2.58619827835323 -6.24363541592101 L 8.8374766575569 -12.4949137951247 L 12.494924450294 -8.8374660023876 L 6.24366262280961 -2.58620417490323 L 14.9999972696073 -2.58620417490323 L 14.9999972696073 2.58620810593656 L 6.24366407108505 2.58620810593656 L 12.494924450294 8.83746838169725 L 8.8374766575569 12.4949162778826 L 2.58621369214183 6.2436533124675 L 2.58621369214183 14.9999978902968 L 7.55172193002609E-06 14.9999978902968 " />
  </g>
</svg>