<?xml version="1.0" encoding="UTF-8"?>
<svg viewBox="-15 -15 30 30" xmlns="http://www.w3.org/2000/svg" xmlns:xlink="http://www.w3.org/1999/xlink" xmlns:gmsvgsym="http://www.intergraph.com/GeoMedia/svgsym">
  <!-- Creator: SVG Document for Symbols-->
  <polyline points="14.9999986159115,0 14.9773400795407,-0.824163154721574 14.9066377014492,-1.67096176889298 14.7838834820068,-2.53707530435907 14.6052618831041,-3.4185209153335 14.367265212757,-4.31064352532274 14.0668189327876,-5.20812459635601 13.7014122741969,-6.10501951359721 13.2692295448448,-6.99481989303149 12.7692765909767,-7.87054842761038 12.2014913356754,-8.72488188724037 11.5668337788523,-9.55030458030726 10.867345997242,-10.3392818921217 10.1061766059386,-11.0844552849011 9.28756391224333,-11.7788419131359 8.41677430028564,-12.4160328543407 7.49999930795575,-12.9903798013442 6.54421254999481,-13.4971566007364 5.55699433339567,-13.9326870990105 4.54633158049828,-14.2944335271697 3.52040782900906,-14.5810387314931 2.48738953971293,-14.7923240966126 1.45522371187661,-14.9292424685942 0.431456498649936,-14.9937920780227 -0.576923023688904,-14.9888997707818 -1.56360400956839,-14.9182807003749 -2.52304130565402,-14.7862848664006 -3.45050575853602,-14.5977383453368 -4.34210475318897,-14.3577882136314 -5.19476998220366,-14.0717562400244 -6.00622352271337,-13.7450078086358 -6.77492383639879,-13.3828383805157 -7.49999930795575,-12.9903798013442 -8.20241624314193,-12.5586754565633 -8.90041417873586,-12.0740460397428 -9.58911326903398,-11.5346809356653 -10.2631568991459,-10.9392672982979 -10.916759454221,-10.2870950507832 -11.5437776271336,-9.57816027004464 -12.1378080338594,-8.81326118677769 -12.6923065211559,-7.99407987775028 -13.2007330896267,-7.12324388118148 -13.656715047552,-6.20436058135383 -14.054223087796,-5.24201951630536 -14.3877538262511,-4.24175660860219 -14.6525081864369,-3.20997801149937 -14.844558245639,-2.15384541664375 -14.9609868502804,-1.08112397716498 -14.9999986159115,0 -14.9609868502804,1.08112397716498 -14.844558245639,2.15384541664375 -14.6525081864369,3.20997801149937 -14.3877538262511,4.24175660860219 -14.054223087796,5.24201951630536 -13.656715047552,6.20436058135383 -13.2007330896267,7.12324388118148 -12.6923065211559,7.99407987775028 -12.1378080338594,8.81326118677769 -11.5437776271336,9.57816027004464 -10.916759454221,10.2870950507832 -10.2631568991459,10.9392672982979 -9.58911326903398,11.5346809356653 -8.90041417873586,12.0740460397428 -8.20241624314193,12.5586754565633 -7.49999930795575,12.9903798013442 -6.77492383639879,13.3828383805157 -6.00622352271337,13.7450078086358 -5.19476998220366,14.0717562400244 -4.34210475318897,14.3577882136314 -3.45050575853602,14.5977383453368 -2.52304130565402,14.7862848664006 -1.56360400956839,14.9182807003749 -0.576923023688904,14.9888997707818 0.431456498649936,14.9937920780227 1.45522371187661,14.9292424685942 2.48738953971293,14.7923240966126 3.52040782900906,14.5810387314931 4.54633158049828,14.2944335271697 5.55699433339567,13.9326870990105 6.54421254999481,13.4971566007364 7.49999930795575,12.9903798013442 8.41677430028564,12.4160328543407 9.28756391224333,11.7788419131359 10.1061766059386,11.0844552849011 10.867345997242,10.3392818921217 11.5668337788523,9.55030458030726 12.2014913356754,8.72488188724037 12.7692765909767,7.87054842761038 13.2692295448448,6.99481989303149 13.7014122741969,6.10501951359721 14.0668189327876,5.20812459635601 14.367265212757,4.31064352532274 14.6052618831041,3.4185209153335 14.7838834820068,2.53707530435907 14.9066377014492,1.67096176889298 14.9773400795407,0.824163154721574 14.9999986159115,0" style=" stroke-width: 0.0000010000;stroke: #ffffff; fill: none; " xmlns="http://www.w3.org/2000/svg" />
  <g id="ComplexString2d_1353" style=" fill-rule: evenodd; stroke-width: 0.0000000000;stroke: #ffffff; fill: #ffffff; " xmlns="http://www.w3.org/2000/svg">
    <path d="M 14.9999986159115 0 L 14.9773400795407 -0.824163154721574 L 14.9066377014492 -1.67096176889298 L 14.7838834820068 -2.53707530435907 L 14.6052618831041 -3.4185209153335 L 14.367265212757 -4.31064352532274 L 14.0668189327876 -5.20812459635601 L 13.7014122741969 -6.10501951359721 L 13.2692295448448 -6.99481989303149 L 12.7692765909767 -7.87054842761038 L 12.2014913356754 -8.72488188724037 L 11.5668337788523 -9.55030458030726 L 10.867345997242 -10.3392818921217 L 10.1061766059386 -11.0844552849011 L 9.28756391224333 -11.7788419131359 L 8.41677430028564 -12.4160328543407 L 7.49999930795575 -12.9903798013442 L 6.54421254999481 -13.4971566007364 L 5.55699433339567 -13.9326870990105 L 4.54633158049828 -14.2944335271697 L 3.52040782900906 -14.5810387314931 L 2.48738953971293 -14.7923240966126 L 1.45522371187661 -14.9292424685942 L 0.431456498649936 -14.9937920780227 L -0.576923023688904 -14.9888997707818 L -1.56360400956839 -14.9182807003749 L -2.52304130565402 -14.7862848664006 L -3.45050575853602 -14.5977383453368 L -4.34210475318897 -14.3577882136314 L -5.19476998220366 -14.0717562400244 L -6.00622352271337 -13.7450078086358 L -6.77492383639879 -13.3828383805157 L -7.49999930795575 -12.9903798013442 L -8.20241624314193 -12.5586754565633 L -8.90041417873586 -12.0740460397428 L -9.58911326903398 -11.5346809356653 L -10.2631568991459 -10.9392672982979 L -10.916759454221 -10.2870950507832 L -11.5437776271336 -9.57816027004464 L -12.1378080338594 -8.81326118677769 L -12.6923065211559 -7.99407987775028 L -13.2007330896267 -7.12324388118148 L -13.656715047552 -6.20436058135383 L -14.054223087796 -5.24201951630536 L -14.3877538262511 -4.24175660860219 L -14.6525081864369 -3.20997801149937 L -14.844558245639 -2.15384541664375 L -14.9609868502804 -1.08112397716498 L -14.9999986159115 0 L -14.9609868502804 1.08112397716498 L -14.844558245639 2.15384541664375 L -14.6525081864369 3.20997801149937 L -14.3877538262511 4.24175660860219 L -14.054223087796 5.24201951630536 L -13.656715047552 6.20436058135383 L -13.2007330896267 7.12324388118148 L -12.6923065211559 7.99407987775028 L -12.1378080338594 8.81326118677769 L -11.5437776271336 9.57816027004464 L -10.916759454221 10.2870950507832 L -10.2631568991459 10.9392672982979 L -9.58911326903398 11.5346809356653 L -8.90041417873586 12.0740460397428 L -8.20241624314193 12.5586754565633 L -7.49999930795575 12.9903798013442 L -6.77492383639879 13.3828383805157 L -6.00622352271337 13.7450078086358 L -5.19476998220366 14.0717562400244 L -4.34210475318897 14.3577882136314 L -3.45050575853602 14.5977383453368 L -2.52304130565402 14.7862848664006 L -1.56360400956839 14.9182807003749 L -0.576923023688904 14.9888997707818 L 0.431456498649936 14.9937920780227 L 1.45522371187661 14.9292424685942 L 2.48738953971293 14.7923240966126 L 3.52040782900906 14.5810387314931 L 4.54633158049828 14.2944335271697 L 5.55699433339567 13.9326870990105 L 6.54421254999481 13.4971566007364 L 7.49999930795575 12.9903798013442 L 8.41677430028564 12.4160328543407 L 9.28756391224333 11.7788419131359 L 10.1061766059386 11.0844552849011 L 10.867345997242 10.3392818921217 L 11.5668337788523 9.55030458030726 L 12.2014913356754 8.72488188724037 L 12.7692765909767 7.87054842761038 L 13.2692295448448 6.99481989303149 L 13.7014122741969 6.10501951359721 L 14.0668189327876 5.20812459635601 L 14.367265212757 4.31064352532274 L 14.6052618831041 3.4185209153335 L 14.7838834820068 2.53707530435907 L 14.9066377014492 1.67096176889298 L 14.9773400795407 0.824163154721574 L 14.9999986159115 0 " />
  </g>
</svg>