<?xml version="1.0" encoding="UTF-8"?>
<svg viewBox="-15.0000184147897 -33.0681922522672 30 34.0909197486851" xmlns="http://www.w3.org/2000/svg" xmlns:xlink="http://www.w3.org/1999/xlink" xmlns:gmsvgsym="http://www.intergraph.com/GeoMedia/svgsym">
  <!-- Creator: SVG Document for Symbols-->
  <path id="LineString2d_1177" style=" stroke-width: 0.0000010000;stroke: #000000; fill: none; " d="M 9.88636494548778 1.02272740815391 L -1.02272740815391 1.02272740815391 L -1.02272740815391 -30.6818167900711 L -12.2727437614852 -30.6818167900711 L -12.2727437614852 -30.3409161085663 L -15.0000168498956 -31.7045526527715 L -12.2727437614852 -33.0681891969768 L -12.2727437614852 -32.7272716063789 L 13.8981299312597 -32.7272716063789 L 14.4886111458131 -33.0681861969764 L 14.999980031709 -32.1824812160575 L 14.1522273739974 -31.6930310148822 L 14.9900020303877 -31.209341496288 L 14.488616327632 -30.3409161085663 L 13.8981589767181 -30.6818167900711 L 1.02272740815391 -30.6818167900711 L 1.02272740815391 -1.02272740815391 L 9.88636494548778 -1.02272740815391 L 9.88636494548778 1.02272740815391 " xmlns="http://www.w3.org/2000/svg" />
  <g id="ComplexString2d_1178" style=" fill-rule: evenodd; stroke-width: 0.0000000000;stroke: #000000; fill: #000000; " xmlns="http://www.w3.org/2000/svg">
    <path d="M 9.88636494548778 1.02272740815391 L -1.02272740815391 1.02272740815391 L -1.02272740815391 -30.6818167900711 L -12.2727437614852 -30.6818167900711 L -12.2727437614852 -30.3409161085663 L -15.0000168498956 -31.7045526527715 L -12.2727437614852 -33.0681891969768 L -12.2727437614852 -32.7272716063789 L 13.8981299312597 -32.7272716063789 L 14.4886111458131 -33.0681861969764 L 14.999980031709 -32.1824812160575 L 14.1522273739974 -31.6930310148822 L 14.9900020303877 -31.209341496288 L 14.488616327632 -30.3409161085663 L 13.8981589767181 -30.6818167900711 L 1.02272740815391 -30.6818167900711 L 1.02272740815391 -1.02272740815391 L 9.88636494548778 -1.02272740815391 L 9.88636494548778 1.02272740815391 " />
  </g>
</svg>