<?xml version="1.0" encoding="UTF-8"?>
<svg viewBox="-15.0000183354113 -14.9999991268852 30 30" xmlns="http://www.w3.org/2000/svg" xmlns:xlink="http://www.w3.org/1999/xlink" xmlns:gmsvgsym="http://www.intergraph.com/GeoMedia/svgsym">
  <!-- Creator: SVG Document for Symbols-->
  <polyline points="14.9999807894253,1.12499988108176E-06 14.9773221668205,-0.824162162881846 14.9066196742941,-1.6709608233709 14.7838653122699,-2.53707423181828 14.6052438311511,-3.41851988864497 14.3672474813085,-4.31064254434305 14.0668012630672,-5.20812357447471 13.7013941766926,-6.10501847966834 13.2692115973765,-6.9948187606119 12.7692586502241,-7.87054716804293 12.2014734602419,-8.72488070273551 11.5668160273284,-9.55030324048412 10.8673282262679,-10.3392806570852 10.1061589317273,-11.0844543283165 9.28754601825891,-11.7788406299163 8.41675636030583,-12.416031562562 7.49998158221361,-12.9903785018506 6.54419480824515,-13.4971553232817 5.55697666259916,-13.9326859022439 4.54631389443138,-14.2944322390054 3.52039012787677,-14.5810372087098 2.48737173707209,-14.7923226863759 1.45520609617728,-14.9292411719029 0.431438954394697,-14.9937910400796 -0.576940814014407,-14.9888984155968 -1.5636215847172,-14.9182795480616 -2.52305898329977,-14.7862836870142 -3.45052351026203,-14.5977370819446 -4.34212266601544,-14.3577869823085 -5.19478782588437,-14.0717550125436 -6.0062412401096,-13.7450066720825 -6.77494128385407,-13.3828373353657 -7.50001683220988,-12.9903785018506 -8.20243375796082,-12.558674047484 -8.90043168417887,-12.0740447237117 -9.58913073637986,-11.5346796557254 -10.26317441513,-10.9392659686637 -10.9167768460409,-10.2870937876016 -11.5437951547618,-9.57815898753963 -12.1378254669698,-8.81325994339337 -12.6923240333565,-7.99407890498499 -13.2007508546131,-7.12324274703683 -13.6567328064135,-6.2043593441675 -14.0542406393949,-5.24201832089186 -14.387771229139,-4.24175542662477 -14.6525257011531,-3.20997678568904 -14.8445755558525,-2.15384414732766 -14.9610044185453,-1.08112301071977 -15.0000160394216,1.12499988108176E-06 -14.9610044185453,1.08112488571957 -14.8445755558525,2.15384639732742 -14.6525257011531,3.20997903568881 -14.387771229139,4.24175767662453 -14.0542406393949,5.24202057089163 -13.6567328064135,6.20436159416726 -13.2007508546131,7.12324462203663 -12.6923240333565,7.99408077998479 -12.1378254669698,8.81326219339313 -11.5437951547618,9.57816123753939 -10.9167768460409,10.2870960376014 -10.26317441513,10.9392682186634 -9.58913073637986,11.5346819057252 -8.90043168417887,12.0740469737115 -8.20243375796082,12.5586762974837 -7.50001683220988,12.9903807518503 -6.77494128385407,13.3828392103655 -6.0062412401096,13.7450085470823 -5.19478782588437,14.0717568875434 -4.34212266601544,14.3577892323083 -3.45052351026203,14.5977393319443 -2.52305898329977,14.786285937014 -1.5636215847172,14.9182817980613 -0.576940814014407,14.9889006655966 0.431438954394697,14.9937929150794 1.45520609617728,14.9292434219026 2.48737173707209,14.7923249363756 3.52039012787677,14.5810394587096 4.54631389443138,14.2944344890052 5.55697666259916,13.9326881522436 6.54419480824515,13.4971575732814 7.49998158221361,12.9903807518503 8.41675636030583,12.4160338125618 9.28754601825891,11.7788428799161 10.1061589317273,11.0844562033163 10.8673282262679,10.3392829070849 11.5668160273284,9.55030549048389 12.2014734602419,8.72488295273527 12.7692586502241,7.87054941804269 13.2692115973765,6.99482101061166 13.7013941766926,6.10502035466814 14.0668012630672,5.20812544947451 14.3672474813085,4.31064441934285 14.6052438311511,3.41852213864473 14.7838653122699,2.53707610681809 14.9066196742941,1.6709626983707 14.9773221668205,0.824164037881648 14.9999807894253,1.12499988108176E-06" style=" stroke-width: 0.0000010000;stroke: #3338ff; fill: none; " xmlns="http://www.w3.org/2000/svg" />
  <polygon points="14.9999807894253,1.12499988108176E-06 14.9773221668205,-0.824162162881846 14.9066196742941,-1.6709608233709 14.7838653122699,-2.53707423181828 14.6052438311511,-3.41851988864497 14.3672474813085,-4.31064254434305 14.0668012630672,-5.20812357447471 13.7013941766926,-6.10501847966834 13.2692115973765,-6.9948187606119 12.7692586502241,-7.87054716804293 12.2014734602419,-8.72488070273551 11.5668160273284,-9.55030324048412 10.8673282262679,-10.3392806570852 10.1061589317273,-11.0844543283165 9.28754601825891,-11.7788406299163 8.41675636030583,-12.416031562562 7.49998158221361,-12.9903785018506 6.54419480824515,-13.4971553232817 5.55697666259916,-13.9326859022439 4.54631389443138,-14.2944322390054 3.52039012787677,-14.5810372087098 2.48737173707209,-14.7923226863759 1.45520609617728,-14.9292411719029 0.431438954394697,-14.9937910400796 -0.576940814014407,-14.9888984155968 -1.5636215847172,-14.9182795480616 -2.52305898329977,-14.7862836870142 -3.45052351026203,-14.5977370819446 -4.34212266601544,-14.3577869823085 -5.19478782588437,-14.0717550125436 -6.0062412401096,-13.7450066720825 -6.77494128385407,-13.3828373353657 -7.50001683220988,-12.9903785018506 -8.20243375796082,-12.558674047484 -8.90043168417887,-12.0740447237117 -9.58913073637986,-11.5346796557254 -10.26317441513,-10.9392659686637 -10.9167768460409,-10.2870937876016 -11.5437951547618,-9.57815898753963 -12.1378254669698,-8.81325994339337 -12.6923240333565,-7.99407890498499 -13.2007508546131,-7.12324274703683 -13.6567328064135,-6.2043593441675 -14.0542406393949,-5.24201832089186 -14.387771229139,-4.24175542662477 -14.6525257011531,-3.20997678568904 -14.8445755558525,-2.15384414732766 -14.9610044185453,-1.08112301071977 -15.0000160394216,1.12499988108176E-06 -14.9610044185453,1.08112488571957 -14.8445755558525,2.15384639732742 -14.6525257011531,3.20997903568881 -14.387771229139,4.24175767662453 -14.0542406393949,5.24202057089163 -13.6567328064135,6.20436159416726 -13.2007508546131,7.12324462203663 -12.6923240333565,7.99408077998479 -12.1378254669698,8.81326219339313 -11.5437951547618,9.57816123753939 -10.9167768460409,10.2870960376014 -10.26317441513,10.9392682186634 -9.58913073637986,11.5346819057252 -8.90043168417887,12.0740469737115 -8.20243375796082,12.5586762974837 -7.50001683220988,12.9903807518503 -6.77494128385407,13.3828392103655 -6.0062412401096,13.7450085470823 -5.19478782588437,14.0717568875434 -4.34212266601544,14.3577892323083 -3.45052351026203,14.5977393319443 -2.52305898329977,14.786285937014 -1.5636215847172,14.9182817980613 -0.576940814014407,14.9889006655966 0.431438954394697,14.9937929150794 1.45520609617728,14.9292434219026 2.48737173707209,14.7923249363756 3.52039012787677,14.5810394587096 4.54631389443138,14.2944344890052 5.55697666259916,13.9326881522436 6.54419480824515,13.4971575732814 7.49998158221361,12.9903807518503 8.41675636030583,12.4160338125618 9.28754601825891,11.7788428799161 10.1061589317273,11.0844562033163 10.8673282262679,10.3392829070849 11.5668160273284,9.55030549048389 12.2014734602419,8.72488295273527 12.7692586502241,7.87054941804269 13.2692115973765,6.99482101061166 13.7013941766926,6.10502035466814 14.0668012630672,5.20812544947451 14.3672474813085,4.31064441934285 14.6052438311511,3.41852213864473 14.7838653122699,2.53707610681809 14.9066196742941,1.6709626983707 14.9773221668205,0.824164037881648 14.9999807894253,1.12499988108176E-06" style=" fill-rule: evenodd; fill: #3338ff; " xmlns="http://www.w3.org/2000/svg" />
  <polyline points="7.49999920721174,0 7.4533188371461,-0.83548078668541 7.3026307280746,-1.70926031932245 7.03340925653268,-2.6040623497373 6.6346147986873,-3.49740975530591 6.38463832511109,-3.93527395902143 6.10074573011999,-4.36244091386769 5.78341663866329,-4.77515199524202 5.43367292563299,-5.16964107854251 5.05308809086276,-5.54222753915822 4.6437820091285,-5.8894208774581 4.20838718015196,-6.20801634378094 3.74999960360587,-6.49518981342523 3.27210640412163,-6.74857841164076 2.77849695629867,-6.96634351362188 2.27316575971476,-7.14721649450268 1.76020406393743,-7.29051935435483 1.24369486853509,-7.39616209318786 0.727612048087687,-7.46462133595136 0.215728102196437,-7.49689608253976 -0.288461594508135,-7.49444995779833 -1.26152049165083,-7.39314221850707 -2.17105252050865,-7.17889386615422 -3.00311180755573,-6.8725038985412 -3.74999960360587,-6.49518981342523 -4.45020702959037,-6.03702273685583 -5.13157858256591,-5.46963354683177 -5.77188876488185,-4.78908024376974 -6.34615320417916,-3.99703982749246 -6.60036642730753,-3.56162174851837 -6.82835740320771,-3.10218004708371 -7.02711150719839,-2.62100972294587 -7.19387661457047,-2.12087827581232 -7.32625422557747,-1.60498895534446 -7.42227896542717,-1.07692263616377 -7.48049320927363,-0.540562067859826 -7.49999920721174,0 -7.48049320927363,0.540562067859826 -7.42227896542717,1.07692263616377 -7.32625422557747,1.60498895534446 -7.19387661457047,2.12087827581232 -7.02711150719839,2.62100972294587 -6.82835740320771,3.10218004708371 -6.60036642730753,3.56162174851837 -6.34615320417916,3.99703982749246 -5.77188876488185,4.78908024376974 -5.13157858256591,5.46963354683177 -4.45020702959037,6.03702273685583 -3.74999960360587,6.49518981342523 -3.00311180755573,6.8725038985412 -2.17105252050865,7.17889386615422 -1.26152049165083,7.39314221850707 -0.288461594508135,7.49444995779833 0.215728102196437,7.49689608253976 0.727612048087687,7.46462133595136 1.24369486853509,7.39616209318786 1.76020406393743,7.29051935435483 2.27316575971476,7.14721649450268 2.77849695629867,6.96634351362188 3.27210640412163,6.74857841164076 3.74999960360587,6.49518981342523 4.20838718015196,6.20801634378094 4.6437820091285,5.8894208774581 5.05308809086276,5.54222753915822 5.43367292563299,5.16964107854251 5.78341663866329,4.77515199524202 6.10074573011999,4.36244091386769 6.38463832511109,3.93527395902143 6.6346147986873,3.49740975530591 7.03340925653268,2.6040623497373 7.3026307280746,1.70926031932245 7.4533188371461,0.83548078668541 7.49999920721174,0" style=" stroke-width: 0.0000010000;stroke: #ffffff; fill: none; " xmlns="http://www.w3.org/2000/svg" />
  <polygon points="7.49999920721174,0 7.4533188371461,-0.83548078668541 7.3026307280746,-1.70926031932245 7.03340925653268,-2.6040623497373 6.6346147986873,-3.49740975530591 6.38463832511109,-3.93527395902143 6.10074573011999,-4.36244091386769 5.78341663866329,-4.77515199524202 5.43367292563299,-5.16964107854251 5.05308809086276,-5.54222753915822 4.6437820091285,-5.8894208774581 4.20838718015196,-6.20801634378094 3.74999960360587,-6.49518981342523 3.27210640412163,-6.74857841164076 2.77849695629867,-6.96634351362188 2.27316575971476,-7.14721649450268 1.76020406393743,-7.29051935435483 1.24369486853509,-7.39616209318786 0.727612048087687,-7.46462133595136 0.215728102196437,-7.49689608253976 -0.288461594508135,-7.49444995779833 -1.26152049165083,-7.39314221850707 -2.17105252050865,-7.17889386615422 -3.00311180755573,-6.8725038985412 -3.74999960360587,-6.49518981342523 -4.45020702959037,-6.03702273685583 -5.13157858256591,-5.46963354683177 -5.77188876488185,-4.78908024376974 -6.34615320417916,-3.99703982749246 -6.60036642730753,-3.56162174851837 -6.82835740320771,-3.10218004708371 -7.02711150719839,-2.62100972294587 -7.19387661457047,-2.12087827581232 -7.32625422557747,-1.60498895534446 -7.42227896542717,-1.07692263616377 -7.48049320927363,-0.540562067859826 -7.49999920721174,0 -7.48049320927363,0.540562067859826 -7.42227896542717,1.07692263616377 -7.32625422557747,1.60498895534446 -7.19387661457047,2.12087827581232 -7.02711150719839,2.62100972294587 -6.82835740320771,3.10218004708371 -6.60036642730753,3.56162174851837 -6.34615320417916,3.99703982749246 -5.77188876488185,4.78908024376974 -5.13157858256591,5.46963354683177 -4.45020702959037,6.03702273685583 -3.74999960360587,6.49518981342523 -3.00311180755573,6.8725038985412 -2.17105252050865,7.17889386615422 -1.26152049165083,7.39314221850707 -0.288461594508135,7.49444995779833 0.215728102196437,7.49689608253976 0.727612048087687,7.46462133595136 1.24369486853509,7.39616209318786 1.76020406393743,7.29051935435483 2.27316575971476,7.14721649450268 2.77849695629867,6.96634351362188 3.27210640412163,6.74857841164076 3.74999960360587,6.49518981342523 4.20838718015196,6.20801634378094 4.6437820091285,5.8894208774581 5.05308809086276,5.54222753915822 5.43367292563299,5.16964107854251 5.78341663866329,4.77515199524202 6.10074573011999,4.36244091386769 6.38463832511109,3.93527395902143 6.6346147986873,3.49740975530591 7.03340925653268,2.6040623497373 7.3026307280746,1.70926031932245 7.4533188371461,0.83548078668541 7.49999920721174,0" style=" fill-rule: evenodd; fill: #ffffff; " xmlns="http://www.w3.org/2000/svg" />
</svg>