<?xml version="1.0" encoding="UTF-8"?>
<svg viewBox="-15 -15 30 30" xmlns="http://www.w3.org/2000/svg" xmlns:xlink="http://www.w3.org/1999/xlink" xmlns:gmsvgsym="http://www.intergraph.com/GeoMedia/svgsym">
  <!-- Creator: SVG Document for Symbols-->
  <polyline points="14.9999990935127,0 14.9066380991548,-1.67096173235296 14.6052622840343,-3.4185211267436 14.0668194832404,-5.20812485192673 13.2692300314408,-6.99482007728563 12.2014917626335,-8.724882306067 11.5668341343208,-9.55030475618467 10.8673463432592,-10.3392822085048 10.1061770559253,-11.0844558301388 9.28756427206273,-11.7788422881753 8.41677449135338,-12.4160330830016 7.49999954675637,-12.990380214959 6.54421293785027,-13.4971571843332 5.55699449751034,-13.932687658013 4.54633172525387,-14.2944339694851 3.52040795391966,-14.5810391188315 2.48738951634753,-14.792324606063 1.45522374539054,-14.9292429311221 0.431456473926012,-14.9937925938878 -0.57692296513511,-14.9889002608501 -2.52304134752634,-14.7862854397613 -4.34210507092912,-14.3577887989898 -6.00622363702897,-13.745008169355 -7.49999954675637,-12.990380214959 -8.90041446212582,-12.074046437002 -10.2631572131052,-10.9392676722462 -11.5437781357141,-9.5781605878346 -12.692306899639,-7.99408018356452 -13.6567156746907,-6.20436079172171 -14.0542236506683,-5.24201984987837 -14.3877542971789,-4.24175674366009 -14.6525087811791,-3.20997813934637 -14.8445587695731,-2.15384536983777 -14.9609874292037,-1.08112393466499 -14.9999990935127,0 -14.9609874292037,1.08112393466499 -14.8445587695731,2.15384536983777 -14.6525087811791,3.20997813934637 -14.3877542971789,4.24175674366009 -14.0542236506683,5.24201984987837 -13.6567156746907,6.20436079172171 -13.2007335355802,7.12324406952464 -12.692306899639,7.99408018356452 -11.5437781357141,9.5781605878346 -10.2631572131052,10.9392676722462 -8.90041446212582,12.074046437002 -7.49999954675637,12.990380214959 -6.00622363702897,13.745008169355 -4.34210507092912,14.3577887989898 -2.52304134752634,14.7862854397613 -0.57692296513511,14.9889002608501 1.45522374539054,14.9292429311221 2.48738951634753,14.792324606063 3.52040795391966,14.5810391188315 4.54633172525387,14.2944339694851 5.55699449751034,13.932687658013 6.54421293785027,13.4971571843332 7.49999954675637,12.990380214959 8.41677449135338,12.4160330830016 9.28756427206273,11.7788422881753 10.1061770559253,11.0844558301388 10.8673463432592,10.3392822085048 11.5668341343208,9.55030475618467 12.2014917626335,8.724882306067 12.7692770616542,7.87054869102983 13.2692300314408,6.99482007728563 14.0668194832404,5.20812485192673 14.6052622840343,3.4185211267436 14.9066380991548,1.67096173235296 14.9999990935127,0" style=" stroke-width: 0.0000010000;stroke: #000000; fill: none; " xmlns="http://www.w3.org/2000/svg" />
  <polygon points="14.9999990935127,0 14.9066380991548,-1.67096173235296 14.6052622840343,-3.4185211267436 14.0668194832404,-5.20812485192673 13.2692300314408,-6.99482007728563 12.2014917626335,-8.724882306067 11.5668341343208,-9.55030475618467 10.8673463432592,-10.3392822085048 10.1061770559253,-11.0844558301388 9.28756427206273,-11.7788422881753 8.41677449135338,-12.4160330830016 7.49999954675637,-12.990380214959 6.54421293785027,-13.4971571843332 5.55699449751034,-13.932687658013 4.54633172525387,-14.2944339694851 3.52040795391966,-14.5810391188315 2.48738951634753,-14.792324606063 1.45522374539054,-14.9292429311221 0.431456473926012,-14.9937925938878 -0.57692296513511,-14.9889002608501 -2.52304134752634,-14.7862854397613 -4.34210507092912,-14.3577887989898 -6.00622363702897,-13.745008169355 -7.49999954675637,-12.990380214959 -8.90041446212582,-12.074046437002 -10.2631572131052,-10.9392676722462 -11.5437781357141,-9.5781605878346 -12.692306899639,-7.99408018356452 -13.6567156746907,-6.20436079172171 -14.0542236506683,-5.24201984987837 -14.3877542971789,-4.24175674366009 -14.6525087811791,-3.20997813934637 -14.8445587695731,-2.15384536983777 -14.9609874292037,-1.08112393466499 -14.9999990935127,0 -14.9609874292037,1.08112393466499 -14.8445587695731,2.15384536983777 -14.6525087811791,3.20997813934637 -14.3877542971789,4.24175674366009 -14.0542236506683,5.24201984987837 -13.6567156746907,6.20436079172171 -13.2007335355802,7.12324406952464 -12.692306899639,7.99408018356452 -11.5437781357141,9.5781605878346 -10.2631572131052,10.9392676722462 -8.90041446212582,12.074046437002 -7.49999954675637,12.990380214959 -6.00622363702897,13.745008169355 -4.34210507092912,14.3577887989898 -2.52304134752634,14.7862854397613 -0.57692296513511,14.9889002608501 1.45522374539054,14.9292429311221 2.48738951634753,14.792324606063 3.52040795391966,14.5810391188315 4.54633172525387,14.2944339694851 5.55699449751034,13.932687658013 6.54421293785027,13.4971571843332 7.49999954675637,12.990380214959 8.41677449135338,12.4160330830016 9.28756427206273,11.7788422881753 10.1061770559253,11.0844558301388 10.8673463432592,10.3392822085048 11.5668341343208,9.55030475618467 12.2014917626335,8.724882306067 12.7692770616542,7.87054869102983 13.2692300314408,6.99482007728563 14.0668194832404,5.20812485192673 14.6052622840343,3.4185211267436 14.9066380991548,1.67096173235296 14.9999990935127,0" style=" fill-rule: evenodd; fill: #000000; " xmlns="http://www.w3.org/2000/svg" />
  <polyline points="13.3333325275669,0 13.3131915287841,-0.732589455727797 13.250345032582,-1.48529941023966 13.1412300391761,-2.25517803038065 12.9824553821046,-3.03868548303135 12.7709028948892,-3.83168326844185 12.5038394110286,-4.62944422023117 12.1790334306574,-5.42668417205198 11.9944454418125,-5.82331831474906 11.7948711205399,-6.21761795758722 11.5802238001783,-6.60879526728073 11.3504684807296,-6.99604324387837 11.1056251621928,-7.3785395540965 10.8457705112298,-7.75545086465215 10.5710401944991,-8.1259378422627 10.2816303786555,-8.48915982031229 9.97779839701683,-8.84428046551814 9.65986341623043,-9.19047311126352 9.32820626960663,-9.52692625759749 8.98326845711875,-9.85284957123446 8.62555114540316,-10.1674787188873 8.25561266775946,-10.4700820339336 7.87406635748392,-10.7599645164153 7.48157738120301,-11.0364739997051 7.07885840554032,-11.299005317173 6.66666626378344,-11.5470046355191 6.24579628921766,-11.7799737881069 5.8170781484595,-11.9974729416295 5.38136934145713,-12.1991237627766 4.93955070149067,-12.3846112515671 4.49251939517255,-12.5536857413496 4.04118375578122,-12.7061633988016 3.58645711659481,-12.8419267239304 3.12925147755822,-12.9609235500725 2.67047233861672,-13.0631670438937 2.21101286638299,-13.148732872056 1.75174856080414,-13.217758201218 1.29353225516196,-13.2704381980344 0.837190116073186,-13.3070233624901 0.383516976823115,-13.327815694567 -0.0667273293008349,-13.333165527577 -0.512820469008984,-13.3234670281631 -0.954081109009173,-13.2991535296324 -1.38987041600667,-13.2606943652899 -1.81959405670407,-13.2085893684388 -2.24270336446786,-13.1433647057138 -3.06711648131319,-12.9757678825087 -3.85964893341848,-12.7624788953983 -4.61757355428188,-12.50822807743 -5.33886551069241,-12.2177850949822 -6.02215480273288,-11.8958567811038 -6.66666626378344,-11.5470046355191 -7.29103689271784,-11.163267325376 -7.91147952188962,-10.7324856847425 -8.52365648489424,-10.2530500470494 -9.12280644868612,-9.72379341236698 -9.70378641357605,-9.14408478073355 -10.2611360465607,-8.51392048548261 -10.7891630146507,-7.83401019323795 -11.0403643328033,-7.47583521488335 -11.282050651531,-7.10584907057587 -11.5134964708774,-6.72437026029625 -11.7339854575527,-6.33177245068858 -11.942815278266,-5.92848380839365 -12.1393027663917,-5.51498733338227 -12.3227887553032,-5.0918203589553 -12.4926432450385,-4.6595732184104 -12.6482707356335,-4.21888657837552 -12.7891148937886,-3.77045043880897 -12.9146633862014,-3.31500046633294 -13.0244522129,-2.85331382756715 -13.1180705405757,-2.38620702246224 -13.1951632025835,-1.91452921763357 -13.2554356989411,-1.43915924636136 -13.2986555296625,-0.9609991085911 -13.3246548614246,-0.480968637600536 -13.3333325275669,0 -13.3246548614246,0.480968637600536 -13.2986555296625,0.9609991085911 -13.2554356989411,1.43915924636136 -13.1951632025835,1.91452921763357 -13.1180705405757,2.38620702246224 -13.0244522129,2.85331382756715 -12.9146633862014,3.31500046633294 -12.7891148937886,3.77045043880897 -12.6482707356335,4.21888657837552 -12.4926432450385,4.6595732184104 -12.3227887553032,5.0918203589553 -12.1393027663917,5.51498733338227 -11.942815278266,5.92848380839365 -11.7339854575527,6.33177245068858 -11.5134964708774,6.72437026029625 -11.282050651531,7.10584907057587 -11.0403643328033,7.47583521488335 -10.7891630146507,7.83401019323795 -10.5291770303623,8.18010933898898 -10.2611360465607,8.51392048548261 -9.70378641357605,9.14408478073355 -9.12280644868612,9.72379341236698 -8.52365648489424,10.2530500470494 -7.91147952188962,10.7324856847425 -7.29103689271784,11.163267325376 -6.66666626378344,11.5470046355191 -6.02215480273288,11.8958567811038 -5.33886551069241,12.2177850949822 -4.61757355428188,12.50822807743 -3.85964893341848,12.7624788953983 -3.06711648131319,12.9757678825087 -2.24270336446786,13.1433647057138 -1.38987041600667,13.2606943652899 -0.954081109009173,13.2991535296324 -0.512820469008984,13.3234670281631 -0.0667273293008349,13.333165527577 0.383516976823115,13.327815694567 0.837190116073186,13.3070233624901 1.29353225516196,13.2704381980344 1.75174856080414,13.217758201218 2.21101286638299,13.148732872056 2.67047233861672,13.0631670438937 3.12925147755822,12.9609235500725 3.58645711659481,12.8419267239304 4.04118375578122,12.7061633988016 4.49251939517255,12.5536857413496 4.93955070149067,12.3846112515671 5.38136934145713,12.1991237627766 5.8170781484595,11.9974729416295 6.24579628921766,11.7799737881069 6.66666626378344,11.5470046355191 7.07885840554032,11.299005317173 7.48157738120301,11.0364739997051 7.87406635748392,10.7599645164153 8.25561266775946,10.4700820339336 8.62555114540316,10.1674787188873 8.98326845711875,9.85284957123446 9.32820626960663,9.52692625759749 9.65986341623043,9.19047311126352 9.97779839701683,8.84428046551814 10.2816303786555,8.48915982031229 10.5710401944991,8.1259378422627 10.8457705112298,7.75545086465215 11.1056251621928,7.3785395540965 11.3504684807296,6.99604324387837 11.5802238001783,6.60879526728073 11.7948711205399,6.21761795758722 11.9944454418125,5.82331831474906 12.1790334306574,5.42668417205198 12.3487709203997,5.02848002944978 12.5038394110286,4.62944422023117 12.7709028948892,3.83168326844185 12.9824553821046,3.03868548303135 13.1412300391761,2.25517803038065 13.250345032582,1.48529941023966 13.3131915287841,0.732589455727797 13.3333325275669,0" style=" stroke-width: 0.0000010000;stroke: #ffffff; fill: none; " xmlns="http://www.w3.org/2000/svg" />
  <polygon points="13.3333325275669,0 13.3131915287841,-0.732589455727797 13.250345032582,-1.48529941023966 13.1412300391761,-2.25517803038065 12.9824553821046,-3.03868548303135 12.7709028948892,-3.83168326844185 12.5038394110286,-4.62944422023117 12.1790334306574,-5.42668417205198 11.9944454418125,-5.82331831474906 11.7948711205399,-6.21761795758722 11.5802238001783,-6.60879526728073 11.3504684807296,-6.99604324387837 11.1056251621928,-7.3785395540965 10.8457705112298,-7.75545086465215 10.5710401944991,-8.1259378422627 10.2816303786555,-8.48915982031229 9.97779839701683,-8.84428046551814 9.65986341623043,-9.19047311126352 9.32820626960663,-9.52692625759749 8.98326845711875,-9.85284957123446 8.62555114540316,-10.1674787188873 8.25561266775946,-10.4700820339336 7.87406635748392,-10.7599645164153 7.48157738120301,-11.0364739997051 7.07885840554032,-11.299005317173 6.66666626378344,-11.5470046355191 6.24579628921766,-11.7799737881069 5.8170781484595,-11.9974729416295 5.38136934145713,-12.1991237627766 4.93955070149067,-12.3846112515671 4.49251939517255,-12.5536857413496 4.04118375578122,-12.7061633988016 3.58645711659481,-12.8419267239304 3.12925147755822,-12.9609235500725 2.67047233861672,-13.0631670438937 2.21101286638299,-13.148732872056 1.75174856080414,-13.217758201218 1.29353225516196,-13.2704381980344 0.837190116073186,-13.3070233624901 0.383516976823115,-13.327815694567 -0.0667273293008349,-13.333165527577 -0.512820469008984,-13.3234670281631 -0.954081109009173,-13.2991535296324 -1.38987041600667,-13.2606943652899 -1.81959405670407,-13.2085893684388 -2.24270336446786,-13.1433647057138 -3.06711648131319,-12.9757678825087 -3.85964893341848,-12.7624788953983 -4.61757355428188,-12.50822807743 -5.33886551069241,-12.2177850949822 -6.02215480273288,-11.8958567811038 -6.66666626378344,-11.5470046355191 -7.29103689271784,-11.163267325376 -7.91147952188962,-10.7324856847425 -8.52365648489424,-10.2530500470494 -9.12280644868612,-9.72379341236698 -9.70378641357605,-9.14408478073355 -10.2611360465607,-8.51392048548261 -10.7891630146507,-7.83401019323795 -11.0403643328033,-7.47583521488335 -11.282050651531,-7.10584907057587 -11.5134964708774,-6.72437026029625 -11.7339854575527,-6.33177245068858 -11.942815278266,-5.92848380839365 -12.1393027663917,-5.51498733338227 -12.3227887553032,-5.0918203589553 -12.4926432450385,-4.6595732184104 -12.6482707356335,-4.21888657837552 -12.7891148937886,-3.77045043880897 -12.9146633862014,-3.31500046633294 -13.0244522129,-2.85331382756715 -13.1180705405757,-2.38620702246224 -13.1951632025835,-1.91452921763357 -13.2554356989411,-1.43915924636136 -13.2986555296625,-0.9609991085911 -13.3246548614246,-0.480968637600536 -13.3333325275669,0 -13.3246548614246,0.480968637600536 -13.2986555296625,0.9609991085911 -13.2554356989411,1.43915924636136 -13.1951632025835,1.91452921763357 -13.1180705405757,2.38620702246224 -13.0244522129,2.85331382756715 -12.9146633862014,3.31500046633294 -12.7891148937886,3.77045043880897 -12.6482707356335,4.21888657837552 -12.4926432450385,4.6595732184104 -12.3227887553032,5.0918203589553 -12.1393027663917,5.51498733338227 -11.942815278266,5.92848380839365 -11.7339854575527,6.33177245068858 -11.5134964708774,6.72437026029625 -11.282050651531,7.10584907057587 -11.0403643328033,7.47583521488335 -10.7891630146507,7.83401019323795 -10.5291770303623,8.18010933898898 -10.2611360465607,8.51392048548261 -9.70378641357605,9.14408478073355 -9.12280644868612,9.72379341236698 -8.52365648489424,10.2530500470494 -7.91147952188962,10.7324856847425 -7.29103689271784,11.163267325376 -6.66666626378344,11.5470046355191 -6.02215480273288,11.8958567811038 -5.33886551069241,12.2177850949822 -4.61757355428188,12.50822807743 -3.85964893341848,12.7624788953983 -3.06711648131319,12.9757678825087 -2.24270336446786,13.1433647057138 -1.38987041600667,13.2606943652899 -0.954081109009173,13.2991535296324 -0.512820469008984,13.3234670281631 -0.0667273293008349,13.333165527577 0.383516976823115,13.327815694567 0.837190116073186,13.3070233624901 1.29353225516196,13.2704381980344 1.75174856080414,13.217758201218 2.21101286638299,13.148732872056 2.67047233861672,13.0631670438937 3.12925147755822,12.9609235500725 3.58645711659481,12.8419267239304 4.04118375578122,12.7061633988016 4.49251939517255,12.5536857413496 4.93955070149067,12.3846112515671 5.38136934145713,12.1991237627766 5.8170781484595,11.9974729416295 6.24579628921766,11.7799737881069 6.66666626378344,11.5470046355191 7.07885840554032,11.299005317173 7.48157738120301,11.0364739997051 7.87406635748392,10.7599645164153 8.25561266775946,10.4700820339336 8.62555114540316,10.1674787188873 8.98326845711875,9.85284957123446 9.32820626960663,9.52692625759749 9.65986341623043,9.19047311126352 9.97779839701683,8.84428046551814 10.2816303786555,8.48915982031229 10.5710401944991,8.1259378422627 10.8457705112298,7.75545086465215 11.1056251621928,7.3785395540965 11.3504684807296,6.99604324387837 11.5802238001783,6.60879526728073 11.7948711205399,6.21761795758722 11.9944454418125,5.82331831474906 12.1790334306574,5.42668417205198 12.3487709203997,5.02848002944978 12.5038394110286,4.62944422023117 12.7709028948892,3.83168326844185 12.9824553821046,3.03868548303135 13.1412300391761,2.25517803038065 13.250345032582,1.48529941023966 13.3131915287841,0.732589455727797 13.3333325275669,0" style=" fill-rule: evenodd; fill: #ffffff; " xmlns="http://www.w3.org/2000/svg" />
  <text x="-0.0037664070" y="0.0050562431" text-anchor="start" font-family="Arial" font-weight="normal" fill="#000000" font-size="0.0127000000" xmlns="http://www.w3.org/2000/svg">
P
</text>
</svg>