<?xml version="1.0" encoding="UTF-8"?>
<svg viewBox="-14.6341428178391 -44.6341591727746 30 46.8292816517067" xmlns="http://www.w3.org/2000/svg" xmlns:xlink="http://www.w3.org/1999/xlink" xmlns:gmsvgsym="http://www.intergraph.com/GeoMedia/svgsym">
  <!-- Creator: SVG Document for Symbols-->
  <path id="LineString2d_1120" style=" stroke-width: 0.0000010000;stroke: #000000; fill: none; " d="M 15.3658560264121 2.19512228948745 L -2.19512228948745 2.19512228948745 L -2.19512228948745 -27.8048858457033 L -14.6341409868257 -27.8048858457033 L -14.6341409868257 -32.1951304246782 L -2.19512228948745 -32.1951304246782 L -2.19512228948745 -44.6341567317738 L 2.19512228948745 -44.6341567317738 L 2.19512228948745 -32.1951304246782 L 14.6341562063403 -32.1951304246782 L 14.6341562063403 -27.8048858457033 L 2.19512228948745 -27.8048858457033 L 2.19512228948745 -2.19512228948745 L 15.3658560264121 -2.19512228948745 L 15.3658560264121 2.19512228948745 " xmlns="http://www.w3.org/2000/svg" />
  <g id="ComplexString2d_1121" style=" fill-rule: evenodd; stroke-width: 0.0000000000;stroke: #000000; fill: #000000; " xmlns="http://www.w3.org/2000/svg">
    <path d="M 15.3658560264121 2.19512228948745 L -2.19512228948745 2.19512228948745 L -2.19512228948745 -27.8048858457033 L -14.6341409868257 -27.8048858457033 L -14.6341409868257 -32.1951304246782 L -2.19512228948745 -32.1951304246782 L -2.19512228948745 -44.6341567317738 L 2.19512228948745 -44.6341567317738 L 2.19512228948745 -32.1951304246782 L 14.6341562063403 -32.1951304246782 L 14.6341562063403 -27.8048858457033 L 2.19512228948745 -27.8048858457033 L 2.19512228948745 -2.19512228948745 L 15.3658560264121 -2.19512228948745 L 15.3658560264121 2.19512228948745 " />
  </g>
</svg>