<?xml version="1.0" encoding="UTF-8"?>
<svg viewBox="-14.9820615332129 -38.6906600758233 30 41.0611339180337" xmlns="http://www.w3.org/2000/svg" xmlns:xlink="http://www.w3.org/1999/xlink" xmlns:gmsvgsym="http://www.intergraph.com/GeoMedia/svgsym">
  <!-- Creator: SVG Document for Symbols-->
  <path id="LineString2d_1213" style=" stroke-width: 0.0000010000;stroke: #ffffff; fill: none; " d="M -8.83696265781102 2.37047345365949 L -3.27900516981459 -24.5085318611943 L -12.2947500022137 -20.4944636150427 L -14.9820609376893 -26.5302628011592 L -8.10403075563244 -29.5925591693166 L -14.9820598709762 -32.6548550633792 L -12.2947489355006 -38.6906542494958 L 0.0179382022895502 -33.2086927181396 L 12.3306253400797 -38.6906542494958 L 15.0179362755553 -32.6548550633792 L 8.13990716021154 -29.5925591693166 L 15.0179372237447 -26.5302628011592 L 12.3306262882691 -20.4944636150427 L 3.2753674412526 -24.5261246855017 L 8.83696265781102 2.37047345365949 L -8.83696265781102 2.37047345365949 " xmlns="http://www.w3.org/2000/svg" />
  <g id="ComplexString2d_1214" style=" fill-rule: evenodd; stroke-width: 0.0000000000;stroke: #ffffff; fill: #ffffff; " xmlns="http://www.w3.org/2000/svg">
    <path d="M -8.83696265781102 2.37047345365949 L -3.27900516981459 -24.5085318611943 L -12.2947500022137 -20.4944636150427 L -14.9820609376893 -26.5302628011592 L -8.10403075563244 -29.5925591693166 L -14.9820598709762 -32.6548550633792 L -12.2947489355006 -38.6906542494958 L 0.0179382022895502 -33.2086927181396 L 12.3306253400797 -38.6906542494958 L 15.0179362755553 -32.6548550633792 L 8.13990716021154 -29.5925591693166 L 15.0179372237447 -26.5302628011592 L 12.3306262882691 -20.4944636150427 L 3.2753674412526 -24.5261246855017 L 8.83696265781102 2.37047345365949 L -8.83696265781102 2.37047345365949 " />
  </g>
</svg>