<?xml version="1.0" encoding="UTF-8"?>
<svg viewBox="-15 -32.0866606770212 30 36.2114693251702" xmlns="http://www.w3.org/2000/svg" xmlns:xlink="http://www.w3.org/1999/xlink" xmlns:gmsvgsym="http://www.intergraph.com/GeoMedia/svgsym">
  <!-- Creator: SVG Document for Symbols-->
  <path id="LineString2d_1237" style=" stroke-width: 0.0000010000;stroke: #ffffff; fill: none; " d="M -14.9999989382923 4.12480845804393 L -14.9999989382923 -4.12480845804393 L -11.9999991506339 -4.12480845804393 L -11.9999991506339 -20.0866629782556 L -11.8980023078533 -21.6529744173913 L -11.5917735795283 -23.1924888084237 L -11.087217715241 -24.6788613532175 L -10.3929676643804 -26.0866603035727 L -9.52090297610558 -27.3917970111945 L -8.48594354936054 -28.5719414276633 L -7.30579958289174 -29.6068993544084 L -6.00066152527008 -30.4789641926832 L -4.59286362491474 -31.1732128935439 L -3.10649003012103 -31.6777683078312 L -1.56697713908855 -31.9839961361563 L -0.000661799953157458 -32.0866574788898 L 1.56565083918243 -31.9839956861563 L 3.10516583021476 -31.6777668078313 L 4.59153687500865 -31.173211543544 L 5.99933627536389 -30.4789614926834 L 7.30447193298571 -29.6068974044085 L 8.48461664945446 -28.5719382776635 L 9.51957427619962 -27.3917950611946 L 10.3916392644744 -26.0866576035729 L 11.0858882653351 -24.6788600032176 L 11.5904439796224 -23.1924873084238 L 11.9968373008577 -21.666160916458 L 11.9968368508577 -20.3314620609286 L 11.9968368508577 -4.12480845804393 L 14.9999989382923 -4.12480845804393 L 14.9999989382923 4.12480845804393 L -14.9999989382923 4.12480845804393 " xmlns="http://www.w3.org/2000/svg" />
  <g id="ComplexString2d_1238" style=" fill-rule: evenodd; stroke-width: 0.0000000000;stroke: #ffffff; fill: #ffffff; " xmlns="http://www.w3.org/2000/svg">
    <path d="M -14.9999989382923 4.12480845804393 L -14.9999989382923 -4.12480845804393 L -11.9999991506339 -4.12480845804393 L -11.9999991506339 -20.0866629782556 L -11.8980023078533 -21.6529744173913 L -11.5917735795283 -23.1924888084237 L -11.087217715241 -24.6788613532175 L -10.3929676643804 -26.0866603035727 L -9.52090297610558 -27.3917970111945 L -8.48594354936054 -28.5719414276633 L -7.30579958289174 -29.6068993544084 L -6.00066152527008 -30.4789641926832 L -4.59286362491474 -31.1732128935439 L -3.10649003012103 -31.6777683078312 L -1.56697713908855 -31.9839961361563 L -0.000661799953157458 -32.0866574788898 L 1.56565083918243 -31.9839956861563 L 3.10516583021476 -31.6777668078313 L 4.59153687500865 -31.173211543544 L 5.99933627536389 -30.4789614926834 L 7.30447193298571 -29.6068974044085 L 8.48461664945446 -28.5719382776635 L 9.51957427619962 -27.3917950611946 L 10.3916392644744 -26.0866576035729 L 11.0858882653351 -24.6788600032176 L 11.5904439796224 -23.1924873084238 L 11.9968373008577 -21.666160916458 L 11.9968368508577 -20.3314620609286 L 11.9968368508577 -4.12480845804393 L 14.9999989382923 -4.12480845804393 L 14.9999989382923 4.12480845804393 L -14.9999989382923 4.12480845804393 " />
  </g>
</svg>