<?xml version="1.0" encoding="UTF-8"?>
<svg viewBox="-16.1189758165203 -28.0488554206292 30 30.907583603166" xmlns="http://www.w3.org/2000/svg" xmlns:xlink="http://www.w3.org/1999/xlink" xmlns:gmsvgsym="http://www.intergraph.com/GeoMedia/svgsym">
  <!-- Creator: SVG Document for Symbols-->
  <path id="LineString2d_1232" style=" stroke-width: 0.0000010000;stroke: #ffffff; fill: none; " d="M -2.82373982860699 2.85872795599098 L -2.82373982860699 -21.3105133319648 L -9.39083640522165 -21.3105133319648 L -9.39083640522165 -20.8052338934196 L -16.118974587388 -24.1693029325259 L -9.39083640522165 -27.533372075586 L -9.39083640522165 -27.0279692439468 L 10.0028500384079 -27.0279692439468 L 11.771072866875 -28.0488532226918 L 13.8810231493752 -24.3943121624971 L 13.4911966099219 -24.1692456540131 L 13.8810231493752 -23.9441792494828 L 11.7710746340886 -20.2896412039467 L 10.0028721805554 -21.3105133319648 L 2.82373982860699 -21.3105133319648 L 2.82373982860699 -2.85872795599098 L 9.58073317913114 -2.85872795599098 L 9.58073317913114 2.85872795599098 L -2.82373982860699 2.85872795599098 " xmlns="http://www.w3.org/2000/svg" />
  <g id="ComplexString2d_1233" style=" fill-rule: evenodd; stroke-width: 0.0000000000;stroke: #ffffff; fill: #ffffff; " xmlns="http://www.w3.org/2000/svg">
    <path d="M -2.82373982860699 2.85872795599098 L -2.82373982860699 -21.3105133319648 L -9.39083640522165 -21.3105133319648 L -9.39083640522165 -20.8052338934196 L -16.118974587388 -24.1693029325259 L -9.39083640522165 -27.533372075586 L -9.39083640522165 -27.0279692439468 L 10.0028500384079 -27.0279692439468 L 11.771072866875 -28.0488532226918 L 13.8810231493752 -24.3943121624971 L 13.4911966099219 -24.1692456540131 L 13.8810231493752 -23.9441792494828 L 11.7710746340886 -20.2896412039467 L 10.0028721805554 -21.3105133319648 L 2.82373982860699 -21.3105133319648 L 2.82373982860699 -2.85872795599098 L 9.58073317913114 -2.85872795599098 L 9.58073317913114 2.85872795599098 L -2.82373982860699 2.85872795599098 " />
  </g>
</svg>