<?xml version="1.0" encoding="UTF-8"?>
<svg viewBox="-15 -15 30 30" xmlns="http://www.w3.org/2000/svg" xmlns:xlink="http://www.w3.org/1999/xlink" xmlns:gmsvgsym="http://www.intergraph.com/GeoMedia/svgsym">
  <!-- Creator: SVG Document for Symbols-->
  <polyline points="14.9999989382923,0 14.9066378949005,-1.67096178172846 14.605262116232,-3.41852105803532 14.0668193043433,-5.20812473136625 13.2692297607971,-6.99482005490303 12.769276946184,-7.87054849291852 12.2014917363721,-8.72488213244834 11.5668339812935,-9.55030462402451 10.8673462308036,-10.3392822181803 10.1061768346796,-11.0844556154365 9.28756404262143,-11.7788421662875 8.41677450425636,-12.4160329711868 7.49999946914617,-12.9903800805342 6.54421273679725,-13.4971569946643 5.55699440667307,-13.9326875138372 4.5463316782083,-14.2944337882326 3.52040795082371,-14.5810389179465 2.48738952394129,-14.7923244029917 1.45522384699851,-14.9292428933005 0.431456519461285,-14.9937925387316 -0.576923059165088,-14.9889001390779 -2.52304122141784,-14.7862852534191 -4.34210489266358,-14.3577885337483 -6.00622367487639,-13.7450079771212 -7.49999946914617,-12.9903800805342 -8.90041437002408,-12.0740461953928 -10.2631572235684,-10.939267475713 -11.5437779329254,-9.57816052205286 -12.692306851632,-7.99408008417489 -13.2007334656453,-7.12324389581312 -13.6567154333706,-6.20436061085216 -14.0542235052348,-5.24201977896714 -14.3877540316274,-4.24175684976626 -14.6525086628879,-3.20997817279609 -14.8445585992945,-2.15384534754972 -14.9609872410536,-1.08112402347748 -14.9999989382923,0 -14.9609872410536,1.08112402347748 -14.8445585992945,2.15384534754972 -14.6525086628879,3.20997817279609 -14.3877540316274,4.24175684976626 -14.0542235052348,5.24201977896714 -13.6567154333706,6.20436061085216 -13.2007334656453,7.12324389581312 -12.692306851632,7.99408008417489 -11.5437779329254,9.57816052205286 -10.2631572235684,10.939267475713 -8.90041437002408,12.0740461953928 -7.49999946914617,12.9903800805342 -6.00622367487639,13.7450079771212 -4.34210489266358,14.3577885337483 -2.52304122141784,14.7862852534191 -0.576923059165088,14.9889001390779 0.431456519461285,14.9937925387316 1.45522384699851,14.9292428933005 2.48738952394129,14.7923244029917 3.52040795082371,14.5810389179465 4.5463316782083,14.2944337882326 5.55699440667307,13.9326875138372 6.54421273679725,13.4971569946643 7.49999946914617,12.9903800805342 8.41677450425636,12.4160329711868 9.28756404262143,11.7788421662875 10.1061768346796,11.0844556154365 10.8673462308036,10.3392822181803 11.5668339812935,9.55030462402451 12.2014917363721,8.72488213244834 12.769276946184,7.87054849291852 13.2692297607971,6.99482005490303 14.0668193043433,5.20812473136625 14.605262116232,3.41852105803532 14.9066378949005,1.67096178172846 14.9999989382923,0" style=" stroke-width: 0.0000010000;stroke: #1b4074; fill: none; " xmlns="http://www.w3.org/2000/svg" />
  <g id="ComplexString2d_1265" style=" fill-rule: evenodd; stroke-width: 0.0000000000;stroke: #1b4074; fill: #1b4074; " xmlns="http://www.w3.org/2000/svg">
    <path d="M 14.9999989382923 0 L 14.9066378949005 -1.67096178172846 L 14.605262116232 -3.41852105803532 L 14.0668193043433 -5.20812473136625 L 13.2692297607971 -6.99482005490303 L 12.769276946184 -7.87054849291852 L 12.2014917363721 -8.72488213244834 L 11.5668339812935 -9.55030462402451 L 10.8673462308036 -10.3392822181803 L 10.1061768346796 -11.0844556154365 L 9.28756404262143 -11.7788421662875 L 8.41677450425636 -12.4160329711868 L 7.49999946914617 -12.9903800805342 L 6.54421273679725 -13.4971569946643 L 5.55699440667307 -13.9326875138372 L 4.5463316782083 -14.2944337882326 L 3.52040795082371 -14.5810389179465 L 2.48738952394129 -14.7923244029917 L 1.45522384699851 -14.9292428933005 L 0.431456519461285 -14.9937925387316 L -0.576923059165088 -14.9889001390779 L -2.52304122141784 -14.7862852534191 L -4.34210489266358 -14.3577885337483 L -6.00622367487639 -13.7450079771212 L -7.49999946914617 -12.9903800805342 L -8.90041437002408 -12.0740461953928 L -10.2631572235684 -10.939267475713 L -11.5437779329254 -9.57816052205286 L -12.692306851632 -7.99408008417489 L -13.2007334656453 -7.12324389581312 L -13.6567154333706 -6.20436061085216 L -14.0542235052348 -5.24201977896714 L -14.3877540316274 -4.24175684976626 L -14.6525086628879 -3.20997817279609 L -14.8445585992945 -2.15384534754972 L -14.9609872410536 -1.08112402347748 L -14.9999989382923 0 L -14.9609872410536 1.08112402347748 L -14.8445585992945 2.15384534754972 L -14.6525086628879 3.20997817279609 L -14.3877540316274 4.24175684976626 L -14.0542235052348 5.24201977896714 L -13.6567154333706 6.20436061085216 L -13.2007334656453 7.12324389581312 L -12.692306851632 7.99408008417489 L -11.5437779329254 9.57816052205286 L -10.2631572235684 10.939267475713 L -8.90041437002408 12.0740461953928 L -7.49999946914617 12.9903800805342 L -6.00622367487639 13.7450079771212 L -4.34210489266358 14.3577885337483 L -2.52304122141784 14.7862852534191 L -0.576923059165088 14.9889001390779 L 0.431456519461285 14.9937925387316 L 1.45522384699851 14.9292428933005 L 2.48738952394129 14.7923244029917 L 3.52040795082371 14.5810389179465 L 4.5463316782083 14.2944337882326 L 5.55699440667307 13.9326875138372 L 6.54421273679725 13.4971569946643 L 7.49999946914617 12.9903800805342 L 8.41677450425636 12.4160329711868 L 9.28756404262143 11.7788421662875 L 10.1061768346796 11.0844556154365 L 10.8673462308036 10.3392822181803 L 11.5668339812935 9.55030462402451 L 12.2014917363721 8.72488213244834 L 12.769276946184 7.87054849291852 L 13.2692297607971 6.99482005490303 L 14.0668193043433 5.20812473136625 L 14.605262116232 3.41852105803532 L 14.9066378949005 1.67096178172846 L 14.9999989382923 0 " />
  </g>
  <polyline points="11.9999991506339,0 11.9818722519169,-0.659330503332247 11.9253104059204,-1.33676945538277 11.8271069128713,-2.0296602063396 11.6842097229856,-2.73481690642825 11.493812486462,-3.44851490591234 11.2534553534746,-4.166499755093 10.9611299741656,-4.88401570430685 10.7950007859243,-5.24098642904028 10.6153838986377,-5.59585610392242 10.4222013123112,-5.94791567900346 10.2154215269472,-6.29643885433481 9.99506254254432,-6.64068552996885 9.7611933590977,-6.97990570595868 9.5139360765987,-7.31334398235774 9.25346724503482,-7.64024375921961 8.98001846438966,-7.95985233659755 8.6938769846429,-8.27142571454422 8.39538555577028,-8.57423354311133 8.08494152774367,-8.86756452234921 7.76299595053114,-9.15073075230656 7.43005132409714,-9.42307373302998 7.08665964840258,-9.68396796456375 6.73341957340509,-9.93282649694942 6.37097249905928,-10.1691046802255 5.99999957531694,-10.3923040644274 5.62121660212739,-10.6019762995867 5.23537027943779,-10.7977255357314 4.84323235719352,-10.9792112728858 4.44559558533845,-11.1461500110698 4.04326741381545,-11.2983170502993 3.63706534256664,-11.4355469405861 3.22781137153385,-11.5577339319376 2.81632630065897,-11.6648310743572 2.40342507988433,-11.7568502178441 1.98991155915303,-11.8338594623933 1.5765736884093,-11.8959822579962 1.16417901759881,-11.9433942546404 0.753471096668927,-11.9763209023098 0.345165275569024,-11.9950340009853 -0.0600545957493047,-11.9998488506445 -0.461538417332073,-11.9911202012623 -0.858672989222683,-11.9692380528112 -1.25088336146183,-11.9346248052611 -1.63763463408738,-11.8877303085803 -2.01843300713427,-11.8290281127353 -2.76040480461712,-11.6781909734116 -3.47368400413086,-11.4862308869987 -4.15581615584919,-11.2574051531951 -4.80497890990112,-10.996006471697 -5.4199392663739,-10.7062709922046 -5.99999957531694,-10.3923040644274 -6.56193313554299,-10.0469404888724 -7.12033149601927,-9.65923701631422 -7.67129075702208,-9.22774494685545 -8.21052571885476,-8.75141398057041 -8.7334076818449,-8.22967621749927 -9.23502234634036,-7.66252835764229 -9.71024661270374,-7.05060910095425 -9.93632779670159,-6.72825162377088 -10.1538454813056,-6.39526409733991 -10.3621467165619,-6.05193317164105 -10.5605868025162,-5.6985951466505 -10.7485336392132,-5.33563537234098 -10.9253723766965,-4.96348854868172 -11.090509765008,-4.5826382756385 -11.2433788041879,-4.19361585317371 -11.383443544274,-3.79699788124653 -11.5102032853019,-3.39340535981302 -11.6231969273041,-2.9835003888263 -11.7220068703103,-2.56798241823688 -11.8062633643466,-2.14758629799273 -11.8756467594356,-1.72307627803977 -11.9298920055961,-1.29524330832201 -11.9687898528429,-0.864899188781989 -11.9921892511867,-0.432871769361113 -11.9999991506339,0 -11.9921892511867,0.432871769361113 -11.9687898528429,0.864899188781989 -11.9298920055961,1.29524330832201 -11.8756467594356,1.72307627803977 -11.8062633643466,2.14758629799273 -11.7220068703103,2.56798241823688 -11.6231969273041,2.9835003888263 -11.5102032853019,3.39340535981302 -11.383443544274,3.79699788124653 -11.2433788041879,4.19361585317371 -11.090509765008,4.5826382756385 -10.9253723766965,4.96348854868172 -10.7485336392132,5.33563537234098 -10.5605868025162,5.6985951466505 -10.3621467165619,6.05193317164105 -10.1538454813056,6.39526409733991 -9.93632779670159,6.72825162377088 -9.71024661270374,7.05060910095425 -9.47625922926549,7.36209832890688 -9.23502234634036,7.66252835764229 -8.7334076818449,8.22967621749927 -8.21052571885476,8.75141398057041 -7.67129075702208,9.22774494685545 -7.12033149601927,9.65923701631422 -6.56193313554299,10.0469404888724 -5.99999957531694,10.3923040644274 -5.4199392663739,10.7062709922046 -4.80497890990112,10.996006471697 -4.15581615584919,11.2574051531951 -3.47368400413086,11.4862308869987 -2.76040480461712,11.6781909734116 -2.01843300713427,11.8290281127353 -1.25088336146183,11.9346248052611 -0.858672989222683,11.9692380528112 -0.461538417332073,11.9911202012623 -0.0600545957493047,11.9998488506445 0.345165275569024,11.9950340009853 0.753471096668927,11.9763209023098 1.16417901759881,11.9433942546404 1.5765736884093,11.8959822579962 1.98991155915303,11.8338594623933 2.40342507988433,11.7568502178441 2.81632630065897,11.6648310743572 3.22781137153385,11.5577339319376 3.63706534256664,11.4355469405861 4.04326741381545,11.2983170502993 4.44559558533845,11.1461500110698 4.84323235719352,10.9792112728858 5.23537027943779,10.7977255357314 5.62121660212739,10.6019762995867 5.99999957531694,10.3923040644274 6.37097249905928,10.1691046802255 6.73341957340509,9.93282649694942 7.08665964840258,9.68396796456375 7.43005132409714,9.42307373302998 7.76299595053114,9.15073075230656 8.08494152774367,8.86756452234921 8.39538555577028,8.57423354311133 8.6938769846429,8.27142571454422 8.98001846438966,7.95985233659755 9.25346724503482,7.64024375921961 9.5139360765987,7.31334398235774 9.7611933590977,6.97990570595868 9.99506254254432,6.64068552996885 10.2154215269472,6.29643885433481 10.4222013123112,5.94791567900346 10.6153838986377,5.59585610392242 10.7950007859243,5.24098642904028 10.9611299741656,4.88401570430685 11.1138937133529,4.52563197967343 11.2534553534746,4.166499755093 11.493812486462,3.44851490591234 11.6842097229856,2.73481690642825 11.8271069128713,2.0296602063396 11.9253104059204,1.33676945538277 11.9818722519169,0.659330503332247 11.9999991506339,0" style=" stroke-width: 0.0000010000;stroke: #ffffff; fill: none; " xmlns="http://www.w3.org/2000/svg" />
  <g id="ComplexString2d_1266" style=" fill-rule: evenodd; stroke-width: 0.0000000000;stroke: #ffffff; fill: #ffffff; " xmlns="http://www.w3.org/2000/svg">
    <path d="M 11.9999991506339 0 L 11.9818722519169 -0.659330503332247 L 11.9253104059204 -1.33676945538277 L 11.8271069128713 -2.0296602063396 L 11.6842097229856 -2.73481690642825 L 11.493812486462 -3.44851490591234 L 11.2534553534746 -4.166499755093 L 10.9611299741656 -4.88401570430685 L 10.7950007859243 -5.24098642904028 L 10.6153838986377 -5.59585610392242 L 10.4222013123112 -5.94791567900346 L 10.2154215269472 -6.29643885433481 L 9.99506254254432 -6.64068552996885 L 9.7611933590977 -6.97990570595868 L 9.5139360765987 -7.31334398235774 L 9.25346724503482 -7.64024375921961 L 8.98001846438966 -7.95985233659755 L 8.6938769846429 -8.27142571454422 L 8.39538555577028 -8.57423354311133 L 8.08494152774367 -8.86756452234921 L 7.76299595053114 -9.15073075230656 L 7.43005132409714 -9.42307373302998 L 7.08665964840258 -9.68396796456375 L 6.73341957340509 -9.93282649694942 L 6.37097249905928 -10.1691046802255 L 5.99999957531694 -10.3923040644274 L 5.62121660212739 -10.6019762995867 L 5.23537027943779 -10.7977255357314 L 4.84323235719352 -10.9792112728858 L 4.44559558533845 -11.1461500110698 L 4.04326741381545 -11.2983170502993 L 3.63706534256664 -11.4355469405861 L 3.22781137153385 -11.5577339319376 L 2.81632630065897 -11.6648310743572 L 2.40342507988433 -11.7568502178441 L 1.98991155915303 -11.8338594623933 L 1.5765736884093 -11.8959822579962 L 1.16417901759881 -11.9433942546404 L 0.753471096668927 -11.9763209023098 L 0.345165275569024 -11.9950340009853 L -0.0600545957493047 -11.9998488506445 L -0.461538417332073 -11.9911202012623 L -0.858672989222683 -11.9692380528112 L -1.25088336146183 -11.9346248052611 L -1.63763463408738 -11.8877303085803 L -2.01843300713427 -11.8290281127353 L -2.76040480461712 -11.6781909734116 L -3.47368400413086 -11.4862308869987 L -4.15581615584919 -11.2574051531951 L -4.80497890990112 -10.996006471697 L -5.4199392663739 -10.7062709922046 L -5.99999957531694 -10.3923040644274 L -6.56193313554299 -10.0469404888724 L -7.12033149601927 -9.65923701631422 L -7.67129075702208 -9.22774494685545 L -8.21052571885476 -8.75141398057041 L -8.7334076818449 -8.22967621749927 L -9.23502234634036 -7.66252835764229 L -9.71024661270374 -7.05060910095425 L -9.93632779670159 -6.72825162377088 L -10.1538454813056 -6.39526409733991 L -10.3621467165619 -6.05193317164105 L -10.5605868025162 -5.6985951466505 L -10.7485336392132 -5.33563537234098 L -10.9253723766965 -4.96348854868172 L -11.090509765008 -4.5826382756385 L -11.2433788041879 -4.19361585317371 L -11.383443544274 -3.79699788124653 L -11.5102032853019 -3.39340535981302 L -11.6231969273041 -2.9835003888263 L -11.7220068703103 -2.56798241823688 L -11.8062633643466 -2.14758629799273 L -11.8756467594356 -1.72307627803977 L -11.9298920055961 -1.29524330832201 L -11.9687898528429 -0.864899188781989 L -11.9921892511867 -0.432871769361113 L -11.9999991506339 0 L -11.9921892511867 0.432871769361113 L -11.9687898528429 0.864899188781989 L -11.9298920055961 1.29524330832201 L -11.8756467594356 1.72307627803977 L -11.8062633643466 2.14758629799273 L -11.7220068703103 2.56798241823688 L -11.6231969273041 2.9835003888263 L -11.5102032853019 3.39340535981302 L -11.383443544274 3.79699788124653 L -11.2433788041879 4.19361585317371 L -11.090509765008 4.5826382756385 L -10.9253723766965 4.96348854868172 L -10.7485336392132 5.33563537234098 L -10.5605868025162 5.6985951466505 L -10.3621467165619 6.05193317164105 L -10.1538454813056 6.39526409733991 L -9.93632779670159 6.72825162377088 L -9.71024661270374 7.05060910095425 L -9.47625922926549 7.36209832890688 L -9.23502234634036 7.66252835764229 L -8.7334076818449 8.22967621749927 L -8.21052571885476 8.75141398057041 L -7.67129075702208 9.22774494685545 L -7.12033149601927 9.65923701631422 L -6.56193313554299 10.0469404888724 L -5.99999957531694 10.3923040644274 L -5.4199392663739 10.7062709922046 L -4.80497890990112 10.996006471697 L -4.15581615584919 11.2574051531951 L -3.47368400413086 11.4862308869987 L -2.76040480461712 11.6781909734116 L -2.01843300713427 11.8290281127353 L -1.25088336146183 11.9346248052611 L -0.858672989222683 11.9692380528112 L -0.461538417332073 11.9911202012623 L -0.0600545957493047 11.9998488506445 L 0.345165275569024 11.9950340009853 L 0.753471096668927 11.9763209023098 L 1.16417901759881 11.9433942546404 L 1.5765736884093 11.8959822579962 L 1.98991155915303 11.8338594623933 L 2.40342507988433 11.7568502178441 L 2.81632630065897 11.6648310743572 L 3.22781137153385 11.5577339319376 L 3.63706534256664 11.4355469405861 L 4.04326741381545 11.2983170502993 L 4.44559558533845 11.1461500110698 L 4.84323235719352 10.9792112728858 L 5.23537027943779 10.7977255357314 L 5.62121660212739 10.6019762995867 L 5.99999957531694 10.3923040644274 L 6.37097249905928 10.1691046802255 L 6.73341957340509 9.93282649694942 L 7.08665964840258 9.68396796456375 L 7.43005132409714 9.42307373302998 L 7.76299595053114 9.15073075230656 L 8.08494152774367 8.86756452234921 L 8.39538555577028 8.57423354311133 L 8.6938769846429 8.27142571454422 L 8.98001846438966 7.95985233659755 L 9.25346724503482 7.64024375921961 L 9.5139360765987 7.31334398235774 L 9.7611933590977 6.97990570595868 L 9.99506254254432 6.64068552996885 L 10.2154215269472 6.29643885433481 L 10.4222013123112 5.94791567900346 L 10.6153838986377 5.59585610392242 L 10.7950007859243 5.24098642904028 L 10.9611299741656 4.88401570430685 L 11.1138937133529 4.52563197967343 L 11.2534553534746 4.166499755093 L 11.493812486462 3.44851490591234 L 11.6842097229856 2.73481690642825 L 11.8271069128713 2.0296602063396 L 11.9253104059204 1.33676945538277 L 11.9818722519169 0.659330503332247 L 11.9999991506339 0 " />
  </g>
  <path id="LineString2d_1267" style=" stroke-width: 0.0000010000;stroke: #1b4074; fill: none; " d="M -9.64230321751281 -7.29904103337011 L 4.94999964963647E-06 -1.73205167740449 L 9.64230516751267 -7.29903623337045 L 11.1423044613419 -4.7009603672636 L 1.50000619382879 0.866023588702404 L 1.50000619382879 11.9999984006339 L -1.49999359382968 11.9999999006338 L -1.49999359382968 0.866025088702298 L -11.142303861342 -4.70096531726325 L -9.64230321751281 -7.29904103337011 " xmlns="http://www.w3.org/2000/svg" />
  <g id="ComplexString2d_1268" style=" fill-rule: evenodd; stroke-width: 0.0000000000;stroke: #1b4074; fill: #1b4074; " xmlns="http://www.w3.org/2000/svg">
    <path d="M -9.64230321751281 -7.29904103337011 L 4.94999964963647E-06 -1.73205167740449 L 9.64230516751267 -7.29903623337045 L 11.1423044613419 -4.7009603672636 L 1.50000619382879 0.866023588702404 L 1.50000619382879 11.9999984006339 L -1.49999359382968 11.9999999006338 L -1.49999359382968 0.866025088702298 L -11.142303861342 -4.70096531726325 L -9.64230321751281 -7.29904103337011 " />
  </g>
</svg>