<?xml version="1.0" encoding="UTF-8"?>
<svg viewBox="-15 -15 30 30" xmlns="http://www.w3.org/2000/svg" xmlns:xlink="http://www.w3.org/1999/xlink" xmlns:gmsvgsym="http://www.intergraph.com/GeoMedia/svgsym">
  <!-- Creator: SVG Document for Symbols-->
  <polyline points="14.9999986159115,0 14.9066375860646,-1.67096176889298 14.7838833666222,-2.53707530435907 14.6052617677195,-3.41852103071811 14.367265212757,-4.31064352532274 14.0668189327876,-5.20812459635601 13.7014121588123,-6.10501951359721 13.2692295448448,-6.99481989303149 12.7692767063613,-7.87054842761038 12.20149145106,-8.72488200262498 11.5668337788523,-9.55030446492266 10.8673458818574,-10.3392818921217 10.1061767213232,-11.0844554002857 9.28756391224333,-11.7788417977513 8.41677430028564,-12.4160327389561 7.49999930795575,-12.9903798013442 6.54421266537941,-13.4971567161211 5.55699433339567,-13.9326872143951 4.54633158049828,-14.2944334117851 3.52040782900906,-14.5810386161085 2.48738942432833,-14.7923240966126 1.45522371187661,-14.9292424685942 0.431456498649936,-14.9937921934073 -0.576923023688904,-14.9888998861664 -1.56360412495299,-14.9182807003749 -2.52304119026942,-14.7862848664006 -3.45050587392063,-14.5977384607214 -4.34210486857357,-14.3577882136314 -5.19477009758826,-14.0717562400244 -6.00622352271337,-13.7450076932512 -6.77492383639879,-13.3828384959003 -7.49999930795575,-12.9903798013442 -8.90041406335126,-12.0740460397428 -9.58911326903398,-11.5346809356653 -10.2631568991459,-10.9392672982979 -10.916759454221,-10.2870949353986 -11.5437777425182,-9.57816027004464 -12.1378080338594,-8.8132613021623 -12.6923065211559,-7.99407987775028 -13.2007332050113,-7.12324376579688 -13.6567151629366,-6.20436058135383 -14.0542232031806,-5.24201963168997 -14.3877538262511,-4.2417567239868 -14.6525083018215,-3.20997801149937 -14.844558245639,-2.15384541664375 -14.9609869656651,-1.08112397716498 -14.9999986159115,0 -14.9609869656651,1.08112397716498 -14.844558245639,2.15384541664375 -14.6525083018215,3.20997801149937 -14.3877538262511,4.2417567239868 -14.0542232031806,5.24201963168997 -13.6567151629366,6.20436058135383 -13.2007332050113,7.12324376579688 -12.6923065211559,7.99407987775028 -12.1378080338594,8.8132613021623 -11.5437777425182,9.57816027004464 -10.916759454221,10.2870949353986 -10.2631568991459,10.9392672982979 -9.58911326903398,11.5346809356653 -8.90041406335126,12.0740460397428 -8.20241612775733,12.5586753411787 -7.49999930795575,12.9903798013442 -6.00622352271337,13.7450076932512 -5.19477009758826,14.0717562400244 -4.34210486857357,14.3577882136314 -3.45050587392063,14.5977384607214 -2.52304119026942,14.7862848664006 -1.56360412495299,14.9182807003749 -0.576923023688904,14.9888998861664 0.431456498649936,14.9937921934073 1.45522371187661,14.9292424685942 2.48738942432833,14.7923240966126 3.52040782900906,14.5810386161085 4.54633158049828,14.2944334117851 5.55699433339567,13.9326872143951 6.54421266537941,13.4971567161211 7.49999930795575,12.9903798013442 8.41677430028564,12.4160327389561 9.28756391224333,11.7788417977513 10.1061767213232,11.0844554002857 10.8673458818574,10.3392818921217 11.5668337788523,9.55030446492266 12.20149145106,8.72488200262498 12.7692767063613,7.87054842761038 13.2692295448448,6.99481989303149 13.7014121588123,6.10501951359721 14.0668189327876,5.20812459635601 14.367265212757,4.31064352532274 14.6052617677195,3.41852103071811 14.7838833666222,2.53707530435907 14.9066375860646,1.67096176889298 14.9773399641561,0.824163039336969 14.9999986159115,0" style=" stroke-width: 0.0000010000;stroke: #000000; fill: none; " xmlns="http://www.w3.org/2000/svg" />
  <g id="ComplexString2d_1269" style=" fill-rule: evenodd; stroke-width: 0.0000000000;stroke: #000000; fill: #000000; " xmlns="http://www.w3.org/2000/svg">
    <path d="M 14.9999986159115 0 L 14.9066375860646 -1.67096176889298 L 14.7838833666222 -2.53707530435907 L 14.6052617677195 -3.41852103071811 L 14.367265212757 -4.31064352532274 L 14.0668189327876 -5.20812459635601 L 13.7014121588123 -6.10501951359721 L 13.2692295448448 -6.99481989303149 L 12.7692767063613 -7.87054842761038 L 12.20149145106 -8.72488200262498 L 11.5668337788523 -9.55030446492266 L 10.8673458818574 -10.3392818921217 L 10.1061767213232 -11.0844554002857 L 9.28756391224333 -11.7788417977513 L 8.41677430028564 -12.4160327389561 L 7.49999930795575 -12.9903798013442 L 6.54421266537941 -13.4971567161211 L 5.55699433339567 -13.9326872143951 L 4.54633158049828 -14.2944334117851 L 3.52040782900906 -14.5810386161085 L 2.48738942432833 -14.7923240966126 L 1.45522371187661 -14.9292424685942 L 0.431456498649936 -14.9937921934073 L -0.576923023688904 -14.9888998861664 L -1.56360412495299 -14.9182807003749 L -2.52304119026942 -14.7862848664006 L -3.45050587392063 -14.5977384607214 L -4.34210486857357 -14.3577882136314 L -5.19477009758826 -14.0717562400244 L -6.00622352271337 -13.7450076932512 L -6.77492383639879 -13.3828384959003 L -7.49999930795575 -12.9903798013442 L -8.90041406335126 -12.0740460397428 L -9.58911326903398 -11.5346809356653 L -10.2631568991459 -10.9392672982979 L -10.916759454221 -10.2870949353986 L -11.5437777425182 -9.57816027004464 L -12.1378080338594 -8.8132613021623 L -12.6923065211559 -7.99407987775028 L -13.2007332050113 -7.12324376579688 L -13.6567151629366 -6.20436058135383 L -14.0542232031806 -5.24201963168997 L -14.3877538262511 -4.2417567239868 L -14.6525083018215 -3.20997801149937 L -14.844558245639 -2.15384541664375 L -14.9609869656651 -1.08112397716498 L -14.9999986159115 0 L -14.9609869656651 1.08112397716498 L -14.844558245639 2.15384541664375 L -14.6525083018215 3.20997801149937 L -14.3877538262511 4.2417567239868 L -14.0542232031806 5.24201963168997 L -13.6567151629366 6.20436058135383 L -13.2007332050113 7.12324376579688 L -12.6923065211559 7.99407987775028 L -12.1378080338594 8.8132613021623 L -11.5437777425182 9.57816027004464 L -10.916759454221 10.2870949353986 L -10.2631568991459 10.9392672982979 L -9.58911326903398 11.5346809356653 L -8.90041406335126 12.0740460397428 L -8.20241612775733 12.5586753411787 L -7.49999930795575 12.9903798013442 L -6.00622352271337 13.7450076932512 L -5.19477009758826 14.0717562400244 L -4.34210486857357 14.3577882136314 L -3.45050587392063 14.5977384607214 L -2.52304119026942 14.7862848664006 L -1.56360412495299 14.9182807003749 L -0.576923023688904 14.9888998861664 L 0.431456498649936 14.9937921934073 L 1.45522371187661 14.9292424685942 L 2.48738942432833 14.7923240966126 L 3.52040782900906 14.5810386161085 L 4.54633158049828 14.2944334117851 L 5.55699433339567 13.9326872143951 L 6.54421266537941 13.4971567161211 L 7.49999930795575 12.9903798013442 L 8.41677430028564 12.4160327389561 L 9.28756391224333 11.7788417977513 L 10.1061767213232 11.0844554002857 L 10.8673458818574 10.3392818921217 L 11.5668337788523 9.55030446492266 L 12.20149145106 8.72488200262498 L 12.7692767063613 7.87054842761038 L 13.2692295448448 6.99481989303149 L 13.7014121588123 6.10501951359721 L 14.0668189327876 5.20812459635601 L 14.367265212757 4.31064352532274 L 14.6052617677195 3.41852103071811 L 14.7838833666222 2.53707530435907 L 14.9066375860646 1.67096176889298 L 14.9773399641561 0.824163039336969 L 14.9999986159115 0 " />
  </g>
  <polyline points="13.2692295448448,0 13.1866409370808,-1.47815847899113 12.9200392693732,-3.0240763363453 12.7095039041844,-3.81326157121746 12.4437244671701,-4.60718715180605 12.1204800354582,-5.40059419398096 11.7381645707355,-6.18772535211957 11.2958986115445,-6.96240824217605 10.7936270040442,-7.71816482628659 10.2321990943102,-8.44834629737241 9.61342145909869,-9.14628780989462 8.94007936738355,-9.80547982599236 8.21592189574188,-10.4197446539279 7.4456080437438,-10.9834135634552 6.63461477242239,-11.491489824266 5.78911123505457,-11.9397924752077 4.91580266179084,-12.3250694011956 4.02175485967155,-12.6450756793601 3.11420694341334,-12.8986110790427 2.20038291234962,-13.0855175233348 1.28731326583167,-13.2066376660049 0.381673118628192,-13.2637391991976 -0.510354991369769,-13.259411353443 -1.38318829544658,-13.1969406284382 -2.2319211017472,-13.0801751007509 -3.05237060296529,-12.9133840007565 -3.84109279941863,-12.701120404958 -5.31319774050679,-12.159045262669 -6.63461477242239,-11.491489824266 -7.87344331195865,-10.6808868990624 -9.07894658533914,-9.67704406861269 -9.65713330121913,-9.10012242953904 -10.2118033654229,-8.47298794894481 -10.7372917400117,-7.79634643445719 -11.2278095793657,-7.07168611670808 -11.6775716147881,-6.30133107240611 -12.0809403852605,-5.48847272433372 -12.4325820066598,-4.63717122596242 -12.7276282871274,-3.75232326914808 -12.9618342270551,-2.8395959687524 -13.1317245575327,-1.9053247472677 -13.2347191634138,-0.956378911752455 -13.2692295448448,0 -13.2347191634138,0.956378911752455 -13.1317245575327,1.9053247472677 -12.9618342270551,2.8395959687524 -12.7276282871274,3.75232326914808 -12.4325820066598,4.63717122596242 -12.0809403852605,5.48847272433372 -11.6775716147881,6.30133107240611 -11.2278095793657,7.07168611670808 -10.7372917400117,7.79634643445719 -10.2118033654229,8.47298794894481 -9.65713330121913,9.10012242953904 -9.07894658533914,9.67704406861269 -7.87344331195865,10.6808868990624 -6.63461477242239,11.491489824266 -5.31319774050679,12.159045262669 -3.84109279941863,12.701120404958 -3.05237060296529,12.9133840007565 -2.2319211017472,13.0801751007509 -1.38318829544658,13.1969406284382 -0.510354991369769,13.259411353443 0.381673118628192,13.2637391991976 1.28731326583167,13.2066376660049 2.20038291234962,13.0855175233348 3.11420694341334,12.8986110790427 4.02175485967155,12.6450756793601 4.91580266179084,12.3250694011956 5.78911123505457,11.9397924752077 6.63461477242239,11.491489824266 7.4456080437438,10.9834135634552 8.21592189574188,10.4197446539279 8.94007936738355,9.80547982599236 9.61342145909869,9.14628780989462 10.2321990943102,8.44834629737241 10.7936270040442,7.71816482628659 11.2958986115445,6.96240824217605 11.7381645707355,6.18772535211957 12.1204800354582,5.40059419398096 12.4437244671701,4.60718715180605 12.7095039041844,3.81326157121746 12.9200392693732,3.0240763363453 13.1866409370808,1.47815847899113 13.2692295448448,0" style=" stroke-width: 0.0000010000;stroke: #ffffff; fill: none; " xmlns="http://www.w3.org/2000/svg" />
  <g id="ComplexString2d_1270" style=" fill-rule: evenodd; stroke-width: 0.0000000000;stroke: #ffffff; fill: #ffffff; " xmlns="http://www.w3.org/2000/svg">
    <path d="M 13.2692295448448 0 L 13.1866409370808 -1.47815847899113 L 12.9200392693732 -3.0240763363453 L 12.7095039041844 -3.81326157121746 L 12.4437244671701 -4.60718715180605 L 12.1204800354582 -5.40059419398096 L 11.7381645707355 -6.18772535211957 L 11.2958986115445 -6.96240824217605 L 10.7936270040442 -7.71816482628659 L 10.2321990943102 -8.44834629737241 L 9.61342145909869 -9.14628780989462 L 8.94007936738355 -9.80547982599236 L 8.21592189574188 -10.4197446539279 L 7.4456080437438 -10.9834135634552 L 6.63461477242239 -11.491489824266 L 5.78911123505457 -11.9397924752077 L 4.91580266179084 -12.3250694011956 L 4.02175485967155 -12.6450756793601 L 3.11420694341334 -12.8986110790427 L 2.20038291234962 -13.0855175233348 L 1.28731326583167 -13.2066376660049 L 0.381673118628192 -13.2637391991976 L -0.510354991369769 -13.259411353443 L -1.38318829544658 -13.1969406284382 L -2.2319211017472 -13.0801751007509 L -3.05237060296529 -12.9133840007565 L -3.84109279941863 -12.701120404958 L -5.31319774050679 -12.159045262669 L -6.63461477242239 -11.491489824266 L -7.87344331195865 -10.6808868990624 L -9.07894658533914 -9.67704406861269 L -9.65713330121913 -9.10012242953904 L -10.2118033654229 -8.47298794894481 L -10.7372917400117 -7.79634643445719 L -11.2278095793657 -7.07168611670808 L -11.6775716147881 -6.30133107240611 L -12.0809403852605 -5.48847272433372 L -12.4325820066598 -4.63717122596242 L -12.7276282871274 -3.75232326914808 L -12.9618342270551 -2.8395959687524 L -13.1317245575327 -1.9053247472677 L -13.2347191634138 -0.956378911752455 L -13.2692295448448 0 L -13.2347191634138 0.956378911752455 L -13.1317245575327 1.9053247472677 L -12.9618342270551 2.8395959687524 L -12.7276282871274 3.75232326914808 L -12.4325820066598 4.63717122596242 L -12.0809403852605 5.48847272433372 L -11.6775716147881 6.30133107240611 L -11.2278095793657 7.07168611670808 L -10.7372917400117 7.79634643445719 L -10.2118033654229 8.47298794894481 L -9.65713330121913 9.10012242953904 L -9.07894658533914 9.67704406861269 L -7.87344331195865 10.6808868990624 L -6.63461477242239 11.491489824266 L -5.31319774050679 12.159045262669 L -3.84109279941863 12.701120404958 L -3.05237060296529 12.9133840007565 L -2.2319211017472 13.0801751007509 L -1.38318829544658 13.1969406284382 L -0.510354991369769 13.259411353443 L 0.381673118628192 13.2637391991976 L 1.28731326583167 13.2066376660049 L 2.20038291234962 13.0855175233348 L 3.11420694341334 12.8986110790427 L 4.02175485967155 12.6450756793601 L 4.91580266179084 12.3250694011956 L 5.78911123505457 11.9397924752077 L 6.63461477242239 11.491489824266 L 7.4456080437438 10.9834135634552 L 8.21592189574188 10.4197446539279 L 8.94007936738355 9.80547982599236 L 9.61342145909869 9.14628780989462 L 10.2321990943102 8.44834629737241 L 10.7936270040442 7.71816482628659 L 11.2958986115445 6.96240824217605 L 11.7381645707355 6.18772535211957 L 12.1204800354582 5.40059419398096 L 12.4437244671701 4.60718715180605 L 12.7095039041844 3.81326157121746 L 12.9200392693732 3.0240763363453 L 13.1866409370808 1.47815847899113 L 13.2692295448448 0 " />
  </g>
</svg>