<?xml version="1.0" encoding="UTF-8"?>
<svg viewBox="-15.0000063499261 -15.0001206485967 30 27.2727410116584" xmlns="http://www.w3.org/2000/svg" xmlns:xlink="http://www.w3.org/1999/xlink" xmlns:gmsvgsym="http://www.intergraph.com/GeoMedia/svgsym">
  <!-- Creator: SVG Document for Symbols-->
  <path id="LineString2d_1305" style=" stroke-width: 0.0000010000;stroke: #4dd228; fill: none; " d="M -8.62438213472468 12.2726188456126 L -10.6065444321895 10.6065444321895 L -12.9903333341903 7.49997240564905 L -14.4888626699817 3.88227896506798 L -15.0000056294751 3.81818151560206E-06 L -14.4889237608859 -3.88229151052153 L -12.9904388796365 -7.50002940564454 L -10.6066663412708 -10.606662250362 L -7.50005476927889 -12.9904721523611 L -3.88231687415589 -14.4889995790618 L 0 -15.0001188112843 L 3.88231578324688 -14.4889963063347 L 7.50005122382462 -12.9904661523616 L 10.6066592503623 -10.6066554321808 L 12.990428516001 -7.50002340564501 L 14.4889106699779 -3.88228796506727 L 14.9999919931125 3.81818151560206E-06 L 14.4888498518009 3.88227569234097 L 12.9903229705548 7.49996640564953 L 10.606537341281 10.606537341281 L 8.62436822563487 12.2726188456126 L 5.49246256473835 9.42543170760747 L 7.71382820688342 7.71382820688342 L 9.44749206949562 5.45451202229128 L 10.537335255856 2.82347050352092 L 10.909083226396 3.81818151560206E-06 L 10.5373963467602 -2.82348304897447 L 9.4475976149418 -5.45456902228676 L 7.71395011596467 -7.7139460250559 L 5.45459684046638 -9.44763525130245 L 2.82351086715409 -10.5374817103898 L 0 -10.9092100445678 L -2.82351168533584 -10.5374852558441 L -5.45460038592064 -9.44764125130197 L -7.71395693414595 -7.71395311596443 L -9.44760797857734 -5.45457502228629 L -10.537409164941 -2.82348632170149 L -10.9090968627586 3.81818151560206E-06 L -10.537348346764 2.82347404897519 L -9.44750243313116 5.4545180222908 L -7.7138350250647 7.7138350250647 L -5.49247647382816 9.42543170760747 L -8.62438213472468 12.2726188456126 " xmlns="http://www.w3.org/2000/svg" />
  <g id="ComplexString2d_1306" style=" fill-rule: evenodd; stroke-width: 0.0000000000;stroke: #4dd228; fill: #4dd228; " xmlns="http://www.w3.org/2000/svg">
    <path d="M -8.62438213472468 12.2726188456126 L -10.6065444321895 10.6065444321895 L -12.9903333341903 7.49997240564905 L -14.4888626699817 3.88227896506798 L -15.0000056294751 3.81818151560206E-06 L -14.4889237608859 -3.88229151052153 L -12.9904388796365 -7.50002940564454 L -10.6066663412708 -10.606662250362 L -7.50005476927889 -12.9904721523611 L -3.88231687415589 -14.4889995790618 L 0 -15.0001188112843 L 3.88231578324688 -14.4889963063347 L 7.50005122382462 -12.9904661523616 L 10.6066592503623 -10.6066554321808 L 12.990428516001 -7.50002340564501 L 14.4889106699779 -3.88228796506727 L 14.9999919931125 3.81818151560206E-06 L 14.4888498518009 3.88227569234097 L 12.9903229705548 7.49996640564953 L 10.606537341281 10.606537341281 L 8.62436822563487 12.2726188456126 L 5.49246256473835 9.42543170760747 L 7.71382820688342 7.71382820688342 L 9.44749206949562 5.45451202229128 L 10.537335255856 2.82347050352092 L 10.909083226396 3.81818151560206E-06 L 10.5373963467602 -2.82348304897447 L 9.4475976149418 -5.45456902228676 L 7.71395011596467 -7.7139460250559 L 5.45459684046638 -9.44763525130245 L 2.82351086715409 -10.5374817103898 L 0 -10.9092100445678 L -2.82351168533584 -10.5374852558441 L -5.45460038592064 -9.44764125130197 L -7.71395693414595 -7.71395311596443 L -9.44760797857734 -5.45457502228629 L -10.537409164941 -2.82348632170149 L -10.9090968627586 3.81818151560206E-06 L -10.537348346764 2.82347404897519 L -9.44750243313116 5.4545180222908 L -7.7138350250647 7.7138350250647 L -5.49247647382816 9.42543170760747 L -8.62438213472468 12.2726188456126 " />
  </g>
</svg>