<?xml version="1.0" encoding="UTF-8"?>
<svg viewBox="-15 -15 30 30" xmlns="http://www.w3.org/2000/svg" xmlns:xlink="http://www.w3.org/1999/xlink" xmlns:gmsvgsym="http://www.intergraph.com/GeoMedia/svgsym">
  <!-- Creator: SVG Document for Symbols-->
  <polyline points="14.9999988112938,0 14.906637864147,-1.67096168576298 14.6052619789392,-3.41852100181945 14.0668191579729,-5.20812476908948 13.7014123687485,-6.10501956164954 13.269229675725,-6.99482003659 12.7692768517084,-7.87054846719107 12.2014915785219,-8.72488212676035 11.5668338560894,-9.55030465225711 10.8673461387945,-10.3392820897329 10.106176790024,-11.0844555761347 9.28756399126036,-11.7788419301975 8.41677437844971,-12.416032879702 7.49999940564691,-12.9903799705503 6.54421270866295,-13.4971568394806 5.55699433235167,-13.9326873958751 4.54633163971647,-14.2944336399351 3.52040794829066,-14.5810387535861 2.48738953015436,-14.7923242368423 1.45522379376867,-14.9292427259919 0.431456556717417,-14.9937923572402 -0.57692299973508,-14.9889000394461 -1.56360410336166,-14.9182809995879 -2.52304125460179,-14.7862851009573 -3.45050590837565,-14.5977386613536 -4.34210488317357,-14.3577884530962 -6.00622356947884,-13.7450079562027 -7.49999940564691,-12.9903799705503 -8.90041429466812,-12.0740461340761 -10.2631570957656,-10.9392674512768 -11.5437779033711,-9.57816033186781 -12.1378082653868,-8.81326130157474 -12.6923066759899,-7.9940800028561 -13.2007334084258,-7.12324389004914 -13.6567153722906,-6.2043605992316 -14.0542233862438,-5.24201972094886 -14.3877539507215,-4.24175680021678 -14.6525084297405,-3.20997806380042 -14.8445584599757,-2.15384532931404 -14.9609870871127,-1.08112395977862 -14.9999988112938,0 -14.9609870871127,1.08112395977862 -14.8445584599757,2.15384532931404 -14.6525084297405,3.20997806380042 -14.3877539507215,4.24175680021678 -14.0542233862438,5.24201972094886 -13.6567153722906,6.2043605992316 -13.2007334084258,7.12324389004914 -12.6923066759899,7.9940800028561 -12.1378082653868,8.81326130157474 -11.5437779033711,9.57816033186781 -10.9167595439695,10.2870950484141 -10.2631570957656,10.9392674512768 -8.90041429466812,12.0740461340761 -7.49999940564691,12.9903799705503 -6.00622356947884,13.7450079562027 -4.34210488317357,14.3577884530962 -2.52304125460179,14.7862851009573 -1.56360410336166,14.9182809995879 -0.57692299973508,14.9889000394461 0.431456556717417,14.9937923572402 1.45522379376867,14.9292427259919 2.48738953015436,14.7923242368423 3.52040794829066,14.5810387535861 4.54633163971647,14.2944336399351 5.55699433235167,13.9326873958751 6.54421270866295,13.4971568394806 7.49999940564691,12.9903799705503 8.41677437844971,12.416032879702 9.28756399126036,11.7788419301975 10.106176790024,11.0844555761347 10.8673461387945,10.3392820897329 11.5668338560894,9.55030465225711 12.2014915785219,8.72488212676035 12.7692768517084,7.87054846719107 13.269229675725,6.99482003659 13.7014123687485,6.10501956164954 14.0668191579729,5.20812476908948 14.3672654523452,4.31064347657589 14.6052619789392,3.41852100181945 14.906637864147,1.67096168576298 14.9999988112938,0" style=" stroke-width: 0.0000010000;stroke: #ffffff; fill: none; " xmlns="http://www.w3.org/2000/svg" />
  <g id="ComplexString2d_1380" style=" fill-rule: evenodd; stroke-width: 0.0000000000;stroke: #ffffff; fill: #ffffff; " xmlns="http://www.w3.org/2000/svg">
    <path d="M 14.9999988112938 0 L 14.906637864147 -1.67096168576298 L 14.6052619789392 -3.41852100181945 L 14.0668191579729 -5.20812476908948 L 13.7014123687485 -6.10501956164954 L 13.269229675725 -6.99482003659 L 12.7692768517084 -7.87054846719107 L 12.2014915785219 -8.72488212676035 L 11.5668338560894 -9.55030465225711 L 10.8673461387945 -10.3392820897329 L 10.106176790024 -11.0844555761347 L 9.28756399126036 -11.7788419301975 L 8.41677437844971 -12.416032879702 L 7.49999940564691 -12.9903799705503 L 6.54421270866295 -13.4971568394806 L 5.55699433235167 -13.9326873958751 L 4.54633163971647 -14.2944336399351 L 3.52040794829066 -14.5810387535861 L 2.48738953015436 -14.7923242368423 L 1.45522379376867 -14.9292427259919 L 0.431456556717417 -14.9937923572402 L -0.57692299973508 -14.9889000394461 L -1.56360410336166 -14.9182809995879 L -2.52304125460179 -14.7862851009573 L -3.45050590837565 -14.5977386613536 L -4.34210488317357 -14.3577884530962 L -6.00622356947884 -13.7450079562027 L -7.49999940564691 -12.9903799705503 L -8.90041429466812 -12.0740461340761 L -10.2631570957656 -10.9392674512768 L -11.5437779033711 -9.57816033186781 L -12.1378082653868 -8.81326130157474 L -12.6923066759899 -7.9940800028561 L -13.2007334084258 -7.12324389004914 L -13.6567153722906 -6.2043605992316 L -14.0542233862438 -5.24201972094886 L -14.3877539507215 -4.24175680021678 L -14.6525084297405 -3.20997806380042 L -14.8445584599757 -2.15384532931404 L -14.9609870871127 -1.08112395977862 L -14.9999988112938 0 L -14.9609870871127 1.08112395977862 L -14.8445584599757 2.15384532931404 L -14.6525084297405 3.20997806380042 L -14.3877539507215 4.24175680021678 L -14.0542233862438 5.24201972094886 L -13.6567153722906 6.2043605992316 L -13.2007334084258 7.12324389004914 L -12.6923066759899 7.9940800028561 L -12.1378082653868 8.81326130157474 L -11.5437779033711 9.57816033186781 L -10.9167595439695 10.2870950484141 L -10.2631570957656 10.9392674512768 L -8.90041429466812 12.0740461340761 L -7.49999940564691 12.9903799705503 L -6.00622356947884 13.7450079562027 L -4.34210488317357 14.3577884530962 L -2.52304125460179 14.7862851009573 L -1.56360410336166 14.9182809995879 L -0.57692299973508 14.9889000394461 L 0.431456556717417 14.9937923572402 L 1.45522379376867 14.9292427259919 L 2.48738953015436 14.7923242368423 L 3.52040794829066 14.5810387535861 L 4.54633163971647 14.2944336399351 L 5.55699433235167 13.9326873958751 L 6.54421270866295 13.4971568394806 L 7.49999940564691 12.9903799705503 L 8.41677437844971 12.416032879702 L 9.28756399126036 11.7788419301975 L 10.106176790024 11.0844555761347 L 10.8673461387945 10.3392820897329 L 11.5668338560894 9.55030465225711 L 12.2014915785219 8.72488212676035 L 12.7692768517084 7.87054846719107 L 13.269229675725 6.99482003659 L 13.7014123687485 6.10501956164954 L 14.0668191579729 5.20812476908948 L 14.3672654523452 4.31064347657589 L 14.6052619789392 3.41852100181945 L 14.906637864147 1.67096168576298 L 14.9999988112938 0 " />
  </g>
</svg>