<?xml version="1.0" encoding="UTF-8"?>
<svg viewBox="-14.7368395770187 -36.3158011345667 30 42.1052760313026" xmlns="http://www.w3.org/2000/svg" xmlns:xlink="http://www.w3.org/1999/xlink" xmlns:gmsvgsym="http://www.intergraph.com/GeoMedia/svgsym">
  <!-- Creator: SVG Document for Symbols-->
  <path id="LineString2d_1205" style=" stroke-width: 0.0000010000;stroke: #ffffff; fill: none; " d="M -5.78947443793695 5.78947443793695 L -5.78947443793695 -15.7894782661442 L -14.7368385501546 -15.7894782661442 L -14.7368385501546 -27.3684271420181 L -5.78947443793695 -27.3684271420181 L -5.78947443793695 -36.3157967279206 L 5.78947443793695 -36.3157967279206 L 5.78947443793695 -27.3684271420181 L 14.7368494975244 -27.3684271420181 L 14.7368494975244 -15.7894782661442 L 5.78947443793695 -15.7894782661442 L 5.78947443793695 -5.78947443793695 L 15.2631598818338 -5.78947443793695 L 15.2631598818338 5.78947443793695 L -5.78947443793695 5.78947443793695 " xmlns="http://www.w3.org/2000/svg" />
  <g id="ComplexString2d_1206" style=" fill-rule: evenodd; stroke-width: 0.0000000000;stroke: #ffffff; fill: #ffffff; " xmlns="http://www.w3.org/2000/svg">
    <path d="M -5.78947443793695 5.78947443793695 L -5.78947443793695 -15.7894782661442 L -14.7368385501546 -15.7894782661442 L -14.7368385501546 -27.3684271420181 L -5.78947443793695 -27.3684271420181 L -5.78947443793695 -36.3157967279206 L 5.78947443793695 -36.3157967279206 L 5.78947443793695 -27.3684271420181 L 14.7368494975244 -27.3684271420181 L 14.7368494975244 -15.7894782661442 L 5.78947443793695 -15.7894782661442 L 5.78947443793695 -5.78947443793695 L 15.2631598818338 -5.78947443793695 L 15.2631598818338 5.78947443793695 L -5.78947443793695 5.78947443793695 " />
  </g>
</svg>