<?xml version="1.0" encoding="UTF-8"?>
<svg viewBox="-15 -15 30 30" xmlns="http://www.w3.org/2000/svg" xmlns:xlink="http://www.w3.org/1999/xlink" xmlns:gmsvgsym="http://www.intergraph.com/GeoMedia/svgsym">
  <!-- Creator: SVG Document for Symbols-->
  <polyline points="14.9999987054617,0 14.9773402074172,-0.824163178872609 14.906637713519,-1.67096185579172 14.783883474113,-2.53707528104391 14.6052619895285,-3.4185209549729 14.3672652600682,-4.31064362798043 14.0668190359975,-5.20812455052553 13.7014123175331,-6.1050194731212 13.2692296048315,-6.99481989632915 12.7692766479788,-7.87054832075154 12.2014914469801,-8.72488199702036 11.5668337517527,-9.55030442578429 10.8673460621202,-10.3392821076935 10.1061766278111,-11.0844555433831 9.28756394845947,-11.7788419834558 8.41677427361085,-12.4160329284646 7.49999935273087,-12.990379878897 6.5442126852177,-13.4971568351608 5.55699427041718,-13.9326872975734 4.54633160763995,-14.2944335163538 3.52040794617979,-14.5810387416191 2.48738953533192,-14.7923242233846 1.45522387441046,-14.9292427115682 0.431456462764203,-14.9937922059974 -0.576922950210073,-14.9888999564196 -1.56360411505696,-14.9182809625142 -2.52304128225508,-14.7862849739058 -3.45050595221251,-14.5977384901778 -4.34210487526524,-14.3577882608861 -5.19477005167805,-14.0717562855714 -6.00622348164755,-13.7450078137707 -6.77492391530673,-13.3828385950268 -7.49999935273087,-12.990379878897 -8.20241629211049,-12.5586754161542 -8.90041423187148,-12.0740459579789 -9.58911342243498,-11.5346810045275 -10.2631571142633,-10.9392673059132 -10.9167595578557,-10.2870951121974 -11.5437777537424,-9.57816042338025 -12.1378082024761,-8.81326123939301 -12.6923066546215,-7.99408006009044 -13.2007333607429,-7.12324388524583 -13.6567153213905,-6.20436046454782 -14.0542232870846,-5.2420195476003 -14.3877537583,-4.24175663392555 -14.652508485451,-3.20997797297069 -14.8445582188766,-2.15384531411764 -14.9609869588285,-1.08112390669624 -14.9999987054617,0 -14.9609869588285,1.08112390669624 -14.8445582188766,2.15384531411764 -14.652508485451,3.20997797297069 -14.3877537583,4.24175663392555 -14.0542232870846,5.2420195476003 -13.6567153213905,6.20436046454782 -13.2007333607429,7.12324388524583 -12.6923066546215,7.99408006009044 -12.1378082024761,8.81326123939301 -11.5437777537424,9.57816042338025 -10.9167595578557,10.2870951121974 -10.2631571142633,10.9392673059132 -9.58911342243498,11.5346810045275 -8.90041423187148,12.0740459579789 -8.20241629211049,12.5586754161542 -7.49999935273087,12.990379878897 -6.77492391530673,13.3828385950268 -6.00622348164755,13.7450078137707 -5.19477005167805,14.0717562855714 -4.34210487526524,14.3577882608861 -3.45050595221251,14.5977384901778 -2.52304128225508,14.7862849739058 -1.56360411505696,14.9182809625142 -0.576922950210073,14.9888999564196 0.431456462764203,14.9937922059974 1.45522387441046,14.9292427115682 2.48738953533192,14.7923242233846 3.52040794617979,14.5810387416191 4.54633160763995,14.2944335163538 5.55699427041718,13.9326872975734 6.5442126852177,13.4971568351608 7.49999935273087,12.990379878897 8.41677427361085,12.4160329284646 9.28756394845947,11.7788419834558 10.1061766278111,11.0844555433831 10.8673460621202,10.3392821076935 11.5668337517527,9.55030442578429 12.2014914469801,8.72488199702036 12.7692766479788,7.87054832075154 13.2692296048315,6.99481989632915 13.7014123175331,6.1050194731212 14.0668190359975,5.20812455052553 14.3672652600682,4.31064362798043 14.6052619895285,3.4185209549729 14.783883474113,2.53707528104391 14.906637713519,1.67096185579172 14.9773402074172,0.824163178872609 14.9999987054617,0" style=" stroke-width: 0.0000010000;stroke: #ffffff; fill: none; " xmlns="http://www.w3.org/2000/svg" />
  <g id="ComplexString2d_1248" style=" fill-rule: evenodd; stroke-width: 0.0000000000;stroke: #ffffff; fill: #ffffff; " xmlns="http://www.w3.org/2000/svg">
    <path d="M 14.9999987054617 0 L 14.9773402074172 -0.824163178872609 L 14.906637713519 -1.67096185579172 L 14.783883474113 -2.53707528104391 L 14.6052619895285 -3.4185209549729 L 14.3672652600682 -4.31064362798043 L 14.0668190359975 -5.20812455052553 L 13.7014123175331 -6.1050194731212 L 13.2692296048315 -6.99481989632915 L 12.7692766479788 -7.87054832075154 L 12.2014914469801 -8.72488199702036 L 11.5668337517527 -9.55030442578429 L 10.8673460621202 -10.3392821076935 L 10.1061766278111 -11.0844555433831 L 9.28756394845947 -11.7788419834558 L 8.41677427361085 -12.4160329284646 L 7.49999935273087 -12.990379878897 L 6.5442126852177 -13.4971568351608 L 5.55699427041718 -13.9326872975734 L 4.54633160763995 -14.2944335163538 L 3.52040794617979 -14.5810387416191 L 2.48738953533192 -14.7923242233846 L 1.45522387441046 -14.9292427115682 L 0.431456462764203 -14.9937922059974 L -0.576922950210073 -14.9888999564196 L -1.56360411505696 -14.9182809625142 L -2.52304128225508 -14.7862849739058 L -3.45050595221251 -14.5977384901778 L -4.34210487526524 -14.3577882608861 L -5.19477005167805 -14.0717562855714 L -6.00622348164755 -13.7450078137707 L -6.77492391530673 -13.3828385950268 L -7.49999935273087 -12.990379878897 L -8.20241629211049 -12.5586754161542 L -8.90041423187148 -12.0740459579789 L -9.58911342243498 -11.5346810045275 L -10.2631571142633 -10.9392673059132 L -10.9167595578557 -10.2870951121974 L -11.5437777537424 -9.57816042338025 L -12.1378082024761 -8.81326123939301 L -12.6923066546215 -7.99408006009044 L -13.2007333607429 -7.12324388524583 L -13.6567153213905 -6.20436046454782 L -14.0542232870846 -5.2420195476003 L -14.3877537583 -4.24175663392555 L -14.652508485451 -3.20997797297069 L -14.8445582188766 -2.15384531411764 L -14.9609869588285 -1.08112390669624 L -14.9999987054617 0 L -14.9609869588285 1.08112390669624 L -14.8445582188766 2.15384531411764 L -14.652508485451 3.20997797297069 L -14.3877537583 4.24175663392555 L -14.0542232870846 5.2420195476003 L -13.6567153213905 6.20436046454782 L -13.2007333607429 7.12324388524583 L -12.6923066546215 7.99408006009044 L -12.1378082024761 8.81326123939301 L -11.5437777537424 9.57816042338025 L -10.9167595578557 10.2870951121974 L -10.2631571142633 10.9392673059132 L -9.58911342243498 11.5346810045275 L -8.90041423187148 12.0740459579789 L -8.20241629211049 12.5586754161542 L -7.49999935273087 12.990379878897 L -6.77492391530673 13.3828385950268 L -6.00622348164755 13.7450078137707 L -5.19477005167805 14.0717562855714 L -4.34210487526524 14.3577882608861 L -3.45050595221251 14.5977384901778 L -2.52304128225508 14.7862849739058 L -1.56360411505696 14.9182809625142 L -0.576922950210073 14.9888999564196 L 0.431456462764203 14.9937922059974 L 1.45522387441046 14.9292427115682 L 2.48738953533192 14.7923242233846 L 3.52040794617979 14.5810387416191 L 4.54633160763995 14.2944335163538 L 5.55699427041718 13.9326872975734 L 6.5442126852177 13.4971568351608 L 7.49999935273087 12.990379878897 L 8.41677427361085 12.4160329284646 L 9.28756394845947 11.7788419834558 L 10.1061766278111 11.0844555433831 L 10.8673460621202 10.3392821076935 L 11.5668337517527 9.55030442578429 L 12.2014914469801 8.72488199702036 L 12.7692766479788 7.87054832075154 L 13.2692296048315 6.99481989632915 L 13.7014123175331 6.1050194731212 L 14.0668190359975 5.20812455052553 L 14.3672652600682 4.31064362798043 L 14.6052619895285 3.4185209549729 L 14.783883474113 2.53707528104391 L 14.906637713519 1.67096185579172 L 14.9773402074172 0.824163178872609 L 14.9999987054617 0 " />
  </g>
</svg>