<?xml version="1.0" encoding="UTF-8" standalone="no"?>
<svg
   xmlns:dc="http://purl.org/dc/elements/1.1/"
   xmlns:cc="http://creativecommons.org/ns#"
   xmlns:rdf="http://www.w3.org/1999/02/22-rdf-syntax-ns#"
   xmlns:svg="http://www.w3.org/2000/svg"
   xmlns="http://www.w3.org/2000/svg"
   xmlns:sodipodi="http://sodipodi.sourceforge.net/DTD/sodipodi-0.dtd"
   xmlns:inkscape="http://www.inkscape.org/namespaces/inkscape"
   viewBox="-15 -15 30 30"
   version="1.1"
   id="svg17"
   sodipodi:docname="0010_613.svg"
   inkscape:version="0.48.3.1 r9886"
   width="100%"
   height="100%">
  <metadata
     id="metadata14">
    <rdf:RDF>
      <cc:Work
         rdf:about="">
        <dc:format>image/svg+xml</dc:format>
        <dc:type
           rdf:resource="http://purl.org/dc/dcmitype/StillImage" />
      </cc:Work>
    </rdf:RDF>
  </metadata>
  <defs
     id="defs21" />
  <sodipodi:namedview
     id="namedview19"
     pagecolor="#ffffff"
     bordercolor="#000000"
     borderopacity="0.25"
     inkscape:showpageshadow="2"
     inkscape:pageopacity="0.0"
     inkscape:pagecheckerboard="0"
     inkscape:deskcolor="#d1d1d1"
     showgrid="false"
     inkscape:zoom="7.8666667"
     inkscape:cx="-3.559322"
     inkscape:cy="15.063559"
     inkscape:window-width="767"
     inkscape:window-height="415"
     inkscape:window-x="800"
     inkscape:window-y="175"
     inkscape:window-maximized="0"
     inkscape:current-layer="svg17" />
  <!-- Creator: SVG Document for Symbols-->
  <polyline
     points="14.9999987054617,0 14.9773402074172,-0.824163178872609 14.906637713519,-1.67096185579172 14.783883474113,-2.53707528104391 14.6052619895285,-3.4185209549729 14.3672652600682,-4.31064362798043 14.0668190359975,-5.20812455052553 13.7014123175331,-6.1050194731212 13.2692296048315,-6.99481989632915 12.7692766479788,-7.87054832075154 12.2014914469801,-8.72488199702036 11.5668337517527,-9.55030442578429 10.8673460621202,-10.3392821076935 10.1061766278111,-11.0844555433831 9.28756394845947,-11.7788419834558 8.41677427361085,-12.4160329284646 7.49999935273087,-12.990379878897 6.5442126852177,-13.4971568351608 5.55699427041718,-13.9326872975734 4.54633160763995,-14.2944335163538 3.52040794617979,-14.5810387416191 2.48738953533192,-14.7923242233846 1.45522387441046,-14.9292427115682 0.431456462764203,-14.9937922059974 -0.576922950210073,-14.9888999564196 -1.56360411505696,-14.9182809625142 -2.52304128225508,-14.7862849739058 -3.45050595221251,-14.5977384901778 -4.34210487526524,-14.3577882608861 -5.19477005167805,-14.0717562855714 -6.00622348164755,-13.7450078137707 -6.77492391530673,-13.3828385950268 -7.49999935273087,-12.990379878897 -8.20241629211049,-12.5586754161542 -8.90041423187148,-12.0740459579789 -9.58911342243498,-11.5346810045275 -10.2631571142633,-10.9392673059132 -10.9167595578557,-10.2870951121974 -11.5437777537424,-9.57816042338025 -12.1378082024761,-8.81326123939301 -12.6923066546215,-7.99408006009044 -13.2007333607429,-7.12324388524583 -13.6567153213905,-6.20436046454782 -14.0542232870846,-5.2420195476003 -14.3877537583,-4.24175663392555 -14.652508485451,-3.20997797297069 -14.8445582188766,-2.15384531411764 -14.9609869588285,-1.08112390669624 -14.9999987054617,0 -14.9609869588285,1.08112390669624 -14.8445582188766,2.15384531411764 -14.652508485451,3.20997797297069 -14.3877537583,4.24175663392555 -14.0542232870846,5.2420195476003 -13.6567153213905,6.20436046454782 -13.2007333607429,7.12324388524583 -12.6923066546215,7.99408006009044 -12.1378082024761,8.81326123939301 -11.5437777537424,9.57816042338025 -10.9167595578557,10.2870951121974 -10.2631571142633,10.9392673059132 -9.58911342243498,11.5346810045275 -8.90041423187148,12.0740459579789 -8.20241629211049,12.5586754161542 -7.49999935273087,12.990379878897 -6.77492391530673,13.3828385950268 -6.00622348164755,13.7450078137707 -5.19477005167805,14.0717562855714 -4.34210487526524,14.3577882608861 -3.45050595221251,14.5977384901778 -2.52304128225508,14.7862849739058 -1.56360411505696,14.9182809625142 -0.576922950210073,14.9888999564196 0.431456462764203,14.9937922059974 1.45522387441046,14.9292427115682 2.48738953533192,14.7923242233846 3.52040794617979,14.5810387416191 4.54633160763995,14.2944335163538 5.55699427041718,13.9326872975734 6.5442126852177,13.4971568351608 7.49999935273087,12.990379878897 8.41677427361085,12.4160329284646 9.28756394845947,11.7788419834558 10.1061766278111,11.0844555433831 10.8673460621202,10.3392821076935 11.5668337517527,9.55030442578429 12.2014914469801,8.72488199702036 12.7692766479788,7.87054832075154 13.2692296048315,6.99481989632915 13.7014123175331,6.1050194731212 14.0668190359975,5.20812455052553 14.3672652600682,4.31064362798043 14.6052619895285,3.4185209549729 14.783883474113,2.53707528104391 14.906637713519,1.67096185579172 14.9773402074172,0.824163178872609 14.9999987054617,0"
     style=" stroke-width: 0.0000010000;stroke: #59d9ff; fill: none; "
     id="polyline2" />
  <g
     id="ComplexString2d_1279"
     style="fill-rule:evenodd;stroke-width:0;stroke:none;fill:#53aedd;fill-opacity:1;stroke-opacity:1">
    <path
       d="M 14.9999987054617 0 L 14.9773402074172 -0.824163178872609 L 14.906637713519 -1.67096185579172 L 14.783883474113 -2.53707528104391 L 14.6052619895285 -3.4185209549729 L 14.3672652600682 -4.31064362798043 L 14.0668190359975 -5.20812455052553 L 13.7014123175331 -6.1050194731212 L 13.2692296048315 -6.99481989632915 L 12.7692766479788 -7.87054832075154 L 12.2014914469801 -8.72488199702036 L 11.5668337517527 -9.55030442578429 L 10.8673460621202 -10.3392821076935 L 10.1061766278111 -11.0844555433831 L 9.28756394845947 -11.7788419834558 L 8.41677427361085 -12.4160329284646 L 7.49999935273087 -12.990379878897 L 6.5442126852177 -13.4971568351608 L 5.55699427041718 -13.9326872975734 L 4.54633160763995 -14.2944335163538 L 3.52040794617979 -14.5810387416191 L 2.48738953533192 -14.7923242233846 L 1.45522387441046 -14.9292427115682 L 0.431456462764203 -14.9937922059974 L -0.576922950210073 -14.9888999564196 L -1.56360411505696 -14.9182809625142 L -2.52304128225508 -14.7862849739058 L -3.45050595221251 -14.5977384901778 L -4.34210487526524 -14.3577882608861 L -5.19477005167805 -14.0717562855714 L -6.00622348164755 -13.7450078137707 L -6.77492391530673 -13.3828385950268 L -7.49999935273087 -12.990379878897 L -8.20241629211049 -12.5586754161542 L -8.90041423187148 -12.0740459579789 L -9.58911342243498 -11.5346810045275 L -10.2631571142633 -10.9392673059132 L -10.9167595578557 -10.2870951121974 L -11.5437777537424 -9.57816042338025 L -12.1378082024761 -8.81326123939301 L -12.6923066546215 -7.99408006009044 L -13.2007333607429 -7.12324388524583 L -13.6567153213905 -6.20436046454782 L -14.0542232870846 -5.2420195476003 L -14.3877537583 -4.24175663392555 L -14.652508485451 -3.20997797297069 L -14.8445582188766 -2.15384531411764 L -14.9609869588285 -1.08112390669624 L -14.9999987054617 0 L -14.9609869588285 1.08112390669624 L -14.8445582188766 2.15384531411764 L -14.652508485451 3.20997797297069 L -14.3877537583 4.24175663392555 L -14.0542232870846 5.2420195476003 L -13.6567153213905 6.20436046454782 L -13.2007333607429 7.12324388524583 L -12.6923066546215 7.99408006009044 L -12.1378082024761 8.81326123939301 L -11.5437777537424 9.57816042338025 L -10.9167595578557 10.2870951121974 L -10.2631571142633 10.9392673059132 L -9.58911342243498 11.5346810045275 L -8.90041423187148 12.0740459579789 L -8.20241629211049 12.5586754161542 L -7.49999935273087 12.990379878897 L -6.77492391530673 13.3828385950268 L -6.00622348164755 13.7450078137707 L -5.19477005167805 14.0717562855714 L -4.34210487526524 14.3577882608861 L -3.45050595221251 14.5977384901778 L -2.52304128225508 14.7862849739058 L -1.56360411505696 14.9182809625142 L -0.576922950210073 14.9888999564196 L 0.431456462764203 14.9937922059974 L 1.45522387441046 14.9292427115682 L 2.48738953533192 14.7923242233846 L 3.52040794617979 14.5810387416191 L 4.54633160763995 14.2944335163538 L 5.55699427041718 13.9326872975734 L 6.5442126852177 13.4971568351608 L 7.49999935273087 12.990379878897 L 8.41677427361085 12.4160329284646 L 9.28756394845947 11.7788419834558 L 10.1061766278111 11.0844555433831 L 10.8673460621202 10.3392821076935 L 11.5668337517527 9.55030442578429 L 12.2014914469801 8.72488199702036 L 12.7692766479788 7.87054832075154 L 13.2692296048315 6.99481989632915 L 13.7014123175331 6.1050194731212 L 14.0668190359975 5.20812455052553 L 14.3672652600682 4.31064362798043 L 14.6052619895285 3.4185209549729 L 14.783883474113 2.53707528104391 L 14.906637713519 1.67096185579172 L 14.9773402074172 0.824163178872609 L 14.9999987054617 0 "
       id="path4"
       style="fill:#53aedd;fill-opacity:1;stroke:none;stroke-opacity:1" />
  </g>
  <polyline
     points="11.2499990290963,0 11.2330050305629,-0.618122196654473 11.1799782851393,-1.25322139184379 11.0879125430848,-1.90280633578295 10.9539463046464,-2.56389077872967 10.7754490700512,-3.23298272098532 10.5501143394981,-3.90609341289414 10.2760591131498,-4.5787646048409 9.95192214112366,-5.24611504724685 9.57695767348405,-5.90291124056366 9.15111871023504,-6.54366143526528 8.6751252513145,-7.16272838183821 8.15050954659017,-7.75446158077013 7.57963259585831,-8.31334153253736 6.96567289884461,-8.83413148759185 6.31258070520814,-9.31202469634844 5.62499951454815,-9.74278490917274 4.90815957641327,-10.1228676263706 4.16774564031289,-10.4495153481801 3.40974870572996,-10.7208250747654 2.64030577213486,-10.9357790562143 1.86554208899894,-11.0942430425384 1.09141790580784,-11.1969320336761 0.323592472073142,-11.245344279498 -0.432692212657555,-11.2416750298147 -1.17270314879272,-11.1887105343857 -1.89228083669132,-11.0897137929293 -2.58787952665938,-10.9483038051334 -3.25657871894892,-10.7683413206646 -3.89607766375853,-10.5538170891786 -4.50466761123566,-10.308755860328 -5.08119281148006,-10.0371288837701 -5.62499951454815,-9.74278490917274 -6.15181221908287,-9.41900668711562 -6.67531067390361,-9.05553446848421 -7.19183512932623,-8.65101075339564 -7.69736783569746,-8.20445054193493 -8.1875695433918,-7.71532133414803 -8.65783325280684,-7.1836201300352 -9.10335621435707,-6.60994592954475 -9.5192299284661,-5.99555998256783 -9.90054989555721,-5.34243278893438 -10.2425363660429,-4.65327034841086 -10.5406673403134,-3.93151466070023 -10.790815318725,-3.18131747544416 -10.9893813015883,-2.40748354222801 -11.1334187891575,-1.61538411058822 -11.2207402816214,-0.810842930022181 -11.2499990290963,0 -11.2207402816214,0.810842930022181 -11.1334187891575,1.61538411058822 -10.9893813015883,2.40748354222801 -10.790815318725,3.18131747544416 -10.5406673403134,3.93151466070023 -10.2425363660429,4.65327034841086 -9.90054989555721,5.34243278893438 -9.5192299284661,5.99555998256783 -9.10335621435707,6.60994592954475 -8.65783325280684,7.1836201300352 -8.1875695433918,7.71532133414803 -7.69736783569746,8.20445054193493 -7.19183512932623,8.65101075339564 -6.67531067390361,9.05553446848421 -6.15181221908287,9.41900668711562 -5.62499951454815,9.74278490917274 -5.08119281148006,10.0371288837701 -4.50466761123566,10.308755860328 -3.89607766375853,10.5538170891786 -3.25657871894892,10.7683413206646 -2.58787952665938,10.9483038051334 -1.89228083669132,11.0897137929293 -1.17270314879272,11.1887105343857 -0.432692212657555,11.2416750298147 0.323592472073142,11.245344279498 1.09141790580784,11.1969320336761 1.86554208899894,11.0942430425384 2.64030577213486,10.9357790562143 3.40974870572996,10.7208250747654 4.16774564031289,10.4495153481801 4.90815957641327,10.1228676263706 5.62499951454815,9.74278490917274 6.31258070520814,9.31202469634844 6.96567289884461,8.83413148759185 7.57963259585831,8.31334153253736 8.15050954659017,7.75446158077013 8.6751252513145,7.16272838183821 9.15111871023504,6.54366143526528 9.57695767348405,5.90291124056366 9.95192214112366,5.24611504724685 10.2760591131498,4.5787646048409 10.5501143394981,3.90609341289414 10.7754490700512,3.23298272098532 10.9539463046464,2.56389077872967 11.0879125430848,1.90280633578295 11.1799782851393,1.25322139184379 11.2330050305629,0.618122196654473 11.2499990290963,0"
     style=" stroke-width: 0.0000010000;stroke: #ffffff; fill: none; "
     id="polyline7" />
  <g
     id="ComplexString2d_1280"
     style=" fill-rule: evenodd; stroke-width: 0.0000000000;stroke: #ffffff; fill: #ffffff; ">
    <path
       d="M 11.2499990290963 0 L 11.2330050305629 -0.618122196654473 L 11.1799782851393 -1.25322139184379 L 11.0879125430848 -1.90280633578295 L 10.9539463046464 -2.56389077872967 L 10.7754490700512 -3.23298272098532 L 10.5501143394981 -3.90609341289414 L 10.2760591131498 -4.5787646048409 L 9.95192214112366 -5.24611504724685 L 9.57695767348405 -5.90291124056366 L 9.15111871023504 -6.54366143526528 L 8.6751252513145 -7.16272838183821 L 8.15050954659017 -7.75446158077013 L 7.57963259585831 -8.31334153253736 L 6.96567289884461 -8.83413148759185 L 6.31258070520814 -9.31202469634844 L 5.62499951454815 -9.74278490917274 L 4.90815957641327 -10.1228676263706 L 4.16774564031289 -10.4495153481801 L 3.40974870572996 -10.7208250747654 L 2.64030577213486 -10.9357790562143 L 1.86554208899894 -11.0942430425384 L 1.09141790580784 -11.1969320336761 L 0.323592472073142 -11.245344279498 L -0.432692212657555 -11.2416750298147 L -1.17270314879272 -11.1887105343857 L -1.89228083669132 -11.0897137929293 L -2.58787952665938 -10.9483038051334 L -3.25657871894892 -10.7683413206646 L -3.89607766375853 -10.5538170891786 L -4.50466761123566 -10.308755860328 L -5.08119281148006 -10.0371288837701 L -5.62499951454815 -9.74278490917274 L -6.15181221908287 -9.41900668711562 L -6.67531067390361 -9.05553446848421 L -7.19183512932623 -8.65101075339564 L -7.69736783569746 -8.20445054193493 L -8.1875695433918 -7.71532133414803 L -8.65783325280684 -7.1836201300352 L -9.10335621435707 -6.60994592954475 L -9.5192299284661 -5.99555998256783 L -9.90054989555721 -5.34243278893438 L -10.2425363660429 -4.65327034841086 L -10.5406673403134 -3.93151466070023 L -10.790815318725 -3.18131747544416 L -10.9893813015883 -2.40748354222801 L -11.1334187891575 -1.61538411058822 L -11.2207402816214 -0.810842930022181 L -11.2499990290963 0 L -11.2207402816214 0.810842930022181 L -11.1334187891575 1.61538411058822 L -10.9893813015883 2.40748354222801 L -10.790815318725 3.18131747544416 L -10.5406673403134 3.93151466070023 L -10.2425363660429 4.65327034841086 L -9.90054989555721 5.34243278893438 L -9.5192299284661 5.99555998256783 L -9.10335621435707 6.60994592954475 L -8.65783325280684 7.1836201300352 L -8.1875695433918 7.71532133414803 L -7.69736783569746 8.20445054193493 L -7.19183512932623 8.65101075339564 L -6.67531067390361 9.05553446848421 L -6.15181221908287 9.41900668711562 L -5.62499951454815 9.74278490917274 L -5.08119281148006 10.0371288837701 L -4.50466761123566 10.308755860328 L -3.89607766375853 10.5538170891786 L -3.25657871894892 10.7683413206646 L -2.58787952665938 10.9483038051334 L -1.89228083669132 11.0897137929293 L -1.17270314879272 11.1887105343857 L -0.432692212657555 11.2416750298147 L 0.323592472073142 11.245344279498 L 1.09141790580784 11.1969320336761 L 1.86554208899894 11.0942430425384 L 2.64030577213486 10.9357790562143 L 3.40974870572996 10.7208250747654 L 4.16774564031289 10.4495153481801 L 4.90815957641327 10.1228676263706 L 5.62499951454815 9.74278490917274 L 6.31258070520814 9.31202469634844 L 6.96567289884461 8.83413148759185 L 7.57963259585831 8.31334153253736 L 8.15050954659017 7.75446158077013 L 8.6751252513145 7.16272838183821 L 9.15111871023504 6.54366143526528 L 9.57695767348405 5.90291124056366 L 9.95192214112366 5.24611504724685 L 10.2760591131498 4.5787646048409 L 10.5501143394981 3.90609341289414 L 10.7754490700512 3.23298272098532 L 10.9539463046464 2.56389077872967 L 11.0879125430848 1.90280633578295 L 11.1799782851393 1.25322139184379 L 11.2330050305629 0.618122196654473 L 11.2499990290963 0 "
       id="path9" />
  </g>
  <polyline
     points="4.99999956848724,0 4.968879321173,-0.556987201930579 4.86842057984285,-1.13950690165764 4.68893959533252,-1.73604160017517 4.42307661827717,-2.33160654877639 4.25642563265958,-2.62351602358386 4.06716389899335,-2.90829399900679 3.85561116725089,-3.18343472526144 3.62244868737341,-3.44642745256449 3.36872545927037,-3.69481843112772 3.09585473281982,-3.92628066115193 2.80559150787027,-4.13867764282153 2.49999978424362,-4.33012662629899 2.18140431173923,-4.49905236172027 1.85233134013907,-4.64422909919115 1.51544386921332,-4.76481108878461 1.17346939872659,-4.86034633053968 0.829129928443966,-4.93077482446152 0.485074708136812,-4.97641432052271 0.143818737588075,-4.99793081866578 -0.192307733403351,-4.99630006880652 -0.841013677418368,-4.92876157463527 -1.44736837508841,-4.78592933696205 -2.00207457721584,-4.58166935459021 -2.49999978424362,-4.33012662629899 -2.96680474395716,-4.02468190265965 -3.42105245475442,-3.64642243530441 -3.84792591791415,-3.19272022446008 -4.23076888487382,-2.66469327003015 -4.40024437024765,-2.37441454508195 -4.55223835713018,-2.06812007151595 -4.68474109569486,-1.7473398492001 -4.79591783610002,-1.41391887797518 -4.88416957848367,-1.0699926576569 -4.94818607295888,-0.717948438039213 -4.98699556960952,-0.36037471889874 -4.99999956848724,0 -4.98699556960952,0.36037471889874 -4.94818607295888,0.717948438039213 -4.88416957848367,1.0699926576569 -4.79591783610002,1.41391887797518 -4.68474109569486,1.7473398492001 -4.55223835713018,2.06812007151595 -4.40024437024765,2.37441454508195 -4.23076888487382,2.66469327003015 -3.84792591791415,3.19272022446008 -3.42105245475442,3.64642243530441 -2.96680474395716,4.02468190265965 -2.49999978424362,4.33012662629899 -2.00207457721584,4.58166935459021 -1.44736837508841,4.78592933696205 -0.841013677418368,4.92876157463527 -0.192307733403351,4.99630006880652 0.143818737588075,4.99793081866578 0.485074708136812,4.97641432052271 0.829129928443966,4.93077482446152 1.17346939872659,4.86034633053968 1.51544386921332,4.76481108878461 1.85233134013907,4.64422909919115 2.18140431173923,4.49905236172027 2.49999978424362,4.33012662629899 2.80559150787027,4.13867764282153 3.09585473281982,3.92628066115193 3.36872545927037,3.69481843112772 3.62244868737341,3.44642745256449 3.85561116725089,3.18343472526144 4.06716389899335,2.90829399900679 4.25642563265958,2.62351602358386 4.42307661827717,2.33160654877639 4.68893959533252,1.73604160017517 4.86842057984285,1.13950690165764 4.968879321173,0.556987201930579 4.99999956848724,0"
     style=" stroke-width: 0.0000010000;stroke: #59d9ff; fill: none; "
     id="polyline12" />
  <g
     id="ComplexString2d_1281"
     style="fill-rule:evenodd;stroke-width:0;stroke:none;fill:#53aedd;stroke-opacity:1;fill-opacity:1">
    <path
       d="M 4.99999956848724 0 L 4.968879321173 -0.556987201930579 L 4.86842057984285 -1.13950690165764 L 4.68893959533252 -1.73604160017517 L 4.42307661827717 -2.33160654877639 L 4.25642563265958 -2.62351602358386 L 4.06716389899335 -2.90829399900679 L 3.85561116725089 -3.18343472526144 L 3.62244868737341 -3.44642745256449 L 3.36872545927037 -3.69481843112772 L 3.09585473281982 -3.92628066115193 L 2.80559150787027 -4.13867764282153 L 2.49999978424362 -4.33012662629899 L 2.18140431173923 -4.49905236172027 L 1.85233134013907 -4.64422909919115 L 1.51544386921332 -4.76481108878461 L 1.17346939872659 -4.86034633053968 L 0.829129928443966 -4.93077482446152 L 0.485074708136812 -4.97641432052271 L 0.143818737588075 -4.99793081866578 L -0.192307733403351 -4.99630006880652 L -0.841013677418368 -4.92876157463527 L -1.44736837508841 -4.78592933696205 L -2.00207457721584 -4.58166935459021 L -2.49999978424362 -4.33012662629899 L -2.96680474395716 -4.02468190265965 L -3.42105245475442 -3.64642243530441 L -3.84792591791415 -3.19272022446008 L -4.23076888487382 -2.66469327003015 L -4.40024437024765 -2.37441454508195 L -4.55223835713018 -2.06812007151595 L -4.68474109569486 -1.7473398492001 L -4.79591783610002 -1.41391887797518 L -4.88416957848367 -1.0699926576569 L -4.94818607295888 -0.717948438039213 L -4.98699556960952 -0.36037471889874 L -4.99999956848724 0 L -4.98699556960952 0.36037471889874 L -4.94818607295888 0.717948438039213 L -4.88416957848367 1.0699926576569 L -4.79591783610002 1.41391887797518 L -4.68474109569486 1.7473398492001 L -4.55223835713018 2.06812007151595 L -4.40024437024765 2.37441454508195 L -4.23076888487382 2.66469327003015 L -3.84792591791415 3.19272022446008 L -3.42105245475442 3.64642243530441 L -2.96680474395716 4.02468190265965 L -2.49999978424362 4.33012662629899 L -2.00207457721584 4.58166935459021 L -1.44736837508841 4.78592933696205 L -0.841013677418368 4.92876157463527 L -0.192307733403351 4.99630006880652 L 0.143818737588075 4.99793081866578 L 0.485074708136812 4.97641432052271 L 0.829129928443966 4.93077482446152 L 1.17346939872659 4.86034633053968 L 1.51544386921332 4.76481108878461 L 1.85233134013907 4.64422909919115 L 2.18140431173923 4.49905236172027 L 2.49999978424362 4.33012662629899 L 2.80559150787027 4.13867764282153 L 3.09585473281982 3.92628066115193 L 3.36872545927037 3.69481843112772 L 3.62244868737341 3.44642745256449 L 3.85561116725089 3.18343472526144 L 4.06716389899335 2.90829399900679 L 4.25642563265958 2.62351602358386 L 4.42307661827717 2.33160654877639 L 4.68893959533252 1.73604160017517 L 4.86842057984285 1.13950690165764 L 4.968879321173 0.556987201930579 L 4.99999956848724 0 "
       id="path14"
       style="stroke:none;stroke-opacity:1;fill:#53aedd;fill-opacity:1" />
  </g>
</svg>
