<?xml version="1.0" encoding="UTF-8"?>
<svg viewBox="-15.0000014967681 -36.4286021479554 30 51.4286006511873" xmlns="http://www.w3.org/2000/svg" xmlns:xlink="http://www.w3.org/1999/xlink" xmlns:gmsvgsym="http://www.intergraph.com/GeoMedia/svgsym">
  <!-- Creator: SVG Document for Symbols-->
  <path id="LineString2d_1202" style=" stroke-width: 0.0000010000;stroke: #ffffff; fill: none; " d="M -5.89285683808011 -13.7939895658941 L -5.89285683808011 -17.6786028713768 L -15.0000004709569 -17.6786028713768 L -15.0000004709569 -29.4643148332517 L -5.89285683808011 -29.4643148332517 L -5.89285683808011 -36.4285991743595 L 5.89285512379474 -36.4285991743595 L 5.89285512379474 -29.4643148332517 L 14.9999936138154 -29.4643148332517 L 14.9999936138154 -17.6786028713768 L 5.89285512379474 -17.6786028713768 L 5.89285512379474 -13.7939904230368 L 1.66602738578794 -14.9071884178285 L -1.60714339739835 -14.9071884178285 L -5.89285683808011 -13.7939895658941 " xmlns="http://www.w3.org/2000/svg" />
  <g id="ComplexString2d_1203" style=" fill-rule: evenodd; stroke-width: 0.0000000000;stroke: #ffffff; fill: #ffffff; " xmlns="http://www.w3.org/2000/svg">
    <path d="M -5.89285683808011 -13.7939895658941 L -5.89285683808011 -17.6786028713768 L -15.0000004709569 -17.6786028713768 L -15.0000004709569 -29.4643148332517 L -5.89285683808011 -29.4643148332517 L -5.89285683808011 -36.4285991743595 L 5.89285512379474 -36.4285991743595 L 5.89285512379474 -29.4643148332517 L 14.9999936138154 -29.4643148332517 L 14.9999936138154 -17.6786028713768 L 5.89285512379474 -17.6786028713768 L 5.89285512379474 -13.7939904230368 L 1.66602738578794 -14.9071884178285 L -1.60714339739835 -14.9071884178285 L -5.89285683808011 -13.7939895658941 " />
  </g>
  <polyline points="14.9999970423862,0 14.9773384754253,-0.824163051781947 14.906635989366,-1.6709615276722 14.7838817992843,-2.53707507118259 14.6052603345038,-3.41852075452701 14.3672637385735,-4.31064300719487 14.0668174406709,-5.20812411594895 13.7014106555769,-6.10501893910435 13.2692281693636,-6.99481919223004 12.7692752679415,-7.87054751955892 12.2014902370369,-8.72488113682058 11.5668324336037,-9.55030354549707 11.225021501,-9.949814109581 10.867344857239,-10.339280889931 10.4942306450932,-10.7177906010129 10.1061755787505,-11.0844541715734 9.70374365809977,-11.438412101782 9.28756295444562,-11.7788406775154 8.85832346765204,-12.1049583989277 8.4167732690001,-12.4160315518777 7.9637146440459,-12.7113791364999 7.49999852119309,-12.9903784386313 7.02651997169374,-13.2524688869538 6.54421199536391,-13.4971552672794 6.05403973487042,-13.7240124368347 5.55699361858942,-13.9326857528325 5.05408357489321,-14.1228945010425 4.54633110358038,-14.2944318957912 4.03476370444832,-14.4471655085332 3.52040737729473,-14.5810370535657 3.00428105049015,-14.6960608880289 2.48738908097939,-14.7923225119057 1.97071675428246,-14.8699759965944 1.45522364163873,-14.9292409849089 0.431456486356443,-14.9937906864671 -0.576923029102752,-14.9888983302888 -1.56360397741178,-14.918279201356 -2.52304107394973,-14.7862832988107 -3.45050546250617,-14.5977369788444 -4.34210442956291,-14.3577867404421 -5.19476961858211,-14.0717547968403 -6.00622295858437,-13.7450062184095 -6.77492309273075,-13.3828370755343 -7.49999852119309,-12.9903784386313 -8.20241538269454,-12.5586740237523 -8.9004132450673,-12.0740446907373 -9.58911239498782,-11.5346797256577 -10.2631559049409,-10.9392662002008 -10.9167582760673,-10.2870939716495 -11.5437765810069,-9.5781591828618 -12.1378068924508,-8.81326026225163 -12.6923051402608,-7.99407913805881 -13.2007317542979,-7.12324295262246 -13.65671366439,-6.2043598480883 -14.0542217288688,-5.24201896640861 -14.2293025514902,-4.74624677844786 -14.3877522345337,-4.24175616363473 -14.5289943495415,-3.72937490752028 -14.6525066823309,-3.20997772421777 -14.757827232993,-2.68448239926051 -14.844556573035,-2.15384507531712 -14.9123632025225,-1.61905403790702 -14.960985264364,-1.0811239296873 -14.9902346157396,-0.541089536168196 -14.9999970423862,0 -14.9902346157396,0.541089536168196 -14.960985264364,1.0811239296873 -14.9123632025225,1.61905403790702 -14.844556573035,2.15384507531712 -14.757827232993,2.68448239926051 -14.6525066823309,3.20997772421777 -14.5289943495415,3.72937490752028 -14.3877522345337,4.24175616363473 -14.2293025514902,4.74624677844786 -14.0542217288688,5.24201896640861 -13.8631354808318,5.7282972276699 -13.65671366439,6.2043598480883 -13.2007317542979,7.12324295262246 -12.6923051402608,7.99407913805881 -12.1378068924508,8.81326026225163 -11.5437765810069,9.5781591828618 -10.9167582760673,10.2870939716495 -10.2631559049409,10.9392662002008 -9.58911239498782,11.5346797256577 -8.9004132450673,12.0740446907373 -8.20241538269454,12.5586740237523 -7.49999852119309,12.9903784386313 -6.77492309273075,13.3828370755343 -6.00622295858437,13.7450062184095 -5.19476961858211,14.0717547968403 -4.34210442956291,14.3577867404421 -3.45050546250617,14.5977369788444 -2.52304107394973,14.7862832988107 -1.56360397741178,14.918279201356 -0.576923029102752,14.9888983302888 0.431456486356443,14.9937906864671 1.45522364163873,14.9292409849089 2.48738908097939,14.7923225119057 3.00428105049015,14.6960608880289 3.52040737729473,14.5810370535657 4.03476370444832,14.4471655085332 4.54633110358038,14.2944318957912 5.05408357489321,14.1228945010425 5.55699361858942,13.9326857528325 6.05403973487042,13.7240124368347 6.54421199536391,13.4971552672794 7.02651997169374,13.2524688869538 7.49999852119309,12.9903784386313 7.9637146440459,12.7113791364999 8.4167732690001,12.4160315518777 8.85832346765204,12.1049583989277 9.28756295444562,11.7788406775154 9.70374365809977,11.438412101782 10.1061755787505,11.0844541715734 10.4942306450932,10.7177906010129 10.867344857239,10.339280889931 11.225021501,9.949814109581 11.5668324336037,9.55030354549707 11.8924185122636,9.14167876892452 12.2014902370369,8.72488113682058 12.7692752679415,7.87054751955892 13.2692281693636,6.99481919223004 13.7014106555769,6.10501893910435 14.0668174406709,5.20812411594895 14.3672637385735,4.31064300719487 14.6052603345038,3.41852075452701 14.7838817992843,2.53707507118259 14.906635989366,1.6709615276722 14.9773384754253,0.824163051781947 14.9999970423862,0" style=" stroke-width: 0.0000010000;stroke: #ffffff; fill: none; " xmlns="http://www.w3.org/2000/svg" />
  <g id="ComplexString2d_1204" style=" fill-rule: evenodd; stroke-width: 0.0000000000;stroke: #ffffff; fill: #ffffff; " xmlns="http://www.w3.org/2000/svg">
    <path d="M 14.9999970423862 0 L 14.9773384754253 -0.824163051781947 L 14.906635989366 -1.6709615276722 L 14.7838817992843 -2.53707507118259 L 14.6052603345038 -3.41852075452701 L 14.3672637385735 -4.31064300719487 L 14.0668174406709 -5.20812411594895 L 13.7014106555769 -6.10501893910435 L 13.2692281693636 -6.99481919223004 L 12.7692752679415 -7.87054751955892 L 12.2014902370369 -8.72488113682058 L 11.5668324336037 -9.55030354549707 L 11.225021501 -9.949814109581 L 10.867344857239 -10.339280889931 L 10.4942306450932 -10.7177906010129 L 10.1061755787505 -11.0844541715734 L 9.70374365809977 -11.438412101782 L 9.28756295444562 -11.7788406775154 L 8.85832346765204 -12.1049583989277 L 8.4167732690001 -12.4160315518777 L 7.9637146440459 -12.7113791364999 L 7.49999852119309 -12.9903784386313 L 7.02651997169374 -13.2524688869538 L 6.54421199536391 -13.4971552672794 L 6.05403973487042 -13.7240124368347 L 5.55699361858942 -13.9326857528325 L 5.05408357489321 -14.1228945010425 L 4.54633110358038 -14.2944318957912 L 4.03476370444832 -14.4471655085332 L 3.52040737729473 -14.5810370535657 L 3.00428105049015 -14.6960608880289 L 2.48738908097939 -14.7923225119057 L 1.97071675428246 -14.8699759965944 L 1.45522364163873 -14.9292409849089 L 0.431456486356443 -14.9937906864671 L -0.576923029102752 -14.9888983302888 L -1.56360397741178 -14.918279201356 L -2.52304107394973 -14.7862832988107 L -3.45050546250617 -14.5977369788444 L -4.34210442956291 -14.3577867404421 L -5.19476961858211 -14.0717547968403 L -6.00622295858437 -13.7450062184095 L -6.77492309273075 -13.3828370755343 L -7.49999852119309 -12.9903784386313 L -8.20241538269454 -12.5586740237523 L -8.9004132450673 -12.0740446907373 L -9.58911239498782 -11.5346797256577 L -10.2631559049409 -10.9392662002008 L -10.9167582760673 -10.2870939716495 L -11.5437765810069 -9.5781591828618 L -12.1378068924508 -8.81326026225163 L -12.6923051402608 -7.99407913805881 L -13.2007317542979 -7.12324295262246 L -13.65671366439 -6.2043598480883 L -14.0542217288688 -5.24201896640861 L -14.2293025514902 -4.74624677844786 L -14.3877522345337 -4.24175616363473 L -14.5289943495415 -3.72937490752028 L -14.6525066823309 -3.20997772421777 L -14.757827232993 -2.68448239926051 L -14.844556573035 -2.15384507531712 L -14.9123632025225 -1.61905403790702 L -14.960985264364 -1.0811239296873 L -14.9902346157396 -0.541089536168196 L -14.9999970423862 0 L -14.9902346157396 0.541089536168196 L -14.960985264364 1.0811239296873 L -14.9123632025225 1.61905403790702 L -14.844556573035 2.15384507531712 L -14.757827232993 2.68448239926051 L -14.6525066823309 3.20997772421777 L -14.5289943495415 3.72937490752028 L -14.3877522345337 4.24175616363473 L -14.2293025514902 4.74624677844786 L -14.0542217288688 5.24201896640861 L -13.8631354808318 5.7282972276699 L -13.65671366439 6.2043598480883 L -13.2007317542979 7.12324295262246 L -12.6923051402608 7.99407913805881 L -12.1378068924508 8.81326026225163 L -11.5437765810069 9.5781591828618 L -10.9167582760673 10.2870939716495 L -10.2631559049409 10.9392662002008 L -9.58911239498782 11.5346797256577 L -8.9004132450673 12.0740446907373 L -8.20241538269454 12.5586740237523 L -7.49999852119309 12.9903784386313 L -6.77492309273075 13.3828370755343 L -6.00622295858437 13.7450062184095 L -5.19476961858211 14.0717547968403 L -4.34210442956291 14.3577867404421 L -3.45050546250617 14.5977369788444 L -2.52304107394973 14.7862832988107 L -1.56360397741178 14.918279201356 L -0.576923029102752 14.9888983302888 L 0.431456486356443 14.9937906864671 L 1.45522364163873 14.9292409849089 L 2.48738908097939 14.7923225119057 L 3.00428105049015 14.6960608880289 L 3.52040737729473 14.5810370535657 L 4.03476370444832 14.4471655085332 L 4.54633110358038 14.2944318957912 L 5.05408357489321 14.1228945010425 L 5.55699361858942 13.9326857528325 L 6.05403973487042 13.7240124368347 L 6.54421199536391 13.4971552672794 L 7.02651997169374 13.2524688869538 L 7.49999852119309 12.9903784386313 L 7.9637146440459 12.7113791364999 L 8.4167732690001 12.4160315518777 L 8.85832346765204 12.1049583989277 L 9.28756295444562 11.7788406775154 L 9.70374365809977 11.438412101782 L 10.1061755787505 11.0844541715734 L 10.4942306450932 10.7177906010129 L 10.867344857239 10.339280889931 L 11.225021501 9.949814109581 L 11.5668324336037 9.55030354549707 L 11.8924185122636 9.14167876892452 L 12.2014902370369 8.72488113682058 L 12.7692752679415 7.87054751955892 L 13.2692281693636 6.99481919223004 L 13.7014106555769 6.10501893910435 L 14.0668174406709 5.20812411594895 L 14.3672637385735 4.31064300719487 L 14.6052603345038 3.41852075452701 L 14.7838817992843 2.53707507118259 L 14.906635989366 1.6709615276722 L 14.9773384754253 0.824163051781947 L 14.9999970423862 0 " />
  </g>
</svg>