<?xml version="1.0" encoding="UTF-8"?>
<svg viewBox="-15 -15 30 30" xmlns="http://www.w3.org/2000/svg" xmlns:xlink="http://www.w3.org/1999/xlink" xmlns:gmsvgsym="http://www.intergraph.com/GeoMedia/svgsym">
  <!-- Creator: SVG Document for Symbols-->
  <polyline points="14.9999989382923,0 14.9066378949005,-1.67096178172846 14.605262116232,-3.41852105803532 14.0668193043433,-5.20812473136625 13.2692297607971,-6.99482005490303 12.769276946184,-7.87054849291852 12.2014917363721,-8.72488213244834 11.5668339812935,-9.55030462402451 10.8673462308036,-10.3392822181803 10.1061768346796,-11.0844556154365 9.28756404262143,-11.7788421662875 8.41677450425636,-12.4160329711868 7.49999946914617,-12.9903800805342 6.54421273679725,-13.4971569946643 5.55699440667307,-13.9326875138372 4.5463316782083,-14.2944337882326 3.52040795082371,-14.5810389179465 2.48738952394129,-14.7923244029917 1.45522384699851,-14.9292428933005 0.431456519461285,-14.9937925387316 -0.576923059165088,-14.9889001390779 -2.52304122141784,-14.7862852534191 -4.34210489266358,-14.3577885337483 -6.00622367487639,-13.7450079771212 -7.49999946914617,-12.9903800805342 -8.90041437002408,-12.0740461953928 -10.2631572235684,-10.939267475713 -11.5437779329254,-9.57816052205286 -12.692306851632,-7.99408008417489 -13.2007334656453,-7.12324389581312 -13.6567154333706,-6.20436061085216 -14.0542235052348,-5.24201977896714 -14.3877540316274,-4.24175684976626 -14.6525086628879,-3.20997817279609 -14.8445585992945,-2.15384534754972 -14.9609872410536,-1.08112402347748 -14.9999989382923,0 -14.9609872410536,1.08112402347748 -14.8445585992945,2.15384534754972 -14.6525086628879,3.20997817279609 -14.3877540316274,4.24175684976626 -14.0542235052348,5.24201977896714 -13.6567154333706,6.20436061085216 -13.2007334656453,7.12324389581312 -12.692306851632,7.99408008417489 -11.5437779329254,9.57816052205286 -10.2631572235684,10.939267475713 -8.90041437002408,12.0740461953928 -7.49999946914617,12.9903800805342 -6.00622367487639,13.7450079771212 -4.34210489266358,14.3577885337483 -2.52304122141784,14.7862852534191 -0.576923059165088,14.9889001390779 0.431456519461285,14.9937925387316 1.45522384699851,14.9292428933005 2.48738952394129,14.7923244029917 3.52040795082371,14.5810389179465 4.5463316782083,14.2944337882326 5.55699440667307,13.9326875138372 6.54421273679725,13.4971569946643 7.49999946914617,12.9903800805342 8.41677450425636,12.4160329711868 9.28756404262143,11.7788421662875 10.1061768346796,11.0844556154365 10.8673462308036,10.3392822181803 11.5668339812935,9.55030462402451 12.2014917363721,8.72488213244834 12.769276946184,7.87054849291852 13.2692297607971,6.99482005490303 14.0668193043433,5.20812473136625 14.605262116232,3.41852105803532 14.9066378949005,1.67096178172846 14.9999989382923,0" style=" stroke-width: 0.0000010000;stroke: #ffffff; fill: none; " xmlns="http://www.w3.org/2000/svg" />
  <g id="ComplexString2d_1219" style=" fill-rule: evenodd; stroke-width: 0.0000000000;stroke: #ffffff; fill: #ffffff; " xmlns="http://www.w3.org/2000/svg">
    <path d="M 14.9999989382923 0 L 14.9066378949005 -1.67096178172846 L 14.605262116232 -3.41852105803532 L 14.0668193043433 -5.20812473136625 L 13.2692297607971 -6.99482005490303 L 12.769276946184 -7.87054849291852 L 12.2014917363721 -8.72488213244834 L 11.5668339812935 -9.55030462402451 L 10.8673462308036 -10.3392822181803 L 10.1061768346796 -11.0844556154365 L 9.28756404262143 -11.7788421662875 L 8.41677450425636 -12.4160329711868 L 7.49999946914617 -12.9903800805342 L 6.54421273679725 -13.4971569946643 L 5.55699440667307 -13.9326875138372 L 4.5463316782083 -14.2944337882326 L 3.52040795082371 -14.5810389179465 L 2.48738952394129 -14.7923244029917 L 1.45522384699851 -14.9292428933005 L 0.431456519461285 -14.9937925387316 L -0.576923059165088 -14.9889001390779 L -2.52304122141784 -14.7862852534191 L -4.34210489266358 -14.3577885337483 L -6.00622367487639 -13.7450079771212 L -7.49999946914617 -12.9903800805342 L -8.90041437002408 -12.0740461953928 L -10.2631572235684 -10.939267475713 L -11.5437779329254 -9.57816052205286 L -12.692306851632 -7.99408008417489 L -13.2007334656453 -7.12324389581312 L -13.6567154333706 -6.20436061085216 L -14.0542235052348 -5.24201977896714 L -14.3877540316274 -4.24175684976626 L -14.6525086628879 -3.20997817279609 L -14.8445585992945 -2.15384534754972 L -14.9609872410536 -1.08112402347748 L -14.9999989382923 0 L -14.9609872410536 1.08112402347748 L -14.8445585992945 2.15384534754972 L -14.6525086628879 3.20997817279609 L -14.3877540316274 4.24175684976626 L -14.0542235052348 5.24201977896714 L -13.6567154333706 6.20436061085216 L -13.2007334656453 7.12324389581312 L -12.692306851632 7.99408008417489 L -11.5437779329254 9.57816052205286 L -10.2631572235684 10.939267475713 L -8.90041437002408 12.0740461953928 L -7.49999946914617 12.9903800805342 L -6.00622367487639 13.7450079771212 L -4.34210489266358 14.3577885337483 L -2.52304122141784 14.7862852534191 L -0.576923059165088 14.9889001390779 L 0.431456519461285 14.9937925387316 L 1.45522384699851 14.9292428933005 L 2.48738952394129 14.7923244029917 L 3.52040795082371 14.5810389179465 L 4.5463316782083 14.2944337882326 L 5.55699440667307 13.9326875138372 L 6.54421273679725 13.4971569946643 L 7.49999946914617 12.9903800805342 L 8.41677450425636 12.4160329711868 L 9.28756404262143 11.7788421662875 L 10.1061768346796 11.0844556154365 L 10.8673462308036 10.3392822181803 L 11.5668339812935 9.55030462402451 L 12.2014917363721 8.72488213244834 L 12.769276946184 7.87054849291852 L 13.2692297607971 6.99482005490303 L 14.0668193043433 5.20812473136625 L 14.605262116232 3.41852105803532 L 14.9066378949005 1.67096178172846 L 14.9999989382923 0 " />
  </g>
</svg>