<?xml version="1.0" encoding="UTF-8"?>
<svg viewBox="-15.0003108288728 -15.0000956933833 30 30.0001913867666" xmlns="http://www.w3.org/2000/svg" xmlns:xlink="http://www.w3.org/1999/xlink" xmlns:gmsvgsym="http://www.intergraph.com/GeoMedia/svgsym">
  <!-- Creator: SVG Document for Symbols-->
  <path id="LineString2d_1332" style=" stroke-width: 0.0000010000;stroke: #8c8c8c; fill: none; " d="M 14.999687589837 0 L 14.8713722048944 1.95790147024683 L 14.488595199812 3.8823070444243 L 13.8579064738212 5.74028527639678 L 12.9900955256559 7.50004981989432 L 11.9000132535734 9.13148427845096 L 10.6063075053854 10.6066795053418 L 9.13111977849373 11.9003876535294 L 7.4996844199372 12.9904786256109 L 5.73992452643912 13.8582945237756 L 3.88194149446719 14.4889911997655 L 1.95753697028961 14.8717737548473 L -0.000371999956347053 15.0000949897892 L -1.95827347020318 14.871758604849 L -3.88267724438085 14.4889605997691 L -5.74064587635447 13.8582531237805 L -7.5003976698535 12.9904255256172 L -9.13181487841217 11.9003311035361 L -10.6069901553053 10.606618155349 L -11.9006780534954 9.13142757845762 L -12.9907472755794 7.49999671990055 L -13.8585448737463 5.74024387640164 L -14.4892245997381 3.8822762944279 L -14.8719953048213 1.95788617024863 L -15.0003088897641 0 L -5.2503239838921 0 L -5.2503239838921 0.750092311979184 L -13.4794598182306 0.750092311979184 L -13.3848282793353 1.76209689322384 L -13.0403360697603 3.49404783998521 L -12.4727257863675 5.16621869376157 L -11.6917093280171 6.74999680791052 L -10.7106480931414 8.21828558561176 L -10.0618405692768 9.00096179376734 L -4.24296625210215 3.18208747659271 L -3.18230632656703 4.24274755212781 L -9.00118079374164 10.0616220193024 L -8.21867273556633 10.7103011431821 L -6.75039775786347 11.6913875780549 L -5.1666206937144 12.4724338864017 L -3.49444878993816 13.0400720697913 L -1.76248419317839 13.3845915793631 L -0.750316561952869 13.4792453182558 L -0.750316561952869 5.25011833391623 L 0.749683262027185 5.25011833391623 L 0.749683262027185 13.4792460682557 L 1.76174769326482 13.3846067293613 L 3.4937130400245 13.0401026697877 L 5.16589949379903 12.4724754363969 L 6.74968450794717 11.6914406780487 L 8.21797778564788 10.7103578431754 L 9.00055124381551 10.0616295193015 L 3.1816691266418 4.24274755212781 L 4.2423292021769 3.18208747659271 L 10.0612119193505 9.00097019376635 L 10.7099834432194 8.21834213560513 L 11.6910575780936 6.75004990790429 L 12.4720873864424 5.1662602437567 L 13.0397065198342 3.4940785899816 L 13.3842050294085 1.76211219322205 L 13.4788386683035 0.750092311979184 L 5.24969203396626 0.750092311979184 L 5.24969203396626 0 L 14.999687589837 0 " xmlns="http://www.w3.org/2000/svg" />
  <g id="ComplexString2d_1333" style=" fill-rule: evenodd; stroke-width: 0.0000000000;stroke: #8c8c8c; fill: #8c8c8c; " xmlns="http://www.w3.org/2000/svg">
    <path d="M 14.999687589837 0 L 14.8713722048944 1.95790147024683 L 14.488595199812 3.8823070444243 L 13.8579064738212 5.74028527639678 L 12.9900955256559 7.50004981989432 L 11.9000132535734 9.13148427845096 L 10.6063075053854 10.6066795053418 L 9.13111977849373 11.9003876535294 L 7.4996844199372 12.9904786256109 L 5.73992452643912 13.8582945237756 L 3.88194149446719 14.4889911997655 L 1.95753697028961 14.8717737548473 L -0.000371999956347053 15.0000949897892 L -1.95827347020318 14.871758604849 L -3.88267724438085 14.4889605997691 L -5.74064587635447 13.8582531237805 L -7.5003976698535 12.9904255256172 L -9.13181487841217 11.9003311035361 L -10.6069901553053 10.606618155349 L -11.9006780534954 9.13142757845762 L -12.9907472755794 7.49999671990055 L -13.8585448737463 5.74024387640164 L -14.4892245997381 3.8822762944279 L -14.8719953048213 1.95788617024863 L -15.0003088897641 0 L -5.2503239838921 0 L -5.2503239838921 0.750092311979184 L -13.4794598182306 0.750092311979184 L -13.3848282793353 1.76209689322384 L -13.0403360697603 3.49404783998521 L -12.4727257863675 5.16621869376157 L -11.6917093280171 6.74999680791052 L -10.7106480931414 8.21828558561176 L -10.0618405692768 9.00096179376734 L -4.24296625210215 3.18208747659271 L -3.18230632656703 4.24274755212781 L -9.00118079374164 10.0616220193024 L -8.21867273556633 10.7103011431821 L -6.75039775786347 11.6913875780549 L -5.1666206937144 12.4724338864017 L -3.49444878993816 13.0400720697913 L -1.76248419317839 13.3845915793631 L -0.750316561952869 13.4792453182558 L -0.750316561952869 5.25011833391623 L 0.749683262027185 5.25011833391623 L 0.749683262027185 13.4792460682557 L 1.76174769326482 13.3846067293613 L 3.4937130400245 13.0401026697877 L 5.16589949379903 12.4724754363969 L 6.74968450794717 11.6914406780487 L 8.21797778564788 10.7103578431754 L 9.00055124381551 10.0616295193015 L 3.1816691266418 4.24274755212781 L 4.2423292021769 3.18208747659271 L 10.0612119193505 9.00097019376635 L 10.7099834432194 8.21834213560513 L 11.6910575780936 6.75004990790429 L 12.4720873864424 5.1662602437567 L 13.0397065198342 3.4940785899816 L 13.3842050294085 1.76211219322205 L 13.4788386683035 0.750092311979184 L 5.24969203396626 0.750092311979184 L 5.24969203396626 0 L 14.999687589837 0 " />
  </g>
  <path id="LineString2d_1334" style=" stroke-width: 0.0000010000;stroke: #8c8c8c; fill: none; " d="M -15.0003088897641 0 L -14.8719933548215 -1.95790147024683 L -14.4892163497391 -3.8823070444243 L -13.8585277737483 -5.74028527639678 L -12.990716675583 -7.50004981989432 L -11.9006345535005 -9.13148427845096 L -10.6069286553125 -10.6066795053418 L -9.13174092842084 -11.9003876535294 L -7.50030556986431 -12.9904786256109 L -5.74054567636623 -13.8582945237756 L -3.88256279439428 -14.4889911997655 L -1.95815812021672 -14.8717737548473 L -0.000249149970763087 -15.0000949897892 L 1.95765232027607 -14.871758604849 L 3.88205609445374 -14.4889605997691 L 5.74002457642738 -13.8582531237805 L 7.49977636992641 -12.9904255256172 L 9.13119357848507 -11.9003311035361 L 10.6063688553782 -10.606618155349 L 11.9000567535683 -9.13142757845762 L 12.9901261256523 -7.49999671990055 L 13.8579237238192 -5.74024387640164 L 14.488603449811 -3.8822762944279 L 14.8713741548941 -1.95788617024863 L 14.999687589837 0 L 5.24970283396499 0 L 5.24970283396499 -0.750092311979184 L 13.4788386683035 -0.750092311979184 L 13.3842069794082 -1.76209689322384 L 13.0397147698332 -3.49404783998521 L 12.4721046364404 -5.16621869376157 L 11.69108817809 -6.74999680791052 L 10.7100269432143 -8.21828558561176 L 10.0612194193497 -9.00096179376734 L 4.24234510217504 -3.18208747659271 L 3.18168502663994 -4.24274755212781 L 9.00055964381453 -10.0616220193024 L 8.21805158563922 -10.7103011431821 L 6.74977645793638 -11.6913875780549 L 5.16599954378729 -12.4724338864017 L 3.49382749001107 -13.0400720697913 L 1.76186304325128 -13.3845915793631 L 0.749695412025759 -13.4792453182558 L 0.749695412025759 -5.25011833391623 L -0.750304411954295 -5.25011833391623 L -0.750304411954295 -13.4792460682557 L -1.76236899319191 -13.3846067293613 L -3.49433418995161 -13.0401026697877 L -5.16652064372614 -12.4724754363969 L -6.75030565787428 -11.6914406780487 L -8.21859893557499 -10.7103578431754 L -9.00117239374262 -10.0616295193015 L -3.1822904265689 -4.24274755212781 L -4.242950502104 -3.18208747659271 L -10.0618330692777 -9.00097019376635 L -10.7106045931465 -8.21834213560513 L -11.6916787280207 -6.75004990790429 L -12.4727085363695 -5.1662602437567 L -13.0403278197613 -3.4940785899816 L -13.3848261793356 -1.76211219322205 L -13.4794598182306 -0.750092311979184 L -5.25031318389337 -0.750092311979184 L -5.25031318389337 0 L -15.0003088897641 0 " xmlns="http://www.w3.org/2000/svg" />
  <g id="ComplexString2d_1335" style=" fill-rule: evenodd; stroke-width: 0.0000000000;stroke: #8c8c8c; fill: #8c8c8c; " xmlns="http://www.w3.org/2000/svg">
    <path d="M -15.0003088897641 0 L -14.8719933548215 -1.95790147024683 L -14.4892163497391 -3.8823070444243 L -13.8585277737483 -5.74028527639678 L -12.990716675583 -7.50004981989432 L -11.9006345535005 -9.13148427845096 L -10.6069286553125 -10.6066795053418 L -9.13174092842084 -11.9003876535294 L -7.50030556986431 -12.9904786256109 L -5.74054567636623 -13.8582945237756 L -3.88256279439428 -14.4889911997655 L -1.95815812021672 -14.8717737548473 L -0.000249149970763087 -15.0000949897892 L 1.95765232027607 -14.871758604849 L 3.88205609445374 -14.4889605997691 L 5.74002457642738 -13.8582531237805 L 7.49977636992641 -12.9904255256172 L 9.13119357848507 -11.9003311035361 L 10.6063688553782 -10.606618155349 L 11.9000567535683 -9.13142757845762 L 12.9901261256523 -7.49999671990055 L 13.8579237238192 -5.74024387640164 L 14.488603449811 -3.8822762944279 L 14.8713741548941 -1.95788617024863 L 14.999687589837 0 L 5.24970283396499 0 L 5.24970283396499 -0.750092311979184 L 13.4788386683035 -0.750092311979184 L 13.3842069794082 -1.76209689322384 L 13.0397147698332 -3.49404783998521 L 12.4721046364404 -5.16621869376157 L 11.69108817809 -6.74999680791052 L 10.7100269432143 -8.21828558561176 L 10.0612194193497 -9.00096179376734 L 4.24234510217504 -3.18208747659271 L 3.18168502663994 -4.24274755212781 L 9.00055964381453 -10.0616220193024 L 8.21805158563922 -10.7103011431821 L 6.74977645793638 -11.6913875780549 L 5.16599954378729 -12.4724338864017 L 3.49382749001107 -13.0400720697913 L 1.76186304325128 -13.3845915793631 L 0.749695412025759 -13.4792453182558 L 0.749695412025759 -5.25011833391623 L -0.750304411954295 -5.25011833391623 L -0.750304411954295 -13.4792460682557 L -1.76236899319191 -13.3846067293613 L -3.49433418995161 -13.0401026697877 L -5.16652064372614 -12.4724754363969 L -6.75030565787428 -11.6914406780487 L -8.21859893557499 -10.7103578431754 L -9.00117239374262 -10.0616295193015 L -3.1822904265689 -4.24274755212781 L -4.242950502104 -3.18208747659271 L -10.0618330692777 -9.00097019376635 L -10.7106045931465 -8.21834213560513 L -11.6916787280207 -6.75004990790429 L -12.4727085363695 -5.1662602437567 L -13.0403278197613 -3.4940785899816 L -13.3848261793356 -1.76211219322205 L -13.4794598182306 -0.750092311979184 L -5.25031318389337 -0.750092311979184 L -5.25031318389337 0 L -15.0003088897641 0 " />
  </g>
</svg>