<?xml version="1.0" encoding="UTF-8"?>
<svg viewBox="-15 -15 30 30" xmlns="http://www.w3.org/2000/svg" xmlns:xlink="http://www.w3.org/1999/xlink" xmlns:gmsvgsym="http://www.intergraph.com/GeoMedia/svgsym">
  <!-- Creator: SVG Document for Symbols-->
  <polyline points="14.9999990118178,0 14.9066380705999,-1.67096183728743 14.6052621957173,-3.41852109058134 14.066819389084,-5.20812470952648 13.2692299679441,-6.99482006550531 12.7692770008804,-7.87054858676072 12.2014916698644,-8.72488221468876 11.5668339748328,-9.55030468662669 10.8673462840721,-10.3392822135972 10.1061770184275,-11.0844556381902 9.28756423025151,-11.7788422240238 8.41677449814442,-12.4160330241517 7.4999995059089,-12.9903801442091 6.54421283203289,-13.4971570055601 5.55699452864861,-13.9326875031836 4.54633170049304,-14.2944337951417 3.52040787334285,-14.5810389341552 2.48738952034425,-14.7923244991834 1.45522379886842,-14.929242911216 0.431456497891945,-14.9937926438056 -0.576923014624573,-14.9889002757069 -2.52304136010081,-14.7862853416865 -4.34210497710515,-14.3577885804417 -6.00622365694866,-13.7450081471267 -7.4999995059089,-12.9903801442091 -8.90041441365122,-12.0740463098393 -10.2631572186122,-10.9392674898603 -11.5437780289832,-9.57816047426527 -12.6923067954248,-7.99408005230682 -13.2007334987723,-7.12324389915017 -13.6567154687328,-6.20436069652721 -14.054223495177,-5.24201981255667 -14.3877541574149,-4.24175687845281 -14.6525087189206,-3.20997815695149 -14.8445586010054,-2.15384543705458 -14.9609873301773,-1.08112398140841 -14.9999990118178,0 -14.9609873301773,1.08112398140841 -14.8445586010054,2.15384543705458 -14.6525087189206,3.20997815695149 -14.3877541574149,4.24175687845281 -14.054223495177,5.24201981255667 -13.6567154687328,6.20436069652721 -13.2007334987723,7.12324389915017 -12.6923067954248,7.99408005230682 -11.5437780289832,9.57816047426527 -10.2631572186122,10.9392674898603 -8.90041441365122,12.0740463098393 -7.4999995059089,12.9903801442091 -6.00622365694866,13.7450081471267 -4.34210497710515,14.3577885804417 -2.52304136010081,14.7862853416865 -0.576923014624573,14.9889002757069 0.431456497891945,14.9937926438056 1.45522379886842,14.929242911216 2.48738952034425,14.7923244991834 3.52040787334285,14.5810389341552 4.54633170049304,14.2944337951417 5.55699452864861,13.9326875031836 6.54421283203289,13.4971570055601 7.4999995059089,12.9903801442091 8.41677449814442,12.4160330241517 9.28756423025151,11.7788422240238 10.1061770184275,11.0844556381902 10.8673462840721,10.3392822135972 11.5668339748328,9.55030468662669 12.2014916698644,8.72488221468876 12.7692770008804,7.87054858676072 13.2692299679441,6.99482006550531 14.066819389084,5.20812470952648 14.6052621957173,3.41852109058134 14.9066380705999,1.67096183728743 14.9999990118178,0" style=" stroke-width: 0.0000010000;stroke: #ffffff; fill: none; " xmlns="http://www.w3.org/2000/svg" />
  <g id="ComplexString2d_1378" style=" fill-rule: evenodd; stroke-width: 0.0000000000;stroke: #ffffff; fill: #ffffff; " xmlns="http://www.w3.org/2000/svg">
    <path d="M 14.9999990118178 0 L 14.9066380705999 -1.67096183728743 L 14.6052621957173 -3.41852109058134 L 14.066819389084 -5.20812470952648 L 13.2692299679441 -6.99482006550531 L 12.7692770008804 -7.87054858676072 L 12.2014916698644 -8.72488221468876 L 11.5668339748328 -9.55030468662669 L 10.8673462840721 -10.3392822135972 L 10.1061770184275 -11.0844556381902 L 9.28756423025151 -11.7788422240238 L 8.41677449814442 -12.4160330241517 L 7.4999995059089 -12.9903801442091 L 6.54421283203289 -13.4971570055601 L 5.55699452864861 -13.9326875031836 L 4.54633170049304 -14.2944337951417 L 3.52040787334285 -14.5810389341552 L 2.48738952034425 -14.7923244991834 L 1.45522379886842 -14.929242911216 L 0.431456497891945 -14.9937926438056 L -0.576923014624573 -14.9889002757069 L -2.52304136010081 -14.7862853416865 L -4.34210497710515 -14.3577885804417 L -6.00622365694866 -13.7450081471267 L -7.4999995059089 -12.9903801442091 L -8.90041441365122 -12.0740463098393 L -10.2631572186122 -10.9392674898603 L -11.5437780289832 -9.57816047426527 L -12.6923067954248 -7.99408005230682 L -13.2007334987723 -7.12324389915017 L -13.6567154687328 -6.20436069652721 L -14.054223495177 -5.24201981255667 L -14.3877541574149 -4.24175687845281 L -14.6525087189206 -3.20997815695149 L -14.8445586010054 -2.15384543705458 L -14.9609873301773 -1.08112398140841 L -14.9999990118178 0 L -14.9609873301773 1.08112398140841 L -14.8445586010054 2.15384543705458 L -14.6525087189206 3.20997815695149 L -14.3877541574149 4.24175687845281 L -14.054223495177 5.24201981255667 L -13.6567154687328 6.20436069652721 L -13.2007334987723 7.12324389915017 L -12.6923067954248 7.99408005230682 L -11.5437780289832 9.57816047426527 L -10.2631572186122 10.9392674898603 L -8.90041441365122 12.0740463098393 L -7.4999995059089 12.9903801442091 L -6.00622365694866 13.7450081471267 L -4.34210497710515 14.3577885804417 L -2.52304136010081 14.7862853416865 L -0.576923014624573 14.9889002757069 L 0.431456497891945 14.9937926438056 L 1.45522379886842 14.929242911216 L 2.48738952034425 14.7923244991834 L 3.52040787334285 14.5810389341552 L 4.54633170049304 14.2944337951417 L 5.55699452864861 13.9326875031836 L 6.54421283203289 13.4971570055601 L 7.4999995059089 12.9903801442091 L 8.41677449814442 12.4160330241517 L 9.28756423025151 11.7788422240238 L 10.1061770184275 11.0844556381902 L 10.8673462840721 10.3392822135972 L 11.5668339748328 9.55030468662669 L 12.2014916698644 8.72488221468876 L 12.7692770008804 7.87054858676072 L 13.2692299679441 6.99482006550531 L 14.066819389084 5.20812470952648 L 14.6052621957173 3.41852109058134 L 14.9066380705999 1.67096183728743 L 14.9999990118178 0 " />
  </g>
</svg>