<?xml version="1.0" encoding="UTF-8"?>
<svg viewBox="-15 -31.5551870350495 30 35.5025554754509" xmlns="http://www.w3.org/2000/svg" xmlns:xlink="http://www.w3.org/1999/xlink" xmlns:gmsvgsym="http://www.intergraph.com/GeoMedia/svgsym">
  <!-- Creator: SVG Document for Symbols-->
  <path id="LineString2d_1346" style=" stroke-width: 0.0000010000;stroke: #ffffff; fill: none; " d="M -14.9999990118178 3.94736816100468 L -14.9999990118178 -3.94736816100468 L -12.0288977338662 -3.94736816100468 L -12.0488782062341 -4.90658020307609 L -11.9326664244164 -6.85665286408129 L -11.5221289251463 -8.65488764035255 L -10.8309550233116 -10.2631041659841 L -10.1032089133599 -11.6376380754314 L -9.48081742804653 -12.8344221544834 L -8.99687198624408 -13.9437522919284 L -8.66824300789377 -15.0664586390185 L -8.54090548996682 -16.3433712917391 L -8.67018116566082 -17.9909858674067 L -9.15381571274692 -20.4011171823143 L -9.71628188621862 -23.791446011595 L -9.35081054187439 -27.157634474045 L -7.87419895494129 -29.7052796219987 L -5.63606331291334 -31.2149573646481 L -3.01253127522221 -31.555183394866 L -0.390336447969307 -30.5418224616251 L 1.75735172633301 -27.9509504744139 L 2.7454210822928 -23.3404441992012 L 2.71780182095443 -19.1413476337275 L 3.44634308874846 -18.2829617955401 L 4.39683728928892 -17.8764043486394 L 5.53322347758304 -17.5611980009838 L 6.79335807877739 -17.1498805017651 L 8.02495747132529 -16.4962102290386 L 9.03532961528948 -15.5418765024353 L 9.82398472122855 -14.3745571582843 L 10.4143311560214 -13.0600991922477 L 10.823275339607 -11.6376380754314 L 11.0900460588746 -10.1262209644755 L 11.2550158901118 -8.51727970204958 L 11.3330840954951 -6.78164197428607 L 11.3872773550828 -4.83783410234184 L 11.4424653514471 -3.94736816100468 L 14.9999990118178 -3.94736816100468 L 14.9999990118178 3.94736816100468 L -14.9999990118178 3.94736816100468 " xmlns="http://www.w3.org/2000/svg" />
  <g id="ComplexString2d_1347" style=" fill-rule: evenodd; stroke-width: 0.0000000000;stroke: #ffffff; fill: #ffffff; " xmlns="http://www.w3.org/2000/svg">
    <path d="M -14.9999990118178 3.94736816100468 L -14.9999990118178 -3.94736816100468 L -12.0288977338662 -3.94736816100468 L -12.0488782062341 -4.90658020307609 L -11.9326664244164 -6.85665286408129 L -11.5221289251463 -8.65488764035255 L -10.8309550233116 -10.2631041659841 L -10.1032089133599 -11.6376380754314 L -9.48081742804653 -12.8344221544834 L -8.99687198624408 -13.9437522919284 L -8.66824300789377 -15.0664586390185 L -8.54090548996682 -16.3433712917391 L -8.67018116566082 -17.9909858674067 L -9.15381571274692 -20.4011171823143 L -9.71628188621862 -23.791446011595 L -9.35081054187439 -27.157634474045 L -7.87419895494129 -29.7052796219987 L -5.63606331291334 -31.2149573646481 L -3.01253127522221 -31.555183394866 L -0.390336447969307 -30.5418224616251 L 1.75735172633301 -27.9509504744139 L 2.7454210822928 -23.3404441992012 L 2.71780182095443 -19.1413476337275 L 3.44634308874846 -18.2829617955401 L 4.39683728928892 -17.8764043486394 L 5.53322347758304 -17.5611980009838 L 6.79335807877739 -17.1498805017651 L 8.02495747132529 -16.4962102290386 L 9.03532961528948 -15.5418765024353 L 9.82398472122855 -14.3745571582843 L 10.4143311560214 -13.0600991922477 L 10.823275339607 -11.6376380754314 L 11.0900460588746 -10.1262209644755 L 11.2550158901118 -8.51727970204958 L 11.3330840954951 -6.78164197428607 L 11.3872773550828 -4.83783410234184 L 11.4424653514471 -3.94736816100468 L 14.9999990118178 -3.94736816100468 L 14.9999990118178 3.94736816100468 L -14.9999990118178 3.94736816100468 " />
  </g>
</svg>