<?xml version="1.0" encoding="UTF-8"?>
<svg viewBox="-15 -15 30 30" xmlns="http://www.w3.org/2000/svg" xmlns:xlink="http://www.w3.org/1999/xlink" xmlns:gmsvgsym="http://www.intergraph.com/GeoMedia/svgsym">
  <!-- Creator: SVG Document for Symbols-->
  <polyline points="14.9999989382923,0 14.9773402398961,-0.824162941665322 14.9066380449005,-1.67096178172846 14.7838837535891,-2.53707522042451 14.605262266232,-3.41852105803532 14.3672656830775,-4.31064359489042 14.0668193043433,-5.20812473136625 13.701412430207,-6.10501966788356 13.2692297607971,-6.99482020490302 12.769276796184,-7.87054864291851 12.2014917363721,-8.72488228244833 11.5668339812935,-9.55030462402451 10.8673462308036,-10.3392820681803 10.1061769846796,-11.0844556154365 9.28756404262143,-11.7788421662875 8.41677450425636,-12.4160331211868 7.49999946914617,-12.9903800805342 6.54421273679725,-13.4971571446643 5.55699440667307,-13.9326875138372 4.5463316782083,-14.2944337882326 3.52040795082371,-14.5810390679465 2.48738952394129,-14.7923245529916 1.45522369699852,-14.9292427433005 0.431456369461296,-14.9937925387316 -0.576923059165088,-14.9889001390779 -1.5636040893273,-14.9182810440764 -2.52304122141784,-14.7862852534191 -3.45050585577142,-14.5977388667645 -4.34210489266358,-14.3577886837483 -5.19477023231148,-14.0717564039938 -6.00622367487639,-13.7450081271212 -6.77492412046738,-13.3828388527558 -7.49999946914617,-12.9903800805342 -8.20241641942874,-12.5586756110905 -8.90041437002408,-12.0740463453928 -9.5891135212776,-11.5346811835693 -10.2631570735685,-10.939267625713 -10.9167595273061,-10.2870952718741 -11.5437780829254,-9.57816052205286 -12.1378083408797,-8.81326137619281 -12.692306701632,-7.99408023417488 -13.2007334656453,-7.12324389581312 -13.6567154333706,-6.20436076085215 -14.0542235052348,-5.24201962896715 -14.3877541816273,-4.24175669976627 -14.6525086628879,-3.20997817279609 -14.8445584492945,-2.15384534754972 -14.9609872410536,-1.08112402347748 -14.9999989382923,0 -14.9609872410536,1.08112402347748 -14.8445584492945,2.15384534754972 -14.6525086628879,3.20997817279609 -14.3877541816273,4.24175669976627 -14.0542235052348,5.24201962896715 -13.6567154333706,6.20436076085215 -13.2007334656453,7.12324389581312 -12.692306701632,7.99408023417488 -12.1378083408797,8.81326137619281 -11.5437780829254,9.57816052205286 -10.9167595273061,10.2870952718741 -10.2631570735685,10.939267625713 -9.5891135212776,11.5346811835693 -8.90041437002408,12.0740463453928 -8.20241641942874,12.5586756110905 -7.49999946914617,12.9903800805342 -6.77492412046738,13.3828388527558 -6.00622367487639,13.7450081271212 -5.19477023231148,14.0717564039938 -4.34210489266358,14.3577886837483 -3.45050585577142,14.5977388667645 -2.52304122141784,14.7862852534191 -1.5636040893273,14.9182810440764 -0.576923059165088,14.9889001390779 0.431456369461296,14.9937925387316 1.45522369699852,14.9292427433005 2.48738952394129,14.7923245529916 3.52040795082371,14.5810390679465 4.5463316782083,14.2944337882326 5.55699440667307,13.9326875138372 6.54421273679725,13.4971571446643 7.49999946914617,12.9903800805342 8.41677450425636,12.4160331211868 9.28756404262143,11.7788421662875 10.1061769846796,11.0844556154365 10.8673462308036,10.3392820681803 11.5668339812935,9.55030462402451 12.2014917363721,8.72488228244833 12.769276796184,7.87054864291851 13.2692297607971,6.99482020490302 13.701412430207,6.10501966788356 14.0668193043433,5.20812473136625 14.3672656830775,4.31064359489042 14.605262266232,3.41852105803532 14.7838837535891,2.53707522042451 14.9066380449005,1.67096178172846 14.9773402398961,0.824162941665322 14.9999989382923,0" style=" stroke-width: 0.0000010000;stroke: #ffffff; fill: none; " xmlns="http://www.w3.org/2000/svg" />
  <g id="ComplexString2d_1360" style=" fill-rule: evenodd; stroke-width: 0.0000000000;stroke: #ffffff; fill: #ffffff; " xmlns="http://www.w3.org/2000/svg">
    <path d="M 14.9999989382923 0 L 14.9773402398961 -0.824162941665322 L 14.9066380449005 -1.67096178172846 L 14.7838837535891 -2.53707522042451 L 14.605262266232 -3.41852105803532 L 14.3672656830775 -4.31064359489042 L 14.0668193043433 -5.20812473136625 L 13.701412430207 -6.10501966788356 L 13.2692297607971 -6.99482020490302 L 12.769276796184 -7.87054864291851 L 12.2014917363721 -8.72488228244833 L 11.5668339812935 -9.55030462402451 L 10.8673462308036 -10.3392820681803 L 10.1061769846796 -11.0844556154365 L 9.28756404262143 -11.7788421662875 L 8.41677450425636 -12.4160331211868 L 7.49999946914617 -12.9903800805342 L 6.54421273679725 -13.4971571446643 L 5.55699440667307 -13.9326875138372 L 4.5463316782083 -14.2944337882326 L 3.52040795082371 -14.5810390679465 L 2.48738952394129 -14.7923245529916 L 1.45522369699852 -14.9292427433005 L 0.431456369461296 -14.9937925387316 L -0.576923059165088 -14.9889001390779 L -1.5636040893273 -14.9182810440764 L -2.52304122141784 -14.7862852534191 L -3.45050585577142 -14.5977388667645 L -4.34210489266358 -14.3577886837483 L -5.19477023231148 -14.0717564039938 L -6.00622367487639 -13.7450081271212 L -6.77492412046738 -13.3828388527558 L -7.49999946914617 -12.9903800805342 L -8.20241641942874 -12.5586756110905 L -8.90041437002408 -12.0740463453928 L -9.5891135212776 -11.5346811835693 L -10.2631570735685 -10.939267625713 L -10.9167595273061 -10.2870952718741 L -11.5437780829254 -9.57816052205286 L -12.1378083408797 -8.81326137619281 L -12.692306701632 -7.99408023417488 L -13.2007334656453 -7.12324389581312 L -13.6567154333706 -6.20436076085215 L -14.0542235052348 -5.24201962896715 L -14.3877541816273 -4.24175669976627 L -14.6525086628879 -3.20997817279609 L -14.8445584492945 -2.15384534754972 L -14.9609872410536 -1.08112402347748 L -14.9999989382923 0 L -14.9609872410536 1.08112402347748 L -14.8445584492945 2.15384534754972 L -14.6525086628879 3.20997817279609 L -14.3877541816273 4.24175669976627 L -14.0542235052348 5.24201962896715 L -13.6567154333706 6.20436076085215 L -13.2007334656453 7.12324389581312 L -12.692306701632 7.99408023417488 L -12.1378083408797 8.81326137619281 L -11.5437780829254 9.57816052205286 L -10.9167595273061 10.2870952718741 L -10.2631570735685 10.939267625713 L -9.5891135212776 11.5346811835693 L -8.90041437002408 12.0740463453928 L -8.20241641942874 12.5586756110905 L -7.49999946914617 12.9903800805342 L -6.77492412046738 13.3828388527558 L -6.00622367487639 13.7450081271212 L -5.19477023231148 14.0717564039938 L -4.34210489266358 14.3577886837483 L -3.45050585577142 14.5977388667645 L -2.52304122141784 14.7862852534191 L -1.5636040893273 14.9182810440764 L -0.576923059165088 14.9889001390779 L 0.431456369461296 14.9937925387316 L 1.45522369699852 14.9292427433005 L 2.48738952394129 14.7923245529916 L 3.52040795082371 14.5810390679465 L 4.5463316782083 14.2944337882326 L 5.55699440667307 13.9326875138372 L 6.54421273679725 13.4971571446643 L 7.49999946914617 12.9903800805342 L 8.41677450425636 12.4160331211868 L 9.28756404262143 11.7788421662875 L 10.1061769846796 11.0844556154365 L 10.8673462308036 10.3392820681803 L 11.5668339812935 9.55030462402451 L 12.2014917363721 8.72488228244833 L 12.769276796184 7.87054864291851 L 13.2692297607971 6.99482020490302 L 13.701412430207 6.10501966788356 L 14.0668193043433 5.20812473136625 L 14.3672656830775 4.31064359489042 L 14.605262266232 3.41852105803532 L 14.7838837535891 2.53707522042451 L 14.9066380449005 1.67096178172846 L 14.9773402398961 0.824162941665322 L 14.9999989382923 0 " />
  </g>
</svg>