<?xml version="1.0" encoding="UTF-8"?>
<svg viewBox="-15.0000020954754 -43.8774238188772 30 45.0024236791788" xmlns="http://www.w3.org/2000/svg" xmlns:xlink="http://www.w3.org/1999/xlink" xmlns:gmsvgsym="http://www.intergraph.com/GeoMedia/svgsym">
  <!-- Creator: SVG Document for Symbols-->
  <path id="LineString2d_1169" style=" stroke-width: 0.0000010000;stroke: #4E4A96; fill: none; " d="M -14.0848431354377 -43.8774212147286 L -1.79999962113806E-06 -37.6064458846366 L 14.0848396854384 -43.8774212147286 L 14.9999968428171 -41.8219443473631 L 2.76591511783322 -36.3749803438341 L 14.9999933928179 -30.9280178403048 L 14.0848360854392 -28.8725409729393 L 0 -35.1435155530314 L -14.0848395354384 -28.8725409729393 L -14.9999968428171 -30.9280178403048 L -2.76591871783247 -36.3749803438341 L -15.0000002928164 -41.8219443473631 L -14.0848431354377 -43.8774212147286 " xmlns="http://www.w3.org/2000/svg" />
  <g id="ComplexString2d_1170" style=" fill-rule: evenodd; stroke-width: 0.0000000000;stroke: #4E4A96; fill: #4E4A96; " xmlns="http://www.w3.org/2000/svg">
    <path d="M -14.0848431354377 -43.8774212147286 L -1.79999962113806E-06 -37.6064458846366 L 14.0848396854384 -43.8774212147286 L 14.9999968428171 -41.8219443473631 L 2.76591511783322 -36.3749803438341 L 14.9999933928179 -30.9280178403048 L 14.0848360854392 -28.8725409729393 L 0 -35.1435155530314 L -14.0848395354384 -28.8725409729393 L -14.9999968428171 -30.9280178403048 L -2.76591871783247 -36.3749803438341 L -15.0000002928164 -41.8219443473631 L -14.0848431354377 -43.8774212147286 " />
  </g>
  <path id="LineString2d_1171" style=" stroke-width: 0.0000010000;stroke: #4E4A96; fill: none; " d="M 10.8749977110424 1.12499976321129 L 10.8749977110424 -1.12499976321129 L 1.12499976321129 -1.12499976321129 L 1.12499976321129 -34.6426332584566 L 0 -35.1435155530314 L -1.12499976321129 -34.6426334084566 L -1.12499976321129 1.12499976321129 L 10.8749977110424 1.12499976321129 " xmlns="http://www.w3.org/2000/svg" />
  <g id="ComplexString2d_1172" style=" fill-rule: evenodd; stroke-width: 0.0000000000;stroke: #4E4A96; fill: #4E4A96; " xmlns="http://www.w3.org/2000/svg">
    <path d="M 10.8749977110424 1.12499976321129 L 10.8749977110424 -1.12499976321129 L 1.12499976321129 -1.12499976321129 L 1.12499976321129 -34.6426332584566 L 0 -35.1435155530314 L -1.12499976321129 -34.6426334084566 L -1.12499976321129 1.12499976321129 L 10.8749977110424 1.12499976321129 " />
  </g>
</svg>