<?xml version="1.0" encoding="UTF-8"?>
<svg viewBox="-15 -15 30 30" xmlns="http://www.w3.org/2000/svg" xmlns:xlink="http://www.w3.org/1999/xlink" xmlns:gmsvgsym="http://www.intergraph.com/GeoMedia/svgsym">
  <!-- Creator: SVG Document for Symbols-->
  <polyline points="14.9999987054617,0 14.9773402074172,-0.824162928872631 14.906637713519,-1.67096185579172 14.7838832241131,-2.53707528104391 14.6052617395285,-3.41852120497287 14.3672652600682,-4.31064362798043 14.0668192859975,-5.20812455052553 13.7014123175331,-6.1050194731212 13.2692298548315,-6.99481989632915 12.7692768979787,-7.87054832075154 12.2014914469801,-8.72488224702034 11.5668340017526,-9.55030467578427 10.8673460621202,-10.3392821076935 10.1061766278111,-11.0844555433831 9.28756419845945,-11.7788419834558 8.41677427361085,-12.4160329284646 7.49999935273087,-12.990379878897 6.54421293521768,-13.4971568351608 5.55699452041716,-13.9326872975734 4.54633160763995,-14.2944337663538 3.52040769617981,-14.5810387416191 2.48738928533194,-14.7923242233846 1.45522387441046,-14.9292427115682 0.431456462764203,-14.9937922059974 -0.576922950210073,-14.9888997064196 -1.56360386505699,-14.9182807125142 -2.52304128225508,-14.7862852239058 -3.45050570221253,-14.5977387401778 -4.34210512526522,-14.3577882608861 -5.19477005167805,-14.0717562855714 -6.00622348164755,-13.7450078137707 -6.77492391530673,-13.3828383450268 -7.49999935273087,-12.990379878897 -8.20241629211049,-12.5586754161542 -8.90041423187148,-12.0740459579789 -9.589113172435,-11.5346810045275 -10.2631571142633,-10.9392675559132 -10.9167595578557,-10.2870951121974 -11.5437780037424,-9.57816017338027 -12.1378079524761,-8.81326123939301 -12.6923064046215,-7.99407981009046 -13.2007333607429,-7.12324388524583 -13.6567153213905,-6.20436046454782 -14.0542232870846,-5.2420195476003 -14.3877537583,-4.24175663392555 -14.6525082354511,-3.20997822297067 -14.8445582188766,-2.15384531411764 -14.9609872088285,-1.08112390669624 -14.9999987054617,0 -14.9609872088285,1.08112390669624 -14.8445582188766,2.15384531411764 -14.6525082354511,3.20997822297067 -14.3877537583,4.24175663392555 -14.0542232870846,5.2420195476003 -13.6567153213905,6.20436046454782 -13.2007333607429,7.12324388524583 -12.6923064046215,7.99407981009046 -12.1378079524761,8.81326123939301 -11.5437780037424,9.57816017338027 -10.9167595578557,10.2870951121974 -10.2631571142633,10.9392675559132 -9.589113172435,11.5346810045275 -8.90041423187148,12.0740459579789 -8.20241629211049,12.5586754161542 -7.49999935273087,12.990379878897 -6.77492391530673,13.3828383450268 -6.00622348164755,13.7450078137707 -5.19477005167805,14.0717562855714 -4.34210512526522,14.3577882608861 -3.45050570221253,14.5977387401778 -2.52304128225508,14.7862852239058 -1.56360386505699,14.9182807125142 -0.576922950210073,14.9888997064196 0.431456462764203,14.9937922059974 1.45522387441046,14.9292427115682 2.48738928533194,14.7923242233846 3.52040769617981,14.5810387416191 4.54633160763995,14.2944337663538 5.55699452041716,13.9326872975734 6.54421293521768,13.4971568351608 7.49999935273087,12.990379878897 8.41677427361085,12.4160329284646 9.28756419845945,11.7788419834558 10.1061766278111,11.0844555433831 10.8673460621202,10.3392821076935 11.5668340017526,9.55030467578427 12.2014914469801,8.72488224702034 12.7692768979787,7.87054832075154 13.2692298548315,6.99481989632915 13.7014123175331,6.1050194731212 14.0668192859975,5.20812455052553 14.3672652600682,4.31064362798043 14.6052617395285,3.41852120497287 14.7838832241131,2.53707528104391 14.906637713519,1.67096185579172 14.9773402074172,0.824162928872631 14.9999987054617,0" style=" stroke-width: 0.0000010000;stroke: #4dd228; fill: none; " xmlns="http://www.w3.org/2000/svg" />
  <g id="ComplexString2d_1309" style=" fill-rule: evenodd; stroke-width: 0.0000000000;stroke: #4dd228; fill: #4dd228; " xmlns="http://www.w3.org/2000/svg">
    <path d="M 14.9999987054617 0 L 14.9773402074172 -0.824162928872631 L 14.906637713519 -1.67096185579172 L 14.7838832241131 -2.53707528104391 L 14.6052617395285 -3.41852120497287 L 14.3672652600682 -4.31064362798043 L 14.0668192859975 -5.20812455052553 L 13.7014123175331 -6.1050194731212 L 13.2692298548315 -6.99481989632915 L 12.7692768979787 -7.87054832075154 L 12.2014914469801 -8.72488224702034 L 11.5668340017526 -9.55030467578427 L 10.8673460621202 -10.3392821076935 L 10.1061766278111 -11.0844555433831 L 9.28756419845945 -11.7788419834558 L 8.41677427361085 -12.4160329284646 L 7.49999935273087 -12.990379878897 L 6.54421293521768 -13.4971568351608 L 5.55699452041716 -13.9326872975734 L 4.54633160763995 -14.2944337663538 L 3.52040769617981 -14.5810387416191 L 2.48738928533194 -14.7923242233846 L 1.45522387441046 -14.9292427115682 L 0.431456462764203 -14.9937922059974 L -0.576922950210073 -14.9888997064196 L -1.56360386505699 -14.9182807125142 L -2.52304128225508 -14.7862852239058 L -3.45050570221253 -14.5977387401778 L -4.34210512526522 -14.3577882608861 L -5.19477005167805 -14.0717562855714 L -6.00622348164755 -13.7450078137707 L -6.77492391530673 -13.3828383450268 L -7.49999935273087 -12.990379878897 L -8.20241629211049 -12.5586754161542 L -8.90041423187148 -12.0740459579789 L -9.589113172435 -11.5346810045275 L -10.2631571142633 -10.9392675559132 L -10.9167595578557 -10.2870951121974 L -11.5437780037424 -9.57816017338027 L -12.1378079524761 -8.81326123939301 L -12.6923064046215 -7.99407981009046 L -13.2007333607429 -7.12324388524583 L -13.6567153213905 -6.20436046454782 L -14.0542232870846 -5.2420195476003 L -14.3877537583 -4.24175663392555 L -14.6525082354511 -3.20997822297067 L -14.8445582188766 -2.15384531411764 L -14.9609872088285 -1.08112390669624 L -14.9999987054617 0 L -14.9609872088285 1.08112390669624 L -14.8445582188766 2.15384531411764 L -14.6525082354511 3.20997822297067 L -14.3877537583 4.24175663392555 L -14.0542232870846 5.2420195476003 L -13.6567153213905 6.20436046454782 L -13.2007333607429 7.12324388524583 L -12.6923064046215 7.99407981009046 L -12.1378079524761 8.81326123939301 L -11.5437780037424 9.57816017338027 L -10.9167595578557 10.2870951121974 L -10.2631571142633 10.9392675559132 L -9.589113172435 11.5346810045275 L -8.90041423187148 12.0740459579789 L -8.20241629211049 12.5586754161542 L -7.49999935273087 12.990379878897 L -6.77492391530673 13.3828383450268 L -6.00622348164755 13.7450078137707 L -5.19477005167805 14.0717562855714 L -4.34210512526522 14.3577882608861 L -3.45050570221253 14.5977387401778 L -2.52304128225508 14.7862852239058 L -1.56360386505699 14.9182807125142 L -0.576922950210073 14.9888997064196 L 0.431456462764203 14.9937922059974 L 1.45522387441046 14.9292427115682 L 2.48738928533194 14.7923242233846 L 3.52040769617981 14.5810387416191 L 4.54633160763995 14.2944337663538 L 5.55699452041716 13.9326872975734 L 6.54421293521768 13.4971568351608 L 7.49999935273087 12.990379878897 L 8.41677427361085 12.4160329284646 L 9.28756419845945 11.7788419834558 L 10.1061766278111 11.0844555433831 L 10.8673460621202 10.3392821076935 L 11.5668340017526 9.55030467578427 L 12.2014914469801 8.72488224702034 L 12.7692768979787 7.87054832075154 L 13.2692298548315 6.99481989632915 L 13.7014123175331 6.1050194731212 L 14.0668192859975 5.20812455052553 L 14.3672652600682 4.31064362798043 L 14.6052617395285 3.41852120497287 L 14.7838832241131 2.53707528104391 L 14.906637713519 1.67096185579172 L 14.9773402074172 0.824162928872631 L 14.9999987054617 0 " />
  </g>
  <polyline points="8.99999922327704,0 8.94398272811141,-1.00257691347505 8.76315724371711,-2.05111282298372 8.44009127159853,-3.12487473031532 7.96153781289892,-4.19689213779747 7.32089486818804,-5.23492904821223 6.94010040105158,-5.73018250547059 6.52040743727216,-6.20356896461613 6.06370597668666,-6.65067342602987 5.57253851907567,-7.06730539007346 5.05006456416651,-7.44961985707875 4.49999961163852,-7.7942278273382 3.92652766113062,-8.09829430109648 3.33419671225029,-8.35961227854407 2.72779876458399,-8.57666025981228 2.11224481770787,-8.74862324497143 1.49243387119914,-8.87539473403073 0.873134424646265,-8.95754572694089 0.258873977658513,-8.99627522359843 -0.346153970126027,-8.99333972385177 -1.51382486935304,-8.87177123434344 -2.60526277515916,-8.61467325653166 -3.60373418898852,-8.24700478826239 -4.49999961163852,-7.7942278273382 -5.34024853912289,-7.24442787478734 -6.157893968558,-6.56356043354794 -6.92626690224545,-5.74689600402817 -7.61538384277289,-4.79644808605426 -8.19402929283431,-3.7226161787287 -8.43253377225076,-3.14521172856018 -8.63265225498002,-2.54505378035535 -8.7915052412706,-1.92598683378241 -8.90673523132596,-1.29230738847057 -8.97659222529712,-0.648674444017736 -8.99999922327704,0 -8.97659222529712,0.648674444017736 -8.90673523132596,1.29230738847057 -8.7915052412706,1.92598683378241 -8.63265225498002,2.54505378035535 -8.43253377225076,3.14521172856018 -8.19402929283431,3.7226161787287 -7.92043981644578,4.27394613114751 -7.61538384277289,4.79644808605426 -6.92626690224545,5.74689600402817 -6.157893968558,6.56356043354794 -5.34024853912289,7.24442787478734 -4.49999961163852,7.7942278273382 -3.60373418898852,8.24700478826239 -2.60526277515916,8.61467325653166 -1.51382486935304,8.87177123434344 -0.346153970126027,8.99333972385177 0.873134424646265,8.95754572694089 1.49243387119914,8.87539473403073 2.11224481770787,8.74862324497143 2.72779876458399,8.57666025981228 3.33419671225029,8.35961227854407 3.92652766113062,8.09829430109648 4.49999961163852,7.7942278273382 5.05006456416651,7.44961985707875 5.57253851907567,7.06730539007346 6.06370597668666,6.65067342602987 6.52040743727216,6.20356896461613 6.94010040105158,5.73018250547059 7.32089486818804,5.23492904821223 7.66156583878727,4.72232909245092 7.96153781289892,4.19689213779747 8.44009127159853,3.12487473031532 8.76315724371711,2.05111282298372 8.94398272811141,1.00257691347505 8.99999922327704,0" style=" stroke-width: 0.0000010000;stroke: #ffffff; fill: none; " xmlns="http://www.w3.org/2000/svg" />
  <g id="ComplexString2d_1310" style=" fill-rule: evenodd; stroke-width: 0.0000000000;stroke: #ffffff; fill: #ffffff; " xmlns="http://www.w3.org/2000/svg">
    <path d="M 8.99999922327704 0 L 8.94398272811141 -1.00257691347505 L 8.76315724371711 -2.05111282298372 L 8.44009127159853 -3.12487473031532 L 7.96153781289892 -4.19689213779747 L 7.32089486818804 -5.23492904821223 L 6.94010040105158 -5.73018250547059 L 6.52040743727216 -6.20356896461613 L 6.06370597668666 -6.65067342602987 L 5.57253851907567 -7.06730539007346 L 5.05006456416651 -7.44961985707875 L 4.49999961163852 -7.7942278273382 L 3.92652766113062 -8.09829430109648 L 3.33419671225029 -8.35961227854407 L 2.72779876458399 -8.57666025981228 L 2.11224481770787 -8.74862324497143 L 1.49243387119914 -8.87539473403073 L 0.873134424646265 -8.95754572694089 L 0.258873977658513 -8.99627522359843 L -0.346153970126027 -8.99333972385177 L -1.51382486935304 -8.87177123434344 L -2.60526277515916 -8.61467325653166 L -3.60373418898852 -8.24700478826239 L -4.49999961163852 -7.7942278273382 L -5.34024853912289 -7.24442787478734 L -6.157893968558 -6.56356043354794 L -6.92626690224545 -5.74689600402817 L -7.61538384277289 -4.79644808605426 L -8.19402929283431 -3.7226161787287 L -8.43253377225076 -3.14521172856018 L -8.63265225498002 -2.54505378035535 L -8.7915052412706 -1.92598683378241 L -8.90673523132596 -1.29230738847057 L -8.97659222529712 -0.648674444017736 L -8.99999922327704 0 L -8.97659222529712 0.648674444017736 L -8.90673523132596 1.29230738847057 L -8.7915052412706 1.92598683378241 L -8.63265225498002 2.54505378035535 L -8.43253377225076 3.14521172856018 L -8.19402929283431 3.7226161787287 L -7.92043981644578 4.27394613114751 L -7.61538384277289 4.79644808605426 L -6.92626690224545 5.74689600402817 L -6.157893968558 6.56356043354794 L -5.34024853912289 7.24442787478734 L -4.49999961163852 7.7942278273382 L -3.60373418898852 8.24700478826239 L -2.60526277515916 8.61467325653166 L -1.51382486935304 8.87177123434344 L -0.346153970126027 8.99333972385177 L 0.873134424646265 8.95754572694089 L 1.49243387119914 8.87539473403073 L 2.11224481770787 8.74862324497143 L 2.72779876458399 8.57666025981228 L 3.33419671225029 8.35961227854407 L 3.92652766113062 8.09829430109648 L 4.49999961163852 7.7942278273382 L 5.05006456416651 7.44961985707875 L 5.57253851907567 7.06730539007346 L 6.06370597668666 6.65067342602987 L 6.52040743727216 6.20356896461613 L 6.94010040105158 5.73018250547059 L 7.32089486818804 5.23492904821223 L 7.66156583878727 4.72232909245092 L 7.96153781289892 4.19689213779747 L 8.44009127159853 3.12487473031532 L 8.76315724371711 2.05111282298372 L 8.94398272811141 1.00257691347505 L 8.99999922327704 0 " />
  </g>
</svg>