<?xml version="1.0" encoding="UTF-8" standalone="no"?>
<!-- Created with Inkscape (http://www.inkscape.org/) -->

<svg
   xmlns:dc="http://purl.org/dc/elements/1.1/"
   xmlns:cc="http://creativecommons.org/ns#"
   xmlns:rdf="http://www.w3.org/1999/02/22-rdf-syntax-ns#"
   xmlns:svg="http://www.w3.org/2000/svg"
   xmlns="http://www.w3.org/2000/svg"
   xmlns:sodipodi="http://sodipodi.sourceforge.net/DTD/sodipodi-0.dtd"
   xmlns:inkscape="http://www.inkscape.org/namespaces/inkscape"
   version="1.1"
   width="4.2519684"
   height="10.65966"
   id="svg11300"
   inkscape:version="0.48.3.1 r9886"
   sodipodi:docname="0010_334 nowy.svg">
  <sodipodi:namedview
     pagecolor="#ffffff"
     bordercolor="#666666"
     borderopacity="1"
     objecttolerance="10"
     gridtolerance="10"
     guidetolerance="10"
     inkscape:pageopacity="0"
     inkscape:pageshadow="2"
     inkscape:window-width="1002"
     inkscape:window-height="634"
     id="namedview22965"
     showgrid="false"
     inkscape:showpageshadow="false"
     fit-margin-top="0"
     fit-margin-left="0"
     fit-margin-right="0"
     fit-margin-bottom="0"
     inkscape:zoom="21.760866"
     inkscape:cx="1.4567812"
     inkscape:cy="4.4560365"
     inkscape:window-x="185"
     inkscape:window-y="230"
     inkscape:window-maximized="0"
     inkscape:current-layer="svg11300" />
  <defs
     id="defs11302" />
  <metadata
     id="metadata11305">
    <rdf:RDF>
      <cc:Work
         rdf:about="">
        <dc:format>image/svg+xml</dc:format>
        <dc:type
           rdf:resource="http://purl.org/dc/dcmitype/StillImage" />
        <dc:title />
      </cc:Work>
    </rdf:RDF>
  </metadata>
  <g
     id="g22992"
     transform="translate(-20.592367,-11.998319)">
    <circle
       sodipodi:ry="1.701"
       sodipodi:rx="1.701"
       sodipodi:cy="5339.3491"
       sodipodi:cx="-3072.9929"
       d="m -3071.2919,5339.3491 c 0,0.9395 -0.7616,1.701 -1.701,1.701 -0.9395,0 -1.701,-0.7615 -1.701,-1.701 0,-0.9394 0.7615,-1.701 1.701,-1.701 0.9394,0 1.701,0.7616 1.701,1.701 z"
       id="circle9192-8"
       transform="matrix(1.2498438,0,0,1.2498438,3863.4795,-6652.8204)"
       r="1.701"
       cy="5339.3491"
       cx="-3072.9929" />
    <polygon
       id="polygon9194-8"
       transform="matrix(1.5404654,0,0,1.47243,4756.5593,-7841.185)"
       points="-3073.047,5333.485 -3071.643,5338.962 -3074.345,5338.962 " />
    <circle
       sodipodi:ry="1.4170001"
       sodipodi:rx="1.4170001"
       sodipodi:cy="5339.3491"
       sodipodi:cx="-3072.9939"
       d="m -3071.5769,5339.3491 c 0,0.7826 -0.6344,1.417 -1.417,1.417 -0.7826,0 -1.417,-0.6344 -1.417,-1.417 0,-0.7826 0.6344,-1.417 1.417,-1.417 0.7826,0 1.417,0.6344 1.417,1.417 z"
       style="fill:#fbfbfc;fill-opacity:1"
       id="circle9196-4"
       transform="matrix(1.1252563,0,0,1.1252563,3480.6241,-5987.6042)"
       r="1.4170001"
       cy="5339.3491"
       cx="-3072.9939" />
  </g>
</svg>
