<?xml version="1.0" encoding="UTF-8"?>
<svg viewBox="-15 -15 30 30" xmlns="http://www.w3.org/2000/svg" xmlns:xlink="http://www.w3.org/1999/xlink" xmlns:gmsvgsym="http://www.intergraph.com/GeoMedia/svgsym">
  <!-- Creator: SVG Document for Symbols-->
  <polyline points="14.9999990935127,0 14.9066380991548,-1.67096173235296 14.6052622840343,-3.4185211267436 14.0668194832404,-5.20812485192673 13.2692300314408,-6.99482007728563 12.2014917626335,-8.724882306067 11.5668341343208,-9.55030475618467 10.8673463432592,-10.3392822085048 10.1061770559253,-11.0844558301388 9.28756427206273,-11.7788422881753 8.41677449135338,-12.4160330830016 7.49999954675637,-12.990380214959 6.54421293785027,-13.4971571843332 5.55699449751034,-13.932687658013 4.54633172525387,-14.2944339694851 3.52040795391966,-14.5810391188315 2.48738951634753,-14.792324606063 1.45522374539054,-14.9292429311221 0.431456473926012,-14.9937925938878 -0.57692296513511,-14.9889002608501 -2.52304134752634,-14.7862854397613 -4.34210507092912,-14.3577887989898 -6.00622363702897,-13.745008169355 -7.49999954675637,-12.990380214959 -8.90041446212582,-12.074046437002 -10.2631572131052,-10.9392676722462 -11.5437781357141,-9.5781605878346 -12.692306899639,-7.99408018356452 -13.6567156746907,-6.20436079172171 -14.0542236506683,-5.24201984987837 -14.3877542971789,-4.24175674366009 -14.6525087811791,-3.20997813934637 -14.8445587695731,-2.15384536983777 -14.9609874292037,-1.08112393466499 -14.9999990935127,0 -14.9609874292037,1.08112393466499 -14.8445587695731,2.15384536983777 -14.6525087811791,3.20997813934637 -14.3877542971789,4.24175674366009 -14.0542236506683,5.24201984987837 -13.6567156746907,6.20436079172171 -13.2007335355802,7.12324406952464 -12.692306899639,7.99408018356452 -11.5437781357141,9.5781605878346 -10.2631572131052,10.9392676722462 -8.90041446212582,12.074046437002 -7.49999954675637,12.990380214959 -6.00622363702897,13.745008169355 -4.34210507092912,14.3577887989898 -2.52304134752634,14.7862854397613 -0.57692296513511,14.9889002608501 1.45522374539054,14.9292429311221 2.48738951634753,14.792324606063 3.52040795391966,14.5810391188315 4.54633172525387,14.2944339694851 5.55699449751034,13.932687658013 6.54421293785027,13.4971571843332 7.49999954675637,12.990380214959 8.41677449135338,12.4160330830016 9.28756427206273,11.7788422881753 10.1061770559253,11.0844558301388 10.8673463432592,10.3392822085048 11.5668341343208,9.55030475618467 12.2014917626335,8.724882306067 12.7692770616542,7.87054869102983 13.2692300314408,6.99482007728563 14.0668194832404,5.20812485192673 14.6052622840343,3.4185211267436 14.9066380991548,1.67096173235296 14.9999990935127,0" style=" stroke-width: 0.0000010000;stroke: #ffffff; fill: none; " xmlns="http://www.w3.org/2000/svg" />
  <polygon points="14.9999990935127,0 14.9066380991548,-1.67096173235296 14.6052622840343,-3.4185211267436 14.0668194832404,-5.20812485192673 13.2692300314408,-6.99482007728563 12.2014917626335,-8.724882306067 11.5668341343208,-9.55030475618467 10.8673463432592,-10.3392822085048 10.1061770559253,-11.0844558301388 9.28756427206273,-11.7788422881753 8.41677449135338,-12.4160330830016 7.49999954675637,-12.990380214959 6.54421293785027,-13.4971571843332 5.55699449751034,-13.932687658013 4.54633172525387,-14.2944339694851 3.52040795391966,-14.5810391188315 2.48738951634753,-14.792324606063 1.45522374539054,-14.9292429311221 0.431456473926012,-14.9937925938878 -0.57692296513511,-14.9889002608501 -2.52304134752634,-14.7862854397613 -4.34210507092912,-14.3577887989898 -6.00622363702897,-13.745008169355 -7.49999954675637,-12.990380214959 -8.90041446212582,-12.074046437002 -10.2631572131052,-10.9392676722462 -11.5437781357141,-9.5781605878346 -12.692306899639,-7.99408018356452 -13.6567156746907,-6.20436079172171 -14.0542236506683,-5.24201984987837 -14.3877542971789,-4.24175674366009 -14.6525087811791,-3.20997813934637 -14.8445587695731,-2.15384536983777 -14.9609874292037,-1.08112393466499 -14.9999990935127,0 -14.9609874292037,1.08112393466499 -14.8445587695731,2.15384536983777 -14.6525087811791,3.20997813934637 -14.3877542971789,4.24175674366009 -14.0542236506683,5.24201984987837 -13.6567156746907,6.20436079172171 -13.2007335355802,7.12324406952464 -12.692306899639,7.99408018356452 -11.5437781357141,9.5781605878346 -10.2631572131052,10.9392676722462 -8.90041446212582,12.074046437002 -7.49999954675637,12.990380214959 -6.00622363702897,13.745008169355 -4.34210507092912,14.3577887989898 -2.52304134752634,14.7862854397613 -0.57692296513511,14.9889002608501 1.45522374539054,14.9292429311221 2.48738951634753,14.792324606063 3.52040795391966,14.5810391188315 4.54633172525387,14.2944339694851 5.55699449751034,13.932687658013 6.54421293785027,13.4971571843332 7.49999954675637,12.990380214959 8.41677449135338,12.4160330830016 9.28756427206273,11.7788422881753 10.1061770559253,11.0844558301388 10.8673463432592,10.3392822085048 11.5668341343208,9.55030475618467 12.2014917626335,8.724882306067 12.7692770616542,7.87054869102983 13.2692300314408,6.99482007728563 14.0668194832404,5.20812485192673 14.6052622840343,3.4185211267436 14.9066380991548,1.67096173235296 14.9999990935127,0" style=" fill-rule: evenodd; fill: #ffffff; " xmlns="http://www.w3.org/2000/svg" />
</svg>