<?xml version="1.0" encoding="UTF-8" standalone="no"?>
<svg
   viewBox="-14.9999885247762 -50.357129920788 30 51.4285585991286"
   version="1.1"
   id="svg10"
   sodipodi:docname="0010_332.svg"
   inkscape:version="1.2.2 (732a01da63, 2022-12-09)"
   xmlns:inkscape="http://www.inkscape.org/namespaces/inkscape"
   xmlns:sodipodi="http://sodipodi.sourceforge.net/DTD/sodipodi-0.dtd"
   xmlns="http://www.w3.org/2000/svg"
   xmlns:svg="http://www.w3.org/2000/svg">
  <defs
     id="defs14" />
  <sodipodi:namedview
     id="namedview12"
     pagecolor="#ffffff"
     bordercolor="#000000"
     borderopacity="0.25"
     inkscape:showpageshadow="2"
     inkscape:pageopacity="0.0"
     inkscape:pagecheckerboard="0"
     inkscape:deskcolor="#d1d1d1"
     showgrid="false"
     inkscape:zoom="4.5888901"
     inkscape:cx="-16.779657"
     inkscape:cy="25.823238"
     inkscape:window-width="1920"
     inkscape:window-height="1018"
     inkscape:window-x="-8"
     inkscape:window-y="-8"
     inkscape:window-maximized="1"
     inkscape:current-layer="svg10" />
  <!-- Creator: SVG Document for Symbols-->
  <path
     id="LineString2d_1126"
     style=" stroke-width: 0.0000010000;stroke: #000000; fill: none; "
     d="M -11.7857135299176 1.07142850271978 L -1.07142078843456 -17.4862709500653 L -1.07142078843456 -38.5714113121987 L -14.9999876809348 -38.5714113121987 L -14.9999876809348 -40.7142683176382 L -1.07142078843456 -40.7142683176382 L -1.07142078843456 -50.3571248421162 L 1.071436217005 -50.3571248421162 L 1.071436217005 -40.7142683176382 L 15.000010395219 -40.7142683176382 L 15.000010395219 -38.5714113121987 L 1.071436217005 -38.5714113121987 L 1.071436217005 -17.4862441643527 L 11.7857135299176 1.07142850271978 L -11.7857135299176 1.07142850271978 " />
  <g
     id="ComplexString2d_1127"
     style="fill-rule:evenodd;stroke-width:0;stroke:#1a171b;fill:#1a171b;fill-opacity:1;stroke-opacity:1">
    <path
       d="M -11.7857135299176 1.07142850271978 L -1.07142078843456 -17.4862709500653 L -1.07142078843456 -38.5714113121987 L -14.9999876809348 -38.5714113121987 L -14.9999876809348 -40.7142683176382 L -1.07142078843456 -40.7142683176382 L -1.07142078843456 -50.3571248421162 L 1.071436217005 -50.3571248421162 L 1.071436217005 -40.7142683176382 L 15.000010395219 -40.7142683176382 L 15.000010395219 -38.5714113121987 L 1.071436217005 -38.5714113121987 L 1.071436217005 -17.4862441643527 L 11.7857135299176 1.07142850271978 L -11.7857135299176 1.07142850271978 "
       id="path3"
       style="fill:#1a171b;fill-opacity:1;stroke:#1a171b;stroke-opacity:1" />
  </g>
  <path
     id="LineString2d_1128"
     style=" stroke-width: 0.0000010000;stroke: #000000; fill: none; "
     d="M -8.07417633936037 -1.07142850271978 L 0 -15.0563120344656 L 8.07417633936037 -1.07142850271978 L -8.07417633936037 -1.07142850271978 " />
  <g
     id="ComplexString2d_1129"
     style=" fill-rule: evenodd; stroke-width: 0.0000000000;stroke: #ffffff; fill: #ffffff; ">
    <path
       d="M -8.07417633936037 -1.07142850271978 L 0 -15.0563120344656 L 8.07417633936037 -1.07142850271978 L -8.07417633936037 -1.07142850271978 "
       id="path7" />
  </g>
</svg>
