<?xml version="1.0" encoding="UTF-8"?>
<svg viewBox="-15 -35.000032285848 30 50.000032285848" xmlns="http://www.w3.org/2000/svg" xmlns:xlink="http://www.w3.org/1999/xlink" xmlns:gmsvgsym="http://www.intergraph.com/GeoMedia/svgsym">
  <!-- Creator: SVG Document for Symbols-->
  <g id="ComplexString2d_1112" style=" fill-rule: evenodd; stroke-width: 0.0000000000;stroke: #000000; fill: #000000; " xmlns="http://www.w3.org/2000/svg">
    <path d="M 14.9999994039536 0 L 14.9773408048539 -0.824163167250698 L 14.9066384076634 -1.67096173360195 L 14.7838842125412 -2.53707529918569 L 14.605262619639 -3.41852126416017 L 14.3672660290961 -4.31064362871041 L 14.0668196410348 -5.20812499304771 L 13.7014128555548 -6.10501975740831 L 13.2692302727282 -6.99482032205081 L 12.7692772925945 -7.87054888725249 L 12.4938285035399 -8.30085727015357 L 12.2014921151563 -8.72488245330432 L 11.8924205274377 -9.14168023674227 L 11.5668343403753 -9.55030502050498 L 11.2250233539576 -9.94981580462984 L 10.8673465681704 -10.3392823891538 L 10.4942321829967 -10.7177923741132 L 10.1061771984166 -11.0844559595433 L 9.70374521440781 -11.4384139454783 L 9.28756443094535 -11.7788425319509 L 8.8583248480018 -12.1049603189921 L 8.41677466554742 -12.4160335066312 L 7.96371588355036 -12.7113810948951 L 7.49999970197679 -12.9903804838087 L 7.02652112079114 -13.2524708733941 L 6.54421293995634 -13.4971574636712 L 6.05404055943404 -13.7240144546567 L 5.55699457918488 -13.9326878463647 L 5.05408439916873 -14.1228968388065 L 4.546331819345 -14.2944342319902 L 4.03476423967287 -14.4471678259211 L 3.52040806011155 -14.5810394206016 L 3.00428148062058 -14.6960632160309 L 2.48738950116002 -14.7923248122058 L 1.97071712169074 -14.8699784091201 L 1.4552237421746 -14.9292434067652 L 0.941838962574682 -14.9704016051297 L 0.431456582855456 -14.9937930042002 L -0.0750681970170579 -14.999811603961 L -0.576922977075141 -14.9889006043946 L -1.56360413786795 -14.9182816072008 L -2.52304129974335 -14.7862856124458 L -3.45050606288921 -14.597739219938 L -4.34210502746025 -14.3577890294727 L -5.19477039357837 -14.0717568408386 L -6.00622376133411 -13.7450084538224 L -6.7749241307887 -13.3828390682138 L -7.49999970197679 -12.9903804838087 L -8.20241667406525 -12.5586761009631 L -8.9004146463293 -12.0740467202205 L -9.58911381896285 -11.5346815416529 L -10.2631573921788 -10.9392677653126 L -10.9167599662069 -10.2870955912275 L -11.5437783412915 -9.57816081939808 L -12.1378087176868 -8.81326164979245 L -12.692307095653 -7.99408028234379 L -13.20073387545 -7.12324411694771 L -13.4356674661145 -6.66954433497612 L -13.6567158573309 -6.20436095346085 L -13.8631376491284 -5.72829817237788 L -14.0542238415353 -5.24201979170085 L -14.2293048345782 -4.74624741140107 L -14.387754628282 -4.24175683144773 L -14.5289966226695 -3.72937545180793 L -14.6525090177616 -3.20997827244692 L -14.7578296135765 -2.68448289332823 L -14.8445590101302 -2.15384551441387 L -14.9123656074358 -1.61905433566456 L -14.9609876055038 -1.08112395703999 L -14.9902370043415 -0.541089778499024 L -14.9999994039536 0 L -14.9902370043415 0.541089778499024 L -14.9609876055038 1.08112395703999 L -14.9123656074358 1.61905433566456 L -14.8445590101302 2.15384551441387 L -14.7578296135765 2.68448289332823 L -14.6525090177616 3.20997827244692 L -14.5289966226695 3.72937545180793 L -14.387754628282 4.24175683144773 L -14.2293048345782 4.74624741140107 L -14.0542238415353 5.24201979170085 L -13.8631376491284 5.72829817237788 L -13.6567158573309 6.20436095346085 L -13.4356674661145 6.66954433497612 L -13.20073387545 7.12324411694771 L -12.9526836853066 7.56491669939722 L -12.692307095653 7.99408028234379 L -12.1378087176868 8.81326164979245 L -11.5437783412915 9.57816081939808 L -10.9167599662069 10.2870955912275 L -10.2631573921788 10.9392677653126 L -9.58911381896285 11.5346815416529 L -8.9004146463293 12.0740467202205 L -8.20241667406525 12.5586761009631 L -7.49999970197679 12.9903804838087 L -6.7749241307887 13.3828390682138 L -6.00622376133411 13.7450084538224 L -5.19477039357837 14.0717568408386 L -4.34210502746025 14.3577890294727 L -3.45050606288921 14.597739219938 L -2.52304129974335 14.7862856124458 L -1.56360413786795 14.9182816072008 L -0.576922977075141 14.9889006043946 L 0.431456582855456 14.9937930042002 L 0.941838962574682 14.9704016051297 L 1.4552237421746 14.9292434067652 L 1.97071712169074 14.8699784091201 L 2.48738950116002 14.7923248122058 L 3.00428148062058 14.6960632160309 L 3.52040806011155 14.5810394206016 L 4.03476423967287 14.4471678259211 L 4.546331819345 14.2944342319902 L 5.05408439916873 14.1228968388065 L 5.55699457918488 13.9326878463647 L 6.05404055943404 13.7240144546567 L 6.54421293995634 13.4971574636712 L 7.02652112079114 13.2524708733941 L 7.49999970197679 12.9903804838087 L 7.96371588355036 12.7113810948951 L 8.41677466554742 12.4160335066312 L 8.8583248480018 12.1049603189921 L 9.28756443094535 11.7788425319509 L 9.70374521440781 11.4384139454783 L 10.1061771984166 11.0844559595433 L 10.4942321829967 10.7177923741132 L 10.8673465681704 10.3392823891538 L 11.2250233539576 9.94981580462984 L 11.5668343403753 9.55030502050498 L 11.8924205274377 9.14168023674227 L 12.2014921151563 8.72488245330432 L 12.4938285035399 8.30085727015357 L 12.7692772925945 7.87054888725249 L 13.0277520823236 7.43489470456383 L 13.2692302727282 6.99482032205081 L 13.7014128555548 6.10501975740831 L 14.0668196410348 5.20812499304771 L 14.3672660290961 4.31064362871041 L 14.605262619639 3.41852126416017 L 14.7838842125412 2.53707529918569 L 14.9066384076634 1.67096173360195 L 14.9773408048539 0.824163167250698 L 14.9999994039536 0 " />
  </g>
  <g id="ComplexString2d_1113" style=" fill-rule: evenodd; stroke-width: 0.0000000000;stroke: #63101f; fill: #63101f; " xmlns="http://www.w3.org/2000/svg">
    <path d="M 9.99999960263572 0 L 9.98489380323597 -0.549441978167137 L 9.93775900510894 -1.11397455573463 L 9.85592280836081 -1.69138353279046 L 9.73684181309267 -2.27901410944012 L 9.57817741939743 -2.87376248580694 L 9.37787982735654 -3.47208326203181 L 9.13427523703651 -4.07001323827221 L 8.84615344848544 -4.66321361470054 L 8.51285146172968 -5.24703259150166 L 8.13432807677084 -5.81658836886955 L 7.71122289358353 -6.36686994700332 L 7.24489771211363 -6.89285492610255 L 6.73745153227773 -7.3896373063622 L 6.19170955396357 -7.85256168796723 L 5.61118317703161 -8.27735567108744 L 4.99999980131786 -8.66025365587244 L 4.36280862663756 -8.99810504244743 L 3.70466305278992 -9.28845863090982 L 3.03088787956334 -9.52962282132681 L 2.34693870674103 -9.72069301373436 L 1.65825973410668 -9.86155000813721 L 0.970149161449736 -9.95282880451012 L 0.287637588570309 -9.99586200280013 L -0.384615384716758 -9.99260040292974 L -1.04240275857864 -9.9455210048005 L -1.68202753316223 -9.8575238082972 L -2.30033730859281 -9.73182621329197 L -2.8947366849735 -9.57185941964848 L -3.46318026238558 -9.38117122722575 L -4.00414924088941 -9.16333903588162 L -4.5166162205258 -8.92189284547583 L -4.99999980131786 -8.66025365587244 L -5.46827778271016 -8.3724506673087 L -5.93360976421953 -8.04936448014699 L -6.39274254597523 -7.68978769443529 L -6.84210492811918 -7.29284531020836 L -7.27783991080462 -6.85806372748503 L -7.69585229419431 -6.38544054626539 L -8.09187247845788 -5.8755077665283 L -8.46153806376869 -5.32938698822919 L -8.80048925029998 -4.74882941129847 L -9.10447723822058 -4.13624063564056 L -9.36948262769021 -3.4946798611339 L -9.59183641885467 -2.82783788763182 L -9.76833941184107 -2.13998551496462 L -9.89637260675348 -1.43589694294258 L -9.97399180366918 -0.720749371359993 L -9.99999960263572 0 L -9.97399180366918 0.720749371359993 L -9.89637260675348 1.43589694294258 L -9.76833941184107 2.13998551496462 L -9.59183641885467 2.82783788763182 L -9.36948262769021 3.4946798611339 L -9.10447723822058 4.13624063564056 L -8.80048925029998 4.74882941129847 L -8.46153806376869 5.32938698822919 L -8.09187247845788 5.8755077665283 L -7.69585229419431 6.38544054626539 L -7.27783991080462 6.85806372748503 L -6.84210492811918 7.29284531020836 L -6.39274254597523 7.68978769443529 L -5.93360976421953 8.04936448014699 L -5.46827778271016 8.3724506673087 L -4.99999980131786 8.66025365587244 L -4.5166162205258 8.92189284547583 L -4.00414924088941 9.16333903588162 L -3.46318026238558 9.38117122722575 L -2.8947366849735 9.57185941964848 L -2.30033730859281 9.73182621329197 L -1.68202753316223 9.8575238082972 L -1.04240275857864 9.9455210048005 L -0.384615384716758 9.99260040292974 L 0.287637588570309 9.99586200280013 L 0.970149161449736 9.95282880451012 L 1.65825973410668 9.86155000813721 L 2.34693870674103 9.72069301373436 L 3.03088787956334 9.52962282132681 L 3.70466305278992 9.28845863090982 L 4.36280862663756 8.99810504244743 L 4.99999980131786 8.66025365587244 L 5.61118317703161 8.27735567108744 L 6.19170955396357 7.85256168796723 L 6.73745153227773 7.3896373063622 L 7.24489771211363 6.89285492610255 L 7.71122289358353 6.36686994700332 L 8.13432807677084 5.81658836886955 L 8.51285146172968 5.24703259150166 L 8.84615344848544 4.66321361470054 L 9.13427523703651 4.07001323827221 L 9.37787982735654 3.47208326203181 L 9.57817741939743 2.87376248580694 L 9.73684181309267 2.27901410944012 L 9.85592280836081 1.69138353279046 L 9.93775900510894 1.11397455573463 L 9.98489380323597 0.549441978167137 L 9.99999960263572 0 " />
  </g>
  <polyline points="14.9999994039536,0 14.9773408048539,-0.824163167250698 14.9066384076634,-1.67096173360195 14.7838842125412,-2.53707529918569 14.605262619639,-3.41852126416017 14.3672660290961,-4.31064362871041 14.0668196410348,-5.20812499304771 13.7014128555548,-6.10501975740831 13.2692302727282,-6.99482032205081 12.7692772925945,-7.87054888725249 12.4938285035399,-8.30085727015357 12.2014921151563,-8.72488245330432 11.8924205274377,-9.14168023674227 11.5668343403753,-9.55030502050498 11.2250233539576,-9.94981580462984 10.8673465681704,-10.3392823891538 10.4942321829967,-10.7177923741132 10.1061771984166,-11.0844559595433 9.70374521440781,-11.4384139454783 9.28756443094535,-11.7788425319509 8.8583248480018,-12.1049603189921 8.41677466554742,-12.4160335066312 7.96371588355036,-12.7113810948951 7.49999970197679,-12.9903804838087 7.02652112079114,-13.2524708733941 6.54421293995634,-13.4971574636712 6.05404055943404,-13.7240144546567 5.55699457918488,-13.9326878463647 5.05408439916873,-14.1228968388065 4.546331819345,-14.2944342319902 4.03476423967287,-14.4471678259211 3.52040806011155,-14.5810394206016 3.00428148062058,-14.6960632160309 2.48738950116002,-14.7923248122058 1.97071712169074,-14.8699784091201 1.4552237421746,-14.9292434067652 0.941838962574682,-14.9704016051297 0.431456582855456,-14.9937930042002 -0.0750681970170579,-14.999811603961 -0.576922977075141,-14.9889006043946 -1.56360413786795,-14.9182816072008 -2.52304129974335,-14.7862856124458 -3.45050606288921,-14.597739219938 -4.34210502746025,-14.3577890294727 -5.19477039357837,-14.0717568408386 -6.00622376133411,-13.7450084538224 -6.7749241307887,-13.3828390682138 -7.49999970197679,-12.9903804838087 -8.20241667406525,-12.5586761009631 -8.9004146463293,-12.0740467202205 -9.58911381896285,-11.5346815416529 -10.2631573921788,-10.9392677653126 -10.9167599662069,-10.2870955912275 -11.5437783412915,-9.57816081939808 -12.1378087176868,-8.81326164979245 -12.692307095653,-7.99408028234379 -13.20073387545,-7.12324411694771 -13.4356674661145,-6.66954433497612 -13.6567158573309,-6.20436095346085 -13.8631376491284,-5.72829817237788 -14.0542238415353,-5.24201979170085 -14.2293048345782,-4.74624741140107 -14.387754628282,-4.24175683144773 -14.5289966226695,-3.72937545180793 -14.6525090177616,-3.20997827244692 -14.7578296135765,-2.68448289332823 -14.8445590101302,-2.15384551441387 -14.9123656074358,-1.61905433566456 -14.9609876055038,-1.08112395703999 -14.9902370043415,-0.541089778499024 -14.9999994039536,0 -14.9902370043415,0.541089778499024 -14.9609876055038,1.08112395703999 -14.9123656074358,1.61905433566456 -14.8445590101302,2.15384551441387 -14.7578296135765,2.68448289332823 -14.6525090177616,3.20997827244692 -14.5289966226695,3.72937545180793 -14.387754628282,4.24175683144773 -14.2293048345782,4.74624741140107 -14.0542238415353,5.24201979170085 -13.8631376491284,5.72829817237788 -13.6567158573309,6.20436095346085 -13.4356674661145,6.66954433497612 -13.20073387545,7.12324411694771 -12.9526836853066,7.56491669939722 -12.692307095653,7.99408028234379 -12.1378087176868,8.81326164979245 -11.5437783412915,9.57816081939808 -10.9167599662069,10.2870955912275 -10.2631573921788,10.9392677653126 -9.58911381896285,11.5346815416529 -8.9004146463293,12.0740467202205 -8.20241667406525,12.5586761009631 -7.49999970197679,12.9903804838087 -6.7749241307887,13.3828390682138 -6.00622376133411,13.7450084538224 -5.19477039357837,14.0717568408386 -4.34210502746025,14.3577890294727 -3.45050606288921,14.597739219938 -2.52304129974335,14.7862856124458 -1.56360413786795,14.9182816072008 -0.576922977075141,14.9889006043946 0.431456582855456,14.9937930042002 0.941838962574682,14.9704016051297 1.4552237421746,14.9292434067652 1.97071712169074,14.8699784091201 2.48738950116002,14.7923248122058 3.00428148062058,14.6960632160309 3.52040806011155,14.5810394206016 4.03476423967287,14.4471678259211 4.546331819345,14.2944342319902 5.05408439916873,14.1228968388065 5.55699457918488,13.9326878463647 6.05404055943404,13.7240144546567 6.54421293995634,13.4971574636712 7.02652112079114,13.2524708733941 7.49999970197679,12.9903804838087 7.96371588355036,12.7113810948951 8.41677466554742,12.4160335066312 8.8583248480018,12.1049603189921 9.28756443094535,11.7788425319509 9.70374521440781,11.4384139454783 10.1061771984166,11.0844559595433 10.4942321829967,10.7177923741132 10.8673465681704,10.3392823891538 11.2250233539576,9.94981580462984 11.5668343403753,9.55030502050498 11.8924205274377,9.14168023674227 12.2014921151563,8.72488245330432 12.4938285035399,8.30085727015357 12.7692772925945,7.87054888725249 13.0277520823236,7.43489470456383 13.2692302727282,6.99482032205081 13.7014128555548,6.10501975740831 14.0668196410348,5.20812499304771 14.3672660290961,4.31064362871041 14.605262619639,3.41852126416017 14.7838842125412,2.53707529918569 14.9066384076634,1.67096173360195 14.9773408048539,0.824163167250698 14.9999994039536,0" style=" stroke-width: 0.0000010000;stroke: #000000; fill: none; " xmlns="http://www.w3.org/2000/svg" />
  <polyline points="9.99999960263572,0 9.98489380323597,-0.549441978167137 9.93775900510894,-1.11397455573463 9.85592280836081,-1.69138353279046 9.73684181309267,-2.27901410944012 9.57817741939743,-2.87376248580694 9.37787982735654,-3.47208326203181 9.13427523703651,-4.07001323827221 8.84615344848544,-4.66321361470054 8.51285146172968,-5.24703259150166 8.13432807677084,-5.81658836886955 7.71122289358353,-6.36686994700332 7.24489771211363,-6.89285492610255 6.73745153227773,-7.3896373063622 6.19170955396357,-7.85256168796723 5.61118317703161,-8.27735567108744 4.99999980131786,-8.66025365587244 4.36280862663756,-8.99810504244743 3.70466305278992,-9.28845863090982 3.03088787956334,-9.52962282132681 2.34693870674103,-9.72069301373436 1.65825973410668,-9.86155000813721 0.970149161449736,-9.95282880451012 0.287637588570309,-9.99586200280013 -0.384615384716758,-9.99260040292974 -1.04240275857864,-9.9455210048005 -1.68202753316223,-9.8575238082972 -2.30033730859281,-9.73182621329197 -2.8947366849735,-9.57185941964848 -3.46318026238558,-9.38117122722575 -4.00414924088941,-9.16333903588162 -4.5166162205258,-8.92189284547583 -4.99999980131786,-8.66025365587244 -5.46827778271016,-8.3724506673087 -5.93360976421953,-8.04936448014699 -6.39274254597523,-7.68978769443529 -6.84210492811918,-7.29284531020836 -7.27783991080462,-6.85806372748503 -7.69585229419431,-6.38544054626539 -8.09187247845788,-5.8755077665283 -8.46153806376869,-5.32938698822919 -8.80048925029998,-4.74882941129847 -9.10447723822058,-4.13624063564056 -9.36948262769021,-3.4946798611339 -9.59183641885467,-2.82783788763182 -9.76833941184107,-2.13998551496462 -9.89637260675348,-1.43589694294258 -9.97399180366918,-0.720749371359993 -9.99999960263572,0 -9.97399180366918,0.720749371359993 -9.89637260675348,1.43589694294258 -9.76833941184107,2.13998551496462 -9.59183641885467,2.82783788763182 -9.36948262769021,3.4946798611339 -9.10447723822058,4.13624063564056 -8.80048925029998,4.74882941129847 -8.46153806376869,5.32938698822919 -8.09187247845788,5.8755077665283 -7.69585229419431,6.38544054626539 -7.27783991080462,6.85806372748503 -6.84210492811918,7.29284531020836 -6.39274254597523,7.68978769443529 -5.93360976421953,8.04936448014699 -5.46827778271016,8.3724506673087 -4.99999980131786,8.66025365587244 -4.5166162205258,8.92189284547583 -4.00414924088941,9.16333903588162 -3.46318026238558,9.38117122722575 -2.8947366849735,9.57185941964848 -2.30033730859281,9.73182621329197 -1.68202753316223,9.8575238082972 -1.04240275857864,9.9455210048005 -0.384615384716758,9.99260040292974 0.287637588570309,9.99586200280013 0.970149161449736,9.95282880451012 1.65825973410668,9.86155000813721 2.34693870674103,9.72069301373436 3.03088787956334,9.52962282132681 3.70466305278992,9.28845863090982 4.36280862663756,8.99810504244743 4.99999980131786,8.66025365587244 5.61118317703161,8.27735567108744 6.19170955396357,7.85256168796723 6.73745153227773,7.3896373063622 7.24489771211363,6.89285492610255 7.71122289358353,6.36686994700332 8.13432807677084,5.81658836886955 8.51285146172968,5.24703259150166 8.84615344848544,4.66321361470054 9.13427523703651,4.07001323827221 9.37787982735654,3.47208326203181 9.57817741939743,2.87376248580694 9.73684181309267,2.27901410944012 9.85592280836081,1.69138353279046 9.93775900510894,1.11397455573463 9.98489380323597,0.549441978167137 9.99999960263572,0" style=" stroke-width: 0.0000010000;stroke: #63101f; fill: none; " xmlns="http://www.w3.org/2000/svg" />
  <path id="LineString2d_1114" style=" stroke-width: 0.0000010000;stroke: #000000; fill: none; " d="M -2.50000090065889 -14.7901986122903 L -2.50000090065889 -30.0006634078807 L -12.9999994834264 -30.0006634078807 L -12.9999994834264 -35.0000286092238 L 12.9999994834264 -35.0000286092238 L 12.9999994834264 -30.000028807906 L 2.49988430066352 -30.000028807906 L 2.49999890065897 -14.7901990122903 L -5.99999976158143E-07 -14.9999994039536 L -2.50000090065889 -14.7901986122903 " xmlns="http://www.w3.org/2000/svg" />
  <g id="ComplexString2d_1115" style=" fill-rule: evenodd; stroke-width: 0.0000000000;stroke: #000000; fill: #000000; " xmlns="http://www.w3.org/2000/svg">
    <path d="M -2.50000090065889 -14.7901986122903 L -2.50000090065889 -30.0006634078807 L -12.9999994834264 -30.0006634078807 L -12.9999994834264 -35.0000286092238 L 12.9999994834264 -35.0000286092238 L 12.9999994834264 -30.000028807906 L 2.49988430066352 -30.000028807906 L 2.49999890065897 -14.7901990122903 L -5.99999976158143E-07 -14.9999994039536 L -2.50000090065889 -14.7901986122903 " />
  </g>
</svg>