<?xml version="1.0" encoding="UTF-8"?>
<svg viewBox="-15 -24.8437473806557 30 29.9999969440983" xmlns="http://www.w3.org/2000/svg" xmlns:xlink="http://www.w3.org/1999/xlink" xmlns:gmsvgsym="http://www.intergraph.com/GeoMedia/svgsym">
  <!-- Creator: SVG Document for Symbols-->
  <path id="LineString2d_1209" style=" stroke-width: 0.0000010000;stroke: #ffffff; fill: none; " d="M -14.9999975413088 5.1562491548249 L -14.9999975413088 -5.1562491548249 L -9.374998463318 -5.1562491548249 L -9.374998463318 -15.4687480269746 L -9.05555157817943 -17.8951778167518 L -8.11898454419473 -20.1562491336333 L -6.62912197590223 -22.0978748778761 L -4.68749566915959 -23.5877361336688 L -2.42642435227806 -24.5243018551537 L 3.56249941606084E-06 -24.8437464902926 L 2.42643128977692 -24.5243005426539 L 4.6875016691586 -23.5877340711691 L 6.62912685090143 -22.0978722528765 L 8.11898810669414 -20.1562470711336 L 9.055554203179 -17.895176504252 L 9.374998463318 -15.4733387762221 L 9.374998463318 -5.1562491548249 L 14.9999975413088 -5.1562491548249 L 14.9999975413088 5.1562491548249 L -14.9999975413088 5.1562491548249 " xmlns="http://www.w3.org/2000/svg" />
  <g id="ComplexString2d_1210" style=" fill-rule: evenodd; stroke-width: 0.0000000000;stroke: #ffffff; fill: #ffffff; " xmlns="http://www.w3.org/2000/svg">
    <path d="M -14.9999975413088 5.1562491548249 L -14.9999975413088 -5.1562491548249 L -9.374998463318 -5.1562491548249 L -9.374998463318 -15.4687480269746 L -9.05555157817943 -17.8951778167518 L -8.11898454419473 -20.1562491336333 L -6.62912197590223 -22.0978748778761 L -4.68749566915959 -23.5877361336688 L -2.42642435227806 -24.5243018551537 L 3.56249941606084E-06 -24.8437464902926 L 2.42643128977692 -24.5243005426539 L 4.6875016691586 -23.5877340711691 L 6.62912685090143 -22.0978722528765 L 8.11898810669414 -20.1562470711336 L 9.055554203179 -17.895176504252 L 9.374998463318 -15.4733387762221 L 9.374998463318 -5.1562491548249 L 14.9999975413088 -5.1562491548249 L 14.9999975413088 5.1562491548249 L -14.9999975413088 5.1562491548249 " />
  </g>
</svg>