<?xml version="1.0" encoding="UTF-8"?>
<svg viewBox="-15 -36.0928987130987 30 37.4991486039593" xmlns="http://www.w3.org/2000/svg" xmlns:xlink="http://www.w3.org/1999/xlink" xmlns:gmsvgsym="http://www.intergraph.com/GeoMedia/svgsym">
  <!-- Creator: SVG Document for Symbols-->
  <path id="LineString2d_1122" style=" stroke-width: 0.0000750000;stroke: #000000; fill: none; " d="M -14.9999975413088 -1.4062497694977 L -11.2499981559816 -1.4062497694977 L -11.2499981559816 -25.1081175094588 L -10.7982137925348 -28.0012673477346 L -9.62662773457275 -30.6655736610208 L -7.82199828037457 -32.9292844149697 L -5.51056559674791 -34.6512573202163 L -2.84617865847496 -35.7270982063723 L -0.000834374863235302 -36.0928958339134 L 2.84452903374536 -35.7271465813643 L 5.50895159701247 -34.6513411327026 L 7.82043303063113 -32.9293817274537 L 9.62511179732124 -30.6656582235069 L 10.7967385427766 -28.0012919102306 L 11.2460452816295 -25.1081175094588 L 11.2460452816295 -1.4062497694977 L 14.9999975413088 -1.4062497694977 L 14.9999975413088 1.4062497694977 L -14.9999975413088 1.4062497694977 L -14.9999975413088 -1.4062497694977 " xmlns="http://www.w3.org/2000/svg" />
  <g id="ComplexString2d_1123" style=" fill-rule: evenodd; stroke-width: 0.0000000000;stroke: #000000; fill: #000000; " xmlns="http://www.w3.org/2000/svg">
    <path d="M -14.9999975413088 -1.4062497694977 L -11.2499981559816 -1.4062497694977 L -11.2499981559816 -25.1081175094588 L -10.7982137925348 -28.0012673477346 L -9.62662773457275 -30.6655736610208 L -7.82199828037457 -32.9292844149697 L -5.51056559674791 -34.6512573202163 L -2.84617865847496 -35.7270982063723 L -0.000834374863235302 -36.0928958339134 L 2.84452903374536 -35.7271465813643 L 5.50895159701247 -34.6513411327026 L 7.82043303063113 -32.9293817274537 L 9.62511179732124 -30.6656582235069 L 10.7967385427766 -28.0012919102306 L 11.2460452816295 -25.1081175094588 L 11.2460452816295 -1.4062497694977 L 14.9999975413088 -1.4062497694977 L 14.9999975413088 1.4062497694977 L -14.9999975413088 1.4062497694977 L -14.9999975413088 -1.4062497694977 " />
  </g>
  <path id="LineString2d_1124" style=" stroke-width: 0.0000010000;stroke: #ffffff; fill: none; " d="M -8.43396855506483 -1.4062497694977 L -8.43396855506483 -25.1081175094588 L -8.08060911298495 -27.2730874045926 L -7.19025519642533 -29.2589333290871 L -5.83289266891439 -30.9401789910095 L -4.10418588977151 -32.2153360944949 L -2.11823215279469 -33.0103652141795 L -0.000831187363757774 -33.2803962949179 L 2.11658252806509 -33.0104130266717 L 4.10257132753616 -32.2154193444813 L 5.6249990779908 -31.1361605213856 L 5.6249990779908 -1.4062497694977 L -8.43396855506483 -1.4062497694977 " xmlns="http://www.w3.org/2000/svg" />
  <g id="ComplexString2d_1125" style=" fill-rule: evenodd; stroke-width: 0.0000000000;stroke: #ffffff; fill: #ffffff; " xmlns="http://www.w3.org/2000/svg">
    <path d="M -8.43396855506483 -1.4062497694977 L -8.43396855506483 -25.1081175094588 L -8.08060911298495 -27.2730874045926 L -7.19025519642533 -29.2589333290871 L -5.83289266891439 -30.9401789910095 L -4.10418588977151 -32.2153360944949 L -2.11823215279469 -33.0103652141795 L -0.000831187363757774 -33.2803962949179 L 2.11658252806509 -33.0104130266717 L 4.10257132753616 -32.2154193444813 L 5.6249990779908 -31.1361605213856 L 5.6249990779908 -1.4062497694977 L -8.43396855506483 -1.4062497694977 " />
  </g>
</svg>