<?xml version="1.0" encoding="UTF-8"?>
<svg viewBox="-14.9302439451814 -28.1600885936045 30 30.0000007275957" xmlns="http://www.w3.org/2000/svg" xmlns:xlink="http://www.w3.org/1999/xlink" xmlns:gmsvgsym="http://www.intergraph.com/GeoMedia/svgsym">
  <!-- Creator: SVG Document for Symbols-->
  <path id="LineString2d_1130" style=" stroke-width: 0.0000750000;stroke: #000000; fill: none; " d="M -14.9302427114819 1.8399118412109 L -14.9302427114819 -1.91008783515453 L -7.43024335875099 -1.91008783515453 L -7.43024335875099 -20.6600867169817 L -7.17468663080619 -22.601229799456 L -6.42543319546868 -24.410086893347 L -5.23354329833182 -25.9633875092932 L -3.68024218238568 -27.1552769064301 L -1.87138508849468 -27.9045295917677 L 0.0697574939797498 -28.1600855697126 L 2.01090007645418 -27.9045288417678 L 3.81975667034523 -27.1552756564302 L 5.37305678629145 -25.9633860092934 L 6.56494618342835 -24.4100856433472 L 7.3141991187659 -22.6012290494561 L 7.56975534671075 -20.6600867169817 L 7.56975534671075 -1.91008783515453 L 15.0697546994416 -1.91008783515453 L 15.0697546994416 1.8399118412109 L -14.9302427114819 1.8399118412109 " xmlns="http://www.w3.org/2000/svg" />
  <g id="ComplexString2d_1131" style=" fill-rule: evenodd; stroke-width: 0.0000000000;stroke: #000000; fill: #000000; " xmlns="http://www.w3.org/2000/svg">
    <path d="M -14.9302427114819 1.8399118412109 L -14.9302427114819 -1.91008783515453 L -7.43024335875099 -1.91008783515453 L -7.43024335875099 -20.6600867169817 L -7.17468663080619 -22.601229799456 L -6.42543319546868 -24.410086893347 L -5.23354329833182 -25.9633875092932 L -3.68024218238568 -27.1552769064301 L -1.87138508849468 -27.9045295917677 L 0.0697574939797498 -28.1600855697126 L 2.01090007645418 -27.9045288417678 L 3.81975667034523 -27.1552756564302 L 5.37305678629145 -25.9633860092934 L 6.56494618342835 -24.4100856433472 L 7.3141991187659 -22.6012290494561 L 7.56975534671075 -20.6600867169817 L 7.56975534671075 -1.91008783515453 L 15.0697546994416 -1.91008783515453 L 15.0697546994416 1.8399118412109 L -14.9302427114819 1.8399118412109 " />
  </g>
</svg>