<?xml version="1.0" encoding="UTF-8" standalone="no"?>
<svg
   viewBox="-15.0000184147897 -33.0681922522672 30 34.0909197486851"
   version="1.1"
   id="svg8819"
   sodipodi:docname="0010_427.svg"
   inkscape:version="1.2.2 (732a01da63, 2022-12-09)"
   xmlns:inkscape="http://www.inkscape.org/namespaces/inkscape"
   xmlns:sodipodi="http://sodipodi.sourceforge.net/DTD/sodipodi-0.dtd"
   xmlns="http://www.w3.org/2000/svg"
   xmlns:svg="http://www.w3.org/2000/svg">
  <defs
     id="defs8823" />
  <sodipodi:namedview
     id="namedview8821"
     pagecolor="#ffffff"
     bordercolor="#000000"
     borderopacity="0.25"
     inkscape:showpageshadow="2"
     inkscape:pageopacity="0.0"
     inkscape:pagecheckerboard="0"
     inkscape:deskcolor="#d1d1d1"
     showgrid="false"
     inkscape:zoom="6.9226646"
     inkscape:cx="-6.067028"
     inkscape:cy="17.117686"
     inkscape:window-width="1920"
     inkscape:window-height="1018"
     inkscape:window-x="-8"
     inkscape:window-y="-8"
     inkscape:window-maximized="1"
     inkscape:current-layer="svg8819" />
  <!-- Creator: SVG Document for Symbols-->
  <path
     id="LineString2d_1177"
     style=" stroke-width: 0.0000010000;stroke: #000000; fill: none; "
     d="M 9.88636494548778 1.02272740815391 L -1.02272740815391 1.02272740815391 L -1.02272740815391 -30.6818167900711 L -12.2727437614852 -30.6818167900711 L -12.2727437614852 -30.3409161085663 L -15.0000168498956 -31.7045526527715 L -12.2727437614852 -33.0681891969768 L -12.2727437614852 -32.7272716063789 L 13.8981299312597 -32.7272716063789 L 14.4886111458131 -33.0681861969764 L 14.999980031709 -32.1824812160575 L 14.1522273739974 -31.6930310148822 L 14.9900020303877 -31.209341496288 L 14.488616327632 -30.3409161085663 L 13.8981589767181 -30.6818167900711 L 1.02272740815391 -30.6818167900711 L 1.02272740815391 -1.02272740815391 L 9.88636494548778 -1.02272740815391 L 9.88636494548778 1.02272740815391 " />
  <g
     id="ComplexString2d_1178"
     style="fill-rule:evenodd;stroke-width:0;stroke:#1a171b;fill:#1a171b;fill-opacity:1;stroke-opacity:1">
    <path
       d="M 9.88636494548778 1.02272740815391 L -1.02272740815391 1.02272740815391 L -1.02272740815391 -30.6818167900711 L -12.2727437614852 -30.6818167900711 L -12.2727437614852 -30.3409161085663 L -15.0000168498956 -31.7045526527715 L -12.2727437614852 -33.0681891969768 L -12.2727437614852 -32.7272716063789 L 13.8981299312597 -32.7272716063789 L 14.4886111458131 -33.0681861969764 L 14.999980031709 -32.1824812160575 L 14.1522273739974 -31.6930310148822 L 14.9900020303877 -31.209341496288 L 14.488616327632 -30.3409161085663 L 13.8981589767181 -30.6818167900711 L 1.02272740815391 -30.6818167900711 L 1.02272740815391 -1.02272740815391 L 9.88636494548778 -1.02272740815391 L 9.88636494548778 1.02272740815391 "
       id="path8816"
       style="fill:#1a171b;fill-opacity:1;stroke:#1a171b;stroke-opacity:1" />
  </g>
</svg>
