<?xml version="1.0" encoding="UTF-8" standalone="no"?>
<svg
   viewBox="-11.9994775508684 -59.9963372683873 30 71.9958148192557"
   version="1.1"
   id="svg7228"
   sodipodi:docname="0010_422.svg"
   inkscape:version="1.2.2 (732a01da63, 2022-12-09)"
   xmlns:inkscape="http://www.inkscape.org/namespaces/inkscape"
   xmlns:sodipodi="http://sodipodi.sourceforge.net/DTD/sodipodi-0.dtd"
   xmlns="http://www.w3.org/2000/svg"
   xmlns:svg="http://www.w3.org/2000/svg">
  <defs
     id="defs7232" />
  <sodipodi:namedview
     id="namedview7230"
     pagecolor="#ffffff"
     bordercolor="#000000"
     borderopacity="0.25"
     inkscape:showpageshadow="2"
     inkscape:pageopacity="0.0"
     inkscape:pagecheckerboard="0"
     inkscape:deskcolor="#d1d1d1"
     showgrid="false"
     inkscape:zoom="3.2779685"
     inkscape:cx="-29.591499"
     inkscape:cy="36.150439"
     inkscape:window-width="1920"
     inkscape:window-height="1018"
     inkscape:window-x="-8"
     inkscape:window-y="-8"
     inkscape:window-maximized="1"
     inkscape:current-layer="svg7228" />
  <!-- Creator: SVG Document for Symbols-->
  <polyline
     points="11.999475584001,0 11.9813494761707,-0.65930158638247 11.9247899480056,-1.33671098139498 11.8265910396163,-2.02957180113011 11.6836997844276,-2.73469758484655 11.4933110050347,-3.44836429529678 11.2529645089561,-4.16631811838629 10.9606515839789,-4.88380276198046 10.6149205935444,-5.59561195361029 10.2149759724214,-6.29616413720789 9.76076732281249,-6.97960116879313 9.25306351111562,-7.63991041113776 8.6934976659578,-8.27106482764284 8.08458877725101,-8.86717747558685 7.42972699683462,-9.42266259908544 6.73312564057306,-9.93239312220845 5.99973779200052,-10.3918506424247 5.23514170732911,-10.7972544249647 4.4454016215321,-11.1456636983495 3.63690665538418,-11.4350481513104 2.81620342277709,-11.6643221312939 1.98982473820567,-11.8333431445274 1.16412822382119,-11.9428731577106 0.3451502158162,-11.9945105009913 -0.461518430147835,-11.9905968720296 -1.25082863473205,-11.9341042409407 -2.01834509177372,-11.8285121556573 -2.7602843666212,-11.6776814474484 -3.47353229537355,-11.4857297363607 -4.15563468528696,-11.2569141363445 -4.804769415994,-10.9955265598293 -5.41970264141774,-10.7058040216439 -5.99973779200052,-10.3918506424247 -6.56164683475301,-10.0465021352745 -7.12002083199844,-9.65881557843437 -7.67095605434247,-9.22734233521442 -8.21016748905404,-8.75103215151419 -8.73302663841351,-8.22931715215165 -9.23461941718234,-7.66219403727103 -9.70982294924684,-7.05030147896028 -10.1534024633835,-6.39498491841926 -10.5601258882508,-5.69834666377028 -10.9248955466337,-4.96327198891752 -11.2428882493213,-4.19343273338968 -11.5097010887349,-3.39325730365103 -11.7214954326352,-2.56787037573663 -11.8751286183667,-1.72300109926403 -11.9682676478891,-0.864861302756207 -11.999475584001,0 -11.9682676478891,0.864861302756207 -11.8751286183667,1.72300109926403 -11.7214954326352,2.56787037573663 -11.5097010887349,3.39325730365103 -11.2428882493213,4.19343273338968 -10.9248955466337,4.96327198891752 -10.5601258882508,5.69834666377028 -10.1534024633835,6.39498491841926 -9.70982294924684,7.05030147896028 -9.23461941718234,7.66219403727103 -8.73302663841351,8.22931715215165 -8.21016748905404,8.75103215151419 -7.67095605434247,9.22734233521442 -7.12002083199844,9.65881557843437 -6.56164683475301,10.0465021352745 -5.99973779200052,10.3918506424247 -5.41970264141774,10.7058040216439 -4.804769415994,10.9955265598293 -4.15563468528696,11.2569141363445 -3.47353229537355,11.4857297363607 -2.7602843666212,11.6776814474484 -2.01834509177372,11.8285121556573 -1.25082863473205,11.9341042409407 -0.461518430147835,11.9905968720296 0.3451502158162,11.9945105009913 1.16412822382119,11.9428731577106 1.98982473820567,11.8333431445274 2.81620342277709,11.6643221312939 3.63690665538418,11.4350481513104 4.4454016215321,11.1456636983495 5.23514170732911,10.7972544249647 5.99973779200052,10.3918506424247 6.73312564057306,9.93239312220845 7.42972699683462,9.42266259908544 8.08458877725101,8.86717747558685 8.6934976659578,8.27106482764284 9.25306351111562,7.63991041113776 9.76076732281249,6.97960116879313 10.2149759724214,6.29616413720789 10.6149205935444,5.59561195361029 10.9606515839789,4.88380276198046 11.2529645089561,4.16631811838629 11.4933110050347,3.44836429529678 11.6836997844276,2.73469758484655 11.8265910396163,2.02957180113011 11.9247899480056,1.33671098139498 11.9813494761707,0.65930158638247 11.999475584001,0"
     style=" stroke-width: 0.0000010000;stroke: #000000; fill: none; "
     id="polyline7214" />
  <g
     id="ComplexString2d_1163"
     style="fill-rule:evenodd;stroke-width:0;stroke:#1a171b;fill:#1a171b;fill-opacity:1;stroke-opacity:1">
    <path
       d="M 11.999475584001 0 L 11.9813494761707 -0.65930158638247 L 11.9247899480056 -1.33671098139498 L 11.8265910396163 -2.02957180113011 L 11.6836997844276 -2.73469758484655 L 11.4933110050347 -3.44836429529678 L 11.2529645089561 -4.16631811838629 L 10.9606515839789 -4.88380276198046 L 10.6149205935444 -5.59561195361029 L 10.2149759724214 -6.29616413720789 L 9.76076732281249 -6.97960116879313 L 9.25306351111562 -7.63991041113776 L 8.6934976659578 -8.27106482764284 L 8.08458877725101 -8.86717747558685 L 7.42972699683462 -9.42266259908544 L 6.73312564057306 -9.93239312220845 L 5.99973779200052 -10.3918506424247 L 5.23514170732911 -10.7972544249647 L 4.4454016215321 -11.1456636983495 L 3.63690665538418 -11.4350481513104 L 2.81620342277709 -11.6643221312939 L 1.98982473820567 -11.8333431445274 L 1.16412822382119 -11.9428731577106 L 0.3451502158162 -11.9945105009913 L -0.461518430147835 -11.9905968720296 L -1.25082863473205 -11.9341042409407 L -2.01834509177372 -11.8285121556573 L -2.7602843666212 -11.6776814474484 L -3.47353229537355 -11.4857297363607 L -4.15563468528696 -11.2569141363445 L -4.804769415994 -10.9955265598293 L -5.41970264141774 -10.7058040216439 L -5.99973779200052 -10.3918506424247 L -6.56164683475301 -10.0465021352745 L -7.12002083199844 -9.65881557843437 L -7.67095605434247 -9.22734233521442 L -8.21016748905404 -8.75103215151419 L -8.73302663841351 -8.22931715215165 L -9.23461941718234 -7.66219403727103 L -9.70982294924684 -7.05030147896028 L -10.1534024633835 -6.39498491841926 L -10.5601258882508 -5.69834666377028 L -10.9248955466337 -4.96327198891752 L -11.2428882493213 -4.19343273338968 L -11.5097010887349 -3.39325730365103 L -11.7214954326352 -2.56787037573663 L -11.8751286183667 -1.72300109926403 L -11.9682676478891 -0.864861302756207 L -11.999475584001 0 L -11.9682676478891 0.864861302756207 L -11.8751286183667 1.72300109926403 L -11.7214954326352 2.56787037573663 L -11.5097010887349 3.39325730365103 L -11.2428882493213 4.19343273338968 L -10.9248955466337 4.96327198891752 L -10.5601258882508 5.69834666377028 L -10.1534024633835 6.39498491841926 L -9.70982294924684 7.05030147896028 L -9.23461941718234 7.66219403727103 L -8.73302663841351 8.22931715215165 L -8.21016748905404 8.75103215151419 L -7.67095605434247 9.22734233521442 L -7.12002083199844 9.65881557843437 L -6.56164683475301 10.0465021352745 L -5.99973779200052 10.3918506424247 L -5.41970264141774 10.7058040216439 L -4.804769415994 10.9955265598293 L -4.15563468528696 11.2569141363445 L -3.47353229537355 11.4857297363607 L -2.7602843666212 11.6776814474484 L -2.01834509177372 11.8285121556573 L -1.25082863473205 11.9341042409407 L -0.461518430147835 11.9905968720296 L 0.3451502158162 11.9945105009913 L 1.16412822382119 11.9428731577106 L 1.98982473820567 11.8333431445274 L 2.81620342277709 11.6643221312939 L 3.63690665538418 11.4350481513104 L 4.4454016215321 11.1456636983495 L 5.23514170732911 10.7972544249647 L 5.99973779200052 10.3918506424247 L 6.73312564057306 9.93239312220845 L 7.42972699683462 9.42266259908544 L 8.08458877725101 8.86717747558685 L 8.6934976659578 8.27106482764284 L 9.25306351111562 7.63991041113776 L 9.76076732281249 6.97960116879313 L 10.2149759724214 6.29616413720789 L 10.6149205935444 5.59561195361029 L 10.9606515839789 4.88380276198046 L 11.2529645089561 4.16631811838629 L 11.4933110050347 3.44836429529678 L 11.6836997844276 2.73469758484655 L 11.8265910396163 2.02957180113011 L 11.9247899480056 1.33671098139498 L 11.9813494761707 0.65930158638247 L 11.999475584001 0 "
       id="path7216"
       style="fill:#1a171b;fill-opacity:1;stroke:#1a171b;stroke-opacity:1" />
  </g>
  <path
     id="LineString2d_1164"
     style=" stroke-width: 0.0000750000;stroke: #000000; fill: none; "
     d="M -1.49862770510903 -11.9044712359992 L -1.49862770510903 -32.9974737033839 L 9.00091463083944 -28.3310405416469 L 9.00091463083944 -50.1789201184537 L 6.00104573483918 -43.6339789536088 L 3.00117683883892 -43.6339789536088 L 10.5008490788396 -59.9963321657081 L 18.0005213188402 -43.6339789536088 L 15.00065242284 -43.6339789536088 L 12.0007835268397 -50.1789201184537 L 12.0007835268397 -23.9979054137049 L 1.50124119089123 -28.664338275455 L 1.50124119089123 -11.9041418503944 L -1.49862770510903 -11.9044712359992 " />
  <g
     id="ComplexString2d_1165"
     style="fill-rule:evenodd;stroke-width:0;stroke:#1a171b;fill:#1a171b;fill-opacity:1;stroke-opacity:1">
    <path
       d="M -1.49862770510903 -11.9044712359992 L -1.49862770510903 -32.9974737033839 L 9.00091463083944 -28.3310405416469 L 9.00091463083944 -50.1789201184537 L 6.00104573483918 -43.6339789536088 L 3.00117683883892 -43.6339789536088 L 10.5008490788396 -59.9963321657081 L 18.0005213188402 -43.6339789536088 L 15.00065242284 -43.6339789536088 L 12.0007835268397 -50.1789201184537 L 12.0007835268397 -23.9979054137049 L 1.50124119089123 -28.664338275455 L 1.50124119089123 -11.9041418503944 L -1.49862770510903 -11.9044712359992 "
       id="path7220"
       style="fill:#1a171b;fill-opacity:1;stroke:#1a171b;stroke-opacity:1" />
  </g>
  <polyline
     points="8.99960668800078,0 8.98601218212478,-0.494476189786853 8.94359253600089,-1.00253338603968 8.86994305472207,-1.52217877585086 8.76277483832069,-2.05102326363163 8.61998317877931,-2.58627337146603 8.43972345671377,-3.12473843879627 8.22048883797761,-3.6628519214919 7.96119067014849,-4.196708890211 7.66123197931608,-4.72212302790919 7.32057556710609,-5.23470102658829 6.93979770833344,-5.72993288335004 6.52012324946835,-6.20329869572885 6.06344150794154,-6.65038325668358 5.57229547261613,-7.06699694931408 5.04984430542652,-7.44929484165634 4.49980334400039,-7.79388798181855 3.926356505487,-8.09794089372022 3.33405129114579,-8.35924777376211 2.72767999153813,-8.5762861884795 2.1121524920861,-8.74824167346713 1.49236847865753,-8.8750074333923 0.873096242862617,-8.9571549432797 0.258862586865427,-8.99588295074018 -0.346138672617432,-8.99294757902544 -0.938121401052318,-8.95057803071211 -1.51375874383357,-8.87138419173971 -2.07021312497246,-8.75826123557977 -2.60514944652033,-8.61429722727383 -3.11672608896194,-8.44268552726168 -3.60357691200205,-8.24664499486873 -4.06477705606002,-8.02935279124274 -4.49980334400039,-7.79388798181855 -4.92123512606475,-7.53487660145588 -5.34001562399883,-7.24411160882905 -5.75321696576013,-6.92050675141082 -6.15762569178725,-6.56327426362909 -6.54977005380685,-6.17198786411374 -6.9259647128802,-5.74664545295655 -7.28236713693841,-5.28772610922021 -7.61505169754417,-4.79623868881444 -7.92009456618151,-4.27375992283099 -8.19367180996871,-3.72245391669142 -8.43216618699096,-3.14507455004226 -8.63227574155445,-2.54494297773828 -8.79112149947967,-1.92590293179591 -8.90634646377504,-1.29225082444803 -8.97620081091352,-0.648646052063877 -8.99960668800078,0 -8.97620081091352,0.648646052063877 -8.90634646377504,1.29225082444803 -8.79112149947967,1.92590293179591 -8.63227574155445,2.54494297773828 -8.43216618699096,3.14507455004226 -8.19367180996871,3.72245391669142 -7.92009456618151,4.27375992283099 -7.61505169754417,4.79623868881444 -7.28236713693841,5.28772610922021 -6.9259647128802,5.74664545295655 -6.54977005380685,6.17198786411374 -6.15762569178725,6.56327426362909 -5.75321696576013,6.92050675141082 -5.34001562399883,7.24411160882905 -4.92123512606475,7.53487660145588 -4.49980334400039,7.79388798181855 -4.06477705606002,8.02935279124274 -3.60357691200205,8.24664499486873 -3.11672608896194,8.44268552726168 -2.60514944652033,8.61429722727383 -2.07021312497246,8.75826123557977 -1.51375874383357,8.87138419173971 -0.938121401052318,8.95057803071211 -0.346138672617432,8.99294757902544 0.258862586865427,8.99588295074018 0.873096242862617,8.9571549432797 1.49236847865753,8.8750074333923 2.1121524920861,8.74824167346713 2.72767999153813,8.5762861884795 3.33405129114579,8.35924777376211 3.926356505487,8.09794089372022 4.49980334400039,7.79388798181855 5.04984430542652,7.44929484165634 5.57229547261613,7.06699694931408 6.06344150794154,6.65038325668358 6.52012324946835,6.20329869572885 6.93979770833344,5.72993288335004 7.32057556710609,5.23470102658829 7.66123197931608,4.72212302790919 7.96119067014849,4.196708890211 8.22048883797761,3.6628519214919 8.43972345671377,3.12473843879627 8.61998317877931,2.58627337146603 8.76277483832069,2.05102326363163 8.86994305472207,1.52217877585086 8.94359253600089,1.00253338603968 8.98601218212478,0.494476189786853 8.99960668800078,0"
     style=" stroke-width: 0.0000010000;stroke: #000000; fill: none; "
     id="polyline7223" />
  <g
     id="ComplexString2d_1166"
     style=" fill-rule: evenodd; stroke-width: 0.0000000000;stroke: #ffffff; fill: #ffffff; ">
    <path
       d="M 8.99960668800078 0 L 8.98601218212478 -0.494476189786853 L 8.94359253600089 -1.00253338603968 L 8.86994305472207 -1.52217877585086 L 8.76277483832069 -2.05102326363163 L 8.61998317877931 -2.58627337146603 L 8.43972345671377 -3.12473843879627 L 8.22048883797761 -3.6628519214919 L 7.96119067014849 -4.196708890211 L 7.66123197931608 -4.72212302790919 L 7.32057556710609 -5.23470102658829 L 6.93979770833344 -5.72993288335004 L 6.52012324946835 -6.20329869572885 L 6.06344150794154 -6.65038325668358 L 5.57229547261613 -7.06699694931408 L 5.04984430542652 -7.44929484165634 L 4.49980334400039 -7.79388798181855 L 3.926356505487 -8.09794089372022 L 3.33405129114579 -8.35924777376211 L 2.72767999153813 -8.5762861884795 L 2.1121524920861 -8.74824167346713 L 1.49236847865753 -8.8750074333923 L 0.873096242862617 -8.9571549432797 L 0.258862586865427 -8.99588295074018 L -0.346138672617432 -8.99294757902544 L -0.938121401052318 -8.95057803071211 L -1.51375874383357 -8.87138419173971 L -2.07021312497246 -8.75826123557977 L -2.60514944652033 -8.61429722727383 L -3.11672608896194 -8.44268552726168 L -3.60357691200205 -8.24664499486873 L -4.06477705606002 -8.02935279124274 L -4.49980334400039 -7.79388798181855 L -4.92123512606475 -7.53487660145588 L -5.34001562399883 -7.24411160882905 L -5.75321696576013 -6.92050675141082 L -6.15762569178725 -6.56327426362909 L -6.54977005380685 -6.17198786411374 L -6.9259647128802 -5.74664545295655 L -7.28236713693841 -5.28772610922021 L -7.61505169754417 -4.79623868881444 L -7.92009456618151 -4.27375992283099 L -8.19367180996871 -3.72245391669142 L -8.43216618699096 -3.14507455004226 L -8.63227574155445 -2.54494297773828 L -8.79112149947967 -1.92590293179591 L -8.90634646377504 -1.29225082444803 L -8.97620081091352 -0.648646052063877 L -8.99960668800078 0 L -8.97620081091352 0.648646052063877 L -8.90634646377504 1.29225082444803 L -8.79112149947967 1.92590293179591 L -8.63227574155445 2.54494297773828 L -8.43216618699096 3.14507455004226 L -8.19367180996871 3.72245391669142 L -7.92009456618151 4.27375992283099 L -7.61505169754417 4.79623868881444 L -7.28236713693841 5.28772610922021 L -6.9259647128802 5.74664545295655 L -6.54977005380685 6.17198786411374 L -6.15762569178725 6.56327426362909 L -5.75321696576013 6.92050675141082 L -5.34001562399883 7.24411160882905 L -4.92123512606475 7.53487660145588 L -4.49980334400039 7.79388798181855 L -4.06477705606002 8.02935279124274 L -3.60357691200205 8.24664499486873 L -3.11672608896194 8.44268552726168 L -2.60514944652033 8.61429722727383 L -2.07021312497246 8.75826123557977 L -1.51375874383357 8.87138419173971 L -0.938121401052318 8.95057803071211 L -0.346138672617432 8.99294757902544 L 0.258862586865427 8.99588295074018 L 0.873096242862617 8.9571549432797 L 1.49236847865753 8.8750074333923 L 2.1121524920861 8.74824167346713 L 2.72767999153813 8.5762861884795 L 3.33405129114579 8.35924777376211 L 3.926356505487 8.09794089372022 L 4.49980334400039 7.79388798181855 L 5.04984430542652 7.44929484165634 L 5.57229547261613 7.06699694931408 L 6.06344150794154 6.65038325668358 L 6.52012324946835 6.20329869572885 L 6.93979770833344 5.72993288335004 L 7.32057556710609 5.23470102658829 L 7.66123197931608 4.72212302790919 L 7.96119067014849 4.196708890211 L 8.22048883797761 3.6628519214919 L 8.43972345671377 3.12473843879627 L 8.61998317877931 2.58627337146603 L 8.76277483832069 2.05102326363163 L 8.86994305472207 1.52217877585086 L 8.94359253600089 1.00253338603968 L 8.98601218212478 0.494476189786853 L 8.99960668800078 0 "
       id="path7225" />
  </g>
</svg>
