<?xml version="1.0" encoding="UTF-8"?>
<svg viewBox="-15.000003352762 -14.9999899417141 30 30.0000301748577" xmlns="http://www.w3.org/2000/svg" xmlns:xlink="http://www.w3.org/1999/xlink" xmlns:gmsvgsym="http://www.intergraph.com/GeoMedia/svgsym">
  <!-- Creator: SVG Document for Symbols-->
  <path id="LineString2d_1328" style=" stroke-width: 0.0000010000;stroke: #8c8c8c; fill: none; " d="M -15.0000018092442 1.74000036299236E-05 L -15.0000018092442 -0.599994365168579 L -7.17496265681385 -0.599994365168579 L -7.13841112918861 -0.939766396050548 L -6.95467609085849 -1.86347354875088 L -6.65194530770393 -2.75529585479951 L -6.23539810080541 -3.59997507101332 L -5.71216199164985 -4.38305755437706 L -5.49772842691552 -4.64918952989652 L -11.0308682612184 -10.1823293641994 L -10.1823400442017 -11.0308577012162 L -4.64919972989864 -5.49771738691322 L -4.38310483438692 -5.71212215164154 L -3.60002415102356 -6.23536330079815 L -2.75534589480995 -6.65191554769772 L -1.86352274876114 -6.95465161085339 L -0.939813676060411 -7.13839156918453 L -0.600007565171332 -7.17494741681067 L -0.600007565171332 -14.9999886092415 L 0.599992685168228 -14.9999886092415 L 0.599992685168228 -7.17494777681075 L 0.939766516050573 -7.13839636918553 L 1.8634770287516 -6.95466121085539 L 2.75530365480113 -6.6519288677005 L 3.5999855110155 -6.23537974080158 L 4.38307099437986 -5.71214039164535 L 4.64919132989689 -5.49771594691292 L 10.1823314041999 -11.0308561412159 L 11.0308597412167 -10.1823278041991 L 5.49771978691372 -4.64918784989617 L 5.71213799164485 -4.38307579438086 L 6.23537854080133 -3.59999151101675 L 6.65192970770068 -2.75530917480229 L 6.95466337085584 -1.86348302875285 L 7.13840032918636 -0.939771196051549 L 7.17495245681172 -0.599994365168579 L 14.9999946092427 -0.599994365168579 L 14.9999946092427 5.76000120162989E-06 L 5.99999621169675 1.98000041306027E-05 L 5.9486663209885 -0.783139723375678 L 5.7955521690464 -1.55290016396022 L 5.54327395641706 -2.29608899900149 L 5.19614784400091 -2.99999138584697 L 4.7601137130371 -3.65256184198378 L 4.24263172508195 -4.24263604508285 L 3.6525571619828 -4.76011611303761 L 2.99998538584572 -5.19614904400116 L 2.29608335900032 -5.54327323641691 L 1.55289416395897 -5.79554988904592 L 0.783135043374701 -5.94866236098768 L -2.41200050318252E-05 -5.99999093169565 L -0.78318220338454 -5.94865744098665 L -1.55293976396848 -5.79554040904395 L -2.29612571900915 -5.54325991641413 L -3.00002402585378 -5.19613260399773 L -3.65259100198986 -4.76009799303383 L -4.24266088508803 -4.24261696507887 L -4.76013783304214 -3.65254372198 L -5.19616740400499 -2.99997494584354 L -5.54328967642034 -2.29607567899871 L -5.79556488904905 -1.55289068395824 L -5.94867712099075 -0.783134923374676 L -6.00000629169885 1.98000041306027E-05 L -15.0000018092442 1.74000036299236E-05 " xmlns="http://www.w3.org/2000/svg" />
  <g id="ComplexString2d_1329" style=" fill-rule: evenodd; stroke-width: 0.0000000000;stroke: #8c8c8c; fill: #8c8c8c; " xmlns="http://www.w3.org/2000/svg">
    <path d="M -15.0000018092442 1.74000036299236E-05 L -15.0000018092442 -0.599994365168579 L -7.17496265681385 -0.599994365168579 L -7.13841112918861 -0.939766396050548 L -6.95467609085849 -1.86347354875088 L -6.65194530770393 -2.75529585479951 L -6.23539810080541 -3.59997507101332 L -5.71216199164985 -4.38305755437706 L -5.49772842691552 -4.64918952989652 L -11.0308682612184 -10.1823293641994 L -10.1823400442017 -11.0308577012162 L -4.64919972989864 -5.49771738691322 L -4.38310483438692 -5.71212215164154 L -3.60002415102356 -6.23536330079815 L -2.75534589480995 -6.65191554769772 L -1.86352274876114 -6.95465161085339 L -0.939813676060411 -7.13839156918453 L -0.600007565171332 -7.17494741681067 L -0.600007565171332 -14.9999886092415 L 0.599992685168228 -14.9999886092415 L 0.599992685168228 -7.17494777681075 L 0.939766516050573 -7.13839636918553 L 1.8634770287516 -6.95466121085539 L 2.75530365480113 -6.6519288677005 L 3.5999855110155 -6.23537974080158 L 4.38307099437986 -5.71214039164535 L 4.64919132989689 -5.49771594691292 L 10.1823314041999 -11.0308561412159 L 11.0308597412167 -10.1823278041991 L 5.49771978691372 -4.64918784989617 L 5.71213799164485 -4.38307579438086 L 6.23537854080133 -3.59999151101675 L 6.65192970770068 -2.75530917480229 L 6.95466337085584 -1.86348302875285 L 7.13840032918636 -0.939771196051549 L 7.17495245681172 -0.599994365168579 L 14.9999946092427 -0.599994365168579 L 14.9999946092427 5.76000120162989E-06 L 5.99999621169675 1.98000041306027E-05 L 5.9486663209885 -0.783139723375678 L 5.7955521690464 -1.55290016396022 L 5.54327395641706 -2.29608899900149 L 5.19614784400091 -2.99999138584697 L 4.7601137130371 -3.65256184198378 L 4.24263172508195 -4.24263604508285 L 3.6525571619828 -4.76011611303761 L 2.99998538584572 -5.19614904400116 L 2.29608335900032 -5.54327323641691 L 1.55289416395897 -5.79554988904592 L 0.783135043374701 -5.94866236098768 L -2.41200050318252E-05 -5.99999093169565 L -0.78318220338454 -5.94865744098665 L -1.55293976396848 -5.79554040904395 L -2.29612571900915 -5.54325991641413 L -3.00002402585378 -5.19613260399773 L -3.65259100198986 -4.76009799303383 L -4.24266088508803 -4.24261696507887 L -4.76013783304214 -3.65254372198 L -5.19616740400499 -2.99997494584354 L -5.54328967642034 -2.29607567899871 L -5.79556488904905 -1.55289068395824 L -5.94867712099075 -0.783134923374676 L -6.00000629169885 1.98000041306027E-05 L -15.0000018092442 1.74000036299236E-05 " />
  </g>
  <path id="LineString2d_1330" style=" stroke-width: 0.0000010000;stroke: #8c8c8c; fill: none; " d="M -15.000000489244 3.34800069844737E-05 L -15.000000489244 0.600045365179218 L -7.17496133681358 0.600045365179218 L -7.13840980918833 0.939817276061162 L -6.95467477085822 1.86352454876152 L -6.65194398770366 2.75534685481015 L -6.23539678080514 3.60002607102396 L -5.71216067164958 4.3831085543877 L -5.49772710691525 4.64924052990716 L -11.0308669412182 10.1823803642101 L -10.1823386042014 11.0309087012269 L -4.64919840989837 5.49776838692386 L -4.38310351438665 5.71217315165218 L -3.60002283102329 6.23541430080879 L -2.75534457480967 6.65196654770836 L -1.86352142876087 6.95470261086403 L -0.939812356060136 7.13844256919517 L -0.600006245171057 7.17499841682131 L -0.600006245171057 15.0000396092521 L 0.599994005168503 15.0000396092521 L 0.599994005168503 7.17499877682139 L 0.939767836050848 7.13844736919617 L 1.86347834875188 6.95471221086603 L 2.75530497480141 6.65197986771114 L 3.59998683101578 6.23543074081222 L 4.38307231438014 5.71219139165599 L 4.64919264989717 5.49776694692356 L 10.1823327242001 11.0309071412266 L 11.0308610612169 10.1823788042098 L 5.497721106914 4.64923884990681 L 5.71213931164512 4.38312679439151 L 6.23537986080161 3.60004251102739 L 6.65193102770095 2.75536017481293 L 6.95466481085614 1.86353402876349 L 7.13840164918663 0.939822196062189 L 7.174953776812 0.600045365179218 L 14.999995929243 0.600045365179218 L 14.999995929243 4.52400094378014E-05 L 5.99999753169703 3.12000065088286E-05 L 5.94866764098878 0.783190723386317 L 5.79555348904668 1.55295116397086 L 5.54327527641734 2.29613999901213 L 5.19614916400119 3.00004238585761 L 4.76011503303738 3.65261284199442 L 4.24263304508222 4.24268692509346 L 3.65255848198308 4.76016711304824 L 2.999986705846 5.1962000440118 L 2.29608467900059 5.54332423642755 L 1.55289548395924 5.79560088905656 L 0.783136363374977 5.94871336099831 L -2.28000047564517E-05 6.00004193170629 L -0.783180883384264 5.94870844099729 L -1.55293844396821 5.79559140905459 L -2.29612439900888 5.54331091642477 L -3.00002270585351 5.19618360400837 L -3.65258968198959 4.76014899304447 L -4.24265956508776 4.24266796508951 L -4.76013651304186 3.65259472199064 L -5.19616608400472 3.00002594585418 L -5.54328835642007 2.29612667900935 L -5.79556356904878 1.55294168396888 L -5.94867580099048 0.783185923385316 L -6.00000497169858 3.12000065088286E-05 L -15.000000489244 3.34800069844737E-05 " xmlns="http://www.w3.org/2000/svg" />
  <g id="ComplexString2d_1331" style=" fill-rule: evenodd; stroke-width: 0.0000000000;stroke: #8c8c8c; fill: #8c8c8c; " xmlns="http://www.w3.org/2000/svg">
    <path d="M -15.000000489244 3.34800069844737E-05 L -15.000000489244 0.600045365179218 L -7.17496133681358 0.600045365179218 L -7.13840980918833 0.939817276061162 L -6.95467477085822 1.86352454876152 L -6.65194398770366 2.75534685481015 L -6.23539678080514 3.60002607102396 L -5.71216067164958 4.3831085543877 L -5.49772710691525 4.64924052990716 L -11.0308669412182 10.1823803642101 L -10.1823386042014 11.0309087012269 L -4.64919840989837 5.49776838692386 L -4.38310351438665 5.71217315165218 L -3.60002283102329 6.23541430080879 L -2.75534457480967 6.65196654770836 L -1.86352142876087 6.95470261086403 L -0.939812356060136 7.13844256919517 L -0.600006245171057 7.17499841682131 L -0.600006245171057 15.0000396092521 L 0.599994005168503 15.0000396092521 L 0.599994005168503 7.17499877682139 L 0.939767836050848 7.13844736919617 L 1.86347834875188 6.95471221086603 L 2.75530497480141 6.65197986771114 L 3.59998683101578 6.23543074081222 L 4.38307231438014 5.71219139165599 L 4.64919264989717 5.49776694692356 L 10.1823327242001 11.0309071412266 L 11.0308610612169 10.1823788042098 L 5.497721106914 4.64923884990681 L 5.71213931164512 4.38312679439151 L 6.23537986080161 3.60004251102739 L 6.65193102770095 2.75536017481293 L 6.95466481085614 1.86353402876349 L 7.13840164918663 0.939822196062189 L 7.174953776812 0.600045365179218 L 14.999995929243 0.600045365179218 L 14.999995929243 4.52400094378014E-05 L 5.99999753169703 3.12000065088286E-05 L 5.94866764098878 0.783190723386317 L 5.79555348904668 1.55295116397086 L 5.54327527641734 2.29613999901213 L 5.19614916400119 3.00004238585761 L 4.76011503303738 3.65261284199442 L 4.24263304508222 4.24268692509346 L 3.65255848198308 4.76016711304824 L 2.999986705846 5.1962000440118 L 2.29608467900059 5.54332423642755 L 1.55289548395924 5.79560088905656 L 0.783136363374977 5.94871336099831 L -2.28000047564517E-05 6.00004193170629 L -0.783180883384264 5.94870844099729 L -1.55293844396821 5.79559140905459 L -2.29612439900888 5.54331091642477 L -3.00002270585351 5.19618360400837 L -3.65258968198959 4.76014899304447 L -4.24265956508776 4.24266796508951 L -4.76013651304186 3.65259472199064 L -5.19616608400472 3.00002594585418 L -5.54328835642007 2.29612667900935 L -5.79556356904878 1.55294168396888 L -5.94867580099048 0.783185923385316 L -6.00000497169858 3.12000065088286E-05 L -15.000000489244 3.34800069844737E-05 " />
  </g>
</svg>