<?xml version="1.0" encoding="UTF-8"?>
<svg viewBox="-15.0000020954754 -45.0048761711437 30 45.0048761711437" xmlns="http://www.w3.org/2000/svg" xmlns:xlink="http://www.w3.org/1999/xlink" xmlns:gmsvgsym="http://www.intergraph.com/GeoMedia/svgsym">
  <!-- Creator: SVG Document for Symbols-->
  <path id="LineString2d_1135" style=" stroke-width: 0.0000750000;stroke: #000000; fill: none; " d="M -7.49999842140857 0 L 0 -36.2709682657264 L 7.49999842140857 0 L -7.49999842140857 0 " xmlns="http://www.w3.org/2000/svg" />
  <g id="ComplexString2d_1136" style=" fill-rule: evenodd; stroke-width: 0.0000000000;stroke: #000000; fill: #000000; " xmlns="http://www.w3.org/2000/svg">
    <path d="M -7.49999842140857 0 L 0 -36.2709682657264 L 7.49999842140857 0 L -7.49999842140857 0 " />
  </g>
  <path id="LineString2d_1137" style=" stroke-width: 0.0000750000;stroke: #000000; fill: none; " d="M -14.0848431354377 -45.0048740774235 L -1.79999962113806E-06 -38.7338985973316 L 14.0848395354384 -45.0048740774235 L 14.9999968428171 -42.949397210058 L 2.76591511783322 -37.5024330565291 L 14.9999932428179 -32.0554705529998 L 14.0848360854392 -29.9999936856343 L 0 -36.2709682657264 L -14.0848395354384 -29.9999936856343 L -14.9999968428171 -32.0554705529998 L -2.76591871783247 -37.5024330565291 L -15.0000004428164 -42.949397210058 L -14.0848431354377 -45.0048740774235 " xmlns="http://www.w3.org/2000/svg" />
  <g id="ComplexString2d_1138" style=" fill-rule: evenodd; stroke-width: 0.0000000000;stroke: #000000; fill: #000000; " xmlns="http://www.w3.org/2000/svg">
    <path d="M -14.0848431354377 -45.0048740774235 L -1.79999962113806E-06 -38.7338985973316 L 14.0848395354384 -45.0048740774235 L 14.9999968428171 -42.949397210058 L 2.76591511783322 -37.5024330565291 L 14.9999932428179 -32.0554705529998 L 14.0848360854392 -29.9999936856343 L 0 -36.2709682657264 L -14.0848395354384 -29.9999936856343 L -14.9999968428171 -32.0554705529998 L -2.76591871783247 -37.5024330565291 L -15.0000004428164 -42.949397210058 L -14.0848431354377 -45.0048740774235 " />
  </g>
</svg>