<?xml version="1.0" encoding="UTF-8"?>
<svg viewBox="-15 -15 30 30" xmlns="http://www.w3.org/2000/svg" xmlns:xlink="http://www.w3.org/1999/xlink" xmlns:gmsvgsym="http://www.intergraph.com/GeoMedia/svgsym">
  <!-- Creator: SVG Document for Symbols-->
  <polyline points="14.9999986159115,0 14.9773400795407,-0.824163154721574 14.9066377014492,-1.67096176889298 14.7838834820068,-2.53707530435907 14.6052618831041,-3.4185209153335 14.367265212757,-4.31064352532274 14.0668189327876,-5.20812459635601 13.7014122741969,-6.10501951359721 13.2692295448448,-6.99481989303149 12.7692765909767,-7.87054842761038 12.2014913356754,-8.72488188724037 11.5668337788523,-9.55030458030726 10.867345997242,-10.3392818921217 10.1061766059386,-11.0844552849011 9.28756391224333,-11.7788419131359 8.41677430028564,-12.4160328543407 7.49999930795575,-12.9903798013442 6.54421254999481,-13.4971566007364 5.55699433339567,-13.9326870990105 4.54633158049828,-14.2944335271697 3.52040782900906,-14.5810387314931 2.48738953971293,-14.7923240966126 1.45522371187661,-14.9292424685942 0.431456498649936,-14.9937920780227 -0.576923023688904,-14.9888997707818 -1.56360400956839,-14.9182807003749 -2.52304130565402,-14.7862848664006 -3.45050575853602,-14.5977383453368 -4.34210475318897,-14.3577882136314 -5.19476998220366,-14.0717562400244 -6.00622352271337,-13.7450078086358 -6.77492383639879,-13.3828383805157 -7.49999930795575,-12.9903798013442 -8.20241624314193,-12.5586754565633 -8.90041417873586,-12.0740460397428 -9.58911326903398,-11.5346809356653 -10.2631568991459,-10.9392672982979 -10.916759454221,-10.2870950507832 -11.5437776271336,-9.57816027004464 -12.1378080338594,-8.81326118677769 -12.6923065211559,-7.99407987775028 -13.2007330896267,-7.12324388118148 -13.656715047552,-6.20436058135383 -14.054223087796,-5.24201951630536 -14.3877538262511,-4.24175660860219 -14.6525081864369,-3.20997801149937 -14.844558245639,-2.15384541664375 -14.9609868502804,-1.08112397716498 -14.9999986159115,0 -14.9609868502804,1.08112397716498 -14.844558245639,2.15384541664375 -14.6525081864369,3.20997801149937 -14.3877538262511,4.24175660860219 -14.054223087796,5.24201951630536 -13.656715047552,6.20436058135383 -13.2007330896267,7.12324388118148 -12.6923065211559,7.99407987775028 -12.1378080338594,8.81326118677769 -11.5437776271336,9.57816027004464 -10.916759454221,10.2870950507832 -10.2631568991459,10.9392672982979 -9.58911326903398,11.5346809356653 -8.90041417873586,12.0740460397428 -8.20241624314193,12.5586754565633 -7.49999930795575,12.9903798013442 -6.77492383639879,13.3828383805157 -6.00622352271337,13.7450078086358 -5.19476998220366,14.0717562400244 -4.34210475318897,14.3577882136314 -3.45050575853602,14.5977383453368 -2.52304130565402,14.7862848664006 -1.56360400956839,14.9182807003749 -0.576923023688904,14.9888997707818 0.431456498649936,14.9937920780227 1.45522371187661,14.9292424685942 2.48738953971293,14.7923240966126 3.52040782900906,14.5810387314931 4.54633158049828,14.2944335271697 5.55699433339567,13.9326870990105 6.54421254999481,13.4971566007364 7.49999930795575,12.9903798013442 8.41677430028564,12.4160328543407 9.28756391224333,11.7788419131359 10.1061766059386,11.0844552849011 10.867345997242,10.3392818921217 11.5668337788523,9.55030458030726 12.2014913356754,8.72488188724037 12.7692765909767,7.87054842761038 13.2692295448448,6.99481989303149 13.7014122741969,6.10501951359721 14.0668189327876,5.20812459635601 14.367265212757,4.31064352532274 14.6052618831041,3.4185209153335 14.7838834820068,2.53707530435907 14.9066377014492,1.67096176889298 14.9773400795407,0.824163154721574 14.9999986159115,0" style=" stroke-width: 0.0000010000;stroke: #4dd228; fill: none; " xmlns="http://www.w3.org/2000/svg" />
  <g id="ComplexString2d_1316" style=" fill-rule: evenodd; stroke-width: 0.0000000000;stroke: #4dd228; fill: #4dd228; " xmlns="http://www.w3.org/2000/svg">
    <path d="M 14.9999986159115 0 L 14.9773400795407 -0.824163154721574 L 14.9066377014492 -1.67096176889298 L 14.7838834820068 -2.53707530435907 L 14.6052618831041 -3.4185209153335 L 14.367265212757 -4.31064352532274 L 14.0668189327876 -5.20812459635601 L 13.7014122741969 -6.10501951359721 L 13.2692295448448 -6.99481989303149 L 12.7692765909767 -7.87054842761038 L 12.2014913356754 -8.72488188724037 L 11.5668337788523 -9.55030458030726 L 10.867345997242 -10.3392818921217 L 10.1061766059386 -11.0844552849011 L 9.28756391224333 -11.7788419131359 L 8.41677430028564 -12.4160328543407 L 7.49999930795575 -12.9903798013442 L 6.54421254999481 -13.4971566007364 L 5.55699433339567 -13.9326870990105 L 4.54633158049828 -14.2944335271697 L 3.52040782900906 -14.5810387314931 L 2.48738953971293 -14.7923240966126 L 1.45522371187661 -14.9292424685942 L 0.431456498649936 -14.9937920780227 L -0.576923023688904 -14.9888997707818 L -1.56360400956839 -14.9182807003749 L -2.52304130565402 -14.7862848664006 L -3.45050575853602 -14.5977383453368 L -4.34210475318897 -14.3577882136314 L -5.19476998220366 -14.0717562400244 L -6.00622352271337 -13.7450078086358 L -6.77492383639879 -13.3828383805157 L -7.49999930795575 -12.9903798013442 L -8.20241624314193 -12.5586754565633 L -8.90041417873586 -12.0740460397428 L -9.58911326903398 -11.5346809356653 L -10.2631568991459 -10.9392672982979 L -10.916759454221 -10.2870950507832 L -11.5437776271336 -9.57816027004464 L -12.1378080338594 -8.81326118677769 L -12.6923065211559 -7.99407987775028 L -13.2007330896267 -7.12324388118148 L -13.656715047552 -6.20436058135383 L -14.054223087796 -5.24201951630536 L -14.3877538262511 -4.24175660860219 L -14.6525081864369 -3.20997801149937 L -14.844558245639 -2.15384541664375 L -14.9609868502804 -1.08112397716498 L -14.9999986159115 0 L -14.9609868502804 1.08112397716498 L -14.844558245639 2.15384541664375 L -14.6525081864369 3.20997801149937 L -14.3877538262511 4.24175660860219 L -14.054223087796 5.24201951630536 L -13.656715047552 6.20436058135383 L -13.2007330896267 7.12324388118148 L -12.6923065211559 7.99407987775028 L -12.1378080338594 8.81326118677769 L -11.5437776271336 9.57816027004464 L -10.916759454221 10.2870950507832 L -10.2631568991459 10.9392672982979 L -9.58911326903398 11.5346809356653 L -8.90041417873586 12.0740460397428 L -8.20241624314193 12.5586754565633 L -7.49999930795575 12.9903798013442 L -6.77492383639879 13.3828383805157 L -6.00622352271337 13.7450078086358 L -5.19476998220366 14.0717562400244 L -4.34210475318897 14.3577882136314 L -3.45050575853602 14.5977383453368 L -2.52304130565402 14.7862848664006 L -1.56360400956839 14.9182807003749 L -0.576923023688904 14.9888997707818 L 0.431456498649936 14.9937920780227 L 1.45522371187661 14.9292424685942 L 2.48738953971293 14.7923240966126 L 3.52040782900906 14.5810387314931 L 4.54633158049828 14.2944335271697 L 5.55699433339567 13.9326870990105 L 6.54421254999481 13.4971566007364 L 7.49999930795575 12.9903798013442 L 8.41677430028564 12.4160328543407 L 9.28756391224333 11.7788419131359 L 10.1061766059386 11.0844552849011 L 10.867345997242 10.3392818921217 L 11.5668337788523 9.55030458030726 L 12.2014913356754 8.72488188724037 L 12.7692765909767 7.87054842761038 L 13.2692295448448 6.99481989303149 L 13.7014122741969 6.10501951359721 L 14.0668189327876 5.20812459635601 L 14.367265212757 4.31064352532274 L 14.6052618831041 3.4185209153335 L 14.7838834820068 2.53707530435907 L 14.9066377014492 1.67096176889298 L 14.9773400795407 0.824163154721574 L 14.9999986159115 0 " />
  </g>
  <polyline points="11.5384604737781,0 11.5210307061556,-0.633971479963357 11.4666444034817,-1.28535518908927 11.3722180275792,-1.95159628145965 11.2348168864114,-2.6296315265879 11.0517425956119,-3.31587961711217 10.8206300015526,-4.0062497072561 10.5395477967196,-4.69616887436471 10.2070995966262,-5.38063081120765 9.82252040134306,-6.05426805674171 9.38576267241305,-6.71144776533282 8.89756440976805,-7.34638801443755 8.35949692095538,-7.95329372766757 7.7739821288285,-8.52650413631443 7.14427987924044,-9.06064762548917 6.47444178720197,-9.55079450333898 5.76923023688904,-9.99259984718785 5.03400968934512,-10.3824283496789 4.27461099018602,-10.7174517033808 3.49717813884483,-10.9957180623199 2.70800605781762,-11.2161836573615 1.91337651575551,-11.378710950057 1.11940281978674,-11.4840326326464 0.331889507837239,-11.5336863203724 -0.443786959050634,-11.5299229361043 -1.20277235055556,-11.4756005565014 -1.94080089784038,-11.3740653351011 -2.65423521662534,-11.2290296561762 -3.34008061487908,-11.0444525962845 -3.99597701589629,-10.8244277704329 -4.62017195830022,-10.5730829474713 -5.21147998066178,-10.2944912039469 -5.76923023688904,-9.99259984718785 -6.30955095626302,-9.66051949321437 -6.84647244518143,-9.28772775838206 -7.37624101168294,-8.8728314889733 -7.89473604076314,-8.41482106969664 -8.39750714821731,-7.91315003906404 -8.87982910371223,-7.36781562784499 -9.33677544616399,-6.77943168213669 -9.76331263757554,-6.14929235566588 -10.1544101399495,-5.47941826363074 -10.5051654921998,-4.77258509808282 -10.8109409255236,-4.03232270485028 -11.067502978773,-3.26288969892477 -11.2711602676733,-2.46921392600543 -11.4188908694265,-1.65680407789165 -11.5084514765471,-0.831633846339927 -11.5384604737781,0 -11.5084514765471,0.831633846339927 -11.4188908694265,1.65680407789165 -11.2711602676733,2.46921392600543 -11.067502978773,3.26288969892477 -10.8109409255236,4.03232270485028 -10.5051654921998,4.77258509808282 -10.1544101399495,5.47941826363074 -9.76331263757554,6.14929235566588 -9.33677544616399,6.77943168213669 -8.87982910371223,7.36781562784499 -8.39750714821731,7.91315003906404 -7.89473604076314,8.41482106969664 -7.37624101168294,8.8728314889733 -6.84647244518143,9.28772775838206 -6.30955095626302,9.66051949321437 -5.76923023688904,9.99259984718785 -5.21147998066178,10.2944912039469 -4.62017195830022,10.5730829474713 -3.99597701589629,10.8244277704329 -3.34008061487908,11.0444525962845 -2.65423521662534,11.2290296561762 -1.94080089784038,11.3740653351011 -1.20277235055556,11.4756005565014 -0.443786959050634,11.5299229361043 0.331889507837239,11.5336863203724 1.11940281978674,11.4840326326464 1.91337651575551,11.378710950057 2.70800605781762,11.2161836573615 3.49717813884483,10.9957180623199 4.27461099018602,10.7174517033808 5.03400968934512,10.3824283496789 5.76923023688904,9.99259984718785 6.47444178720197,9.55079450333898 7.14427987924044,9.06064762548917 7.7739821288285,8.52650413631443 8.35949692095538,7.95329372766757 8.89756440976805,7.34638801443755 9.38576267241305,6.71144776533282 9.82252040134306,6.05426805674171 10.2070995966262,5.38063081120765 10.5395477967196,4.69616887436471 10.8206300015526,4.0062497072561 11.0517425956119,3.31587961711217 11.2348168864114,2.6296315265879 11.3722180275792,1.95159628145965 11.4666444034817,1.28535518908927 11.5210307061556,0.633971479963357 11.5384604737781,0" style=" stroke-width: 0.0000010000;stroke: #ccffc4; fill: none; " xmlns="http://www.w3.org/2000/svg" />
  <g id="ComplexString2d_1317" style=" fill-rule: evenodd; stroke-width: 0.0000000000;stroke: #ccffc4; fill: #ccffc4; " xmlns="http://www.w3.org/2000/svg">
    <path d="M 11.5384604737781 0 L 11.5210307061556 -0.633971479963357 L 11.4666444034817 -1.28535518908927 L 11.3722180275792 -1.95159628145965 L 11.2348168864114 -2.6296315265879 L 11.0517425956119 -3.31587961711217 L 10.8206300015526 -4.0062497072561 L 10.5395477967196 -4.69616887436471 L 10.2070995966262 -5.38063081120765 L 9.82252040134306 -6.05426805674171 L 9.38576267241305 -6.71144776533282 L 8.89756440976805 -7.34638801443755 L 8.35949692095538 -7.95329372766757 L 7.7739821288285 -8.52650413631443 L 7.14427987924044 -9.06064762548917 L 6.47444178720197 -9.55079450333898 L 5.76923023688904 -9.99259984718785 L 5.03400968934512 -10.3824283496789 L 4.27461099018602 -10.7174517033808 L 3.49717813884483 -10.9957180623199 L 2.70800605781762 -11.2161836573615 L 1.91337651575551 -11.378710950057 L 1.11940281978674 -11.4840326326464 L 0.331889507837239 -11.5336863203724 L -0.443786959050634 -11.5299229361043 L -1.20277235055556 -11.4756005565014 L -1.94080089784038 -11.3740653351011 L -2.65423521662534 -11.2290296561762 L -3.34008061487908 -11.0444525962845 L -3.99597701589629 -10.8244277704329 L -4.62017195830022 -10.5730829474713 L -5.21147998066178 -10.2944912039469 L -5.76923023688904 -9.99259984718785 L -6.30955095626302 -9.66051949321437 L -6.84647244518143 -9.28772775838206 L -7.37624101168294 -8.8728314889733 L -7.89473604076314 -8.41482106969664 L -8.39750714821731 -7.91315003906404 L -8.87982910371223 -7.36781562784499 L -9.33677544616399 -6.77943168213669 L -9.76331263757554 -6.14929235566588 L -10.1544101399495 -5.47941826363074 L -10.5051654921998 -4.77258509808282 L -10.8109409255236 -4.03232270485028 L -11.067502978773 -3.26288969892477 L -11.2711602676733 -2.46921392600543 L -11.4188908694265 -1.65680407789165 L -11.5084514765471 -0.831633846339927 L -11.5384604737781 0 L -11.5084514765471 0.831633846339927 L -11.4188908694265 1.65680407789165 L -11.2711602676733 2.46921392600543 L -11.067502978773 3.26288969892477 L -10.8109409255236 4.03232270485028 L -10.5051654921998 4.77258509808282 L -10.1544101399495 5.47941826363074 L -9.76331263757554 6.14929235566588 L -9.33677544616399 6.77943168213669 L -8.87982910371223 7.36781562784499 L -8.39750714821731 7.91315003906404 L -7.89473604076314 8.41482106969664 L -7.37624101168294 8.8728314889733 L -6.84647244518143 9.28772775838206 L -6.30955095626302 9.66051949321437 L -5.76923023688904 9.99259984718785 L -5.21147998066178 10.2944912039469 L -4.62017195830022 10.5730829474713 L -3.99597701589629 10.8244277704329 L -3.34008061487908 11.0444525962845 L -2.65423521662534 11.2290296561762 L -1.94080089784038 11.3740653351011 L -1.20277235055556 11.4756005565014 L -0.443786959050634 11.5299229361043 L 0.331889507837239 11.5336863203724 L 1.11940281978674 11.4840326326464 L 1.91337651575551 11.378710950057 L 2.70800605781762 11.2161836573615 L 3.49717813884483 10.9957180623199 L 4.27461099018602 10.7174517033808 L 5.03400968934512 10.3824283496789 L 5.76923023688904 9.99259984718785 L 6.47444178720197 9.55079450333898 L 7.14427987924044 9.06064762548917 L 7.7739821288285 8.52650413631443 L 8.35949692095538 7.95329372766757 L 8.89756440976805 7.34638801443755 L 9.38576267241305 6.71144776533282 L 9.82252040134306 6.05426805674171 L 10.2070995966262 5.38063081120765 L 10.5395477967196 4.69616887436471 L 10.8206300015526 4.0062497072561 L 11.0517425956119 3.31587961711217 L 11.2348168864114 2.6296315265879 L 11.3722180275792 1.95159628145965 L 11.4666444034817 1.28535518908927 L 11.5210307061556 0.633971479963357 L 11.5384604737781 0 " />
  </g>
</svg>