<?xml version="1.0" encoding="UTF-8"?>
<svg viewBox="-15.0000026193445 -60.0004994216778 30 75.0006277695566" xmlns="http://www.w3.org/2000/svg" xmlns:xlink="http://www.w3.org/1999/xlink" xmlns:gmsvgsym="http://www.intergraph.com/GeoMedia/svgsym">
  <!-- Creator: SVG Document for Symbols-->
  <path id="LineString2d_1211" style=" stroke-width: 0.0000010000;stroke: #ffffff; fill: none; " d="M 0 15.0001270394099 L -3.88231871461906 14.489006405938 L -7.5000573322056 12.9904765643402 L -10.6066685663209 10.6066644413213 L -12.9904394393441 7.50002976970851 L -14.4889220309469 3.882290964622 L -15.0000016019231 0 L -14.4888565934538 -3.88227746462342 L -5.62499940540881E-06 -60.0004903451414 L 14.4975901550306 -3.84904665563609 L 14.9999952269238 0 L 14.4889160309475 3.88228927712218 L 12.9904347518446 7.50002695720881 L 10.6066653788212 10.6066612538217 L 7.50005583220576 12.9904737518405 L 3.88231815211912 14.4890047184381 L 0 15.0001270394099 " xmlns="http://www.w3.org/2000/svg" />
  <g id="ComplexString2d_1212" style=" fill-rule: evenodd; stroke-width: 0.0000000000;stroke: #ffffff; fill: #ffffff; " xmlns="http://www.w3.org/2000/svg">
    <path d="M 0 15.0001270394099 L -3.88231871461906 14.489006405938 L -7.5000573322056 12.9904765643402 L -10.6066685663209 10.6066644413213 L -12.9904394393441 7.50002976970851 L -14.4889220309469 3.882290964622 L -15.0000016019231 0 L -14.4888565934538 -3.88227746462342 L -5.62499940540881E-06 -60.0004903451414 L 14.4975901550306 -3.84904665563609 L 14.9999952269238 0 L 14.4889160309475 3.88228927712218 L 12.9904347518446 7.50002695720881 L 10.6066653788212 10.6066612538217 L 7.50005583220576 12.9904737518405 L 3.88231815211912 14.4890047184381 L 0 15.0001270394099 " />
  </g>
</svg>