<?xml version="1.0" encoding="UTF-8"?>
<svg viewBox="-15.000002793967 -45.0000405125216 30 60.0000377185546" xmlns="http://www.w3.org/2000/svg" xmlns:xlink="http://www.w3.org/1999/xlink" xmlns:gmsvgsym="http://www.intergraph.com/GeoMedia/svgsym">
  <!-- Creator: SVG Document for Symbols-->
  <polyline points="14.9999961443255,0 14.9773374501498,-0.824162788153051 14.9066352683235,-1.67096147048766 14.7838809998769,-2.53707474785754 14.6052595457906,-3.41852042128631 14.3672630069664,-4.31064279197069 14.0668166841947,-5.20812376127767 13.7014098781207,-6.10501853073533 13.2692272892111,-6.99481890201656 12.7692744177215,-7.87054717691496 12.2014894636678,-8.72488065731278 11.5668318268034,-9.55030284514211 10.8673442066032,-10.3392801423394 10.1061751022579,-11.0844535507963 9.28756231267826,-11.7788399723077 8.41677293651034,-12.416030808521 7.49999807216277,-12.990377660888 6.54421151784295,-13.4971546306235 5.55699337160247,-13.9326849186726 4.54633083138825,-14.2944311256875 3.5204072950968,-14.5810363520171 2.487389060629,-14.7923217977072 1.45522342594205,-14.9292399625131 0.431456289096305,-14.9937897459209 -0.576922951704822,-14.9888973471784 -1.56360379808341,-14.9182782653307 -2.52304075146491,-14.7862824992596 -3.45050521306478,-14.5977361477245 -4.34210408388372,-14.3577860094025 -5.19476926471038,-14.0717537829256 -6.00622255613034,-13.7450055669146 -6.77492285853975,-13.3828363600084 -7.49999807216277,-12.990377660888 -8.20241489161001,-12.5586732718554 -8.90041271219314,-12.074044096427 -9.58911173516648,-11.5346790350681 -10.263155161907,-10.9392655881161 -10.9167574939017,-10.2870933557538 -11.5437759327298,-9.57815873798189 -12.1378060800373,-8.81325973459538 -12.6923043375062,-7.99407874516178 -13.2007310068177,-7.1232425690059 -13.6567128896098,-6.2043596052002 -14.0542208874324,-5.24201865256516 -14.3877515017,-4.24175590967772 -14.6525059336462,-3.20997757489122 -14.8445556842807,-2.15384494636486 -14.9609844543533,-1.08112382210249 -14.9999961443255,0 -14.9609844543533,1.08112382210249 -14.8445556842807,2.15384494636486 -14.6525059336462,3.20997757489122 -14.3877515017,4.24175590967772 -14.0542208874324,5.24201865256516 -13.6567128896098,6.2043596052002 -13.2007310068177,7.1232425690059 -12.6923043375062,7.99407874516178 -12.1378060800373,8.81325973459538 -11.5437759327298,9.57815873798189 -10.9167574939017,10.2870933557538 -10.263155161907,10.9392655881161 -9.58911173516648,11.5346790350681 -8.90041271219314,12.074044096427 -8.20241489161001,12.5586732718554 -7.49999807216277,12.990377660888 -6.77492285853975,13.3828363600084 -6.00622255613034,13.7450055669146 -5.19476926471038,14.0717537829256 -4.34210408388372,14.3577860094025 -3.45050521306478,14.5977361477245 -2.52304075146491,14.7862824992596 -1.56360379808341,14.9182782653307 -0.576922951704822,14.9888973471784 0.431456289096305,14.9937897459209 1.45522342594205,14.9292399625131 2.487389060629,14.7923217977072 3.5204072950968,14.5810363520171 4.54633083138825,14.2944311256875 5.55699337160247,13.9326849186726 6.54421151784295,13.4971546306235 7.49999807216277,12.990377660888 8.41677293651034,12.416030808521 9.28756231267826,11.7788399723077 10.1061751022579,11.0844535507963 10.8673442066032,10.3392801423394 11.5668318268034,9.55030284514211 12.2014894636678,8.72488065731278 12.7692744177215,7.87054717691496 13.2692272892111,6.99481890201656 13.7014098781207,6.10501853073533 14.0668166841947,5.20812376127767 14.3672630069664,4.31064279197069 14.6052595457906,3.41852042128631 14.7838809998769,2.53707474785754 14.9066352683235,1.67096147048766 14.9773374501498,0.824162788153051 14.9999961443255,0" style=" stroke-width: 0.0000010000;stroke: #000000; fill: none; " xmlns="http://www.w3.org/2000/svg" />
  <g id="ComplexString2d_1116" style=" fill-rule: evenodd; stroke-width: 0.0000000000;stroke: #000000; fill: #000000; " xmlns="http://www.w3.org/2000/svg">
    <path d="M 14.9999961443255 0 L 14.9773374501498 -0.824162788153051 L 14.9066352683235 -1.67096147048766 L 14.7838809998769 -2.53707474785754 L 14.6052595457906 -3.41852042128631 L 14.3672630069664 -4.31064279197069 L 14.0668166841947 -5.20812376127767 L 13.7014098781207 -6.10501853073533 L 13.2692272892111 -6.99481890201656 L 12.7692744177215 -7.87054717691496 L 12.2014894636678 -8.72488065731278 L 11.5668318268034 -9.55030284514211 L 10.8673442066032 -10.3392801423394 L 10.1061751022579 -11.0844535507963 L 9.28756231267826 -11.7788399723077 L 8.41677293651034 -12.416030808521 L 7.49999807216277 -12.990377660888 L 6.54421151784295 -13.4971546306235 L 5.55699337160247 -13.9326849186726 L 4.54633083138825 -14.2944311256875 L 3.5204072950968 -14.5810363520171 L 2.487389060629 -14.7923217977072 L 1.45522342594205 -14.9292399625131 L 0.431456289096305 -14.9937897459209 L -0.576922951704822 -14.9888973471784 L -1.56360379808341 -14.9182782653307 L -2.52304075146491 -14.7862824992596 L -3.45050521306478 -14.5977361477245 L -4.34210408388372 -14.3577860094025 L -5.19476926471038 -14.0717537829256 L -6.00622255613034 -13.7450055669146 L -6.77492285853975 -13.3828363600084 L -7.49999807216277 -12.990377660888 L -8.20241489161001 -12.5586732718554 L -8.90041271219314 -12.074044096427 L -9.58911173516648 -11.5346790350681 L -10.263155161907 -10.9392655881161 L -10.9167574939017 -10.2870933557538 L -11.5437759327298 -9.57815873798189 L -12.1378060800373 -8.81325973459538 L -12.6923043375062 -7.99407874516178 L -13.2007310068177 -7.1232425690059 L -13.6567128896098 -6.2043596052002 L -14.0542208874324 -5.24201865256516 L -14.3877515017 -4.24175590967772 L -14.6525059336462 -3.20997757489122 L -14.8445556842807 -2.15384494636486 L -14.9609844543533 -1.08112382210249 L -14.9999961443255 0 L -14.9609844543533 1.08112382210249 L -14.8445556842807 2.15384494636486 L -14.6525059336462 3.20997757489122 L -14.3877515017 4.24175590967772 L -14.0542208874324 5.24201865256516 L -13.6567128896098 6.2043596052002 L -13.2007310068177 7.1232425690059 L -12.6923043375062 7.99407874516178 L -12.1378060800373 8.81325973459538 L -11.5437759327298 9.57815873798189 L -10.9167574939017 10.2870933557538 L -10.263155161907 10.9392655881161 L -9.58911173516648 11.5346790350681 L -8.90041271219314 12.074044096427 L -8.20241489161001 12.5586732718554 L -7.49999807216277 12.990377660888 L -6.77492285853975 13.3828363600084 L -6.00622255613034 13.7450055669146 L -5.19476926471038 14.0717537829256 L -4.34210408388372 14.3577860094025 L -3.45050521306478 14.5977361477245 L -2.52304075146491 14.7862824992596 L -1.56360379808341 14.9182782653307 L -0.576922951704822 14.9888973471784 L 0.431456289096305 14.9937897459209 L 1.45522342594205 14.9292399625131 L 2.487389060629 14.7923217977072 L 3.5204072950968 14.5810363520171 L 4.54633083138825 14.2944311256875 L 5.55699337160247 13.9326849186726 L 6.54421151784295 13.4971546306235 L 7.49999807216277 12.990377660888 L 8.41677293651034 12.416030808521 L 9.28756231267826 11.7788399723077 L 10.1061751022579 11.0844535507963 L 10.8673442066032 10.3392801423394 L 11.5668318268034 9.55030284514211 L 12.2014894636678 8.72488065731278 L 12.7692744177215 7.87054717691496 L 13.2692272892111 6.99481890201656 L 13.7014098781207 6.10501853073533 L 14.0668166841947 5.20812376127767 L 14.3672630069664 4.31064279197069 L 14.6052595457906 3.41852042128631 L 14.7838809998769 2.53707474785754 L 14.9066352683235 1.67096147048766 L 14.9773374501498 0.824162788153051 L 14.9999961443255 0 " />
  </g>
  <polyline points="10.4999973010279,0 10.4841363051049,-0.576913951707136 10.4346447178264,-1.16967299934137 10.3487166399138,-1.77595244350025 10.2236814720535,-2.3929643849004 10.0570840148765,-3.01744992437949 9.84677176893625,-3.64568666289436 9.59098703468444,-4.27351300151472 9.28845901244777,-4.89637314141162 8.93849230240497,-5.50938308384046 8.54104250456747,-6.10741643011896 8.09678221876237,-6.68521208159946 7.60714094462222,-7.23749603963761 7.07432248158056,-7.75911760555738 6.50129352887481,-8.2451879806154 5.89174108555723,-8.69122156596469 5.24999865051394,-9.09326436262158 4.58094812249005,-9.44800827143643 3.88989530012174,-9.75287929307084 3.18243158197178,-10.0061017279813 2.46428516656774,-10.2067254764119 1.74117225244033,-10.3546251383951 1.01865633815945,-10.4504679137592 0.302019522367383,-10.4956527021446 -0.403846096193368,-10.4922282030249 -1.09452271865837,-10.4427948157315 -1.76612864602541,-10.3503978394817 -2.41535367914534,-10.2184152734071 -3.03947291871859,-10.0504501165817 -3.63633836529729,-9.8502277680479 -4.20435581929123,-9.62150392684023 -4.74244588097785,-9.36798539200591 -5.24999865051394,-9.09326436262158 -5.74169042412701,-8.79107144029877 -6.2302888985352,-8.45183092749886 -6.71237827461652,-8.07427532454765 -7.18420855333489,-7.65748573168135 -7.64173033573119,-7.20096534902764 -8.08064312291084,-6.70471117658731 -8.49646431602607,-6.16928181421677 -8.88461321625432,-5.59585506161326 -9.24051182477236,-4.9862699183041 -9.55969914272684,-4.34305178364012 -9.83795447120269,-3.66941305679561 -10.07142611119,-2.96922913677441 -10.2567540635523,-2.2469841224239 -10.3911891289965,-1.50769161245536 -10.4726892080473,-0.756786705471738 -10.4999973010279,0 -10.4726892080473,0.756786705471738 -10.3911891289965,1.50769161245536 -10.2567540635523,2.2469841224239 -10.07142611119,2.96922913677441 -9.83795447120269,3.66941305679561 -9.55969914272684,4.34305178364012 -9.24051182477236,4.9862699183041 -8.88461321625432,5.59585506161326 -8.49646431602607,6.16928181421677 -8.08064312291084,6.70471117658731 -7.64173033573119,7.20096534902764 -7.18420855333489,7.65748573168135 -6.71237827461652,8.07427532454765 -6.2302888985352,8.45183092749886 -5.74169042412701,8.79107144029877 -5.24999865051394,9.09326436262158 -4.74244588097785,9.36798539200591 -4.20435581929123,9.62150392684023 -3.63633836529729,9.8502277680479 -3.03947291871859,10.0504501165817 -2.41535367914534,10.2184152734071 -1.76612864602541,10.3503978394817 -1.09452271865837,10.4427948157315 -0.403846096193368,10.4922282030249 0.302019522367383,10.4956527021446 1.01865633815945,10.4504679137592 1.74117225244033,10.3546251383951 2.46428516656774,10.2067254764119 3.18243158197178,10.0061017279813 3.88989530012174,9.75287929307084 4.58094812249005,9.44800827143643 5.24999865051394,9.09326436262158 5.89174108555723,8.69122156596469 6.50129352887481,8.2451879806154 7.07432248158056,7.75911760555738 7.60714094462222,7.23749603963761 8.09678221876237,6.68521208159946 8.54104250456747,6.10741643011896 8.93849230240497,5.50938308384046 9.28845901244777,4.89637314141162 9.59098703468444,4.27351300151472 9.84677176893625,3.64568666289436 10.0570840148765,3.01744992437949 10.2236814720535,2.3929643849004 10.3487166399138,1.77595244350025 10.4346447178264,1.16967299934137 10.4841363051049,0.576913951707136 10.4999973010279,0" style=" stroke-width: 0.0000010000;stroke: #63101f; fill: none; " xmlns="http://www.w3.org/2000/svg" />
  <g id="ComplexString2d_1117" style=" fill-rule: evenodd; stroke-width: 0.0000000000;stroke: #63101f; fill: #63101f; " xmlns="http://www.w3.org/2000/svg">
    <path d="M 10.4999973010279 0 L 10.4841363051049 -0.576913951707136 L 10.4346447178264 -1.16967299934137 L 10.3487166399138 -1.77595244350025 L 10.2236814720535 -2.3929643849004 L 10.0570840148765 -3.01744992437949 L 9.84677176893625 -3.64568666289436 L 9.59098703468444 -4.27351300151472 L 9.28845901244777 -4.89637314141162 L 8.93849230240497 -5.50938308384046 L 8.54104250456747 -6.10741643011896 L 8.09678221876237 -6.68521208159946 L 7.60714094462222 -7.23749603963761 L 7.07432248158056 -7.75911760555738 L 6.50129352887481 -8.2451879806154 L 5.89174108555723 -8.69122156596469 L 5.24999865051394 -9.09326436262158 L 4.58094812249005 -9.44800827143643 L 3.88989530012174 -9.75287929307084 L 3.18243158197178 -10.0061017279813 L 2.46428516656774 -10.2067254764119 L 1.74117225244033 -10.3546251383951 L 1.01865633815945 -10.4504679137592 L 0.302019522367383 -10.4956527021446 L -0.403846096193368 -10.4922282030249 L -1.09452271865837 -10.4427948157315 L -1.76612864602541 -10.3503978394817 L -2.41535367914534 -10.2184152734071 L -3.03947291871859 -10.0504501165817 L -3.63633836529729 -9.8502277680479 L -4.20435581929123 -9.62150392684023 L -4.74244588097785 -9.36798539200591 L -5.24999865051394 -9.09326436262158 L -5.74169042412701 -8.79107144029877 L -6.2302888985352 -8.45183092749886 L -6.71237827461652 -8.07427532454765 L -7.18420855333489 -7.65748573168135 L -7.64173033573119 -7.20096534902764 L -8.08064312291084 -6.70471117658731 L -8.49646431602607 -6.16928181421677 L -8.88461321625432 -5.59585506161326 L -9.24051182477236 -4.9862699183041 L -9.55969914272684 -4.34305178364012 L -9.83795447120269 -3.66941305679561 L -10.07142611119 -2.96922913677441 L -10.2567540635523 -2.2469841224239 L -10.3911891289965 -1.50769161245536 L -10.4726892080473 -0.756786705471738 L -10.4999973010279 0 L -10.4726892080473 0.756786705471738 L -10.3911891289965 1.50769161245536 L -10.2567540635523 2.2469841224239 L -10.07142611119 2.96922913677441 L -9.83795447120269 3.66941305679561 L -9.55969914272684 4.34305178364012 L -9.24051182477236 4.9862699183041 L -8.88461321625432 5.59585506161326 L -8.49646431602607 6.16928181421677 L -8.08064312291084 6.70471117658731 L -7.64173033573119 7.20096534902764 L -7.18420855333489 7.65748573168135 L -6.71237827461652 8.07427532454765 L -6.2302888985352 8.45183092749886 L -5.74169042412701 8.79107144029877 L -5.24999865051394 9.09326436262158 L -4.74244588097785 9.36798539200591 L -4.20435581929123 9.62150392684023 L -3.63633836529729 9.8502277680479 L -3.03947291871859 10.0504501165817 L -2.41535367914534 10.2184152734071 L -1.76612864602541 10.3503978394817 L -1.09452271865837 10.4427948157315 L -0.403846096193368 10.4922282030249 L 0.302019522367383 10.4956527021446 L 1.01865633815945 10.4504679137592 L 1.74117225244033 10.3546251383951 L 2.46428516656774 10.2067254764119 L 3.18243158197178 10.0061017279813 L 3.88989530012174 9.75287929307084 L 4.58094812249005 9.44800827143643 L 5.24999865051394 9.09326436262158 L 5.89174108555723 8.69122156596469 L 6.50129352887481 8.2451879806154 L 7.07432248158056 7.75911760555738 L 7.60714094462222 7.23749603963761 L 8.09678221876237 6.68521208159946 L 8.54104250456747 6.10741643011896 L 8.93849230240497 5.50938308384046 L 9.28845901244777 4.89637314141162 L 9.59098703468444 4.27351300151472 L 9.84677176893625 3.64568666289436 L 10.0570840148765 3.01744992437949 L 10.2236814720535 2.3929643849004 L 10.3487166399138 1.77595244350025 L 10.4346447178264 1.16967299934137 L 10.4841363051049 0.576913951707136 L 10.4999973010279 0 " />
  </g>
  <path id="LineString2d_1118" style=" stroke-width: 0.0000010000;stroke: #000000; fill: none; " d="M -2.25000062164852 -14.8302858879487 L -2.25000062164852 -30.7500409958548 L -15.0000009443243 -30.7500409958548 L -15.0000009443243 -35.2500398391524 L -2.25000062164852 -35.2500398391524 L -2.25000062164852 -45.000037332964 L 2.24999822164914 -45.000037332964 L 2.24999822164914 -35.2500398391524 L 14.9999913443268 -35.2500398391524 L 14.9999913443268 -30.7500409958548 L 2.24999822164914 -30.7500409958548 L 2.24999822164914 -14.8302861879486 L -4.79999876618417E-06 -14.9999961443255 L -2.25000062164852 -14.8302858879487 " xmlns="http://www.w3.org/2000/svg" />
  <g id="ComplexString2d_1119" style=" fill-rule: evenodd; stroke-width: 0.0000000000;stroke: #000000; fill: #000000; " xmlns="http://www.w3.org/2000/svg">
    <path d="M -2.25000062164852 -14.8302858879487 L -2.25000062164852 -30.7500409958548 L -15.0000009443243 -30.7500409958548 L -15.0000009443243 -35.2500398391524 L -2.25000062164852 -35.2500398391524 L -2.25000062164852 -45.000037332964 L 2.24999822164914 -45.000037332964 L 2.24999822164914 -35.2500398391524 L 14.9999913443268 -35.2500398391524 L 14.9999913443268 -30.7500409958548 L 2.24999822164914 -30.7500409958548 L 2.24999822164914 -14.8302861879486 L -4.79999876618417E-06 -14.9999961443255 L -2.25000062164852 -14.8302858879487 " />
  </g>
</svg>