<?xml version="1.0" encoding="UTF-8"?>
<svg viewBox="-15 -15 30 30" xmlns="http://www.w3.org/2000/svg" xmlns:xlink="http://www.w3.org/1999/xlink" xmlns:gmsvgsym="http://www.intergraph.com/GeoMedia/svgsym">
  <!-- Creator: SVG Document for Symbols-->
  <polyline points="14.9999994039536,0 14.9773408048539,-0.824163067250702 14.9066384076634,-1.67096183360194 14.7838841125412,-2.53707539918568 14.605262619639,-3.41852116416017 14.3672660290961,-4.31064372871041 14.0668197410348,-5.20812489304771 13.7014128555548,-6.10501985740831 13.2692302727282,-6.99482032205081 12.7692772925945,-7.87054878725249 12.2014920151563,-8.72488245330432 11.5668343403753,-9.55030502050498 10.8673464681704,-10.3392824891538 10.1061771984166,-11.0844559595433 9.28756443094535,-11.7788424319509 8.41677466554742,-12.4160334066312 7.49999970197679,-12.9903805838087 6.54421303995634,-13.4971574636712 5.55699457918488,-13.9326879463647 4.546331819345,-14.2944342319902 3.52040806011155,-14.5810394206016 2.48738960116002,-14.7923249122058 1.4552238421746,-14.9292433067652 0.43145648285546,-14.9937930042002 -0.576923077075137,-14.9889006043946 -1.56360413786795,-14.9182815072008 -2.52304139974334,-14.7862857124458 -3.45050606288921,-14.597739219938 -4.34210512746025,-14.3577890294727 -5.19477029357838,-14.0717569408386 -6.00622386133411,-13.7450084538224 -6.7749242307887,-13.3828391682138 -7.49999970197679,-12.9903805838087 -8.20241657406525,-12.5586761009631 -8.9004145463293,-12.0740466202205 -9.58911381896285,-11.5346815416529 -10.2631574921788,-10.9392678653126 -10.9167599662069,-10.2870954912276 -11.5437783412915,-9.57816071939809 -12.1378087176868,-8.81326174979244 -12.692307195653,-7.99408038234379 -13.20073387545,-7.12324411694771 -13.6567158573309,-6.20436085346085 -14.0542239415353,-5.24201989170084 -14.387754528282,-4.24175693144772 -14.6525091177616,-3.20997817244693 -14.8445590101302,-2.15384551441387 -14.9609877055038,-1.08112395703999 -14.9999994039536,0 -14.9609877055038,1.08112395703999 -14.8445590101302,2.15384551441387 -14.6525091177616,3.20997817244693 -14.387754528282,4.24175693144772 -14.0542239415353,5.24201989170084 -13.6567158573309,6.20436085346085 -13.20073387545,7.12324411694771 -12.692307195653,7.99408038234379 -12.1378087176868,8.81326174979244 -11.5437783412915,9.57816071939809 -10.9167599662069,10.2870954912276 -10.2631574921788,10.9392678653126 -9.58911381896285,11.5346815416529 -8.9004145463293,12.0740466202205 -8.20241657406525,12.5586761009631 -7.49999970197679,12.9903805838087 -6.7749242307887,13.3828391682138 -6.00622386133411,13.7450084538224 -5.19477029357838,14.0717569408386 -4.34210512746025,14.3577890294727 -3.45050606288921,14.597739219938 -2.52304139974334,14.7862857124458 -1.56360413786795,14.9182815072008 -0.576923077075137,14.9889006043946 0.43145648285546,14.9937930042002 1.4552238421746,14.9292433067652 2.48738960116002,14.7923249122058 3.52040806011155,14.5810394206016 4.546331819345,14.2944342319902 5.55699457918488,13.9326879463647 6.54421303995634,13.4971574636712 7.49999970197679,12.9903805838087 8.41677466554742,12.4160334066312 9.28756443094535,11.7788424319509 10.1061771984166,11.0844559595433 10.8673464681704,10.3392824891538 11.5668343403753,9.55030502050498 12.2014920151563,8.72488245330432 12.7692772925945,7.87054878725249 13.2692302727282,6.99482032205081 13.7014128555548,6.10501985740831 14.0668197410348,5.20812489304771 14.3672660290961,4.31064372871041 14.605262619639,3.41852116416017 14.7838841125412,2.53707539918568 14.9066384076634,1.67096183360194 14.9773408048539,0.824163067250702 14.9999994039536,0" style=" stroke-width: 0.0000010000;stroke: #ffffff; fill: none; " xmlns="http://www.w3.org/2000/svg" />
  <g id="ComplexString2d_1381" style=" fill-rule: evenodd; stroke-width: 0.0000000000;stroke: #ffffff; fill: #ffffff; " xmlns="http://www.w3.org/2000/svg">
    <path d="M 14.9999994039536 0 L 14.9773408048539 -0.824163067250702 L 14.9066384076634 -1.67096183360194 L 14.7838841125412 -2.53707539918568 L 14.605262619639 -3.41852116416017 L 14.3672660290961 -4.31064372871041 L 14.0668197410348 -5.20812489304771 L 13.7014128555548 -6.10501985740831 L 13.2692302727282 -6.99482032205081 L 12.7692772925945 -7.87054878725249 L 12.2014920151563 -8.72488245330432 L 11.5668343403753 -9.55030502050498 L 10.8673464681704 -10.3392824891538 L 10.1061771984166 -11.0844559595433 L 9.28756443094535 -11.7788424319509 L 8.41677466554742 -12.4160334066312 L 7.49999970197679 -12.9903805838087 L 6.54421303995634 -13.4971574636712 L 5.55699457918488 -13.9326879463647 L 4.546331819345 -14.2944342319902 L 3.52040806011155 -14.5810394206016 L 2.48738960116002 -14.7923249122058 L 1.4552238421746 -14.9292433067652 L 0.43145648285546 -14.9937930042002 L -0.576923077075137 -14.9889006043946 L -1.56360413786795 -14.9182815072008 L -2.52304139974334 -14.7862857124458 L -3.45050606288921 -14.597739219938 L -4.34210512746025 -14.3577890294727 L -5.19477029357838 -14.0717569408386 L -6.00622386133411 -13.7450084538224 L -6.7749242307887 -13.3828391682138 L -7.49999970197679 -12.9903805838087 L -8.20241657406525 -12.5586761009631 L -8.9004145463293 -12.0740466202205 L -9.58911381896285 -11.5346815416529 L -10.2631574921788 -10.9392678653126 L -10.9167599662069 -10.2870954912276 L -11.5437783412915 -9.57816071939809 L -12.1378087176868 -8.81326174979244 L -12.692307195653 -7.99408038234379 L -13.20073387545 -7.12324411694771 L -13.6567158573309 -6.20436085346085 L -14.0542239415353 -5.24201989170084 L -14.387754528282 -4.24175693144772 L -14.6525091177616 -3.20997817244693 L -14.8445590101302 -2.15384551441387 L -14.9609877055038 -1.08112395703999 L -14.9999994039536 0 L -14.9609877055038 1.08112395703999 L -14.8445590101302 2.15384551441387 L -14.6525091177616 3.20997817244693 L -14.387754528282 4.24175693144772 L -14.0542239415353 5.24201989170084 L -13.6567158573309 6.20436085346085 L -13.20073387545 7.12324411694771 L -12.692307195653 7.99408038234379 L -12.1378087176868 8.81326174979244 L -11.5437783412915 9.57816071939809 L -10.9167599662069 10.2870954912276 L -10.2631574921788 10.9392678653126 L -9.58911381896285 11.5346815416529 L -8.9004145463293 12.0740466202205 L -8.20241657406525 12.5586761009631 L -7.49999970197679 12.9903805838087 L -6.7749242307887 13.3828391682138 L -6.00622386133411 13.7450084538224 L -5.19477029357838 14.0717569408386 L -4.34210512746025 14.3577890294727 L -3.45050606288921 14.597739219938 L -2.52304139974334 14.7862857124458 L -1.56360413786795 14.9182815072008 L -0.576923077075137 14.9889006043946 L 0.43145648285546 14.9937930042002 L 1.4552238421746 14.9292433067652 L 2.48738960116002 14.7923249122058 L 3.52040806011155 14.5810394206016 L 4.546331819345 14.2944342319902 L 5.55699457918488 13.9326879463647 L 6.54421303995634 13.4971574636712 L 7.49999970197679 12.9903805838087 L 8.41677466554742 12.4160334066312 L 9.28756443094535 11.7788424319509 L 10.1061771984166 11.0844559595433 L 10.8673464681704 10.3392824891538 L 11.5668343403753 9.55030502050498 L 12.2014920151563 8.72488245330432 L 12.7692772925945 7.87054878725249 L 13.2692302727282 6.99482032205081 L 13.7014128555548 6.10501985740831 L 14.0668197410348 5.20812489304771 L 14.3672660290961 4.31064372871041 L 14.605262619639 3.41852116416017 L 14.7838841125412 2.53707539918568 L 14.9066384076634 1.67096183360194 L 14.9773408048539 0.824163067250702 L 14.9999994039536 0 " />
  </g>
</svg>