<?xml version="1.0" encoding="UTF-8"?>
<svg viewBox="-14.9820576704411 -37.8007623765316 30 41.0601635136831" xmlns="http://www.w3.org/2000/svg" xmlns:xlink="http://www.w3.org/1999/xlink" xmlns:gmsvgsym="http://www.intergraph.com/GeoMedia/svgsym">
  <!-- Creator: SVG Document for Symbols-->
  <path id="LineString2d_1227" style=" stroke-width: 0.0000750000;stroke: #ffffff; fill: none; " d="M -3.25940087885348 3.25940087885348 L -3.27900090083655 -23.6186343974862 L -12.294745401505 -19.6045662990305 L -14.9820562381021 -25.6403652630623 L -8.10402630911957 -28.7026615185437 L -14.9820551713891 -31.7649572999305 L -12.294744334792 -37.8007562639622 L 0.0179423499579127 -32.3187949343126 L 12.3306290347078 -37.8007562639622 L 15.0179398713049 -31.7649572999305 L 8.13991100903539 -28.7026615185437 L 15.0179408194943 -25.6403652630623 L 12.3306299828971 -19.6045662990305 L 3.25940087885348 -23.6186343974862 L 3.25940087885348 -3.25940087885348 L 10.9634393197799 -3.25940087885348 L 10.9634393197799 3.25940087885348 L -3.25940087885348 3.25940087885348 " xmlns="http://www.w3.org/2000/svg" />
  <g id="ComplexString2d_1228" style=" fill-rule: evenodd; stroke-width: 0.0000000000;stroke: #ffffff; fill: #ffffff; " xmlns="http://www.w3.org/2000/svg">
    <path d="M -3.25940087885348 3.25940087885348 L -3.27900090083655 -23.6186343974862 L -12.294745401505 -19.6045662990305 L -14.9820562381021 -25.6403652630623 L -8.10402630911957 -28.7026615185437 L -14.9820551713891 -31.7649572999305 L -12.294744334792 -37.8007562639622 L 0.0179423499579127 -32.3187949343126 L 12.3306290347078 -37.8007562639622 L 15.0179398713049 -31.7649572999305 L 8.13991100903539 -28.7026615185437 L 15.0179408194943 -25.6403652630623 L 12.3306299828971 -19.6045662990305 L 3.25940087885348 -23.6186343974862 L 3.25940087885348 -3.25940087885348 L 10.9634393197799 -3.25940087885348 L 10.9634393197799 3.25940087885348 L -3.25940087885348 3.25940087885348 " />
  </g>
</svg>